<svg class="main-svg" xmlns="http://www.w3.org/2000/svg" xmlns:xlink="http://www.w3.org/1999/xlink" width="600" height="400" viewBox="0 0 600 400"><rect x="0" y="0" width="600" height="400" style="fill: rgb(250, 240, 230); fill-opacity: 1;"/><defs id="defs-00b771"><g class="clips"><clipPath id="clip00b771xyplot" class="plotclip"><rect width="528.662489063867" height="311.6633858267717"/></clipPath><clipPath class="axesclip" id="clip00b771x"><rect x="53.49236657917759" y="0" width="528.662489063867" height="400"/></clipPath><clipPath class="axesclip" id="clip00b771y"><rect x="0" y="41.04330708661415" width="600" height="311.6633858267717"/></clipPath><clipPath class="axesclip" id="clip00b771xy"><rect x="53.49236657917759" y="41.04330708661415" width="528.662489063867" height="311.6633858267717"/></clipPath></g><g class="gradients"/></defs><g class="bglayer"><rect class="bg" x="53.49236657917759" y="41.04330708661415" width="528.662489063867" height="311.6633858267717" style="fill: rgb(250, 240, 230); fill-opacity: 1; stroke-width: 0;"/></g><g class="layer-below"><g class="imagelayer"/><g class="shapelayer"/></g><g class="cartesianlayer"><g class="subplot xy"><g class="layer-subplot"><g class="shapelayer"/><g class="imagelayer"/></g><g class="gridlayer"><g class="x"/><g class="y"/></g><g class="zerolinelayer"/><path class="xlines-below"/><path class="ylines-below"/><g class="overlines-below"/><g class="xaxislayer-below"/><g class="yaxislayer-below"/><g class="overaxes-below"/><g class="plot" transform="translate(53.49236657917759, 41.04330708661415)" clip-path="url(#clip00b771xyplot)"><g class="scatterlayer mlayer"><g class="trace scatter trace565af5" style="stroke-miterlimit: 2;"><path class="js-fill js-tozero" d="M15.33,311.66L15.33,311.66L15.33,311.2L15.33,311.66L21.68,311.66L21.68,311.2L15.33,311.2" style="fill: rgb(61, 218, 215); fill-opacity: 1; stroke-width: 0;"/><path class="js-line" d="M15.33,311.2L15.33,311.66L21.68,311.66L21.68,311.2L15.33,311.2" style="vector-effect: non-scaling-stroke; fill: none; stroke: rgb(0, 0, 0); stroke-opacity: 0; stroke-width: 1px; opacity: 1;"/><g class="points"/></g><g class="trace scatter trace992ede" style="stroke-miterlimit: 2;"><path class="js-fill js-tozero" d="M40,311.66L40,311.66L40,309.04L40,311.66L46.35,311.66L46.35,309.04L40,309.04" style="fill: rgb(61, 218, 215); fill-opacity: 1; stroke-width: 0;"/><path class="js-line" d="M40,309.04L40,311.66L46.35,311.66L46.35,309.04L40,309.04" style="vector-effect: non-scaling-stroke; fill: none; stroke: rgb(0, 0, 0); stroke-opacity: 0; stroke-width: 1px; opacity: 1;"/><g class="points"/></g><g class="trace scatter trace07b7c9" style="stroke-miterlimit: 2;"><path class="js-fill js-tozero" d="M64.67,311.66L64.67,311.66L64.67,304.32L64.67,311.66L71.02,311.66L71.02,304.32L64.67,304.32" style="fill: rgb(61, 218, 215); fill-opacity: 1; stroke-width: 0;"/><path class="js-line" d="M64.67,304.32L64.67,311.66L71.02,311.66L71.02,304.32L64.67,304.32" style="vector-effect: non-scaling-stroke; fill: none; stroke: rgb(0, 0, 0); stroke-opacity: 0; stroke-width: 1px; opacity: 1;"/><g class="points"/></g><g class="trace scatter trace5bfa3f" style="stroke-miterlimit: 2;"><path class="js-fill js-tozero" d="M89.34,311.66L89.34,311.66L89.34,294.67L89.34,311.66L95.69,311.66L95.69,294.67L89.34,294.67" style="fill: rgb(61, 218, 215); fill-opacity: 1; stroke-width: 0;"/><path class="js-line" d="M89.34,294.67L89.34,311.66L95.69,311.66L95.69,294.67L89.34,294.67" style="vector-effect: non-scaling-stroke; fill: none; stroke: rgb(0, 0, 0); stroke-opacity: 0; stroke-width: 1px; opacity: 1;"/><g class="points"/></g><g class="trace scatter traceac5e29" style="stroke-miterlimit: 2;"><path class="js-fill js-tozero" d="M114.01,311.66L114.01,311.66L114.01,279.45L114.01,311.66L120.36,311.66L120.36,279.45L114.01,279.45" style="fill: rgb(61, 218, 215); fill-opacity: 1; stroke-width: 0;"/><path class="js-line" d="M114.01,279.45L114.01,311.66L120.36,311.66L120.36,279.45L114.01,279.45" style="vector-effect: non-scaling-stroke; fill: none; stroke: rgb(0, 0, 0); stroke-opacity: 0; stroke-width: 1px; opacity: 1;"/><g class="points"/></g><g class="trace scatter trace28717c" style="stroke-miterlimit: 2;"><path class="js-fill js-tozero" d="M138.69,311.66L138.69,311.66L138.69,256.64L138.69,311.66L145.03,311.66L145.03,256.64L138.69,256.64" style="fill: rgb(61, 218, 215); fill-opacity: 1; stroke-width: 0;"/><path class="js-line" d="M138.69,256.64L138.69,311.66L145.03,311.66L145.03,256.64L138.69,256.64" style="vector-effect: non-scaling-stroke; fill: none; stroke: rgb(0, 0, 0); stroke-opacity: 0; stroke-width: 1px; opacity: 1;"/><g class="points"/></g><g class="trace scatter trace63b3ba" style="stroke-miterlimit: 2;"><path class="js-fill js-tozero" d="M163.36,311.66L163.36,311.66L163.36,221.86L163.36,311.66L169.7,311.66L169.7,221.86L163.36,221.86" style="fill: rgb(61, 218, 215); fill-opacity: 1; stroke-width: 0;"/><path class="js-line" d="M163.36,221.86L163.36,311.66L169.7,311.66L169.7,221.86L163.36,221.86" style="vector-effect: non-scaling-stroke; fill: none; stroke: rgb(0, 0, 0); stroke-opacity: 0; stroke-width: 1px; opacity: 1;"/><g class="points"/></g><g class="trace scatter tracecfb3f2" style="stroke-miterlimit: 2;"><path class="js-fill js-tozero" d="M188.03,311.66L188.03,311.66L188.03,177.27L188.03,311.66L194.37,311.66L194.37,177.27L188.03,177.27" style="fill: rgb(61, 218, 215); fill-opacity: 1; stroke-width: 0;"/><path class="js-line" d="M188.03,177.27L188.03,311.66L194.37,311.66L194.37,177.27L188.03,177.27" style="vector-effect: non-scaling-stroke; fill: none; stroke: rgb(0, 0, 0); stroke-opacity: 0; stroke-width: 1px; opacity: 1;"/><g class="points"/></g><g class="trace scatter tracefd6c88" style="stroke-miterlimit: 2;"><path class="js-fill js-tozero" d="M212.7,311.66L212.7,311.66L212.7,149.57L212.7,311.66L219.04,311.66L219.04,149.57L212.7,149.57" style="fill: rgb(61, 218, 215); fill-opacity: 1; stroke-width: 0;"/><path class="js-line" d="M212.7,149.57L212.7,311.66L219.04,311.66L219.04,149.57L212.7,149.57" style="vector-effect: non-scaling-stroke; fill: none; stroke: rgb(0, 0, 0); stroke-opacity: 0; stroke-width: 1px; opacity: 1;"/><g class="points"/></g><g class="trace scatter tracee98bf1" style="stroke-miterlimit: 2;"><path class="js-fill js-tozero" d="M237.37,311.66L237.37,311.66L237.37,136.12L237.37,311.66L243.71,311.66L243.71,136.12L237.37,136.12" style="fill: rgb(61, 218, 215); fill-opacity: 1; stroke-width: 0;"/><path class="js-line" d="M237.37,136.12L237.37,311.66L243.71,311.66L243.71,136.12L237.37,136.12" style="vector-effect: non-scaling-stroke; fill: none; stroke: rgb(0, 0, 0); stroke-opacity: 0; stroke-width: 1px; opacity: 1;"/><g class="points"/></g><g class="trace scatter traceead2be" style="stroke-miterlimit: 2;"><path class="js-fill js-tozero" d="M262.04,311.66L262.04,311.66L262.04,148.87L262.04,311.66L268.38,311.66L268.38,148.87L262.04,148.87" style="fill: rgb(61, 218, 215); fill-opacity: 1; stroke-width: 0;"/><path class="js-line" d="M262.04,148.87L262.04,311.66L268.38,311.66L268.38,148.87L262.04,148.87" style="vector-effect: non-scaling-stroke; fill: none; stroke: rgb(0, 0, 0); stroke-opacity: 0; stroke-width: 1px; opacity: 1;"/><g class="points"/></g><g class="trace scatter trace3811d2" style="stroke-miterlimit: 2;"><path class="js-fill js-tozero" d="M286.71,311.66L286.71,311.66L286.71,183.25L286.71,311.66L293.06,311.66L293.06,183.25L286.71,183.25" style="fill: rgb(61, 218, 215); fill-opacity: 1; stroke-width: 0;"/><path class="js-line" d="M286.71,183.25L286.71,311.66L293.06,311.66L293.06,183.25L286.71,183.25" style="vector-effect: non-scaling-stroke; fill: none; stroke: rgb(0, 0, 0); stroke-opacity: 0; stroke-width: 1px; opacity: 1;"/><g class="points"/></g><g class="trace scatter tracee72b84" style="stroke-miterlimit: 2;"><path class="js-fill js-tozero" d="M311.38,311.66L311.38,311.66L311.38,217.23L311.38,311.66L317.73,311.66L317.73,217.23L311.38,217.23" style="fill: rgb(61, 218, 215); fill-opacity: 1; stroke-width: 0;"/><path class="js-line" d="M311.38,217.23L311.38,311.66L317.73,311.66L317.73,217.23L311.38,217.23" style="vector-effect: non-scaling-stroke; fill: none; stroke: rgb(0, 0, 0); stroke-opacity: 0; stroke-width: 1px; opacity: 1;"/><g class="points"/></g><g class="trace scatter trace43dedb" style="stroke-miterlimit: 2;"><path class="js-fill js-tozero" d="M336.05,311.66L336.05,311.66L336.05,240.52L336.05,311.66L342.4,311.66L342.4,240.52L336.05,240.52" style="fill: rgb(61, 218, 215); fill-opacity: 1; stroke-width: 0;"/><path class="js-line" d="M336.05,240.52L336.05,311.66L342.4,311.66L342.4,240.52L336.05,240.52" style="vector-effect: non-scaling-stroke; fill: none; stroke: rgb(0, 0, 0); stroke-opacity: 0; stroke-width: 1px; opacity: 1;"/><g class="points"/></g><g class="trace scatter trace9498f8" style="stroke-miterlimit: 2;"><path class="js-fill js-tozero" d="M360.72,311.66L360.72,311.66L360.72,266.59L360.72,311.66L367.07,311.66L367.07,266.59L360.72,266.59" style="fill: rgb(61, 218, 215); fill-opacity: 1; stroke-width: 0;"/><path class="js-line" d="M360.72,266.59L360.72,311.66L367.07,311.66L367.07,266.59L360.72,266.59" style="vector-effect: non-scaling-stroke; fill: none; stroke: rgb(0, 0, 0); stroke-opacity: 0; stroke-width: 1px; opacity: 1;"/><g class="points"/></g><g class="trace scatter trace914e22" style="stroke-miterlimit: 2;"><path class="js-fill js-tozero" d="M385.39,311.66L385.39,311.66L385.39,281.35L385.39,311.66L391.74,311.66L391.74,281.35L385.39,281.35" style="fill: rgb(61, 218, 215); fill-opacity: 1; stroke-width: 0;"/><path class="js-line" d="M385.39,281.35L385.39,311.66L391.74,311.66L391.74,281.35L385.39,281.35" style="vector-effect: non-scaling-stroke; fill: none; stroke: rgb(0, 0, 0); stroke-opacity: 0; stroke-width: 1px; opacity: 1;"/><g class="points"/></g><g class="trace scatter traceafe619" style="stroke-miterlimit: 2;"><path class="js-fill js-tozero" d="M410.07,311.66L410.07,311.66L410.07,293.85L410.07,311.66L416.41,311.66L416.41,293.85L410.07,293.85" style="fill: rgb(61, 218, 215); fill-opacity: 1; stroke-width: 0;"/><path class="js-line" d="M410.07,293.85L410.07,311.66L416.41,311.66L416.41,293.85L410.07,293.85" style="vector-effect: non-scaling-stroke; fill: none; stroke: rgb(0, 0, 0); stroke-opacity: 0; stroke-width: 1px; opacity: 1;"/><g class="points"/></g><g class="trace scatter trace9abc65" style="stroke-miterlimit: 2;"><path class="js-fill js-tozero" d="M434.74,311.66L434.74,311.66L434.74,301.36L434.74,311.66L441.08,311.66L441.08,301.36L434.74,301.36" style="fill: rgb(61, 218, 215); fill-opacity: 1; stroke-width: 0;"/><path class="js-line" d="M434.74,301.36L434.74,311.66L441.08,311.66L441.08,301.36L434.74,301.36" style="vector-effect: non-scaling-stroke; fill: none; stroke: rgb(0, 0, 0); stroke-opacity: 0; stroke-width: 1px; opacity: 1;"/><g class="points"/></g><g class="trace scatter trace79c2a7" style="stroke-miterlimit: 2;"><path class="js-fill js-tozero" d="M459.41,311.66L459.41,311.66L459.41,306.04L459.41,311.66L465.75,311.66L465.75,306.04L459.41,306.04" style="fill: rgb(61, 218, 215); fill-opacity: 1; stroke-width: 0;"/><path class="js-line" d="M459.41,306.04L459.41,311.66L465.75,311.66L465.75,306.04L459.41,306.04" style="vector-effect: non-scaling-stroke; fill: none; stroke: rgb(0, 0, 0); stroke-opacity: 0; stroke-width: 1px; opacity: 1;"/><g class="points"/></g><g class="trace scatter trace1906f6" style="stroke-miterlimit: 2;"><path class="js-fill js-tozero" d="M484.08,311.66L484.08,311.66L484.08,309.2L484.08,311.66L490.42,311.66L490.42,309.2L484.08,309.2" style="fill: rgb(61, 218, 215); fill-opacity: 1; stroke-width: 0;"/><path class="js-line" d="M484.08,309.2L484.08,311.66L490.42,311.66L490.42,309.2L484.08,309.2" style="vector-effect: non-scaling-stroke; fill: none; stroke: rgb(0, 0, 0); stroke-opacity: 0; stroke-width: 1px; opacity: 1;"/><g class="points"/></g><g class="trace scatter tracedf8f88" style="stroke-miterlimit: 2;"><path class="js-fill js-tozero" d="M508.75,311.66L508.75,311.66L508.75,309.88L508.75,311.66L515.09,311.66L515.09,309.88L508.75,309.88" style="fill: rgb(61, 218, 215); fill-opacity: 1; stroke-width: 0;"/><path class="js-line" d="M508.75,309.88L508.75,311.66L515.09,311.66L515.09,309.88L508.75,309.88" style="vector-effect: non-scaling-stroke; fill: none; stroke: rgb(0, 0, 0); stroke-opacity: 0; stroke-width: 1px; opacity: 1;"/><g class="points"/></g><g class="trace scatter trace477c70" style="stroke-miterlimit: 2;"><path class="js-fill js-tozero" d="M9.16,311.66L9.16,311.66L9.16,306.27L9.16,311.66L15.51,311.66L15.51,306.27L9.16,306.27" style="fill: rgb(42, 147, 213); fill-opacity: 1; stroke-width: 0;"/><path class="js-line" d="M9.16,306.27L9.16,311.66L15.51,311.66L15.51,306.27L9.16,306.27" style="vector-effect: non-scaling-stroke; fill: none; stroke: rgb(0, 0, 0); stroke-opacity: 0; stroke-width: 1px; opacity: 1;"/><g class="points"/></g><g class="trace scatter trace5cfac0" style="stroke-miterlimit: 2;"><path class="js-fill js-tozero" d="M33.83,311.66L33.83,311.66L33.83,292.67L33.83,311.66L40.18,311.66L40.18,292.67L33.83,292.67" style="fill: rgb(42, 147, 213); fill-opacity: 1; stroke-width: 0;"/><path class="js-line" d="M33.83,292.67L33.83,311.66L40.18,311.66L40.18,292.67L33.83,292.67" style="vector-effect: non-scaling-stroke; fill: none; stroke: rgb(0, 0, 0); stroke-opacity: 0; stroke-width: 1px; opacity: 1;"/><g class="points"/></g><g class="trace scatter traced12a09" style="stroke-miterlimit: 2;"><path class="js-fill js-tozero" d="M58.51,311.66L58.51,311.66L58.51,249.34L58.51,311.66L64.85,311.66L64.85,249.34L58.51,249.34" style="fill: rgb(42, 147, 213); fill-opacity: 1; stroke-width: 0;"/><path class="js-line" d="M58.51,249.34L58.51,311.66L64.85,311.66L64.85,249.34L58.51,249.34" style="vector-effect: non-scaling-stroke; fill: none; stroke: rgb(0, 0, 0); stroke-opacity: 0; stroke-width: 1px; opacity: 1;"/><g class="points"/></g><g class="trace scatter trace768df5" style="stroke-miterlimit: 2;"><path class="js-fill js-tozero" d="M83.18,311.66L83.18,311.66L83.18,199.56L83.18,311.66L89.52,311.66L89.52,199.56L83.18,199.56" style="fill: rgb(42, 147, 213); fill-opacity: 1; stroke-width: 0;"/><path class="js-line" d="M83.18,199.56L83.18,311.66L89.52,311.66L89.52,199.56L83.18,199.56" style="vector-effect: non-scaling-stroke; fill: none; stroke: rgb(0, 0, 0); stroke-opacity: 0; stroke-width: 1px; opacity: 1;"/><g class="points"/></g><g class="trace scatter tracee65e41" style="stroke-miterlimit: 2;"><path class="js-fill js-tozero" d="M107.85,311.66L107.85,311.66L107.85,123.35L107.85,311.66L114.19,311.66L114.19,123.35L107.85,123.35" style="fill: rgb(42, 147, 213); fill-opacity: 1; stroke-width: 0;"/><path class="js-line" d="M107.85,123.35L107.85,311.66L114.19,311.66L114.19,123.35L107.85,123.35" style="vector-effect: non-scaling-stroke; fill: none; stroke: rgb(0, 0, 0); stroke-opacity: 0; stroke-width: 1px; opacity: 1;"/><g class="points"/></g><g class="trace scatter traceef8304" style="stroke-miterlimit: 2;"><path class="js-fill js-tozero" d="M132.52,311.66L132.52,311.66L132.52,83L132.52,311.66L138.86,311.66L138.86,83L132.52,83" style="fill: rgb(42, 147, 213); fill-opacity: 1; stroke-width: 0;"/><path class="js-line" d="M132.52,83L132.52,311.66L138.86,311.66L138.86,83L132.52,83" style="vector-effect: non-scaling-stroke; fill: none; stroke: rgb(0, 0, 0); stroke-opacity: 0; stroke-width: 1px; opacity: 1;"/><g class="points"/></g><g class="trace scatter traced51297" style="stroke-miterlimit: 2;"><path class="js-fill js-tozero" d="M157.19,311.66L157.19,311.66L157.19,93.62L157.19,311.66L163.53,311.66L163.53,93.62L157.19,93.62" style="fill: rgb(42, 147, 213); fill-opacity: 1; stroke-width: 0;"/><path class="js-line" d="M157.19,93.62L157.19,311.66L163.53,311.66L163.53,93.62L157.19,93.62" style="vector-effect: non-scaling-stroke; fill: none; stroke: rgb(0, 0, 0); stroke-opacity: 0; stroke-width: 1px; opacity: 1;"/><g class="points"/></g><g class="trace scatter tracee11d84" style="stroke-miterlimit: 2;"><path class="js-fill js-tozero" d="M181.86,311.66L181.86,311.66L181.86,128.55L181.86,311.66L188.2,311.66L188.2,128.55L181.86,128.55" style="fill: rgb(42, 147, 213); fill-opacity: 1; stroke-width: 0;"/><path class="js-line" d="M181.86,128.55L181.86,311.66L188.2,311.66L188.2,128.55L181.86,128.55" style="vector-effect: non-scaling-stroke; fill: none; stroke: rgb(0, 0, 0); stroke-opacity: 0; stroke-width: 1px; opacity: 1;"/><g class="points"/></g><g class="trace scatter trace228895" style="stroke-miterlimit: 2;"><path class="js-fill js-tozero" d="M206.53,311.66L206.53,311.66L206.53,196.27L206.53,311.66L212.87,311.66L212.87,196.27L206.53,196.27" style="fill: rgb(42, 147, 213); fill-opacity: 1; stroke-width: 0;"/><path class="js-line" d="M206.53,196.27L206.53,311.66L212.87,311.66L212.87,196.27L206.53,196.27" style="vector-effect: non-scaling-stroke; fill: none; stroke: rgb(0, 0, 0); stroke-opacity: 0; stroke-width: 1px; opacity: 1;"/><g class="points"/></g><g class="trace scatter trace8421e4" style="stroke-miterlimit: 2;"><path class="js-fill js-tozero" d="M231.2,311.66L231.2,311.66L231.2,248.2L231.2,311.66L237.55,311.66L237.55,248.2L231.2,248.2" style="fill: rgb(42, 147, 213); fill-opacity: 1; stroke-width: 0;"/><path class="js-line" d="M231.2,248.2L231.2,311.66L237.55,311.66L237.55,248.2L231.2,248.2" style="vector-effect: non-scaling-stroke; fill: none; stroke: rgb(0, 0, 0); stroke-opacity: 0; stroke-width: 1px; opacity: 1;"/><g class="points"/></g><g class="trace scatter trace1d518c" style="stroke-miterlimit: 2;"><path class="js-fill js-tozero" d="M255.87,311.66L255.87,311.66L255.87,280.31L255.87,311.66L262.22,311.66L262.22,280.31L255.87,280.31" style="fill: rgb(42, 147, 213); fill-opacity: 1; stroke-width: 0;"/><path class="js-line" d="M255.87,280.31L255.87,311.66L262.22,311.66L262.22,280.31L255.87,280.31" style="vector-effect: non-scaling-stroke; fill: none; stroke: rgb(0, 0, 0); stroke-opacity: 0; stroke-width: 1px; opacity: 1;"/><g class="points"/></g><g class="trace scatter trace5901c6" style="stroke-miterlimit: 2;"><path class="js-fill js-tozero" d="M280.54,311.66L280.54,311.66L280.54,299.33L280.54,311.66L286.89,311.66L286.89,299.33L280.54,299.33" style="fill: rgb(42, 147, 213); fill-opacity: 1; stroke-width: 0;"/><path class="js-line" d="M280.54,299.33L280.54,311.66L286.89,311.66L286.89,299.33L280.54,299.33" style="vector-effect: non-scaling-stroke; fill: none; stroke: rgb(0, 0, 0); stroke-opacity: 0; stroke-width: 1px; opacity: 1;"/><g class="points"/></g><g class="trace scatter tracede062d" style="stroke-miterlimit: 2;"><path class="js-fill js-tozero" d="M305.21,311.66L305.21,311.66L305.21,307.21L305.21,311.66L311.56,311.66L311.56,307.21L305.21,307.21" style="fill: rgb(42, 147, 213); fill-opacity: 1; stroke-width: 0;"/><path class="js-line" d="M305.21,307.21L305.21,311.66L311.56,311.66L311.56,307.21L305.21,307.21" style="vector-effect: non-scaling-stroke; fill: none; stroke: rgb(0, 0, 0); stroke-opacity: 0; stroke-width: 1px; opacity: 1;"/><g class="points"/></g><g class="trace scatter traceea3b9b" style="stroke-miterlimit: 2;"><path class="js-fill js-tozero" d="M329.89,311.66L329.89,311.66L329.89,309.62L329.89,311.66L336.23,311.66L336.23,309.62L329.89,309.62" style="fill: rgb(42, 147, 213); fill-opacity: 1; stroke-width: 0;"/><path class="js-line" d="M329.89,309.62L329.89,311.66L336.23,311.66L336.23,309.62L329.89,309.62" style="vector-effect: non-scaling-stroke; fill: none; stroke: rgb(0, 0, 0); stroke-opacity: 0; stroke-width: 1px; opacity: 1;"/><g class="points"/></g><g class="trace scatter tracee35fe1" style="stroke-miterlimit: 2;"><path class="js-fill js-tozero" d="M354.56,311.66L354.56,311.66L354.56,311.3L354.56,311.66L360.9,311.66L360.9,311.3L354.56,311.3" style="fill: rgb(42, 147, 213); fill-opacity: 1; stroke-width: 0;"/><path class="js-line" d="M354.56,311.3L354.56,311.66L360.9,311.66L360.9,311.3L354.56,311.3" style="vector-effect: non-scaling-stroke; fill: none; stroke: rgb(0, 0, 0); stroke-opacity: 0; stroke-width: 1px; opacity: 1;"/><g class="points"/></g><g class="trace scatter traceeefa2c" style="stroke-miterlimit: 2;"><path class="js-fill js-tozero" d="M379.23,311.66L379.23,311.66L379.23,311.66L385.57,311.66L379.23,311.66" style="fill: rgb(42, 147, 213); fill-opacity: 1; stroke-width: 0;"/><path class="js-line" d="M379.23,311.66L385.57,311.66L379.23,311.66" style="vector-effect: non-scaling-stroke; fill: none; stroke: rgb(0, 0, 0); stroke-opacity: 0; stroke-width: 1px; opacity: 1;"/><g class="points"/></g><g class="trace scatter trace8d8537" style="stroke-miterlimit: 2;"><path class="js-fill js-tozero" d="M403.9,311.66L403.9,311.66L403.9,311.38L403.9,311.66L410.24,311.66L410.24,311.38L403.9,311.38" style="fill: rgb(42, 147, 213); fill-opacity: 1; stroke-width: 0;"/><path class="js-line" d="M403.9,311.38L403.9,311.66L410.24,311.66L410.24,311.38L403.9,311.38" style="vector-effect: non-scaling-stroke; fill: none; stroke: rgb(0, 0, 0); stroke-opacity: 0; stroke-width: 1px; opacity: 1;"/><g class="points"/></g><g class="trace scatter tracef95fe7" style="stroke-miterlimit: 2;"><path class="js-fill js-tozero" d="M428.57,311.66L428.57,311.66L428.57,311.66L434.91,311.66L428.57,311.66" style="fill: rgb(42, 147, 213); fill-opacity: 1; stroke-width: 0;"/><path class="js-line" d="M428.57,311.66L434.91,311.66L428.57,311.66" style="vector-effect: non-scaling-stroke; fill: none; stroke: rgb(0, 0, 0); stroke-opacity: 0; stroke-width: 1px; opacity: 1;"/><g class="points"/></g><g class="trace scatter trace4cb745" style="stroke-miterlimit: 2;"><path class="js-fill js-tozero" d="M453.24,311.66L453.24,311.66L453.24,311.66L459.58,311.66L453.24,311.66" style="fill: rgb(42, 147, 213); fill-opacity: 1; stroke-width: 0;"/><path class="js-line" d="M453.24,311.66L459.58,311.66L453.24,311.66" style="vector-effect: non-scaling-stroke; fill: none; stroke: rgb(0, 0, 0); stroke-opacity: 0; stroke-width: 1px; opacity: 1;"/><g class="points"/></g><g class="trace scatter trace52445a" style="stroke-miterlimit: 2;"><path class="js-fill js-tozero" d="M477.91,311.66L477.91,311.66L477.91,311.66L484.25,311.66L477.91,311.66" style="fill: rgb(42, 147, 213); fill-opacity: 1; stroke-width: 0;"/><path class="js-line" d="M477.91,311.66L484.25,311.66L477.91,311.66" style="vector-effect: non-scaling-stroke; fill: none; stroke: rgb(0, 0, 0); stroke-opacity: 0; stroke-width: 1px; opacity: 1;"/><g class="points"/></g><g class="trace scatter traceec7a70" style="stroke-miterlimit: 2;"><path class="js-fill js-tozero" d="M502.58,311.66L502.58,311.66L502.58,311.66L508.93,311.66L502.58,311.66" style="fill: rgb(42, 147, 213); fill-opacity: 1; stroke-width: 0;"/><path class="js-line" d="M502.58,311.66L508.93,311.66L502.58,311.66" style="vector-effect: non-scaling-stroke; fill: none; stroke: rgb(0, 0, 0); stroke-opacity: 0; stroke-width: 1px; opacity: 1;"/><g class="points"/></g><g class="trace scatter tracec9f09a" style="stroke-miterlimit: 2;"><path class="js-fill js-tozero" d="M3,311.66L3,311.66L3,301.25L3,311.66L9.34,311.66L9.34,301.25L3,301.25" style="fill: rgb(109, 19, 139); fill-opacity: 1; stroke-width: 0;"/><path class="js-line" d="M3,301.25L3,311.66L9.34,311.66L9.34,301.25L3,301.25" style="vector-effect: non-scaling-stroke; fill: none; stroke: rgb(0, 0, 0); stroke-opacity: 0; stroke-width: 1px; opacity: 1;"/><g class="points"/></g><g class="trace scatter trace0b568b" style="stroke-miterlimit: 2;"><path class="js-fill js-tozero" d="M27.67,311.66L27.67,311.66L27.67,262.74L27.67,311.66L34.01,311.66L34.01,262.74L27.67,262.74" style="fill: rgb(109, 19, 139); fill-opacity: 1; stroke-width: 0;"/><path class="js-line" d="M27.67,262.74L27.67,311.66L34.01,311.66L34.01,262.74L27.67,262.74" style="vector-effect: non-scaling-stroke; fill: none; stroke: rgb(0, 0, 0); stroke-opacity: 0; stroke-width: 1px; opacity: 1;"/><g class="points"/></g><g class="trace scatter trace4d8439" style="stroke-miterlimit: 2;"><path class="js-fill js-tozero" d="M52.34,311.66L52.34,311.66L52.34,169.19L52.34,311.66L58.68,311.66L58.68,169.19L52.34,169.19" style="fill: rgb(109, 19, 139); fill-opacity: 1; stroke-width: 0;"/><path class="js-line" d="M52.34,169.19L52.34,311.66L58.68,311.66L58.68,169.19L52.34,169.19" style="vector-effect: non-scaling-stroke; fill: none; stroke: rgb(0, 0, 0); stroke-opacity: 0; stroke-width: 1px; opacity: 1;"/><g class="points"/></g><g class="trace scatter traced27d10" style="stroke-miterlimit: 2;"><path class="js-fill js-tozero" d="M77.01,311.66L77.01,311.66L77.01,55.46L77.01,311.66L83.35,311.66L83.35,55.46L77.01,55.46" style="fill: rgb(109, 19, 139); fill-opacity: 1; stroke-width: 0;"/><path class="js-line" d="M77.01,55.46L77.01,311.66L83.35,311.66L83.35,55.46L77.01,55.46" style="vector-effect: non-scaling-stroke; fill: none; stroke: rgb(0, 0, 0); stroke-opacity: 0; stroke-width: 1px; opacity: 1;"/><g class="points"/></g><g class="trace scatter trace493c7c" style="stroke-miterlimit: 2;"><path class="js-fill js-tozero" d="M101.68,311.66L101.68,311.66L101.68,30.6L101.68,311.66L108.02,311.66L108.02,30.6L101.68,30.6" style="fill: rgb(109, 19, 139); fill-opacity: 1; stroke-width: 0;"/><path class="js-line" d="M101.68,30.6L101.68,311.66L108.02,311.66L108.02,30.6L101.68,30.6" style="vector-effect: non-scaling-stroke; fill: none; stroke: rgb(0, 0, 0); stroke-opacity: 0; stroke-width: 1px; opacity: 1;"/><g class="points"/></g><g class="trace scatter trace1ec8b4" style="stroke-miterlimit: 2;"><path class="js-fill js-tozero" d="M126.35,311.66L126.35,311.66L126.35,77.8L126.35,311.66L132.69,311.66L132.69,77.8L126.35,77.8" style="fill: rgb(109, 19, 139); fill-opacity: 1; stroke-width: 0;"/><path class="js-line" d="M126.35,77.8L126.35,311.66L132.69,311.66L132.69,77.8L126.35,77.8" style="vector-effect: non-scaling-stroke; fill: none; stroke: rgb(0, 0, 0); stroke-opacity: 0; stroke-width: 1px; opacity: 1;"/><g class="points"/></g><g class="trace scatter trace21d056" style="stroke-miterlimit: 2;"><path class="js-fill js-tozero" d="M151.02,311.66L151.02,311.66L151.02,165.49L151.02,311.66L157.37,311.66L157.37,165.49L151.02,165.49" style="fill: rgb(109, 19, 139); fill-opacity: 1; stroke-width: 0;"/><path class="js-line" d="M151.02,165.49L151.02,311.66L157.37,311.66L157.37,165.49L151.02,165.49" style="vector-effect: non-scaling-stroke; fill: none; stroke: rgb(0, 0, 0); stroke-opacity: 0; stroke-width: 1px; opacity: 1;"/><g class="points"/></g><g class="trace scatter tracee834e4" style="stroke-miterlimit: 2;"><path class="js-fill js-tozero" d="M175.69,311.66L175.69,311.66L175.69,235.36L175.69,311.66L182.04,311.66L182.04,235.36L175.69,235.36" style="fill: rgb(109, 19, 139); fill-opacity: 1; stroke-width: 0;"/><path class="js-line" d="M175.69,235.36L175.69,311.66L182.04,311.66L182.04,235.36L175.69,235.36" style="vector-effect: non-scaling-stroke; fill: none; stroke: rgb(0, 0, 0); stroke-opacity: 0; stroke-width: 1px; opacity: 1;"/><g class="points"/></g><g class="trace scatter trace5ef0cb" style="stroke-miterlimit: 2;"><path class="js-fill js-tozero" d="M200.36,311.66L200.36,311.66L200.36,278.65L200.36,311.66L206.71,311.66L206.71,278.65L200.36,278.65" style="fill: rgb(109, 19, 139); fill-opacity: 1; stroke-width: 0;"/><path class="js-line" d="M200.36,278.65L200.36,311.66L206.71,311.66L206.71,278.65L200.36,278.65" style="vector-effect: non-scaling-stroke; fill: none; stroke: rgb(0, 0, 0); stroke-opacity: 0; stroke-width: 1px; opacity: 1;"/><g class="points"/></g><g class="trace scatter trace01b4bd" style="stroke-miterlimit: 2;"><path class="js-fill js-tozero" d="M225.03,311.66L225.03,311.66L225.03,300.02L225.03,311.66L231.38,311.66L231.38,300.02L225.03,300.02" style="fill: rgb(109, 19, 139); fill-opacity: 1; stroke-width: 0;"/><path class="js-line" d="M225.03,300.02L225.03,311.66L231.38,311.66L231.38,300.02L225.03,300.02" style="vector-effect: non-scaling-stroke; fill: none; stroke: rgb(0, 0, 0); stroke-opacity: 0; stroke-width: 1px; opacity: 1;"/><g class="points"/></g><g class="trace scatter trace4e726d" style="stroke-miterlimit: 2;"><path class="js-fill js-tozero" d="M249.7,311.66L249.7,311.66L249.7,307.96L249.7,311.66L256.05,311.66L256.05,307.96L249.7,307.96" style="fill: rgb(109, 19, 139); fill-opacity: 1; stroke-width: 0;"/><path class="js-line" d="M249.7,307.96L249.7,311.66L256.05,311.66L256.05,307.96L249.7,307.96" style="vector-effect: non-scaling-stroke; fill: none; stroke: rgb(0, 0, 0); stroke-opacity: 0; stroke-width: 1px; opacity: 1;"/><g class="points"/></g><g class="trace scatter trace6f52ab" style="stroke-miterlimit: 2;"><path class="js-fill js-tozero" d="M274.38,311.66L274.38,311.66L274.38,309.72L274.38,311.66L280.72,311.66L280.72,309.72L274.38,309.72" style="fill: rgb(109, 19, 139); fill-opacity: 1; stroke-width: 0;"/><path class="js-line" d="M274.38,309.72L274.38,311.66L280.72,311.66L280.72,309.72L274.38,309.72" style="vector-effect: non-scaling-stroke; fill: none; stroke: rgb(0, 0, 0); stroke-opacity: 0; stroke-width: 1px; opacity: 1;"/><g class="points"/></g><g class="trace scatter tracebea198" style="stroke-miterlimit: 2;"><path class="js-fill js-tozero" d="M299.05,311.66L299.05,311.66L299.05,311.16L299.05,311.66L305.39,311.66L305.39,311.16L299.05,311.16" style="fill: rgb(109, 19, 139); fill-opacity: 1; stroke-width: 0;"/><path class="js-line" d="M299.05,311.16L299.05,311.66L305.39,311.66L305.39,311.16L299.05,311.16" style="vector-effect: non-scaling-stroke; fill: none; stroke: rgb(0, 0, 0); stroke-opacity: 0; stroke-width: 1px; opacity: 1;"/><g class="points"/></g><g class="trace scatter trace688c37" style="stroke-miterlimit: 2;"><path class="js-fill js-tozero" d="M323.72,311.66L323.72,311.66L323.72,311.23L323.72,311.66L330.06,311.66L330.06,311.23L323.72,311.23" style="fill: rgb(109, 19, 139); fill-opacity: 1; stroke-width: 0;"/><path class="js-line" d="M323.72,311.23L323.72,311.66L330.06,311.66L330.06,311.23L323.72,311.23" style="vector-effect: non-scaling-stroke; fill: none; stroke: rgb(0, 0, 0); stroke-opacity: 0; stroke-width: 1px; opacity: 1;"/><g class="points"/></g><g class="trace scatter trace9625fe" style="stroke-miterlimit: 2;"><path class="js-fill js-tozero" d="M348.39,311.66L348.39,311.66L348.39,311.66L354.73,311.66L348.39,311.66" style="fill: rgb(109, 19, 139); fill-opacity: 1; stroke-width: 0;"/><path class="js-line" d="M348.39,311.66L354.73,311.66L348.39,311.66" style="vector-effect: non-scaling-stroke; fill: none; stroke: rgb(0, 0, 0); stroke-opacity: 0; stroke-width: 1px; opacity: 1;"/><g class="points"/></g><g class="trace scatter traceee645d" style="stroke-miterlimit: 2;"><path class="js-fill js-tozero" d="M373.06,311.66L373.06,311.66L373.06,311.66L379.4,311.66L373.06,311.66" style="fill: rgb(109, 19, 139); fill-opacity: 1; stroke-width: 0;"/><path class="js-line" d="M373.06,311.66L379.4,311.66L373.06,311.66" style="vector-effect: non-scaling-stroke; fill: none; stroke: rgb(0, 0, 0); stroke-opacity: 0; stroke-width: 1px; opacity: 1;"/><g class="points"/></g><g class="trace scatter trace6f9838" style="stroke-miterlimit: 2;"><path class="js-fill js-tozero" d="M397.73,311.66L397.73,311.66L397.73,311.66L404.07,311.66L397.73,311.66" style="fill: rgb(109, 19, 139); fill-opacity: 1; stroke-width: 0;"/><path class="js-line" d="M397.73,311.66L404.07,311.66L397.73,311.66" style="vector-effect: non-scaling-stroke; fill: none; stroke: rgb(0, 0, 0); stroke-opacity: 0; stroke-width: 1px; opacity: 1;"/><g class="points"/></g><g class="trace scatter trace611452" style="stroke-miterlimit: 2;"><path class="js-fill js-tozero" d="M422.4,311.66L422.4,311.66L422.4,311.66L428.75,311.66L422.4,311.66" style="fill: rgb(109, 19, 139); fill-opacity: 1; stroke-width: 0;"/><path class="js-line" d="M422.4,311.66L428.75,311.66L422.4,311.66" style="vector-effect: non-scaling-stroke; fill: none; stroke: rgb(0, 0, 0); stroke-opacity: 0; stroke-width: 1px; opacity: 1;"/><g class="points"/></g><g class="trace scatter trace33e4bd" style="stroke-miterlimit: 2;"><path class="js-fill js-tozero" d="M447.07,311.66L447.07,311.66L447.07,311.66L453.42,311.66L447.07,311.66" style="fill: rgb(109, 19, 139); fill-opacity: 1; stroke-width: 0;"/><path class="js-line" d="M447.07,311.66L453.42,311.66L447.07,311.66" style="vector-effect: non-scaling-stroke; fill: none; stroke: rgb(0, 0, 0); stroke-opacity: 0; stroke-width: 1px; opacity: 1;"/><g class="points"/></g><g class="trace scatter trace6ef90b" style="stroke-miterlimit: 2;"><path class="js-fill js-tozero" d="M471.74,311.66L471.74,311.66L471.74,311.66L478.09,311.66L471.74,311.66" style="fill: rgb(109, 19, 139); fill-opacity: 1; stroke-width: 0;"/><path class="js-line" d="M471.74,311.66L478.09,311.66L471.74,311.66" style="vector-effect: non-scaling-stroke; fill: none; stroke: rgb(0, 0, 0); stroke-opacity: 0; stroke-width: 1px; opacity: 1;"/><g class="points"/></g><g class="trace scatter tracee87aa5" style="stroke-miterlimit: 2;"><path class="js-fill js-tozero" d="M496.41,311.66L496.41,311.66L496.41,311.66L502.76,311.66L496.41,311.66" style="fill: rgb(109, 19, 139); fill-opacity: 1; stroke-width: 0;"/><path class="js-line" d="M496.41,311.66L502.76,311.66L496.41,311.66" style="vector-effect: non-scaling-stroke; fill: none; stroke: rgb(0, 0, 0); stroke-opacity: 0; stroke-width: 1px; opacity: 1;"/><g class="points"/></g></g></g><g class="overplot"/><path class="xlines-above crisp" d="M52.49236657917759,353.20669291338584H582.1548556430446" style="fill: none; stroke-width: 1px; stroke: rgb(0, 0, 0); stroke-opacity: 1;"/><path class="ylines-above crisp" d="M52.99236657917759,41.04330708661415V352.70669291338584" style="fill: none; stroke-width: 1px; stroke: rgb(0, 0, 0); stroke-opacity: 1;"/><g class="overlines-above"/><g class="xaxislayer-above"><path class="xtick ticks crisp" d="M0,352.70669291338584v-5" transform="translate(159.2223665791776,0)" style="stroke: rgb(0, 0, 0); stroke-opacity: 1; stroke-width: 1px;"/><path class="xtick ticks crisp" d="M0,352.70669291338584v-5" transform="translate(264.9523665791776,0)" style="stroke: rgb(0, 0, 0); stroke-opacity: 1; stroke-width: 1px;"/><path class="xtick ticks crisp" d="M0,352.70669291338584v-5" transform="translate(370.6923665791776,0)" style="stroke: rgb(0, 0, 0); stroke-opacity: 1; stroke-width: 1px;"/><path class="xtick ticks crisp" d="M0,352.70669291338584v-5" transform="translate(476.4223665791776,0)" style="stroke: rgb(0, 0, 0); stroke-opacity: 1; stroke-width: 1px;"/><g class="xtick"><text text-anchor="middle" x="0" y="366.9066929133858" transform="translate(53.49236657917759,0)" style="font-family: sans-serif; font-size: 11px; fill: rgb(0, 0, 0); fill-opacity: 1; white-space: pre;">800</text></g><g class="xtick"><text text-anchor="middle" x="0" y="366.9066929133858" transform="translate(159.2223665791776,0)" style="font-family: sans-serif; font-size: 11px; fill: rgb(0, 0, 0); fill-opacity: 1; white-space: pre;">1100</text></g><g class="xtick"><text text-anchor="middle" x="0" y="366.9066929133858" transform="translate(264.9523665791776,0)" style="font-family: sans-serif; font-size: 11px; fill: rgb(0, 0, 0); fill-opacity: 1; white-space: pre;">1400</text></g><g class="xtick"><text text-anchor="middle" x="0" y="366.9066929133858" transform="translate(370.6923665791776,0)" style="font-family: sans-serif; font-size: 11px; fill: rgb(0, 0, 0); fill-opacity: 1; white-space: pre;">1700</text></g><g class="xtick"><text text-anchor="middle" x="0" y="366.9066929133858" transform="translate(476.4223665791776,0)" style="font-family: sans-serif; font-size: 11px; fill: rgb(0, 0, 0); fill-opacity: 1; white-space: pre;">2000</text></g></g><g class="yaxislayer-above"><path class="ytick ticks crisp" d="M53.49236657917759,0h5" transform="translate(0,290.37330708661415)" style="stroke: rgb(0, 0, 0); stroke-opacity: 1; stroke-width: 1px;"/><path class="ytick ticks crisp" d="M53.49236657917759,0h5" transform="translate(0,228.04330708661416)" style="stroke: rgb(0, 0, 0); stroke-opacity: 1; stroke-width: 1px;"/><path class="ytick ticks crisp" d="M53.49236657917759,0h5" transform="translate(0,165.71330708661415)" style="stroke: rgb(0, 0, 0); stroke-opacity: 1; stroke-width: 1px;"/><path class="ytick ticks crisp" d="M53.49236657917759,0h5" transform="translate(0,103.37330708661415)" style="stroke: rgb(0, 0, 0); stroke-opacity: 1; stroke-width: 1px;"/><g class="ytick"><text text-anchor="end" x="50.29236657917759" y="3.8499999999999996" transform="translate(0,290.37330708661415)" style="font-family: sans-serif; font-size: 11px; fill: rgb(0, 0, 0); fill-opacity: 1; white-space: pre;">0.05</text></g><g class="ytick"><text text-anchor="end" x="50.29236657917759" y="3.8499999999999996" transform="translate(0,228.04330708661416)" style="font-family: sans-serif; font-size: 11px; fill: rgb(0, 0, 0); fill-opacity: 1; white-space: pre;">0.10</text></g><g class="ytick"><text text-anchor="end" x="50.29236657917759" y="3.8499999999999996" transform="translate(0,165.71330708661415)" style="font-family: sans-serif; font-size: 11px; fill: rgb(0, 0, 0); fill-opacity: 1; white-space: pre;">0.15</text></g><g class="ytick"><text text-anchor="end" x="50.29236657917759" y="3.8499999999999996" transform="translate(0,103.37330708661415)" style="font-family: sans-serif; font-size: 11px; fill: rgb(0, 0, 0); fill-opacity: 1; white-space: pre;">0.20</text></g><g class="ytick"><text text-anchor="end" x="50.29236657917759" y="3.8499999999999996" transform="translate(0,41.04330708661415)" style="font-family: sans-serif; font-size: 11px; fill: rgb(0, 0, 0); fill-opacity: 1; white-space: pre;">0.25</text></g></g><g class="overaxes-above"/></g></g><g class="polarlayer"/><g class="ternarylayer"/><g class="geolayer"/><g class="pielayer"/><g class="glimages"/><defs id="topdefs-00b771"><g class="clips"/><clipPath id="legend00b771"><rect width="73" height="67" x="0" y="0"/></clipPath></defs><g class="layer-above"><g class="imagelayer"/><g class="shapelayer"/></g><g class="infolayer"><g class="legend" pointer-events="all" transform="translate(527, 38.000000000000014)"><rect class="bg" shape-rendering="crispEdges" width="73" height="67" x="0" y="0" style="stroke: rgb(0, 0, 0); stroke-opacity: 1; fill: rgb(250, 240, 230); fill-opacity: 1; stroke-width: 0px;"/><g class="scrollbox" transform="translate(0, 0)" clip-path="url(#legend00b771)"><g class="groups" transform="translate(0, 0)"><g class="traces" transform="translate(0, 14.5)" style="opacity: 1;"><g class="layers"><g class="legendfill"><path class="js-fill" d="M5,0h30v6h-30z" style="stroke-width: 0; fill: rgb(61, 218, 215); fill-opacity: 1;"/></g><g class="legendlines"><path class="js-line" d="M5,0h30" style="fill: none; stroke: rgb(0, 0, 0); stroke-opacity: 0; stroke-width: 1px;"/></g><g class="legendsymbols"><g class="legendpoints"/></g></g><text class="legendtext user-select-none" text-anchor="start" x="40" y="4.29" style="font-family: sans-serif; font-size: 11px; fill: rgb(0, 0, 0); fill-opacity: 1; white-space: pre;">pop 1</text><rect class="legendtoggle" pointer-events="all" x="0" y="-9.5" width="113" height="19" style="cursor: pointer; fill: rgb(0, 0, 0); fill-opacity: 0;"/></g></g><g class="groups" transform="translate(0, 0)"><g class="traces" transform="translate(0, 33.5)" style="opacity: 1;"><g class="layers"><g class="legendfill"><path class="js-fill" d="M5,0h30v6h-30z" style="stroke-width: 0; fill: rgb(42, 147, 213); fill-opacity: 1;"/></g><g class="legendlines"><path class="js-line" d="M5,0h30" style="fill: none; stroke: rgb(0, 0, 0); stroke-opacity: 0; stroke-width: 1px;"/></g><g class="legendsymbols"><g class="legendpoints"/></g></g><text class="legendtext user-select-none" text-anchor="start" x="40" y="4.29" style="font-family: sans-serif; font-size: 11px; fill: rgb(0, 0, 0); fill-opacity: 1; white-space: pre;">pop 2</text><rect class="legendtoggle" pointer-events="all" x="0" y="-9.5" width="113" height="19" style="cursor: pointer; fill: rgb(0, 0, 0); fill-opacity: 0;"/></g></g><g class="groups" transform="translate(0, 0)"><g class="traces" transform="translate(0, 52.5)" style="opacity: 1;"><g class="layers"><g class="legendfill"><path class="js-fill" d="M5,0h30v6h-30z" style="stroke-width: 0; fill: rgb(109, 19, 139); fill-opacity: 1;"/></g><g class="legendlines"><path class="js-line" d="M5,0h30" style="fill: none; stroke: rgb(0, 0, 0); stroke-opacity: 0; stroke-width: 1px;"/></g><g class="legendsymbols"><g class="legendpoints"/></g></g><text class="legendtext user-select-none" text-anchor="start" x="40" y="4.29" style="font-family: sans-serif; font-size: 11px; fill: rgb(0, 0, 0); fill-opacity: 1; white-space: pre;">pop 3</text><rect class="legendtoggle" pointer-events="all" x="0" y="-9.5" width="113" height="19" style="cursor: pointer; fill: rgb(0, 0, 0); fill-opacity: 0;"/></g></g></g><rect class="scrollbar" rx="20" ry="3" width="0" height="0" x="0" y="0" style="fill: rgb(128, 139, 164); fill-opacity: 1;"/></g><g class="g-gtitle"/><g class="g-xtitle" transform="translate(0,-10.706692913385837)"><text class="xtitle" x="317.8236111111111" y="407.70669291338584" text-anchor="middle" style="font-family: sans-serif; font-size: 15px; fill: rgb(0, 0, 0); opacity: 1; font-weight: normal; white-space: pre;">Volume</text></g><g class="g-ytitle" transform="translate(0.5078125,0)"><text class="ytitle" transform="rotate(-90,13.492366579177592,196.875)" x="13.492366579177592" y="196.875" text-anchor="middle" style="font-family: sans-serif; font-size: 15px; fill: rgb(0, 0, 0); opacity: 1; font-weight: normal; white-space: pre;">Frequency</text></g><g class="annotation" data-index="0" style="opacity: 1;"><g class="annotation-text-g" transform="rotate(0,317.82361111111106,33.00000000000001)"><g class="cursor-pointer" transform="translate(191, 20)"><rect class="bg" x="0.5" y="0.5" width="252" height="25" style="stroke-width: 1px; stroke: rgb(0, 0, 0); stroke-opacity: 0; fill: rgb(0, 0, 0); fill-opacity: 0;"/><text class="annotation-text" text-anchor="middle" x="126.53125" y="20" style="font-family: sans-serif; font-size: 20px; fill: rgb(0, 0, 0); fill-opacity: 1; white-space: pre;">Volumen de las poblaciones</text></g></g></g></g></svg>