<?xml version="1.0" encoding="utf-8"?>
<svg xmlns="http://www.w3.org/2000/svg" xmlns:xlink="http://www.w3.org/1999/xlink" width="150" height="100" viewBox="0 0 600 400">
<defs>
  <clipPath id="clip1700">
    <rect x="0" y="0" width="600" height="400"/>
  </clipPath>
</defs>
<polygon clip-path="url(#clip1700)" points="
0,400 600,400 600,0 0,0 
  " fill="#faf0e6" fill-opacity="1"/>
<defs>
  <clipPath id="clip1701">
    <rect x="120" y="0" width="421" height="400"/>
  </clipPath>
</defs>
<polygon clip-path="url(#clip1700)" points="
62.7871,360.121 580.315,360.121 580.315,31.4961 62.7871,31.4961 
  " fill="#faf0e6" fill-opacity="1"/>
<defs>
  <clipPath id="clip1702">
    <rect x="62" y="31" width="519" height="330"/>
  </clipPath>
</defs>
<polyline clip-path="url(#clip1700)" style="stroke:#000000; stroke-width:1; stroke-opacity:1; fill:none" points="
  62.7871,360.121 580.315,360.121 
  "/>
<polyline clip-path="url(#clip1700)" style="stroke:#000000; stroke-width:1; stroke-opacity:1; fill:none" points="
  62.7871,360.121 62.7871,31.4961 
  "/>
<polyline clip-path="url(#clip1700)" style="stroke:#000000; stroke-width:1; stroke-opacity:1; fill:none" points="
  62.7871,360.121 62.7871,355.191 
  "/>
<polyline clip-path="url(#clip1700)" style="stroke:#000000; stroke-width:1; stroke-opacity:1; fill:none" points="
  166.293,360.121 166.293,355.191 
  "/>
<polyline clip-path="url(#clip1700)" style="stroke:#000000; stroke-width:1; stroke-opacity:1; fill:none" points="
  269.798,360.121 269.798,355.191 
  "/>
<polyline clip-path="url(#clip1700)" style="stroke:#000000; stroke-width:1; stroke-opacity:1; fill:none" points="
  373.304,360.121 373.304,355.191 
  "/>
<polyline clip-path="url(#clip1700)" style="stroke:#000000; stroke-width:1; stroke-opacity:1; fill:none" points="
  476.809,360.121 476.809,355.191 
  "/>
<polyline clip-path="url(#clip1700)" style="stroke:#000000; stroke-width:1; stroke-opacity:1; fill:none" points="
  62.7871,254.825 70.55,254.825 
  "/>
<polyline clip-path="url(#clip1700)" style="stroke:#000000; stroke-width:1; stroke-opacity:1; fill:none" points="
  62.7871,158.83 70.55,158.83 
  "/>
<polyline clip-path="url(#clip1700)" style="stroke:#000000; stroke-width:1; stroke-opacity:1; fill:none" points="
  62.7871,62.8351 70.55,62.8351 
  "/>
<g clip-path="url(#clip1700)">
<text style="fill:#000000; fill-opacity:1; font-family:Arial,Helvetica Neue,Helvetica,sans-serif; font-size:12; text-anchor:middle;" transform="rotate(0, 62.7871, 373.921)" x="62.7871" y="373.921">800</text>
</g>
<g clip-path="url(#clip1700)">
<text style="fill:#000000; fill-opacity:1; font-family:Arial,Helvetica Neue,Helvetica,sans-serif; font-size:12; text-anchor:middle;" transform="rotate(0, 166.293, 373.921)" x="166.293" y="373.921">1100</text>
</g>
<g clip-path="url(#clip1700)">
<text style="fill:#000000; fill-opacity:1; font-family:Arial,Helvetica Neue,Helvetica,sans-serif; font-size:12; text-anchor:middle;" transform="rotate(0, 269.798, 373.921)" x="269.798" y="373.921">1400</text>
</g>
<g clip-path="url(#clip1700)">
<text style="fill:#000000; fill-opacity:1; font-family:Arial,Helvetica Neue,Helvetica,sans-serif; font-size:12; text-anchor:middle;" transform="rotate(0, 373.304, 373.921)" x="373.304" y="373.921">1700</text>
</g>
<g clip-path="url(#clip1700)">
<text style="fill:#000000; fill-opacity:1; font-family:Arial,Helvetica Neue,Helvetica,sans-serif; font-size:12; text-anchor:middle;" transform="rotate(0, 476.809, 373.921)" x="476.809" y="373.921">2000</text>
</g>
<g clip-path="url(#clip1700)">
<text style="fill:#000000; fill-opacity:1; font-family:Arial,Helvetica Neue,Helvetica,sans-serif; font-size:12; text-anchor:end;" transform="rotate(0, 56.7871, 259.325)" x="56.7871" y="259.325">0.05</text>
</g>
<g clip-path="url(#clip1700)">
<text style="fill:#000000; fill-opacity:1; font-family:Arial,Helvetica Neue,Helvetica,sans-serif; font-size:12; text-anchor:end;" transform="rotate(0, 56.7871, 163.33)" x="56.7871" y="163.33">0.10</text>
</g>
<g clip-path="url(#clip1700)">
<text style="fill:#000000; fill-opacity:1; font-family:Arial,Helvetica Neue,Helvetica,sans-serif; font-size:12; text-anchor:end;" transform="rotate(0, 56.7871, 67.3351)" x="56.7871" y="67.3351">0.15</text>
</g>
<g clip-path="url(#clip1700)">
<text style="fill:#000000; fill-opacity:1; font-family:Arial,Helvetica Neue,Helvetica,sans-serif; font-size:21; text-anchor:middle;" transform="rotate(0, 321.551, 18)" x="321.551" y="18">Volume</text>
</g>
<g clip-path="url(#clip1700)">
<text style="fill:#000000; fill-opacity:1; font-family:Arial,Helvetica Neue,Helvetica,sans-serif; font-size:16; text-anchor:middle;" transform="rotate(0, 321.551, 397.6)" x="321.551" y="397.6">Volume</text>
</g>
<g clip-path="url(#clip1700)">
<text style="fill:#000000; fill-opacity:1; font-family:Arial,Helvetica Neue,Helvetica,sans-serif; font-size:16; text-anchor:middle;" transform="rotate(-90, 14.4, 195.808)" x="14.4" y="195.808">Frequency</text>
</g>
<polyline clip-path="url(#clip1702)" style="stroke:#3cdad7; stroke-width:3; stroke-opacity:1; fill:none" points="
  62.7871,350.811 86.9384,350.482 111.09,349.462 135.241,346.016 159.392,337.289 183.544,320.115 207.695,292.253 231.846,256.381 255.998,218.746 280.149,191.511 
  304.3,175.938 328.451,176.323 352.603,188.439 376.754,208.593 400.905,231.11 425.057,256.32 449.208,280.707 473.359,303.227 497.511,321.319 521.662,333.215 
  545.813,341.56 569.964,346.314 
  "/>
<polyline clip-path="url(#clip1702)" style="stroke:#2a93d5; stroke-width:3; stroke-opacity:1; fill:none" points="
  62.7871,336.368 86.9384,312.67 111.09,271.732 135.241,212.987 159.392,153.875 183.544,110.693 207.695,98.9494 231.846,122.253 255.998,172.687 280.149,229.731 
  304.3,279.969 328.451,314.592 352.603,333.628 376.754,344.012 400.905,348.024 425.057,349.911 449.208,350.302 473.359,350.724 497.511,350.751 521.662,350.82 
  545.813,350.82 569.964,350.82 
  "/>
<polyline clip-path="url(#clip1702)" style="stroke:#6d138b; stroke-width:3; stroke-opacity:1; fill:none" points="
  62.7871,318.041 86.9384,261.54 111.09,176.86 135.241,96.1946 159.392,46.0568 183.544,40.7968 207.695,89.3512 231.846,169.193 255.998,243.491 280.149,296.083 
  304.3,327.818 328.451,341.478 352.603,347.369 376.754,349.431 400.905,350.099 425.057,350.578 449.208,350.722 473.359,350.82 497.511,350.82 521.662,350.82 
  545.813,350.82 569.964,350.82 
  "/>
<polygon clip-path="url(#clip1700)" points="
480.562,93.2873 570.67,93.2873 570.67,32.8073 480.562,32.8073 
  " fill="#faf0e6" fill-opacity="1"/>
<polyline clip-path="url(#clip1700)" style="stroke:#000000; stroke-width:1; stroke-opacity:1; fill:none" points="
  480.562,93.2873 570.67,93.2873 570.67,32.8073 480.562,32.8073 480.562,93.2873 
  "/>
<polyline clip-path="url(#clip1700)" style="stroke:#3cdad7; stroke-width:3; stroke-opacity:1; fill:none" points="
  486.562,47.9273 522.562,47.9273 
  "/>
<g clip-path="url(#clip1700)">
<text style="fill:#000000; fill-opacity:1; font-family:Arial,Helvetica Neue,Helvetica,sans-serif; font-size:12; text-anchor:start;" transform="rotate(0, 528.562, 52.4273)" x="528.562" y="52.4273">pop 1</text>
</g>
<polyline clip-path="url(#clip1700)" style="stroke:#2a93d5; stroke-width:3; stroke-opacity:1; fill:none" points="
  486.562,63.0473 522.562,63.0473 
  "/>
<g clip-path="url(#clip1700)">
<text style="fill:#000000; fill-opacity:1; font-family:Arial,Helvetica Neue,Helvetica,sans-serif; font-size:12; text-anchor:start;" transform="rotate(0, 528.562, 67.5473)" x="528.562" y="67.5473">pop 2</text>
</g>
<polyline clip-path="url(#clip1700)" style="stroke:#6d138b; stroke-width:3; stroke-opacity:1; fill:none" points="
  486.562,78.1673 522.562,78.1673 
  "/>
<g clip-path="url(#clip1700)">
<text style="fill:#000000; fill-opacity:1; font-family:Arial,Helvetica Neue,Helvetica,sans-serif; font-size:12; text-anchor:start;" transform="rotate(0, 528.562, 82.6673)" x="528.562" y="82.6673">pop 3</text>
</g>
</svg>
