<svg class="main-svg" xmlns="http://www.w3.org/2000/svg" xmlns:xlink="http://www.w3.org/1999/xlink" width="600" height="400" viewBox="0 0 600 400"><rect x="0" y="0" width="600" height="400" style="fill: rgb(250, 240, 230); fill-opacity: 1;"/><defs id="defs-4e26cf"><g class="clips"><clipPath id="clip4e26cfxyplot" class="plotclip"><rect width="528.662489063867" height="311.6633858267717"/></clipPath><clipPath class="axesclip" id="clip4e26cfx"><rect x="53.49236657917759" y="0" width="528.662489063867" height="400"/></clipPath><clipPath class="axesclip" id="clip4e26cfy"><rect x="0" y="41.04330708661415" width="600" height="311.6633858267717"/></clipPath><clipPath class="axesclip" id="clip4e26cfxy"><rect x="53.49236657917759" y="41.04330708661415" width="528.662489063867" height="311.6633858267717"/></clipPath></g><g class="gradients"/></defs><g class="bglayer"><rect class="bg" x="53.49236657917759" y="41.04330708661415" width="528.662489063867" height="311.6633858267717" style="fill: rgb(250, 240, 230); fill-opacity: 1; stroke-width: 0;"/></g><g class="layer-below"><g class="imagelayer"/><g class="shapelayer"/></g><g class="cartesianlayer"><g class="subplot xy"><g class="layer-subplot"><g class="shapelayer"/><g class="imagelayer"/></g><g class="gridlayer"><g class="x"/><g class="y"/></g><g class="zerolinelayer"/><path class="xlines-below"/><path class="ylines-below"/><g class="overlines-below"/><g class="xaxislayer-below"/><g class="yaxislayer-below"/><g class="overaxes-below"/><g class="plot" transform="translate(53.49236657917759, 41.04330708661415)" clip-path="url(#clip4e26cfxyplot)"><g class="scatterlayer mlayer"><g class="trace scatter trace4308c6" style="stroke-miterlimit: 2;"><path class="js-fill js-tozero" d="M16.15,311.66L16.15,311.66L16.15,311.46L16.15,311.66L24.96,311.66L24.96,311.46L16.15,311.46" style="fill: rgb(132, 153, 116); fill-opacity: 1; stroke-width: 0;"/><path class="js-line" d="M16.15,311.46L16.15,311.66L24.96,311.66L24.96,311.46L16.15,311.46" style="vector-effect: non-scaling-stroke; fill: none; stroke: rgb(0, 0, 0); stroke-opacity: 0; stroke-width: 1px; opacity: 1;"/><g class="points"/></g><g class="trace scatter tracee5e3af" style="stroke-miterlimit: 2;"><path class="js-fill js-tozero" d="M40.82,311.66L40.82,311.66L40.82,309.15L40.82,311.66L49.64,311.66L49.64,309.15L40.82,309.15" style="fill: rgb(132, 153, 116); fill-opacity: 1; stroke-width: 0;"/><path class="js-line" d="M40.82,309.15L40.82,311.66L49.64,311.66L49.64,309.15L40.82,309.15" style="vector-effect: non-scaling-stroke; fill: none; stroke: rgb(0, 0, 0); stroke-opacity: 0; stroke-width: 1px; opacity: 1;"/><g class="points"/></g><g class="trace scatter trace7796f3" style="stroke-miterlimit: 2;"><path class="js-fill js-tozero" d="M65.5,311.66L65.5,311.66L65.5,298.88L65.5,311.66L74.31,311.66L74.31,298.88L65.5,298.88" style="fill: rgb(132, 153, 116); fill-opacity: 1; stroke-width: 0;"/><path class="js-line" d="M65.5,298.88L65.5,311.66L74.31,311.66L74.31,298.88L65.5,298.88" style="vector-effect: non-scaling-stroke; fill: none; stroke: rgb(0, 0, 0); stroke-opacity: 0; stroke-width: 1px; opacity: 1;"/><g class="points"/></g><g class="trace scatter tracedab5b8" style="stroke-miterlimit: 2;"><path class="js-fill js-tozero" d="M90.17,311.66L90.17,311.66L90.17,284.68L90.17,311.66L98.98,311.66L98.98,284.68L90.17,284.68" style="fill: rgb(132, 153, 116); fill-opacity: 1; stroke-width: 0;"/><path class="js-line" d="M90.17,284.68L90.17,311.66L98.98,311.66L98.98,284.68L90.17,284.68" style="vector-effect: non-scaling-stroke; fill: none; stroke: rgb(0, 0, 0); stroke-opacity: 0; stroke-width: 1px; opacity: 1;"/><g class="points"/></g><g class="trace scatter trace4c679b" style="stroke-miterlimit: 2;"><path class="js-fill js-tozero" d="M114.84,311.66L114.84,311.66L114.84,263.25L114.84,311.66L123.65,311.66L123.65,263.25L114.84,263.25" style="fill: rgb(132, 153, 116); fill-opacity: 1; stroke-width: 0;"/><path class="js-line" d="M114.84,263.25L114.84,311.66L123.65,311.66L123.65,263.25L114.84,263.25" style="vector-effect: non-scaling-stroke; fill: none; stroke: rgb(0, 0, 0); stroke-opacity: 0; stroke-width: 1px; opacity: 1;"/><g class="points"/></g><g class="trace scatter tracea3af39" style="stroke-miterlimit: 2;"><path class="js-fill js-tozero" d="M139.51,311.66L139.51,311.66L139.51,254.28L139.51,311.66L148.32,311.66L148.32,254.28L139.51,254.28" style="fill: rgb(132, 153, 116); fill-opacity: 1; stroke-width: 0;"/><path class="js-line" d="M139.51,254.28L139.51,311.66L148.32,311.66L148.32,254.28L139.51,254.28" style="vector-effect: non-scaling-stroke; fill: none; stroke: rgb(0, 0, 0); stroke-opacity: 0; stroke-width: 1px; opacity: 1;"/><g class="points"/></g><g class="trace scatter trace0c6381" style="stroke-miterlimit: 2;"><path class="js-fill js-tozero" d="M164.18,311.66L164.18,311.66L164.18,235.24L164.18,311.66L172.99,311.66L172.99,235.24L164.18,235.24" style="fill: rgb(132, 153, 116); fill-opacity: 1; stroke-width: 0;"/><path class="js-line" d="M164.18,235.24L164.18,311.66L172.99,311.66L172.99,235.24L164.18,235.24" style="vector-effect: non-scaling-stroke; fill: none; stroke: rgb(0, 0, 0); stroke-opacity: 0; stroke-width: 1px; opacity: 1;"/><g class="points"/></g><g class="trace scatter trace25cd24" style="stroke-miterlimit: 2;"><path class="js-fill js-tozero" d="M188.85,311.66L188.85,311.66L188.85,200.13L188.85,311.66L197.66,311.66L197.66,200.13L188.85,200.13" style="fill: rgb(132, 153, 116); fill-opacity: 1; stroke-width: 0;"/><path class="js-line" d="M188.85,200.13L188.85,311.66L197.66,311.66L197.66,200.13L188.85,200.13" style="vector-effect: non-scaling-stroke; fill: none; stroke: rgb(0, 0, 0); stroke-opacity: 0; stroke-width: 1px; opacity: 1;"/><g class="points"/></g><g class="trace scatter trace5f55ff" style="stroke-miterlimit: 2;"><path class="js-fill js-tozero" d="M213.52,311.66L213.52,311.66L213.52,141.02L213.52,311.66L222.33,311.66L222.33,141.02L213.52,141.02" style="fill: rgb(132, 153, 116); fill-opacity: 1; stroke-width: 0;"/><path class="js-line" d="M213.52,141.02L213.52,311.66L222.33,311.66L222.33,141.02L213.52,141.02" style="vector-effect: non-scaling-stroke; fill: none; stroke: rgb(0, 0, 0); stroke-opacity: 0; stroke-width: 1px; opacity: 1;"/><g class="points"/></g><g class="trace scatter tracee2ac38" style="stroke-miterlimit: 2;"><path class="js-fill js-tozero" d="M238.19,311.66L238.19,311.66L238.19,111.29L238.19,311.66L247,311.66L247,111.29L238.19,111.29" style="fill: rgb(132, 153, 116); fill-opacity: 1; stroke-width: 0;"/><path class="js-line" d="M238.19,111.29L238.19,311.66L247,311.66L247,111.29L238.19,111.29" style="vector-effect: non-scaling-stroke; fill: none; stroke: rgb(0, 0, 0); stroke-opacity: 0; stroke-width: 1px; opacity: 1;"/><g class="points"/></g><g class="trace scatter trace209082" style="stroke-miterlimit: 2;"><path class="js-fill js-tozero" d="M262.86,311.66L262.86,311.66L262.86,119.47L262.86,311.66L271.67,311.66L271.67,119.47L262.86,119.47" style="fill: rgb(132, 153, 116); fill-opacity: 1; stroke-width: 0;"/><path class="js-line" d="M262.86,119.47L262.86,311.66L271.67,311.66L271.67,119.47L262.86,119.47" style="vector-effect: non-scaling-stroke; fill: none; stroke: rgb(0, 0, 0); stroke-opacity: 0; stroke-width: 1px; opacity: 1;"/><g class="points"/></g><g class="trace scatter tracef98251" style="stroke-miterlimit: 2;"><path class="js-fill js-tozero" d="M287.53,311.66L287.53,311.66L287.53,128.84L287.53,311.66L296.34,311.66L296.34,128.84L287.53,128.84" style="fill: rgb(132, 153, 116); fill-opacity: 1; stroke-width: 0;"/><path class="js-line" d="M287.53,128.84L287.53,311.66L296.34,311.66L296.34,128.84L287.53,128.84" style="vector-effect: non-scaling-stroke; fill: none; stroke: rgb(0, 0, 0); stroke-opacity: 0; stroke-width: 1px; opacity: 1;"/><g class="points"/></g><g class="trace scatter tracea4b019" style="stroke-miterlimit: 2;"><path class="js-fill js-tozero" d="M312.2,311.66L312.2,311.66L312.2,148.15L312.2,311.66L321.02,311.66L321.02,148.15L312.2,148.15" style="fill: rgb(132, 153, 116); fill-opacity: 1; stroke-width: 0;"/><path class="js-line" d="M312.2,148.15L312.2,311.66L321.02,311.66L321.02,148.15L312.2,148.15" style="vector-effect: non-scaling-stroke; fill: none; stroke: rgb(0, 0, 0); stroke-opacity: 0; stroke-width: 1px; opacity: 1;"/><g class="points"/></g><g class="trace scatter trace82e25a" style="stroke-miterlimit: 2;"><path class="js-fill js-tozero" d="M336.88,311.66L336.88,311.66L336.88,171.55L336.88,311.66L345.69,311.66L345.69,171.55L336.88,171.55" style="fill: rgb(132, 153, 116); fill-opacity: 1; stroke-width: 0;"/><path class="js-line" d="M336.88,171.55L336.88,311.66L345.69,311.66L345.69,171.55L336.88,171.55" style="vector-effect: non-scaling-stroke; fill: none; stroke: rgb(0, 0, 0); stroke-opacity: 0; stroke-width: 1px; opacity: 1;"/><g class="points"/></g><g class="trace scatter trace003aef" style="stroke-miterlimit: 2;"><path class="js-fill js-tozero" d="M361.55,311.66L361.55,311.66L361.55,177.15L361.55,311.66L370.36,311.66L370.36,177.15L361.55,177.15" style="fill: rgb(132, 153, 116); fill-opacity: 1; stroke-width: 0;"/><path class="js-line" d="M361.55,177.15L361.55,311.66L370.36,311.66L370.36,177.15L361.55,177.15" style="vector-effect: non-scaling-stroke; fill: none; stroke: rgb(0, 0, 0); stroke-opacity: 0; stroke-width: 1px; opacity: 1;"/><g class="points"/></g><g class="trace scatter trace645510" style="stroke-miterlimit: 2;"><path class="js-fill js-tozero" d="M386.22,311.66L386.22,311.66L386.22,202.1L386.22,311.66L395.03,311.66L395.03,202.1L386.22,202.1" style="fill: rgb(132, 153, 116); fill-opacity: 1; stroke-width: 0;"/><path class="js-line" d="M386.22,202.1L386.22,311.66L395.03,311.66L395.03,202.1L386.22,202.1" style="vector-effect: non-scaling-stroke; fill: none; stroke: rgb(0, 0, 0); stroke-opacity: 0; stroke-width: 1px; opacity: 1;"/><g class="points"/></g><g class="trace scatter tracea638da" style="stroke-miterlimit: 2;"><path class="js-fill js-tozero" d="M410.89,311.66L410.89,311.66L410.89,222.8L410.89,311.66L419.7,311.66L419.7,222.8L410.89,222.8" style="fill: rgb(132, 153, 116); fill-opacity: 1; stroke-width: 0;"/><path class="js-line" d="M410.89,222.8L410.89,311.66L419.7,311.66L419.7,222.8L410.89,222.8" style="vector-effect: non-scaling-stroke; fill: none; stroke: rgb(0, 0, 0); stroke-opacity: 0; stroke-width: 1px; opacity: 1;"/><g class="points"/></g><g class="trace scatter traceb27809" style="stroke-miterlimit: 2;"><path class="js-fill js-tozero" d="M435.56,311.66L435.56,311.66L435.56,257.14L435.56,311.66L444.37,311.66L444.37,257.14L435.56,257.14" style="fill: rgb(132, 153, 116); fill-opacity: 1; stroke-width: 0;"/><path class="js-line" d="M435.56,257.14L435.56,311.66L444.37,311.66L444.37,257.14L435.56,257.14" style="vector-effect: non-scaling-stroke; fill: none; stroke: rgb(0, 0, 0); stroke-opacity: 0; stroke-width: 1px; opacity: 1;"/><g class="points"/></g><g class="trace scatter trace9136bb" style="stroke-miterlimit: 2;"><path class="js-fill js-tozero" d="M460.23,311.66L460.23,311.66L460.23,280.49L460.23,311.66L469.04,311.66L469.04,280.49L460.23,280.49" style="fill: rgb(132, 153, 116); fill-opacity: 1; stroke-width: 0;"/><path class="js-line" d="M460.23,280.49L460.23,311.66L469.04,311.66L469.04,280.49L460.23,280.49" style="vector-effect: non-scaling-stroke; fill: none; stroke: rgb(0, 0, 0); stroke-opacity: 0; stroke-width: 1px; opacity: 1;"/><g class="points"/></g><g class="trace scatter trace8984f1" style="stroke-miterlimit: 2;"><path class="js-fill js-tozero" d="M484.9,311.66L484.9,311.66L484.9,292.45L484.9,311.66L493.71,311.66L493.71,292.45L484.9,292.45" style="fill: rgb(132, 153, 116); fill-opacity: 1; stroke-width: 0;"/><path class="js-line" d="M484.9,292.45L484.9,311.66L493.71,311.66L493.71,292.45L484.9,292.45" style="vector-effect: non-scaling-stroke; fill: none; stroke: rgb(0, 0, 0); stroke-opacity: 0; stroke-width: 1px; opacity: 1;"/><g class="points"/></g><g class="trace scatter trace900bda" style="stroke-miterlimit: 2;"><path class="js-fill js-tozero" d="M509.57,311.66L509.57,311.66L509.57,302.12L509.57,311.66L518.38,311.66L518.38,302.12L509.57,302.12" style="fill: rgb(132, 153, 116); fill-opacity: 1; stroke-width: 0;"/><path class="js-line" d="M509.57,302.12L509.57,311.66L518.38,311.66L518.38,302.12L509.57,302.12" style="vector-effect: non-scaling-stroke; fill: none; stroke: rgb(0, 0, 0); stroke-opacity: 0; stroke-width: 1px; opacity: 1;"/><g class="points"/></g><g class="trace scatter trace515500" style="stroke-miterlimit: 2;"><path class="js-fill js-tozero" d="M7.93,311.66L7.93,311.66L7.93,311.66L16.74,311.66L7.93,311.66" style="fill: rgb(114, 106, 149); fill-opacity: 1; stroke-width: 0;"/><path class="js-line" d="M7.93,311.66L16.74,311.66L7.93,311.66" style="vector-effect: non-scaling-stroke; fill: none; stroke: rgb(0, 0, 0); stroke-opacity: 0; stroke-width: 1px; opacity: 1;"/><g class="points"/></g><g class="trace scatter traceb3c90c" style="stroke-miterlimit: 2;"><path class="js-fill js-tozero" d="M32.6,311.66L32.6,311.66L32.6,308.96L32.6,311.66L41.41,311.66L41.41,308.96L32.6,308.96" style="fill: rgb(114, 106, 149); fill-opacity: 1; stroke-width: 0;"/><path class="js-line" d="M32.6,308.96L32.6,311.66L41.41,311.66L41.41,308.96L32.6,308.96" style="vector-effect: non-scaling-stroke; fill: none; stroke: rgb(0, 0, 0); stroke-opacity: 0; stroke-width: 1px; opacity: 1;"/><g class="points"/></g><g class="trace scatter tracefafaa3" style="stroke-miterlimit: 2;"><path class="js-fill js-tozero" d="M57.27,311.66L57.27,311.66L57.27,300.58L57.27,311.66L66.08,311.66L66.08,300.58L57.27,300.58" style="fill: rgb(114, 106, 149); fill-opacity: 1; stroke-width: 0;"/><path class="js-line" d="M57.27,300.58L57.27,311.66L66.08,311.66L66.08,300.58L57.27,300.58" style="vector-effect: non-scaling-stroke; fill: none; stroke: rgb(0, 0, 0); stroke-opacity: 0; stroke-width: 1px; opacity: 1;"/><g class="points"/></g><g class="trace scatter tracee923d1" style="stroke-miterlimit: 2;"><path class="js-fill js-tozero" d="M81.94,311.66L81.94,311.66L81.94,268.75L81.94,311.66L90.75,311.66L90.75,268.75L81.94,268.75" style="fill: rgb(114, 106, 149); fill-opacity: 1; stroke-width: 0;"/><path class="js-line" d="M81.94,268.75L81.94,311.66L90.75,311.66L90.75,268.75L81.94,268.75" style="vector-effect: non-scaling-stroke; fill: none; stroke: rgb(0, 0, 0); stroke-opacity: 0; stroke-width: 1px; opacity: 1;"/><g class="points"/></g><g class="trace scatter trace58f257" style="stroke-miterlimit: 2;"><path class="js-fill js-tozero" d="M106.61,311.66L106.61,311.66L106.61,222.02L106.61,311.66L115.42,311.66L115.42,222.02L106.61,222.02" style="fill: rgb(114, 106, 149); fill-opacity: 1; stroke-width: 0;"/><path class="js-line" d="M106.61,222.02L106.61,311.66L115.42,311.66L115.42,222.02L106.61,222.02" style="vector-effect: non-scaling-stroke; fill: none; stroke: rgb(0, 0, 0); stroke-opacity: 0; stroke-width: 1px; opacity: 1;"/><g class="points"/></g><g class="trace scatter trace7ed160" style="stroke-miterlimit: 2;"><path class="js-fill js-tozero" d="M131.28,311.66L131.28,311.66L131.28,156.09L131.28,311.66L140.1,311.66L140.1,156.09L131.28,156.09" style="fill: rgb(114, 106, 149); fill-opacity: 1; stroke-width: 0;"/><path class="js-line" d="M131.28,156.09L131.28,311.66L140.1,311.66L140.1,156.09L131.28,156.09" style="vector-effect: non-scaling-stroke; fill: none; stroke: rgb(0, 0, 0); stroke-opacity: 0; stroke-width: 1px; opacity: 1;"/><g class="points"/></g><g class="trace scatter trace66e61f" style="stroke-miterlimit: 2;"><path class="js-fill js-tozero" d="M155.96,311.66L155.96,311.66L155.96,87.6L155.96,311.66L164.77,311.66L164.77,87.6L155.96,87.6" style="fill: rgb(114, 106, 149); fill-opacity: 1; stroke-width: 0;"/><path class="js-line" d="M155.96,87.6L155.96,311.66L164.77,311.66L164.77,87.6L155.96,87.6" style="vector-effect: non-scaling-stroke; fill: none; stroke: rgb(0, 0, 0); stroke-opacity: 0; stroke-width: 1px; opacity: 1;"/><g class="points"/></g><g class="trace scatter trace331bb0" style="stroke-miterlimit: 2;"><path class="js-fill js-tozero" d="M180.63,311.66L180.63,311.66L180.63,44.09L180.63,311.66L189.44,311.66L189.44,44.09L180.63,44.09" style="fill: rgb(114, 106, 149); fill-opacity: 1; stroke-width: 0;"/><path class="js-line" d="M180.63,44.09L180.63,311.66L189.44,311.66L189.44,44.09L180.63,44.09" style="vector-effect: non-scaling-stroke; fill: none; stroke: rgb(0, 0, 0); stroke-opacity: 0; stroke-width: 1px; opacity: 1;"/><g class="points"/></g><g class="trace scatter tracecd4301" style="stroke-miterlimit: 2;"><path class="js-fill js-tozero" d="M205.3,311.66L205.3,311.66L205.3,49.06L205.3,311.66L214.11,311.66L214.11,49.06L205.3,49.06" style="fill: rgb(114, 106, 149); fill-opacity: 1; stroke-width: 0;"/><path class="js-line" d="M205.3,49.06L205.3,311.66L214.11,311.66L214.11,49.06L205.3,49.06" style="vector-effect: non-scaling-stroke; fill: none; stroke: rgb(0, 0, 0); stroke-opacity: 0; stroke-width: 1px; opacity: 1;"/><g class="points"/></g><g class="trace scatter trace7f39f0" style="stroke-miterlimit: 2;"><path class="js-fill js-tozero" d="M229.97,311.66L229.97,311.66L229.97,84.67L229.97,311.66L238.78,311.66L238.78,84.67L229.97,84.67" style="fill: rgb(114, 106, 149); fill-opacity: 1; stroke-width: 0;"/><path class="js-line" d="M229.97,84.67L229.97,311.66L238.78,311.66L238.78,84.67L229.97,84.67" style="vector-effect: non-scaling-stroke; fill: none; stroke: rgb(0, 0, 0); stroke-opacity: 0; stroke-width: 1px; opacity: 1;"/><g class="points"/></g><g class="trace scatter trace65ab78" style="stroke-miterlimit: 2;"><path class="js-fill js-tozero" d="M254.64,311.66L254.64,311.66L254.64,121.65L254.64,311.66L263.45,311.66L263.45,121.65L254.64,121.65" style="fill: rgb(114, 106, 149); fill-opacity: 1; stroke-width: 0;"/><path class="js-line" d="M254.64,121.65L254.64,311.66L263.45,311.66L263.45,121.65L254.64,121.65" style="vector-effect: non-scaling-stroke; fill: none; stroke: rgb(0, 0, 0); stroke-opacity: 0; stroke-width: 1px; opacity: 1;"/><g class="points"/></g><g class="trace scatter trace1ad202" style="stroke-miterlimit: 2;"><path class="js-fill js-tozero" d="M279.31,311.66L279.31,311.66L279.31,178.67L279.31,311.66L288.12,311.66L288.12,178.67L279.31,178.67" style="fill: rgb(114, 106, 149); fill-opacity: 1; stroke-width: 0;"/><path class="js-line" d="M279.31,178.67L279.31,311.66L288.12,311.66L288.12,178.67L279.31,178.67" style="vector-effect: non-scaling-stroke; fill: none; stroke: rgb(0, 0, 0); stroke-opacity: 0; stroke-width: 1px; opacity: 1;"/><g class="points"/></g><g class="trace scatter trace8a5ff2" style="stroke-miterlimit: 2;"><path class="js-fill js-tozero" d="M303.98,311.66L303.98,311.66L303.98,223.87L303.98,311.66L312.79,311.66L312.79,223.87L303.98,223.87" style="fill: rgb(114, 106, 149); fill-opacity: 1; stroke-width: 0;"/><path class="js-line" d="M303.98,223.87L303.98,311.66L312.79,311.66L312.79,223.87L303.98,223.87" style="vector-effect: non-scaling-stroke; fill: none; stroke: rgb(0, 0, 0); stroke-opacity: 0; stroke-width: 1px; opacity: 1;"/><g class="points"/></g><g class="trace scatter traceaab046" style="stroke-miterlimit: 2;"><path class="js-fill js-tozero" d="M328.65,311.66L328.65,311.66L328.65,262.03L328.65,311.66L337.46,311.66L337.46,262.03L328.65,262.03" style="fill: rgb(114, 106, 149); fill-opacity: 1; stroke-width: 0;"/><path class="js-line" d="M328.65,262.03L328.65,311.66L337.46,311.66L337.46,262.03L328.65,262.03" style="vector-effect: non-scaling-stroke; fill: none; stroke: rgb(0, 0, 0); stroke-opacity: 0; stroke-width: 1px; opacity: 1;"/><g class="points"/></g><g class="trace scatter traceaf9356" style="stroke-miterlimit: 2;"><path class="js-fill js-tozero" d="M353.32,311.66L353.32,311.66L353.32,276.24L353.32,311.66L362.13,311.66L362.13,276.24L353.32,276.24" style="fill: rgb(114, 106, 149); fill-opacity: 1; stroke-width: 0;"/><path class="js-line" d="M353.32,276.24L353.32,311.66L362.13,311.66L362.13,276.24L353.32,276.24" style="vector-effect: non-scaling-stroke; fill: none; stroke: rgb(0, 0, 0); stroke-opacity: 0; stroke-width: 1px; opacity: 1;"/><g class="points"/></g><g class="trace scatter trace594f92" style="stroke-miterlimit: 2;"><path class="js-fill js-tozero" d="M377.99,311.66L377.99,311.66L377.99,291.65L377.99,311.66L386.8,311.66L386.8,291.65L377.99,291.65" style="fill: rgb(114, 106, 149); fill-opacity: 1; stroke-width: 0;"/><path class="js-line" d="M377.99,291.65L377.99,311.66L386.8,311.66L386.8,291.65L377.99,291.65" style="vector-effect: non-scaling-stroke; fill: none; stroke: rgb(0, 0, 0); stroke-opacity: 0; stroke-width: 1px; opacity: 1;"/><g class="points"/></g><g class="trace scatter tracec28434" style="stroke-miterlimit: 2;"><path class="js-fill js-tozero" d="M402.66,311.66L402.66,311.66L402.66,299.45L402.66,311.66L411.48,311.66L411.48,299.45L402.66,299.45" style="fill: rgb(114, 106, 149); fill-opacity: 1; stroke-width: 0;"/><path class="js-line" d="M402.66,299.45L402.66,311.66L411.48,311.66L411.48,299.45L402.66,299.45" style="vector-effect: non-scaling-stroke; fill: none; stroke: rgb(0, 0, 0); stroke-opacity: 0; stroke-width: 1px; opacity: 1;"/><g class="points"/></g><g class="trace scatter trace638b67" style="stroke-miterlimit: 2;"><path class="js-fill js-tozero" d="M427.34,311.66L427.34,311.66L427.34,300.83L427.34,311.66L436.15,311.66L436.15,300.83L427.34,300.83" style="fill: rgb(114, 106, 149); fill-opacity: 1; stroke-width: 0;"/><path class="js-line" d="M427.34,300.83L427.34,311.66L436.15,311.66L436.15,300.83L427.34,300.83" style="vector-effect: non-scaling-stroke; fill: none; stroke: rgb(0, 0, 0); stroke-opacity: 0; stroke-width: 1px; opacity: 1;"/><g class="points"/></g><g class="trace scatter trace21da2e" style="stroke-miterlimit: 2;"><path class="js-fill js-tozero" d="M452.01,311.66L452.01,311.66L452.01,306.79L452.01,311.66L460.82,311.66L460.82,306.79L452.01,306.79" style="fill: rgb(114, 106, 149); fill-opacity: 1; stroke-width: 0;"/><path class="js-line" d="M452.01,306.79L452.01,311.66L460.82,311.66L460.82,306.79L452.01,306.79" style="vector-effect: non-scaling-stroke; fill: none; stroke: rgb(0, 0, 0); stroke-opacity: 0; stroke-width: 1px; opacity: 1;"/><g class="points"/></g><g class="trace scatter trace89da06" style="stroke-miterlimit: 2;"><path class="js-fill js-tozero" d="M476.68,311.66L476.68,311.66L476.68,307.92L476.68,311.66L485.49,311.66L485.49,307.92L476.68,307.92" style="fill: rgb(114, 106, 149); fill-opacity: 1; stroke-width: 0;"/><path class="js-line" d="M476.68,307.92L476.68,311.66L485.49,311.66L485.49,307.92L476.68,307.92" style="vector-effect: non-scaling-stroke; fill: none; stroke: rgb(0, 0, 0); stroke-opacity: 0; stroke-width: 1px; opacity: 1;"/><g class="points"/></g><g class="trace scatter tracecd2f14" style="stroke-miterlimit: 2;"><path class="js-fill js-tozero" d="M501.35,311.66L501.35,311.66L501.35,309.05L501.35,311.66L510.16,311.66L510.16,309.05L501.35,309.05" style="fill: rgb(114, 106, 149); fill-opacity: 1; stroke-width: 0;"/><path class="js-line" d="M501.35,309.05L501.35,311.66L510.16,311.66L510.16,309.05L501.35,309.05" style="vector-effect: non-scaling-stroke; fill: none; stroke: rgb(0, 0, 0); stroke-opacity: 0; stroke-width: 1px; opacity: 1;"/><g class="points"/></g></g></g><g class="overplot"/><path class="xlines-above crisp" d="M52.49236657917759,353.20669291338584H582.1548556430446" style="fill: none; stroke-width: 1px; stroke: rgb(0, 0, 0); stroke-opacity: 1;"/><path class="ylines-above crisp" d="M52.99236657917759,41.04330708661415V352.70669291338584" style="fill: none; stroke-width: 1px; stroke: rgb(0, 0, 0); stroke-opacity: 1;"/><g class="overlines-above"/><g class="xaxislayer-above"><path class="xtick ticks crisp" d="M0,352.70669291338584v-5" transform="translate(159.2223665791776,0)" style="stroke: rgb(0, 0, 0); stroke-opacity: 1; stroke-width: 1px;"/><path class="xtick ticks crisp" d="M0,352.70669291338584v-5" transform="translate(264.9523665791776,0)" style="stroke: rgb(0, 0, 0); stroke-opacity: 1; stroke-width: 1px;"/><path class="xtick ticks crisp" d="M0,352.70669291338584v-5" transform="translate(370.6923665791776,0)" style="stroke: rgb(0, 0, 0); stroke-opacity: 1; stroke-width: 1px;"/><path class="xtick ticks crisp" d="M0,352.70669291338584v-5" transform="translate(476.4223665791776,0)" style="stroke: rgb(0, 0, 0); stroke-opacity: 1; stroke-width: 1px;"/><g class="xtick"><text text-anchor="middle" x="0" y="366.9066929133858" transform="translate(53.49236657917759,0)" style="font-family: sans-serif; font-size: 11px; fill: rgb(0, 0, 0); fill-opacity: 1; white-space: pre;">800</text></g><g class="xtick"><text text-anchor="middle" x="0" y="366.9066929133858" transform="translate(159.2223665791776,0)" style="font-family: sans-serif; font-size: 11px; fill: rgb(0, 0, 0); fill-opacity: 1; white-space: pre;">1100</text></g><g class="xtick"><text text-anchor="middle" x="0" y="366.9066929133858" transform="translate(264.9523665791776,0)" style="font-family: sans-serif; font-size: 11px; fill: rgb(0, 0, 0); fill-opacity: 1; white-space: pre;">1400</text></g><g class="xtick"><text text-anchor="middle" x="0" y="366.9066929133858" transform="translate(370.6923665791776,0)" style="font-family: sans-serif; font-size: 11px; fill: rgb(0, 0, 0); fill-opacity: 1; white-space: pre;">1700</text></g><g class="xtick"><text text-anchor="middle" x="0" y="366.9066929133858" transform="translate(476.4223665791776,0)" style="font-family: sans-serif; font-size: 11px; fill: rgb(0, 0, 0); fill-opacity: 1; white-space: pre;">2000</text></g></g><g class="yaxislayer-above"><path class="ytick ticks crisp" d="M53.49236657917759,0h5" transform="translate(0,279.37330708661415)" style="stroke: rgb(0, 0, 0); stroke-opacity: 1; stroke-width: 1px;"/><path class="ytick ticks crisp" d="M53.49236657917759,0h5" transform="translate(0,206.04330708661416)" style="stroke: rgb(0, 0, 0); stroke-opacity: 1; stroke-width: 1px;"/><path class="ytick ticks crisp" d="M53.49236657917759,0h5" transform="translate(0,132.71330708661415)" style="stroke: rgb(0, 0, 0); stroke-opacity: 1; stroke-width: 1px;"/><path class="ytick ticks crisp" d="M53.49236657917759,0h5" transform="translate(0,59.37330708661415)" style="stroke: rgb(0, 0, 0); stroke-opacity: 1; stroke-width: 1px;"/><g class="ytick"><text text-anchor="end" x="50.29236657917759" y="3.8499999999999996" transform="translate(0,279.37330708661415)" style="font-family: sans-serif; font-size: 11px; fill: rgb(0, 0, 0); fill-opacity: 1; white-space: pre;">0.04</text></g><g class="ytick"><text text-anchor="end" x="50.29236657917759" y="3.8499999999999996" transform="translate(0,206.04330708661416)" style="font-family: sans-serif; font-size: 11px; fill: rgb(0, 0, 0); fill-opacity: 1; white-space: pre;">0.08</text></g><g class="ytick"><text text-anchor="end" x="50.29236657917759" y="3.8499999999999996" transform="translate(0,132.71330708661415)" style="font-family: sans-serif; font-size: 11px; fill: rgb(0, 0, 0); fill-opacity: 1; white-space: pre;">0.12</text></g><g class="ytick"><text text-anchor="end" x="50.29236657917759" y="3.8499999999999996" transform="translate(0,59.37330708661415)" style="font-family: sans-serif; font-size: 11px; fill: rgb(0, 0, 0); fill-opacity: 1; white-space: pre;">0.16</text></g></g><g class="overaxes-above"/></g></g><g class="polarlayer"/><g class="ternarylayer"/><g class="geolayer"/><g class="pielayer"/><g class="glimages"/><defs id="topdefs-4e26cf"><g class="clips"/><clipPath id="legend4e26cf"><rect width="73" height="48" x="0" y="0"/></clipPath></defs><g class="layer-above"><g class="imagelayer"/><g class="shapelayer"/></g><g class="infolayer"><g class="legend" pointer-events="all" transform="translate(527, 38.000000000000014)"><rect class="bg" shape-rendering="crispEdges" width="73" height="48" x="0" y="0" style="stroke: rgb(0, 0, 0); stroke-opacity: 1; fill: rgb(250, 240, 230); fill-opacity: 1; stroke-width: 0px;"/><g class="scrollbox" transform="translate(0, 0)" clip-path="url(#legend4e26cf)"><g class="groups" transform="translate(0, 0)"><g class="traces" transform="translate(0, 14.5)" style="opacity: 1;"><g class="layers"><g class="legendfill"><path class="js-fill" d="M5,0h30v6h-30z" style="stroke-width: 0; fill: rgb(132, 153, 116); fill-opacity: 1;"/></g><g class="legendlines"><path class="js-line" d="M5,0h30" style="fill: none; stroke: rgb(0, 0, 0); stroke-opacity: 0; stroke-width: 1px;"/></g><g class="legendsymbols"><g class="legendpoints"/></g></g><text class="legendtext user-select-none" text-anchor="start" x="40" y="4.29" style="font-family: sans-serif; font-size: 11px; fill: rgb(0, 0, 0); fill-opacity: 1; white-space: pre;">pop 1</text><rect class="legendtoggle" pointer-events="all" x="0" y="-9.5" width="113" height="19" style="cursor: pointer; fill: rgb(0, 0, 0); fill-opacity: 0;"/></g></g><g class="groups" transform="translate(0, 0)"><g class="traces" transform="translate(0, 33.5)" style="opacity: 1;"><g class="layers"><g class="legendfill"><path class="js-fill" d="M5,0h30v6h-30z" style="stroke-width: 0; fill: rgb(114, 106, 149); fill-opacity: 1;"/></g><g class="legendlines"><path class="js-line" d="M5,0h30" style="fill: none; stroke: rgb(0, 0, 0); stroke-opacity: 0; stroke-width: 1px;"/></g><g class="legendsymbols"><g class="legendpoints"/></g></g><text class="legendtext user-select-none" text-anchor="start" x="40" y="4.29" style="font-family: sans-serif; font-size: 11px; fill: rgb(0, 0, 0); fill-opacity: 1; white-space: pre;">pop 2</text><rect class="legendtoggle" pointer-events="all" x="0" y="-9.5" width="113" height="19" style="cursor: pointer; fill: rgb(0, 0, 0); fill-opacity: 0;"/></g></g></g><rect class="scrollbar" rx="20" ry="3" width="0" height="0" x="0" y="0" style="fill: rgb(128, 139, 164); fill-opacity: 1;"/></g><g class="g-gtitle"/><g class="g-xtitle" transform="translate(0,-10.706692913385837)"><text class="xtitle" x="317.8236111111111" y="407.70669291338584" text-anchor="middle" style="font-family: sans-serif; font-size: 15px; fill: rgb(0, 0, 0); opacity: 1; font-weight: normal; white-space: pre;">Volume</text></g><g class="g-ytitle" transform="translate(0.5078125,0)"><text class="ytitle" transform="rotate(-90,13.492366579177592,196.875)" x="13.492366579177592" y="196.875" text-anchor="middle" style="font-family: sans-serif; font-size: 15px; fill: rgb(0, 0, 0); opacity: 1; font-weight: normal; white-space: pre;">Frequency</text></g><g class="annotation" data-index="0" style="opacity: 1;"><g class="annotation-text-g" transform="rotate(0,317.82361111111106,33)"><g class="cursor-pointer" transform="translate(282, 20)"><rect class="bg" x="0.5" y="0.5" width="70" height="25" style="stroke-width: 1px; stroke: rgb(0, 0, 0); stroke-opacity: 0; fill: rgb(0, 0, 0); fill-opacity: 0;"/><text class="annotation-text" text-anchor="middle" x="35.34375" y="20" style="font-family: sans-serif; font-size: 20px; fill: rgb(0, 0, 0); fill-opacity: 1; white-space: pre;">Volume</text></g></g></g></g></svg>