<?xml version="1.0" encoding="utf-8"?>
<svg xmlns="http://www.w3.org/2000/svg" xmlns:xlink="http://www.w3.org/1999/xlink" width="600" height="400" viewBox="0 0 600 400">
<defs>
  <clipPath id="clip0100">
    <rect x="0" y="0" width="600" height="400"/>
  </clipPath>
</defs>
<polygon clip-path="url(#clip0100)" points="
0,400 600,400 600,0 0,0 
  " fill="#faf0e6" fill-opacity="1"/>
<defs>
  <clipPath id="clip0101">
    <rect x="120" y="0" width="421" height="400"/>
  </clipPath>
</defs>
<polygon clip-path="url(#clip0100)" points="
62.7871,360.121 580.315,360.121 580.315,31.4961 62.7871,31.4961 
  " fill="#faf0e6" fill-opacity="1"/>
<defs>
  <clipPath id="clip0102">
    <rect x="62" y="31" width="519" height="330"/>
  </clipPath>
</defs>
<polyline clip-path="url(#clip0100)" style="stroke:#000000; stroke-width:1; stroke-opacity:1; fill:none" points="
  62.7871,360.121 580.315,360.121 
  "/>
<polyline clip-path="url(#clip0100)" style="stroke:#000000; stroke-width:1; stroke-opacity:1; fill:none" points="
  62.7871,360.121 62.7871,31.4961 
  "/>
<polyline clip-path="url(#clip0100)" style="stroke:#000000; stroke-width:1; stroke-opacity:1; fill:none" points="
  62.7871,360.121 62.7871,355.191 
  "/>
<polyline clip-path="url(#clip0100)" style="stroke:#000000; stroke-width:1; stroke-opacity:1; fill:none" points="
  166.293,360.121 166.293,355.191 
  "/>
<polyline clip-path="url(#clip0100)" style="stroke:#000000; stroke-width:1; stroke-opacity:1; fill:none" points="
  269.798,360.121 269.798,355.191 
  "/>
<polyline clip-path="url(#clip0100)" style="stroke:#000000; stroke-width:1; stroke-opacity:1; fill:none" points="
  373.304,360.121 373.304,355.191 
  "/>
<polyline clip-path="url(#clip0100)" style="stroke:#000000; stroke-width:1; stroke-opacity:1; fill:none" points="
  476.809,360.121 476.809,355.191 
  "/>
<polyline clip-path="url(#clip0100)" style="stroke:#000000; stroke-width:1; stroke-opacity:1; fill:none" points="
  62.7871,282.797 70.55,282.797 
  "/>
<polyline clip-path="url(#clip0100)" style="stroke:#000000; stroke-width:1; stroke-opacity:1; fill:none" points="
  62.7871,205.474 70.55,205.474 
  "/>
<polyline clip-path="url(#clip0100)" style="stroke:#000000; stroke-width:1; stroke-opacity:1; fill:none" points="
  62.7871,128.15 70.55,128.15 
  "/>
<polyline clip-path="url(#clip0100)" style="stroke:#000000; stroke-width:1; stroke-opacity:1; fill:none" points="
  62.7871,50.8269 70.55,50.8269 
  "/>
<g clip-path="url(#clip0100)">
<text style="fill:#000000; fill-opacity:1; font-family:Arial,Helvetica Neue,Helvetica,sans-serif; font-size:12; text-anchor:middle;" transform="rotate(0, 62.7871, 373.921)" x="62.7871" y="373.921">800</text>
</g>
<g clip-path="url(#clip0100)">
<text style="fill:#000000; fill-opacity:1; font-family:Arial,Helvetica Neue,Helvetica,sans-serif; font-size:12; text-anchor:middle;" transform="rotate(0, 166.293, 373.921)" x="166.293" y="373.921">1100</text>
</g>
<g clip-path="url(#clip0100)">
<text style="fill:#000000; fill-opacity:1; font-family:Arial,Helvetica Neue,Helvetica,sans-serif; font-size:12; text-anchor:middle;" transform="rotate(0, 269.798, 373.921)" x="269.798" y="373.921">1400</text>
</g>
<g clip-path="url(#clip0100)">
<text style="fill:#000000; fill-opacity:1; font-family:Arial,Helvetica Neue,Helvetica,sans-serif; font-size:12; text-anchor:middle;" transform="rotate(0, 373.304, 373.921)" x="373.304" y="373.921">1700</text>
</g>
<g clip-path="url(#clip0100)">
<text style="fill:#000000; fill-opacity:1; font-family:Arial,Helvetica Neue,Helvetica,sans-serif; font-size:12; text-anchor:middle;" transform="rotate(0, 476.809, 373.921)" x="476.809" y="373.921">2000</text>
</g>
<g clip-path="url(#clip0100)">
<text style="fill:#000000; fill-opacity:1; font-family:Arial,Helvetica Neue,Helvetica,sans-serif; font-size:12; text-anchor:end;" transform="rotate(0, 56.7871, 287.297)" x="56.7871" y="287.297">0.04</text>
</g>
<g clip-path="url(#clip0100)">
<text style="fill:#000000; fill-opacity:1; font-family:Arial,Helvetica Neue,Helvetica,sans-serif; font-size:12; text-anchor:end;" transform="rotate(0, 56.7871, 209.974)" x="56.7871" y="209.974">0.08</text>
</g>
<g clip-path="url(#clip0100)">
<text style="fill:#000000; fill-opacity:1; font-family:Arial,Helvetica Neue,Helvetica,sans-serif; font-size:12; text-anchor:end;" transform="rotate(0, 56.7871, 132.65)" x="56.7871" y="132.65">0.12</text>
</g>
<g clip-path="url(#clip0100)">
<text style="fill:#000000; fill-opacity:1; font-family:Arial,Helvetica Neue,Helvetica,sans-serif; font-size:12; text-anchor:end;" transform="rotate(0, 56.7871, 55.3269)" x="56.7871" y="55.3269">0.16</text>
</g>
<g clip-path="url(#clip0100)">
<text style="fill:#000000; fill-opacity:1; font-family:Arial,Helvetica Neue,Helvetica,sans-serif; font-size:21; text-anchor:middle;" transform="rotate(0, 321.551, 18)" x="321.551" y="18">Volume</text>
</g>
<g clip-path="url(#clip0100)">
<text style="fill:#000000; fill-opacity:1; font-family:Arial,Helvetica Neue,Helvetica,sans-serif; font-size:16; text-anchor:middle;" transform="rotate(0, 321.551, 397.6)" x="321.551" y="397.6">Volume</text>
</g>
<g clip-path="url(#clip0100)">
<text style="fill:#000000; fill-opacity:1; font-family:Arial,Helvetica Neue,Helvetica,sans-serif; font-size:16; text-anchor:middle;" transform="rotate(-90, 14.4, 195.808)" x="14.4" y="195.808">Frequency</text>
</g>
<polygon clip-path="url(#clip0102)" points="
78.6005,356.715 78.6005,360.121 87.2259,360.121 87.2259,356.715 78.6005,356.715 78.6005,356.715 
  " fill="#839974" fill-opacity="1"/>
<polyline clip-path="url(#clip0102)" style="stroke:#000000; stroke-width:1; stroke-opacity:0; fill:none" points="
  78.6005,356.715 78.6005,360.121 87.2259,360.121 87.2259,356.715 78.6005,356.715 
  "/>
<polygon clip-path="url(#clip0102)" points="
102.752,343.642 102.752,360.121 111.377,360.121 111.377,343.642 102.752,343.642 102.752,343.642 
  " fill="#839974" fill-opacity="1"/>
<polyline clip-path="url(#clip0102)" style="stroke:#000000; stroke-width:1; stroke-opacity:0; fill:none" points="
  102.752,343.642 102.752,360.121 111.377,360.121 111.377,343.642 102.752,343.642 
  "/>
<polygon clip-path="url(#clip0102)" points="
126.903,324.761 126.903,360.121 135.529,360.121 135.529,324.761 126.903,324.761 126.903,324.761 
  " fill="#839974" fill-opacity="1"/>
<polyline clip-path="url(#clip0102)" style="stroke:#000000; stroke-width:1; stroke-opacity:0; fill:none" points="
  126.903,324.761 126.903,360.121 135.529,360.121 135.529,324.761 126.903,324.761 
  "/>
<polygon clip-path="url(#clip0102)" points="
151.054,297.489 151.054,360.121 159.68,360.121 159.68,297.489 151.054,297.489 151.054,297.489 
  " fill="#839974" fill-opacity="1"/>
<polyline clip-path="url(#clip0102)" style="stroke:#000000; stroke-width:1; stroke-opacity:0; fill:none" points="
  151.054,297.489 151.054,360.121 159.68,360.121 159.68,297.489 151.054,297.489 
  "/>
<polygon clip-path="url(#clip0102)" points="
175.206,287.487 175.206,360.121 183.831,360.121 183.831,287.487 175.206,287.487 175.206,287.487 
  " fill="#839974" fill-opacity="1"/>
<polyline clip-path="url(#clip0102)" style="stroke:#000000; stroke-width:1; stroke-opacity:0; fill:none" points="
  175.206,287.487 175.206,360.121 183.831,360.121 183.831,287.487 175.206,287.487 
  "/>
<polygon clip-path="url(#clip0102)" points="
199.357,273.866 199.357,360.121 207.982,360.121 207.982,273.866 199.357,273.866 199.357,273.866 
  " fill="#839974" fill-opacity="1"/>
<polyline clip-path="url(#clip0102)" style="stroke:#000000; stroke-width:1; stroke-opacity:0; fill:none" points="
  199.357,273.866 199.357,360.121 207.982,360.121 207.982,273.866 199.357,273.866 
  "/>
<polygon clip-path="url(#clip0102)" points="
223.508,245.925 223.508,360.121 232.134,360.121 232.134,245.925 223.508,245.925 223.508,245.925 
  " fill="#839974" fill-opacity="1"/>
<polyline clip-path="url(#clip0102)" style="stroke:#000000; stroke-width:1; stroke-opacity:0; fill:none" points="
  223.508,245.925 223.508,360.121 232.134,360.121 232.134,245.925 223.508,245.925 
  "/>
<polygon clip-path="url(#clip0102)" points="
247.66,189.891 247.66,360.121 256.285,360.121 256.285,189.891 247.66,189.891 247.66,189.891 
  " fill="#839974" fill-opacity="1"/>
<polyline clip-path="url(#clip0102)" style="stroke:#000000; stroke-width:1; stroke-opacity:0; fill:none" points="
  247.66,189.891 247.66,360.121 256.285,360.121 256.285,189.891 247.66,189.891 
  "/>
<polygon clip-path="url(#clip0102)" points="
271.811,163.805 271.811,360.121 280.436,360.121 280.436,163.805 271.811,163.805 271.811,163.805 
  " fill="#839974" fill-opacity="1"/>
<polyline clip-path="url(#clip0102)" style="stroke:#000000; stroke-width:1; stroke-opacity:0; fill:none" points="
  271.811,163.805 271.811,360.121 280.436,360.121 280.436,163.805 271.811,163.805 
  "/>
<polygon clip-path="url(#clip0102)" points="
295.962,173.625 295.962,360.121 304.588,360.121 304.588,173.625 295.962,173.625 295.962,173.625 
  " fill="#839974" fill-opacity="1"/>
<polyline clip-path="url(#clip0102)" style="stroke:#000000; stroke-width:1; stroke-opacity:0; fill:none" points="
  295.962,173.625 295.962,360.121 304.588,360.121 304.588,173.625 295.962,173.625 
  "/>
<polygon clip-path="url(#clip0102)" points="
320.113,174.386 320.113,360.121 328.739,360.121 328.739,174.386 320.113,174.386 320.113,174.386 
  " fill="#839974" fill-opacity="1"/>
<polyline clip-path="url(#clip0102)" style="stroke:#000000; stroke-width:1; stroke-opacity:0; fill:none" points="
  320.113,174.386 320.113,360.121 328.739,360.121 328.739,174.386 320.113,174.386 
  "/>
<polygon clip-path="url(#clip0102)" points="
344.265,187.398 344.265,360.121 352.89,360.121 352.89,187.398 344.265,187.398 344.265,187.398 
  " fill="#839974" fill-opacity="1"/>
<polyline clip-path="url(#clip0102)" style="stroke:#000000; stroke-width:1; stroke-opacity:0; fill:none" points="
  344.265,187.398 344.265,360.121 352.89,360.121 352.89,187.398 344.265,187.398 
  "/>
<polygon clip-path="url(#clip0102)" points="
368.416,213.545 368.416,360.121 377.042,360.121 377.042,213.545 368.416,213.545 368.416,213.545 
  " fill="#839974" fill-opacity="1"/>
<polyline clip-path="url(#clip0102)" style="stroke:#000000; stroke-width:1; stroke-opacity:0; fill:none" points="
  368.416,213.545 368.416,360.121 377.042,360.121 377.042,213.545 368.416,213.545 
  "/>
<polygon clip-path="url(#clip0102)" points="
392.567,213.393 392.567,360.121 401.193,360.121 401.193,213.393 392.567,213.393 392.567,213.393 
  " fill="#839974" fill-opacity="1"/>
<polyline clip-path="url(#clip0102)" style="stroke:#000000; stroke-width:1; stroke-opacity:0; fill:none" points="
  392.567,213.393 392.567,360.121 401.193,360.121 401.193,213.393 392.567,213.393 
  "/>
<polygon clip-path="url(#clip0102)" points="
416.719,244.739 416.719,360.121 425.344,360.121 425.344,244.739 416.719,244.739 416.719,244.739 
  " fill="#839974" fill-opacity="1"/>
<polyline clip-path="url(#clip0102)" style="stroke:#000000; stroke-width:1; stroke-opacity:0; fill:none" points="
  416.719,244.739 416.719,360.121 425.344,360.121 425.344,244.739 416.719,244.739 
  "/>
<polygon clip-path="url(#clip0102)" points="
440.87,266.295 440.87,360.121 449.495,360.121 449.495,266.295 440.87,266.295 440.87,266.295 
  " fill="#839974" fill-opacity="1"/>
<polyline clip-path="url(#clip0102)" style="stroke:#000000; stroke-width:1; stroke-opacity:0; fill:none" points="
  440.87,266.295 440.87,360.121 449.495,360.121 449.495,266.295 440.87,266.295 
  "/>
<polygon clip-path="url(#clip0102)" points="
465.021,303.388 465.021,360.121 473.647,360.121 473.647,303.388 465.021,303.388 465.021,303.388 
  " fill="#839974" fill-opacity="1"/>
<polyline clip-path="url(#clip0102)" style="stroke:#000000; stroke-width:1; stroke-opacity:0; fill:none" points="
  465.021,303.388 465.021,360.121 473.647,360.121 473.647,303.388 465.021,303.388 
  "/>
<polygon clip-path="url(#clip0102)" points="
489.173,327.133 489.173,360.121 497.798,360.121 497.798,327.133 489.173,327.133 489.173,327.133 
  " fill="#839974" fill-opacity="1"/>
<polyline clip-path="url(#clip0102)" style="stroke:#000000; stroke-width:1; stroke-opacity:0; fill:none" points="
  489.173,327.133 489.173,360.121 497.798,360.121 497.798,327.133 489.173,327.133 
  "/>
<polygon clip-path="url(#clip0102)" points="
513.324,340.237 513.324,360.121 521.949,360.121 521.949,340.237 513.324,340.237 513.324,340.237 
  " fill="#839974" fill-opacity="1"/>
<polyline clip-path="url(#clip0102)" style="stroke:#000000; stroke-width:1; stroke-opacity:0; fill:none" points="
  513.324,340.237 513.324,360.121 521.949,360.121 521.949,340.237 513.324,340.237 
  "/>
<polygon clip-path="url(#clip0102)" points="
537.475,349.084 537.475,360.121 546.101,360.121 546.101,349.084 537.475,349.084 537.475,349.084 
  " fill="#839974" fill-opacity="1"/>
<polyline clip-path="url(#clip0102)" style="stroke:#000000; stroke-width:1; stroke-opacity:0; fill:none" points="
  537.475,349.084 537.475,360.121 546.101,360.121 546.101,349.084 537.475,349.084 
  "/>
<polygon clip-path="url(#clip0102)" points="
561.626,352.641 561.626,360.121 570.252,360.121 570.252,352.641 561.626,352.641 561.626,352.641 
  " fill="#839974" fill-opacity="1"/>
<polyline clip-path="url(#clip0102)" style="stroke:#000000; stroke-width:1; stroke-opacity:0; fill:none" points="
  561.626,352.641 561.626,360.121 570.252,360.121 570.252,352.641 561.626,352.641 
  "/>
<polygon clip-path="url(#clip0102)" points="
70.55,357.183 70.55,360.121 79.1755,360.121 79.1755,357.183 70.55,357.183 70.55,357.183 
  " fill="#716995" fill-opacity="1"/>
<polyline clip-path="url(#clip0102)" style="stroke:#000000; stroke-width:1; stroke-opacity:0; fill:none" points="
  70.55,357.183 70.55,360.121 79.1755,360.121 79.1755,357.183 70.55,357.183 
  "/>
<polygon clip-path="url(#clip0102)" points="
94.7013,350.095 94.7013,360.121 103.327,360.121 103.327,350.095 94.7013,350.095 94.7013,350.095 
  " fill="#716995" fill-opacity="1"/>
<polyline clip-path="url(#clip0102)" style="stroke:#000000; stroke-width:1; stroke-opacity:0; fill:none" points="
  94.7013,350.095 94.7013,360.121 103.327,360.121 103.327,350.095 94.7013,350.095 
  "/>
<polygon clip-path="url(#clip0102)" points="
118.853,317 118.853,360.121 127.478,360.121 127.478,317 118.853,317 118.853,317 
  " fill="#716995" fill-opacity="1"/>
<polyline clip-path="url(#clip0102)" style="stroke:#000000; stroke-width:1; stroke-opacity:0; fill:none" points="
  118.853,317 118.853,360.121 127.478,360.121 127.478,317 118.853,317 
  "/>
<polygon clip-path="url(#clip0102)" points="
143.004,269.455 143.004,360.121 151.629,360.121 151.629,269.455 143.004,269.455 143.004,269.455 
  " fill="#716995" fill-opacity="1"/>
<polyline clip-path="url(#clip0102)" style="stroke:#000000; stroke-width:1; stroke-opacity:0; fill:none" points="
  143.004,269.455 143.004,360.121 151.629,360.121 151.629,269.455 143.004,269.455 
  "/>
<polygon clip-path="url(#clip0102)" points="
167.155,196.961 167.155,360.121 175.781,360.121 175.781,196.961 167.155,196.961 167.155,196.961 
  " fill="#716995" fill-opacity="1"/>
<polyline clip-path="url(#clip0102)" style="stroke:#000000; stroke-width:1; stroke-opacity:0; fill:none" points="
  167.155,196.961 167.155,360.121 175.781,360.121 175.781,196.961 167.155,196.961 
  "/>
<polygon clip-path="url(#clip0102)" points="
191.307,121.961 191.307,360.121 199.932,360.121 199.932,121.961 191.307,121.961 191.307,121.961 
  " fill="#716995" fill-opacity="1"/>
<polyline clip-path="url(#clip0102)" style="stroke:#000000; stroke-width:1; stroke-opacity:0; fill:none" points="
  191.307,121.961 191.307,360.121 199.932,360.121 199.932,121.961 191.307,121.961 
  "/>
<polygon clip-path="url(#clip0102)" points="
215.458,76.0207 215.458,360.121 224.083,360.121 224.083,76.0207 215.458,76.0207 215.458,76.0207 
  " fill="#716995" fill-opacity="1"/>
<polyline clip-path="url(#clip0102)" style="stroke:#000000; stroke-width:1; stroke-opacity:0; fill:none" points="
  215.458,76.0207 215.458,360.121 224.083,360.121 224.083,76.0207 215.458,76.0207 
  "/>
<polygon clip-path="url(#clip0102)" points="
239.609,76.4515 239.609,360.121 248.235,360.121 248.235,76.4515 239.609,76.4515 239.609,76.4515 
  " fill="#716995" fill-opacity="1"/>
<polyline clip-path="url(#clip0102)" style="stroke:#000000; stroke-width:1; stroke-opacity:0; fill:none" points="
  239.609,76.4515 239.609,360.121 248.235,360.121 248.235,76.4515 239.609,76.4515 
  "/>
<polygon clip-path="url(#clip0102)" points="
263.76,118.984 263.76,360.121 272.386,360.121 272.386,118.984 263.76,118.984 263.76,118.984 
  " fill="#716995" fill-opacity="1"/>
<polyline clip-path="url(#clip0102)" style="stroke:#000000; stroke-width:1; stroke-opacity:0; fill:none" points="
  263.76,118.984 263.76,360.121 272.386,360.121 272.386,118.984 263.76,118.984 
  "/>
<polygon clip-path="url(#clip0102)" points="
287.912,159.833 287.912,360.121 296.537,360.121 296.537,159.833 287.912,159.833 287.912,159.833 
  " fill="#716995" fill-opacity="1"/>
<polyline clip-path="url(#clip0102)" style="stroke:#000000; stroke-width:1; stroke-opacity:0; fill:none" points="
  287.912,159.833 287.912,360.121 296.537,360.121 296.537,159.833 287.912,159.833 
  "/>
<polygon clip-path="url(#clip0102)" points="
312.063,220.342 312.063,360.121 320.688,360.121 320.688,220.342 312.063,220.342 312.063,220.342 
  " fill="#716995" fill-opacity="1"/>
<polyline clip-path="url(#clip0102)" style="stroke:#000000; stroke-width:1; stroke-opacity:0; fill:none" points="
  312.063,220.342 312.063,360.121 320.688,360.121 320.688,220.342 312.063,220.342 
  "/>
<polygon clip-path="url(#clip0102)" points="
336.214,268.28 336.214,360.121 344.84,360.121 344.84,268.28 336.214,268.28 336.214,268.28 
  " fill="#716995" fill-opacity="1"/>
<polyline clip-path="url(#clip0102)" style="stroke:#000000; stroke-width:1; stroke-opacity:0; fill:none" points="
  336.214,268.28 336.214,360.121 344.84,360.121 344.84,268.28 336.214,268.28 
  "/>
<polygon clip-path="url(#clip0102)" points="
360.366,312.066 360.366,360.121 368.991,360.121 368.991,312.066 360.366,312.066 360.366,312.066 
  " fill="#716995" fill-opacity="1"/>
<polyline clip-path="url(#clip0102)" style="stroke:#000000; stroke-width:1; stroke-opacity:0; fill:none" points="
  360.366,312.066 360.366,360.121 368.991,360.121 368.991,312.066 360.366,312.066 
  "/>
<polygon clip-path="url(#clip0102)" points="
384.517,322.366 384.517,360.121 393.142,360.121 393.142,322.366 384.517,322.366 384.517,322.366 
  " fill="#716995" fill-opacity="1"/>
<polyline clip-path="url(#clip0102)" style="stroke:#000000; stroke-width:1; stroke-opacity:0; fill:none" points="
  384.517,322.366 384.517,360.121 393.142,360.121 393.142,322.366 384.517,322.366 
  "/>
<polygon clip-path="url(#clip0102)" points="
408.668,338.893 408.668,360.121 417.294,360.121 417.294,338.893 408.668,338.893 408.668,338.893 
  " fill="#716995" fill-opacity="1"/>
<polyline clip-path="url(#clip0102)" style="stroke:#000000; stroke-width:1; stroke-opacity:0; fill:none" points="
  408.668,338.893 408.668,360.121 417.294,360.121 417.294,338.893 408.668,338.893 
  "/>
<polygon clip-path="url(#clip0102)" points="
432.82,347.549 432.82,360.121 441.445,360.121 441.445,347.549 432.82,347.549 432.82,347.549 
  " fill="#716995" fill-opacity="1"/>
<polyline clip-path="url(#clip0102)" style="stroke:#000000; stroke-width:1; stroke-opacity:0; fill:none" points="
  432.82,347.549 432.82,360.121 441.445,360.121 441.445,347.549 432.82,347.549 
  "/>
<polygon clip-path="url(#clip0102)" points="
456.971,348.92 456.971,360.121 465.596,360.121 465.596,348.92 456.971,348.92 456.971,348.92 
  " fill="#716995" fill-opacity="1"/>
<polyline clip-path="url(#clip0102)" style="stroke:#000000; stroke-width:1; stroke-opacity:0; fill:none" points="
  456.971,348.92 456.971,360.121 465.596,360.121 465.596,348.92 456.971,348.92 
  "/>
<polygon clip-path="url(#clip0102)" points="
481.122,354.794 481.122,360.121 489.748,360.121 489.748,354.794 481.122,354.794 481.122,354.794 
  " fill="#716995" fill-opacity="1"/>
<polyline clip-path="url(#clip0102)" style="stroke:#000000; stroke-width:1; stroke-opacity:0; fill:none" points="
  481.122,354.794 481.122,360.121 489.748,360.121 489.748,354.794 481.122,354.794 
  "/>
<polygon clip-path="url(#clip0102)" points="
505.273,356.087 505.273,360.121 513.899,360.121 513.899,356.087 505.273,356.087 505.273,356.087 
  " fill="#716995" fill-opacity="1"/>
<polyline clip-path="url(#clip0102)" style="stroke:#000000; stroke-width:1; stroke-opacity:0; fill:none" points="
  505.273,356.087 505.273,360.121 513.899,360.121 513.899,356.087 505.273,356.087 
  "/>
<polygon clip-path="url(#clip0102)" points="
529.425,357.614 529.425,360.121 538.05,360.121 538.05,357.614 529.425,357.614 529.425,357.614 
  " fill="#716995" fill-opacity="1"/>
<polyline clip-path="url(#clip0102)" style="stroke:#000000; stroke-width:1; stroke-opacity:0; fill:none" points="
  529.425,357.614 529.425,360.121 538.05,360.121 538.05,357.614 529.425,357.614 
  "/>
<polygon clip-path="url(#clip0102)" points="
553.576,358.593 553.576,360.121 562.201,360.121 562.201,358.593 553.576,358.593 553.576,358.593 
  " fill="#716995" fill-opacity="1"/>
<polyline clip-path="url(#clip0102)" style="stroke:#000000; stroke-width:1; stroke-opacity:0; fill:none" points="
  553.576,358.593 553.576,360.121 562.201,360.121 562.201,358.593 553.576,358.593 
  "/>
<polygon clip-path="url(#clip0100)" points="
480.562,78.1673 570.67,78.1673 570.67,32.8073 480.562,32.8073 
  " fill="#faf0e6" fill-opacity="1"/>
<polyline clip-path="url(#clip0100)" style="stroke:#000000; stroke-width:1; stroke-opacity:1; fill:none" points="
  480.562,78.1673 570.67,78.1673 570.67,32.8073 480.562,32.8073 480.562,78.1673 
  "/>
<polygon clip-path="url(#clip0100)" points="
486.562,53.9753 522.562,53.9753 522.562,41.8793 486.562,41.8793 486.562,53.9753 
  " fill="#839974" fill-opacity="1"/>
<polyline clip-path="url(#clip0100)" style="stroke:#000000; stroke-width:1; stroke-opacity:0; fill:none" points="
  486.562,53.9753 522.562,53.9753 522.562,41.8793 486.562,41.8793 486.562,53.9753 
  "/>
<g clip-path="url(#clip0100)">
<text style="fill:#000000; fill-opacity:1; font-family:Arial,Helvetica Neue,Helvetica,sans-serif; font-size:12; text-anchor:start;" transform="rotate(0, 528.562, 52.4273)" x="528.562" y="52.4273">pop 1</text>
</g>
<polygon clip-path="url(#clip0100)" points="
486.562,69.0953 522.562,69.0953 522.562,56.9993 486.562,56.9993 486.562,69.0953 
  " fill="#716995" fill-opacity="1"/>
<polyline clip-path="url(#clip0100)" style="stroke:#000000; stroke-width:1; stroke-opacity:0; fill:none" points="
  486.562,69.0953 522.562,69.0953 522.562,56.9993 486.562,56.9993 486.562,69.0953 
  "/>
<g clip-path="url(#clip0100)">
<text style="fill:#000000; fill-opacity:1; font-family:Arial,Helvetica Neue,Helvetica,sans-serif; font-size:12; text-anchor:start;" transform="rotate(0, 528.562, 67.5473)" x="528.562" y="67.5473">pop 2</text>
</g>
</svg>
