<?xml version="1.0" encoding="utf-8" standalone="no"?>
<!DOCTYPE svg PUBLIC "-//W3C//DTD SVG 1.1//EN"
  "http://www.w3.org/Graphics/SVG/1.1/DTD/svg11.dtd">
<!-- Created with matplotlib (http://matplotlib.org/) -->
<svg height="288pt" version="1.1" viewBox="0 0 432 288" width="432pt" xmlns="http://www.w3.org/2000/svg" xmlns:xlink="http://www.w3.org/1999/xlink">
 <defs>
  <style type="text/css">
*{stroke-linecap:butt;stroke-linejoin:round;}
  </style>
 </defs>
 <g id="figure_1">
  <g id="patch_1">
   <path d="M 0 288 
L 432 288 
L 432 0 
L 0 0 
z
" style="fill:#ffffff;"/>
  </g>
  <g id="axes_1">
   <g id="patch_2">
    <path d="M 55.208646 247.425354 
L 423.585354 247.425354 
L 423.585354 5.714646 
L 55.208646 5.714646 
z
" style="fill:#ffffff;"/>
   </g>
   <g id="patch_3">
    <path clip-path="url(#pcfad91e13a)" d="M 57.255183 247.425354 
L 57.255183 247.425354 
L 62.712616 247.425354 
L 62.712616 247.425354 
L 57.255183 247.425354 
" style="fill:#3ddad7;"/>
   </g>
   <g id="patch_4">
    <path clip-path="url(#pcfad91e13a)" d="M 77.720556 241.610933 
L 77.720556 247.425354 
L 83.177988 247.425354 
L 83.177988 241.610933 
L 77.720556 241.610933 
" style="fill:#3ddad7;"/>
   </g>
   <g id="patch_5">
    <path clip-path="url(#pcfad91e13a)" d="M 98.185928 214.842994 
L 98.185928 247.425354 
L 103.643361 247.425354 
L 103.643361 214.842994 
L 98.185928 214.842994 
" style="fill:#3ddad7;"/>
   </g>
   <g id="patch_6">
    <path clip-path="url(#pcfad91e13a)" d="M 118.651301 207.498462 
L 118.651301 247.425354 
L 124.108734 247.425354 
L 124.108734 207.498462 
L 118.651301 207.498462 
" style="fill:#3ddad7;"/>
   </g>
   <g id="patch_7">
    <path clip-path="url(#pcfad91e13a)" d="M 139.116674 201.918058 
L 139.116674 247.425354 
L 144.574106 247.425354 
L 144.574106 201.918058 
L 139.116674 201.918058 
" style="fill:#3ddad7;"/>
   </g>
   <g id="patch_8">
    <path clip-path="url(#pcfad91e13a)" d="M 159.582046 193.205427 
L 159.582046 247.425354 
L 165.039479 247.425354 
L 165.039479 193.205427 
L 159.582046 193.205427 
" style="fill:#3ddad7;"/>
   </g>
   <g id="patch_9">
    <path clip-path="url(#pcfad91e13a)" d="M 180.047419 188.723102 
L 180.047419 247.425354 
L 185.504852 247.425354 
L 185.504852 188.723102 
L 180.047419 188.723102 
" style="fill:#3ddad7;"/>
   </g>
   <g id="patch_10">
    <path clip-path="url(#pcfad91e13a)" d="M 200.512792 184.96083 
L 200.512792 247.425354 
L 205.970225 247.425354 
L 205.970225 184.96083 
L 200.512792 184.96083 
" style="fill:#3ddad7;"/>
   </g>
   <g id="patch_11">
    <path clip-path="url(#pcfad91e13a)" d="M 220.978165 180.280491 
L 220.978165 247.425354 
L 226.435597 247.425354 
L 226.435597 180.280491 
L 220.978165 180.280491 
" style="fill:#3ddad7;"/>
   </g>
   <g id="patch_12">
    <path clip-path="url(#pcfad91e13a)" d="M 241.443537 184.888824 
L 241.443537 247.425354 
L 246.90097 247.425354 
L 246.90097 184.888824 
L 241.443537 184.888824 
" style="fill:#3ddad7;"/>
   </g>
   <g id="patch_13">
    <path clip-path="url(#pcfad91e13a)" d="M 261.90891 185.230849 
L 261.90891 247.425354 
L 267.366343 247.425354 
L 267.366343 185.230849 
L 261.90891 185.230849 
" style="fill:#3ddad7;"/>
   </g>
   <g id="patch_14">
    <path clip-path="url(#pcfad91e13a)" d="M 282.374283 174.718088 
L 282.374283 247.425354 
L 287.831715 247.425354 
L 287.831715 174.718088 
L 282.374283 174.718088 
" style="fill:#3ddad7;"/>
   </g>
   <g id="patch_15">
    <path clip-path="url(#pcfad91e13a)" d="M 302.839655 168.561642 
L 302.839655 247.425354 
L 308.297088 247.425354 
L 308.297088 168.561642 
L 302.839655 168.561642 
" style="fill:#3ddad7;"/>
   </g>
   <g id="patch_16">
    <path clip-path="url(#pcfad91e13a)" d="M 323.305028 134.557179 
L 323.305028 247.425354 
L 328.762461 247.425354 
L 328.762461 134.557179 
L 323.305028 134.557179 
" style="fill:#3ddad7;"/>
   </g>
   <g id="patch_17">
    <path clip-path="url(#pcfad91e13a)" d="M 343.770401 7.593982 
L 343.770401 247.425354 
L 349.227834 247.425354 
L 349.227834 7.593982 
L 343.770401 7.593982 
" style="fill:#3ddad7;"/>
   </g>
   <g id="patch_18">
    <path clip-path="url(#pcfad91e13a)" d="M 364.235773 65.612184 
L 364.235773 247.425354 
L 369.693206 247.425354 
L 369.693206 65.612184 
L 364.235773 65.612184 
" style="fill:#3ddad7;"/>
   </g>
   <g id="patch_19">
    <path clip-path="url(#pcfad91e13a)" d="M 384.701146 217.849212 
L 384.701146 247.425354 
L 390.158579 247.425354 
L 390.158579 217.849212 
L 384.701146 217.849212 
" style="fill:#3ddad7;"/>
   </g>
   <g id="patch_20">
    <path clip-path="url(#pcfad91e13a)" d="M 405.166519 245.625224 
L 405.166519 247.425354 
L 410.623952 247.425354 
L 410.623952 245.625224 
L 405.166519 245.625224 
" style="fill:#3ddad7;"/>
   </g>
   <g id="matplotlib.axis_1">
    <g id="xtick_1">
     <g id="line2d_1">
      <defs>
       <path d="M 0 0 
L 0 -3.5 
" id="mc75b5e2e33" style="stroke:#000000;stroke-width:0.8;"/>
      </defs>
      <g>
       <use style="stroke:#000000;stroke-width:0.8;" x="96.139391" xlink:href="#mc75b5e2e33" y="247.425354"/>
      </g>
     </g>
     <g id="text_1">
      <!-- 4 -->
      <defs>
       <path d="M 37.796875 64.3125 
L 12.890625 25.390625 
L 37.796875 25.390625 
z
M 35.203125 72.90625 
L 47.609375 72.90625 
L 47.609375 25.390625 
L 58.015625 25.390625 
L 58.015625 17.1875 
L 47.609375 17.1875 
L 47.609375 0 
L 37.796875 0 
L 37.796875 17.1875 
L 4.890625 17.1875 
L 4.890625 26.703125 
z
" id="DejaVuSans-34"/>
      </defs>
      <g transform="translate(92.640016 259.283636)scale(0.11 -0.11)">
       <use xlink:href="#DejaVuSans-34"/>
      </g>
     </g>
    </g>
    <g id="xtick_2">
     <g id="line2d_2">
      <g>
       <use style="stroke:#000000;stroke-width:0.8;" x="137.070136" xlink:href="#mc75b5e2e33" y="247.425354"/>
      </g>
     </g>
     <g id="text_2">
      <!-- 6 -->
      <defs>
       <path d="M 33.015625 40.375 
Q 26.375 40.375 22.484375 35.828125 
Q 18.609375 31.296875 18.609375 23.390625 
Q 18.609375 15.53125 22.484375 10.953125 
Q 26.375 6.390625 33.015625 6.390625 
Q 39.65625 6.390625 43.53125 10.953125 
Q 47.40625 15.53125 47.40625 23.390625 
Q 47.40625 31.296875 43.53125 35.828125 
Q 39.65625 40.375 33.015625 40.375 
z
M 52.59375 71.296875 
L 52.59375 62.3125 
Q 48.875 64.0625 45.09375 64.984375 
Q 41.3125 65.921875 37.59375 65.921875 
Q 27.828125 65.921875 22.671875 59.328125 
Q 17.53125 52.734375 16.796875 39.40625 
Q 19.671875 43.65625 24.015625 45.921875 
Q 28.375 48.1875 33.59375 48.1875 
Q 44.578125 48.1875 50.953125 41.515625 
Q 57.328125 34.859375 57.328125 23.390625 
Q 57.328125 12.15625 50.6875 5.359375 
Q 44.046875 -1.421875 33.015625 -1.421875 
Q 20.359375 -1.421875 13.671875 8.265625 
Q 6.984375 17.96875 6.984375 36.375 
Q 6.984375 53.65625 15.1875 63.9375 
Q 23.390625 74.21875 37.203125 74.21875 
Q 40.921875 74.21875 44.703125 73.484375 
Q 48.484375 72.75 52.59375 71.296875 
z
" id="DejaVuSans-36"/>
      </defs>
      <g transform="translate(133.570761 259.283636)scale(0.11 -0.11)">
       <use xlink:href="#DejaVuSans-36"/>
      </g>
     </g>
    </g>
    <g id="xtick_3">
     <g id="line2d_3">
      <g>
       <use style="stroke:#000000;stroke-width:0.8;" x="178.000882" xlink:href="#mc75b5e2e33" y="247.425354"/>
      </g>
     </g>
     <g id="text_3">
      <!-- 8 -->
      <defs>
       <path d="M 31.78125 34.625 
Q 24.75 34.625 20.71875 30.859375 
Q 16.703125 27.09375 16.703125 20.515625 
Q 16.703125 13.921875 20.71875 10.15625 
Q 24.75 6.390625 31.78125 6.390625 
Q 38.8125 6.390625 42.859375 10.171875 
Q 46.921875 13.96875 46.921875 20.515625 
Q 46.921875 27.09375 42.890625 30.859375 
Q 38.875 34.625 31.78125 34.625 
z
M 21.921875 38.8125 
Q 15.578125 40.375 12.03125 44.71875 
Q 8.5 49.078125 8.5 55.328125 
Q 8.5 64.0625 14.71875 69.140625 
Q 20.953125 74.21875 31.78125 74.21875 
Q 42.671875 74.21875 48.875 69.140625 
Q 55.078125 64.0625 55.078125 55.328125 
Q 55.078125 49.078125 51.53125 44.71875 
Q 48 40.375 41.703125 38.8125 
Q 48.828125 37.15625 52.796875 32.3125 
Q 56.78125 27.484375 56.78125 20.515625 
Q 56.78125 9.90625 50.3125 4.234375 
Q 43.84375 -1.421875 31.78125 -1.421875 
Q 19.734375 -1.421875 13.25 4.234375 
Q 6.78125 9.90625 6.78125 20.515625 
Q 6.78125 27.484375 10.78125 32.3125 
Q 14.796875 37.15625 21.921875 38.8125 
z
M 18.3125 54.390625 
Q 18.3125 48.734375 21.84375 45.5625 
Q 25.390625 42.390625 31.78125 42.390625 
Q 38.140625 42.390625 41.71875 45.5625 
Q 45.3125 48.734375 45.3125 54.390625 
Q 45.3125 60.0625 41.71875 63.234375 
Q 38.140625 66.40625 31.78125 66.40625 
Q 25.390625 66.40625 21.84375 63.234375 
Q 18.3125 60.0625 18.3125 54.390625 
z
" id="DejaVuSans-38"/>
      </defs>
      <g transform="translate(174.501507 259.283636)scale(0.11 -0.11)">
       <use xlink:href="#DejaVuSans-38"/>
      </g>
     </g>
    </g>
    <g id="xtick_4">
     <g id="line2d_4">
      <g>
       <use style="stroke:#000000;stroke-width:0.8;" x="218.931627" xlink:href="#mc75b5e2e33" y="247.425354"/>
      </g>
     </g>
     <g id="text_4">
      <!-- 10 -->
      <defs>
       <path d="M 12.40625 8.296875 
L 28.515625 8.296875 
L 28.515625 63.921875 
L 10.984375 60.40625 
L 10.984375 69.390625 
L 28.421875 72.90625 
L 38.28125 72.90625 
L 38.28125 8.296875 
L 54.390625 8.296875 
L 54.390625 0 
L 12.40625 0 
z
" id="DejaVuSans-31"/>
       <path d="M 31.78125 66.40625 
Q 24.171875 66.40625 20.328125 58.90625 
Q 16.5 51.421875 16.5 36.375 
Q 16.5 21.390625 20.328125 13.890625 
Q 24.171875 6.390625 31.78125 6.390625 
Q 39.453125 6.390625 43.28125 13.890625 
Q 47.125 21.390625 47.125 36.375 
Q 47.125 51.421875 43.28125 58.90625 
Q 39.453125 66.40625 31.78125 66.40625 
z
M 31.78125 74.21875 
Q 44.046875 74.21875 50.515625 64.515625 
Q 56.984375 54.828125 56.984375 36.375 
Q 56.984375 17.96875 50.515625 8.265625 
Q 44.046875 -1.421875 31.78125 -1.421875 
Q 19.53125 -1.421875 13.0625 8.265625 
Q 6.59375 17.96875 6.59375 36.375 
Q 6.59375 54.828125 13.0625 64.515625 
Q 19.53125 74.21875 31.78125 74.21875 
z
" id="DejaVuSans-30"/>
      </defs>
      <g transform="translate(211.932877 259.283636)scale(0.11 -0.11)">
       <use xlink:href="#DejaVuSans-31"/>
       <use x="63.623047" xlink:href="#DejaVuSans-30"/>
      </g>
     </g>
    </g>
    <g id="xtick_5">
     <g id="line2d_5">
      <g>
       <use style="stroke:#000000;stroke-width:0.8;" x="259.862373" xlink:href="#mc75b5e2e33" y="247.425354"/>
      </g>
     </g>
     <g id="text_5">
      <!-- 12 -->
      <defs>
       <path d="M 19.1875 8.296875 
L 53.609375 8.296875 
L 53.609375 0 
L 7.328125 0 
L 7.328125 8.296875 
Q 12.9375 14.109375 22.625 23.890625 
Q 32.328125 33.6875 34.8125 36.53125 
Q 39.546875 41.84375 41.421875 45.53125 
Q 43.3125 49.21875 43.3125 52.78125 
Q 43.3125 58.59375 39.234375 62.25 
Q 35.15625 65.921875 28.609375 65.921875 
Q 23.96875 65.921875 18.8125 64.3125 
Q 13.671875 62.703125 7.8125 59.421875 
L 7.8125 69.390625 
Q 13.765625 71.78125 18.9375 73 
Q 24.125 74.21875 28.421875 74.21875 
Q 39.75 74.21875 46.484375 68.546875 
Q 53.21875 62.890625 53.21875 53.421875 
Q 53.21875 48.921875 51.53125 44.890625 
Q 49.859375 40.875 45.40625 35.40625 
Q 44.1875 33.984375 37.640625 27.21875 
Q 31.109375 20.453125 19.1875 8.296875 
z
" id="DejaVuSans-32"/>
      </defs>
      <g transform="translate(252.863623 259.283636)scale(0.11 -0.11)">
       <use xlink:href="#DejaVuSans-31"/>
       <use x="63.623047" xlink:href="#DejaVuSans-32"/>
      </g>
     </g>
    </g>
    <g id="xtick_6">
     <g id="line2d_6">
      <g>
       <use style="stroke:#000000;stroke-width:0.8;" x="300.793118" xlink:href="#mc75b5e2e33" y="247.425354"/>
      </g>
     </g>
     <g id="text_6">
      <!-- 14 -->
      <g transform="translate(293.794368 259.283636)scale(0.11 -0.11)">
       <use xlink:href="#DejaVuSans-31"/>
       <use x="63.623047" xlink:href="#DejaVuSans-34"/>
      </g>
     </g>
    </g>
    <g id="xtick_7">
     <g id="line2d_7">
      <g>
       <use style="stroke:#000000;stroke-width:0.8;" x="341.723864" xlink:href="#mc75b5e2e33" y="247.425354"/>
      </g>
     </g>
     <g id="text_7">
      <!-- 16 -->
      <g transform="translate(334.725114 259.283636)scale(0.11 -0.11)">
       <use xlink:href="#DejaVuSans-31"/>
       <use x="63.623047" xlink:href="#DejaVuSans-36"/>
      </g>
     </g>
    </g>
    <g id="xtick_8">
     <g id="line2d_8">
      <g>
       <use style="stroke:#000000;stroke-width:0.8;" x="382.654609" xlink:href="#mc75b5e2e33" y="247.425354"/>
      </g>
     </g>
     <g id="text_8">
      <!-- 18 -->
      <g transform="translate(375.655859 259.283636)scale(0.11 -0.11)">
       <use xlink:href="#DejaVuSans-31"/>
       <use x="63.623047" xlink:href="#DejaVuSans-38"/>
      </g>
     </g>
    </g>
    <g id="xtick_9">
     <g id="line2d_9">
      <g>
       <use style="stroke:#000000;stroke-width:0.8;" x="423.585354" xlink:href="#mc75b5e2e33" y="247.425354"/>
      </g>
     </g>
     <g id="text_9">
      <!-- 20 -->
      <g transform="translate(416.586604 259.283636)scale(0.11 -0.11)">
       <use xlink:href="#DejaVuSans-32"/>
       <use x="63.623047" xlink:href="#DejaVuSans-30"/>
      </g>
     </g>
    </g>
    <g id="text_10">
     <!-- Distance $[\AA]$  -->
     <defs>
      <path d="M 19.671875 64.796875 
L 19.671875 8.109375 
L 31.59375 8.109375 
Q 46.6875 8.109375 53.6875 14.9375 
Q 60.6875 21.78125 60.6875 36.53125 
Q 60.6875 51.171875 53.6875 57.984375 
Q 46.6875 64.796875 31.59375 64.796875 
z
M 9.8125 72.90625 
L 30.078125 72.90625 
Q 51.265625 72.90625 61.171875 64.09375 
Q 71.09375 55.28125 71.09375 36.53125 
Q 71.09375 17.671875 61.125 8.828125 
Q 51.171875 0 30.078125 0 
L 9.8125 0 
z
" id="DejaVuSans-44"/>
      <path d="M 9.421875 54.6875 
L 18.40625 54.6875 
L 18.40625 0 
L 9.421875 0 
z
M 9.421875 75.984375 
L 18.40625 75.984375 
L 18.40625 64.59375 
L 9.421875 64.59375 
z
" id="DejaVuSans-69"/>
      <path d="M 44.28125 53.078125 
L 44.28125 44.578125 
Q 40.484375 46.53125 36.375 47.5 
Q 32.28125 48.484375 27.875 48.484375 
Q 21.1875 48.484375 17.84375 46.4375 
Q 14.5 44.390625 14.5 40.28125 
Q 14.5 37.15625 16.890625 35.375 
Q 19.28125 33.59375 26.515625 31.984375 
L 29.59375 31.296875 
Q 39.15625 29.25 43.1875 25.515625 
Q 47.21875 21.78125 47.21875 15.09375 
Q 47.21875 7.46875 41.1875 3.015625 
Q 35.15625 -1.421875 24.609375 -1.421875 
Q 20.21875 -1.421875 15.453125 -0.5625 
Q 10.6875 0.296875 5.421875 2 
L 5.421875 11.28125 
Q 10.40625 8.6875 15.234375 7.390625 
Q 20.0625 6.109375 24.8125 6.109375 
Q 31.15625 6.109375 34.5625 8.28125 
Q 37.984375 10.453125 37.984375 14.40625 
Q 37.984375 18.0625 35.515625 20.015625 
Q 33.0625 21.96875 24.703125 23.78125 
L 21.578125 24.515625 
Q 13.234375 26.265625 9.515625 29.90625 
Q 5.8125 33.546875 5.8125 39.890625 
Q 5.8125 47.609375 11.28125 51.796875 
Q 16.75 56 26.8125 56 
Q 31.78125 56 36.171875 55.265625 
Q 40.578125 54.546875 44.28125 53.078125 
z
" id="DejaVuSans-73"/>
      <path d="M 18.3125 70.21875 
L 18.3125 54.6875 
L 36.8125 54.6875 
L 36.8125 47.703125 
L 18.3125 47.703125 
L 18.3125 18.015625 
Q 18.3125 11.328125 20.140625 9.421875 
Q 21.96875 7.515625 27.59375 7.515625 
L 36.8125 7.515625 
L 36.8125 0 
L 27.59375 0 
Q 17.1875 0 13.234375 3.875 
Q 9.28125 7.765625 9.28125 18.015625 
L 9.28125 47.703125 
L 2.6875 47.703125 
L 2.6875 54.6875 
L 9.28125 54.6875 
L 9.28125 70.21875 
z
" id="DejaVuSans-74"/>
      <path d="M 34.28125 27.484375 
Q 23.390625 27.484375 19.1875 25 
Q 14.984375 22.515625 14.984375 16.5 
Q 14.984375 11.71875 18.140625 8.90625 
Q 21.296875 6.109375 26.703125 6.109375 
Q 34.1875 6.109375 38.703125 11.40625 
Q 43.21875 16.703125 43.21875 25.484375 
L 43.21875 27.484375 
z
M 52.203125 31.203125 
L 52.203125 0 
L 43.21875 0 
L 43.21875 8.296875 
Q 40.140625 3.328125 35.546875 0.953125 
Q 30.953125 -1.421875 24.3125 -1.421875 
Q 15.921875 -1.421875 10.953125 3.296875 
Q 6 8.015625 6 15.921875 
Q 6 25.140625 12.171875 29.828125 
Q 18.359375 34.515625 30.609375 34.515625 
L 43.21875 34.515625 
L 43.21875 35.40625 
Q 43.21875 41.609375 39.140625 45 
Q 35.0625 48.390625 27.6875 48.390625 
Q 23 48.390625 18.546875 47.265625 
Q 14.109375 46.140625 10.015625 43.890625 
L 10.015625 52.203125 
Q 14.9375 54.109375 19.578125 55.046875 
Q 24.21875 56 28.609375 56 
Q 40.484375 56 46.34375 49.84375 
Q 52.203125 43.703125 52.203125 31.203125 
z
" id="DejaVuSans-61"/>
      <path d="M 54.890625 33.015625 
L 54.890625 0 
L 45.90625 0 
L 45.90625 32.71875 
Q 45.90625 40.484375 42.875 44.328125 
Q 39.84375 48.1875 33.796875 48.1875 
Q 26.515625 48.1875 22.3125 43.546875 
Q 18.109375 38.921875 18.109375 30.90625 
L 18.109375 0 
L 9.078125 0 
L 9.078125 54.6875 
L 18.109375 54.6875 
L 18.109375 46.1875 
Q 21.34375 51.125 25.703125 53.5625 
Q 30.078125 56 35.796875 56 
Q 45.21875 56 50.046875 50.171875 
Q 54.890625 44.34375 54.890625 33.015625 
z
" id="DejaVuSans-6e"/>
      <path d="M 48.78125 52.59375 
L 48.78125 44.1875 
Q 44.96875 46.296875 41.140625 47.34375 
Q 37.3125 48.390625 33.40625 48.390625 
Q 24.65625 48.390625 19.8125 42.84375 
Q 14.984375 37.3125 14.984375 27.296875 
Q 14.984375 17.28125 19.8125 11.734375 
Q 24.65625 6.203125 33.40625 6.203125 
Q 37.3125 6.203125 41.140625 7.25 
Q 44.96875 8.296875 48.78125 10.40625 
L 48.78125 2.09375 
Q 45.015625 0.34375 40.984375 -0.53125 
Q 36.96875 -1.421875 32.421875 -1.421875 
Q 20.0625 -1.421875 12.78125 6.34375 
Q 5.515625 14.109375 5.515625 27.296875 
Q 5.515625 40.671875 12.859375 48.328125 
Q 20.21875 56 33.015625 56 
Q 37.15625 56 41.109375 55.140625 
Q 45.0625 54.296875 48.78125 52.59375 
z
" id="DejaVuSans-63"/>
      <path d="M 56.203125 29.59375 
L 56.203125 25.203125 
L 14.890625 25.203125 
Q 15.484375 15.921875 20.484375 11.0625 
Q 25.484375 6.203125 34.421875 6.203125 
Q 39.59375 6.203125 44.453125 7.46875 
Q 49.3125 8.734375 54.109375 11.28125 
L 54.109375 2.78125 
Q 49.265625 0.734375 44.1875 -0.34375 
Q 39.109375 -1.421875 33.890625 -1.421875 
Q 20.796875 -1.421875 13.15625 6.1875 
Q 5.515625 13.8125 5.515625 26.8125 
Q 5.515625 40.234375 12.765625 48.109375 
Q 20.015625 56 32.328125 56 
Q 43.359375 56 49.78125 48.890625 
Q 56.203125 41.796875 56.203125 29.59375 
z
M 47.21875 32.234375 
Q 47.125 39.59375 43.09375 43.984375 
Q 39.0625 48.390625 32.421875 48.390625 
Q 24.90625 48.390625 20.390625 44.140625 
Q 15.875 39.890625 15.1875 32.171875 
z
" id="DejaVuSans-65"/>
      <path id="DejaVuSans-20"/>
      <path d="M 8.59375 75.984375 
L 29.296875 75.984375 
L 29.296875 69 
L 17.578125 69 
L 17.578125 -6.203125 
L 29.296875 -6.203125 
L 29.296875 -13.1875 
L 8.59375 -13.1875 
z
" id="DejaVuSans-5b"/>
      <path d="M 49.8125 79.390625 
Q 49.8125 82.46875 47.625 84.640625 
Q 45.453125 86.8125 42.390625 86.8125 
Q 39.265625 86.8125 37.140625 84.6875 
Q 35.015625 82.5625 35.015625 79.390625 
Q 35.015625 76.3125 37.140625 74.15625 
Q 39.265625 72.015625 42.390625 72.015625 
Q 45.453125 72.015625 47.625 74.15625 
Q 49.8125 76.3125 49.8125 79.390625 
z
M 34.421875 68.703125 
Q 31.78125 70.515625 30.390625 73.265625 
Q 29 76.03125 29 79.390625 
Q 29 84.96875 32.90625 88.890625 
Q 36.8125 92.828125 42.390625 92.828125 
Q 47.953125 92.828125 51.875 88.890625 
Q 55.8125 84.96875 55.8125 79.390625 
Q 55.8125 75.53125 54.03125 72.546875 
Q 52.25 69.578125 48.875 67.828125 
L 61.53125 0 
L 51.21875 0 
L 48.1875 18.703125 
L 15.375 18.703125 
L 5.078125 0 
L -5.328125 0 
z
M 40.375 63.1875 
L 19.921875 26.90625 
L 46.6875 26.90625 
z
" id="DejaVuSans-Oblique-c5"/>
      <path d="M 30.421875 75.984375 
L 30.421875 -13.1875 
L 9.71875 -13.1875 
L 9.71875 -6.203125 
L 21.390625 -6.203125 
L 21.390625 69 
L 9.71875 69 
L 9.71875 75.984375 
z
" id="DejaVuSans-5d"/>
     </defs>
     <g transform="translate(187.557 279.363792)scale(0.16 -0.16)">
      <use transform="translate(0 0.171875)" xlink:href="#DejaVuSans-44"/>
      <use transform="translate(77.001953 0.171875)" xlink:href="#DejaVuSans-69"/>
      <use transform="translate(104.785156 0.171875)" xlink:href="#DejaVuSans-73"/>
      <use transform="translate(156.884766 0.171875)" xlink:href="#DejaVuSans-74"/>
      <use transform="translate(196.09375 0.171875)" xlink:href="#DejaVuSans-61"/>
      <use transform="translate(257.373047 0.171875)" xlink:href="#DejaVuSans-6e"/>
      <use transform="translate(320.751953 0.171875)" xlink:href="#DejaVuSans-63"/>
      <use transform="translate(375.732422 0.171875)" xlink:href="#DejaVuSans-65"/>
      <use transform="translate(437.255859 0.171875)" xlink:href="#DejaVuSans-20"/>
      <use transform="translate(469.042969 0.171875)" xlink:href="#DejaVuSans-5b"/>
      <use transform="translate(508.056641 0.171875)" xlink:href="#DejaVuSans-Oblique-c5"/>
      <use transform="translate(576.464844 0.171875)" xlink:href="#DejaVuSans-5d"/>
      <use transform="translate(615.478516 0.171875)" xlink:href="#DejaVuSans-20"/>
     </g>
    </g>
   </g>
   <g id="matplotlib.axis_2">
    <g id="ytick_1">
     <g id="line2d_10">
      <defs>
       <path d="M 0 0 
L 3.5 0 
" id="mb1a05f801b" style="stroke:#000000;stroke-width:0.8;"/>
      </defs>
      <g>
       <use style="stroke:#000000;stroke-width:0.8;" x="55.208646" xlink:href="#mb1a05f801b" y="186.997677"/>
      </g>
     </g>
     <g id="text_11">
      <!-- 0.05 -->
      <defs>
       <path d="M 10.6875 12.40625 
L 21 12.40625 
L 21 0 
L 10.6875 0 
z
" id="DejaVuSans-2e"/>
       <path d="M 10.796875 72.90625 
L 49.515625 72.90625 
L 49.515625 64.59375 
L 19.828125 64.59375 
L 19.828125 46.734375 
Q 21.96875 47.46875 24.109375 47.828125 
Q 26.265625 48.1875 28.421875 48.1875 
Q 40.625 48.1875 47.75 41.5 
Q 54.890625 34.8125 54.890625 23.390625 
Q 54.890625 11.625 47.5625 5.09375 
Q 40.234375 -1.421875 26.90625 -1.421875 
Q 22.3125 -1.421875 17.546875 -0.640625 
Q 12.796875 0.140625 7.71875 1.703125 
L 7.71875 11.625 
Q 12.109375 9.234375 16.796875 8.0625 
Q 21.484375 6.890625 26.703125 6.890625 
Q 35.15625 6.890625 40.078125 11.328125 
Q 45.015625 15.765625 45.015625 23.390625 
Q 45.015625 31 40.078125 35.4375 
Q 35.15625 39.890625 26.703125 39.890625 
Q 22.75 39.890625 18.8125 39.015625 
Q 14.890625 38.140625 10.796875 36.28125 
z
" id="DejaVuSans-35"/>
      </defs>
      <g transform="translate(27.216458 191.176818)scale(0.11 -0.11)">
       <use xlink:href="#DejaVuSans-30"/>
       <use x="63.623047" xlink:href="#DejaVuSans-2e"/>
       <use x="95.410156" xlink:href="#DejaVuSans-30"/>
       <use x="159.033203" xlink:href="#DejaVuSans-35"/>
      </g>
     </g>
    </g>
    <g id="ytick_2">
     <g id="line2d_11">
      <g>
       <use style="stroke:#000000;stroke-width:0.8;" x="55.208646" xlink:href="#mb1a05f801b" y="126.57"/>
      </g>
     </g>
     <g id="text_12">
      <!-- 0.10 -->
      <g transform="translate(27.216458 130.749141)scale(0.11 -0.11)">
       <use xlink:href="#DejaVuSans-30"/>
       <use x="63.623047" xlink:href="#DejaVuSans-2e"/>
       <use x="95.410156" xlink:href="#DejaVuSans-31"/>
       <use x="159.033203" xlink:href="#DejaVuSans-30"/>
      </g>
     </g>
    </g>
    <g id="ytick_3">
     <g id="line2d_12">
      <g>
       <use style="stroke:#000000;stroke-width:0.8;" x="55.208646" xlink:href="#mb1a05f801b" y="66.142323"/>
      </g>
     </g>
     <g id="text_13">
      <!-- 0.15 -->
      <g transform="translate(27.216458 70.321463)scale(0.11 -0.11)">
       <use xlink:href="#DejaVuSans-30"/>
       <use x="63.623047" xlink:href="#DejaVuSans-2e"/>
       <use x="95.410156" xlink:href="#DejaVuSans-31"/>
       <use x="159.033203" xlink:href="#DejaVuSans-35"/>
      </g>
     </g>
    </g>
    <g id="ytick_4">
     <g id="line2d_13">
      <g>
       <use style="stroke:#000000;stroke-width:0.8;" x="55.208646" xlink:href="#mb1a05f801b" y="5.714646"/>
      </g>
     </g>
     <g id="text_14">
      <!-- 0.20 -->
      <g transform="translate(27.216458 9.893786)scale(0.11 -0.11)">
       <use xlink:href="#DejaVuSans-30"/>
       <use x="63.623047" xlink:href="#DejaVuSans-2e"/>
       <use x="95.410156" xlink:href="#DejaVuSans-32"/>
       <use x="159.033203" xlink:href="#DejaVuSans-30"/>
      </g>
     </g>
    </g>
    <g id="text_15">
     <!-- Frequency $[cm^{-1}]$ -->
     <defs>
      <path d="M 9.8125 72.90625 
L 51.703125 72.90625 
L 51.703125 64.59375 
L 19.671875 64.59375 
L 19.671875 43.109375 
L 48.578125 43.109375 
L 48.578125 34.8125 
L 19.671875 34.8125 
L 19.671875 0 
L 9.8125 0 
z
" id="DejaVuSans-46"/>
      <path d="M 41.109375 46.296875 
Q 39.59375 47.171875 37.8125 47.578125 
Q 36.03125 48 33.890625 48 
Q 26.265625 48 22.1875 43.046875 
Q 18.109375 38.09375 18.109375 28.8125 
L 18.109375 0 
L 9.078125 0 
L 9.078125 54.6875 
L 18.109375 54.6875 
L 18.109375 46.1875 
Q 20.953125 51.171875 25.484375 53.578125 
Q 30.03125 56 36.53125 56 
Q 37.453125 56 38.578125 55.875 
Q 39.703125 55.765625 41.0625 55.515625 
z
" id="DejaVuSans-72"/>
      <path d="M 14.796875 27.296875 
Q 14.796875 17.390625 18.875 11.75 
Q 22.953125 6.109375 30.078125 6.109375 
Q 37.203125 6.109375 41.296875 11.75 
Q 45.40625 17.390625 45.40625 27.296875 
Q 45.40625 37.203125 41.296875 42.84375 
Q 37.203125 48.484375 30.078125 48.484375 
Q 22.953125 48.484375 18.875 42.84375 
Q 14.796875 37.203125 14.796875 27.296875 
z
M 45.40625 8.203125 
Q 42.578125 3.328125 38.25 0.953125 
Q 33.9375 -1.421875 27.875 -1.421875 
Q 17.96875 -1.421875 11.734375 6.484375 
Q 5.515625 14.40625 5.515625 27.296875 
Q 5.515625 40.1875 11.734375 48.09375 
Q 17.96875 56 27.875 56 
Q 33.9375 56 38.25 53.625 
Q 42.578125 51.265625 45.40625 46.390625 
L 45.40625 54.6875 
L 54.390625 54.6875 
L 54.390625 -20.796875 
L 45.40625 -20.796875 
z
" id="DejaVuSans-71"/>
      <path d="M 8.5 21.578125 
L 8.5 54.6875 
L 17.484375 54.6875 
L 17.484375 21.921875 
Q 17.484375 14.15625 20.5 10.265625 
Q 23.53125 6.390625 29.59375 6.390625 
Q 36.859375 6.390625 41.078125 11.03125 
Q 45.3125 15.671875 45.3125 23.6875 
L 45.3125 54.6875 
L 54.296875 54.6875 
L 54.296875 0 
L 45.3125 0 
L 45.3125 8.40625 
Q 42.046875 3.421875 37.71875 1 
Q 33.40625 -1.421875 27.6875 -1.421875 
Q 18.265625 -1.421875 13.375 4.4375 
Q 8.5 10.296875 8.5 21.578125 
z
M 31.109375 56 
z
" id="DejaVuSans-75"/>
      <path d="M 32.171875 -5.078125 
Q 28.375 -14.84375 24.75 -17.8125 
Q 21.140625 -20.796875 15.09375 -20.796875 
L 7.90625 -20.796875 
L 7.90625 -13.28125 
L 13.1875 -13.28125 
Q 16.890625 -13.28125 18.9375 -11.515625 
Q 21 -9.765625 23.484375 -3.21875 
L 25.09375 0.875 
L 2.984375 54.6875 
L 12.5 54.6875 
L 29.59375 11.921875 
L 46.6875 54.6875 
L 56.203125 54.6875 
z
" id="DejaVuSans-79"/>
      <path d="M 53.609375 52.59375 
L 51.8125 43.703125 
Q 48.578125 46.046875 44.9375 47.21875 
Q 41.3125 48.390625 37.40625 48.390625 
Q 33.109375 48.390625 29.21875 46.875 
Q 25.34375 45.359375 22.703125 42.578125 
Q 18.5 38.328125 16.203125 32.609375 
Q 13.921875 26.90625 13.921875 20.796875 
Q 13.921875 13.421875 17.609375 9.8125 
Q 21.296875 6.203125 28.8125 6.203125 
Q 32.515625 6.203125 36.6875 7.328125 
Q 40.875 8.453125 45.40625 10.6875 
L 43.703125 1.8125 
Q 39.796875 0.203125 35.671875 -0.609375 
Q 31.546875 -1.421875 27.203125 -1.421875 
Q 16.3125 -1.421875 10.453125 4.015625 
Q 4.59375 9.46875 4.59375 19.578125 
Q 4.59375 28.078125 7.640625 35.234375 
Q 10.6875 42.390625 16.703125 48.09375 
Q 20.796875 52 26.3125 54 
Q 31.84375 56 38.375 56 
Q 42.1875 56 45.9375 55.140625 
Q 49.703125 54.296875 53.609375 52.59375 
z
" id="DejaVuSans-Oblique-63"/>
      <path d="M 89.796875 33.015625 
L 83.40625 0 
L 74.421875 0 
L 80.71875 32.71875 
Q 81.109375 34.8125 81.296875 36.328125 
Q 81.5 37.84375 81.5 38.921875 
Q 81.5 43.3125 79.046875 45.75 
Q 76.609375 48.1875 72.21875 48.1875 
Q 65.671875 48.1875 60.546875 43.28125 
Q 55.421875 38.375 53.90625 30.515625 
L 47.90625 0 
L 38.921875 0 
L 45.3125 32.71875 
Q 45.703125 34.515625 45.890625 36.046875 
Q 46.09375 37.59375 46.09375 38.8125 
Q 46.09375 43.265625 43.65625 45.71875 
Q 41.21875 48.1875 36.921875 48.1875 
Q 30.28125 48.1875 25.140625 43.28125 
Q 20.015625 38.375 18.5 30.515625 
L 12.5 0 
L 3.515625 0 
L 14.203125 54.6875 
L 23.1875 54.6875 
L 21.484375 46.1875 
Q 25.140625 50.984375 30.046875 53.484375 
Q 34.96875 56 40.578125 56 
Q 46.53125 56 50.359375 52.875 
Q 54.203125 49.75 54.984375 44.1875 
Q 59.078125 49.953125 64.46875 52.96875 
Q 69.875 56 75.875 56 
Q 82.90625 56 86.734375 51.953125 
Q 90.578125 47.90625 90.578125 40.484375 
Q 90.578125 38.875 90.375 36.9375 
Q 90.1875 35.015625 89.796875 33.015625 
z
" id="DejaVuSans-Oblique-6d"/>
      <path d="M 10.59375 35.5 
L 73.1875 35.5 
L 73.1875 27.203125 
L 10.59375 27.203125 
z
" id="DejaVuSans-2212"/>
     </defs>
     <g transform="translate(19.856458 198.49)rotate(-90)scale(0.16 -0.16)">
      <use transform="translate(0 0.684375)" xlink:href="#DejaVuSans-46"/>
      <use transform="translate(57.519531 0.684375)" xlink:href="#DejaVuSans-72"/>
      <use transform="translate(98.632812 0.684375)" xlink:href="#DejaVuSans-65"/>
      <use transform="translate(160.15625 0.684375)" xlink:href="#DejaVuSans-71"/>
      <use transform="translate(223.632812 0.684375)" xlink:href="#DejaVuSans-75"/>
      <use transform="translate(287.011719 0.684375)" xlink:href="#DejaVuSans-65"/>
      <use transform="translate(348.535156 0.684375)" xlink:href="#DejaVuSans-6e"/>
      <use transform="translate(411.914062 0.684375)" xlink:href="#DejaVuSans-63"/>
      <use transform="translate(466.894531 0.684375)" xlink:href="#DejaVuSans-79"/>
      <use transform="translate(526.074219 0.684375)" xlink:href="#DejaVuSans-20"/>
      <use transform="translate(557.861328 0.684375)" xlink:href="#DejaVuSans-5b"/>
      <use transform="translate(596.875 0.684375)" xlink:href="#DejaVuSans-Oblique-63"/>
      <use transform="translate(651.855469 0.684375)" xlink:href="#DejaVuSans-Oblique-6d"/>
      <use transform="translate(753.917474 38.965625)scale(0.7)" xlink:href="#DejaVuSans-2212"/>
      <use transform="translate(812.569818 38.965625)scale(0.7)" xlink:href="#DejaVuSans-31"/>
      <use transform="translate(859.840326 0.684375)" xlink:href="#DejaVuSans-5d"/>
     </g>
    </g>
   </g>
   <g id="patch_21">
    <path clip-path="url(#pcfad91e13a)" d="M 62.712616 247.425354 
L 62.712616 247.425354 
L 68.170048 247.425354 
L 68.170048 247.425354 
L 62.712616 247.425354 
" style="fill:#2a93d5;"/>
   </g>
   <g id="patch_22">
    <path clip-path="url(#pcfad91e13a)" d="M 83.177988 245.554368 
L 83.177988 247.425354 
L 88.635421 247.425354 
L 88.635421 245.554368 
L 83.177988 245.554368 
" style="fill:#2a93d5;"/>
   </g>
   <g id="patch_23">
    <path clip-path="url(#pcfad91e13a)" d="M 103.643361 223.587596 
L 103.643361 247.425354 
L 109.100794 247.425354 
L 109.100794 223.587596 
L 103.643361 223.587596 
" style="fill:#2a93d5;"/>
   </g>
   <g id="patch_24">
    <path clip-path="url(#pcfad91e13a)" d="M 124.108734 196.07716 
L 124.108734 247.425354 
L 129.566166 247.425354 
L 129.566166 196.07716 
L 124.108734 196.07716 
" style="fill:#2a93d5;"/>
   </g>
   <g id="patch_25">
    <path clip-path="url(#pcfad91e13a)" d="M 144.574106 182.52983 
L 144.574106 247.425354 
L 150.031539 247.425354 
L 150.031539 182.52983 
L 144.574106 182.52983 
" style="fill:#2a93d5;"/>
   </g>
   <g id="patch_26">
    <path clip-path="url(#pcfad91e13a)" d="M 165.039479 158.103058 
L 165.039479 247.425354 
L 170.496912 247.425354 
L 170.496912 158.103058 
L 165.039479 158.103058 
" style="fill:#2a93d5;"/>
   </g>
   <g id="patch_27">
    <path clip-path="url(#pcfad91e13a)" d="M 185.504852 131.216284 
L 185.504852 247.425354 
L 190.962285 247.425354 
L 190.962285 131.216284 
L 185.504852 131.216284 
" style="fill:#2a93d5;"/>
   </g>
   <g id="patch_28">
    <path clip-path="url(#pcfad91e13a)" d="M 205.970225 98.231479 
L 205.970225 247.425354 
L 211.427657 247.425354 
L 211.427657 98.231479 
L 205.970225 98.231479 
" style="fill:#2a93d5;"/>
   </g>
   <g id="patch_29">
    <path clip-path="url(#pcfad91e13a)" d="M 226.435597 75.225271 
L 226.435597 247.425354 
L 231.89303 247.425354 
L 231.89303 75.225271 
L 226.435597 75.225271 
" style="fill:#2a93d5;"/>
   </g>
   <g id="patch_30">
    <path clip-path="url(#pcfad91e13a)" d="M 246.90097 83.021049 
L 246.90097 247.425354 
L 252.358403 247.425354 
L 252.358403 83.021049 
L 246.90097 83.021049 
" style="fill:#2a93d5;"/>
   </g>
   <g id="patch_31">
    <path clip-path="url(#pcfad91e13a)" d="M 267.366343 92.133448 
L 267.366343 247.425354 
L 272.823775 247.425354 
L 272.823775 92.133448 
L 267.366343 92.133448 
" style="fill:#2a93d5;"/>
   </g>
   <g id="patch_32">
    <path clip-path="url(#pcfad91e13a)" d="M 287.831715 128.167268 
L 287.831715 247.425354 
L 293.289148 247.425354 
L 293.289148 128.167268 
L 287.831715 128.167268 
" style="fill:#2a93d5;"/>
   </g>
   <g id="patch_33">
    <path clip-path="url(#pcfad91e13a)" d="M 308.297088 180.243068 
L 308.297088 247.425354 
L 313.754521 247.425354 
L 313.754521 180.243068 
L 308.297088 180.243068 
" style="fill:#2a93d5;"/>
   </g>
   <g id="patch_34">
    <path clip-path="url(#pcfad91e13a)" d="M 328.762461 220.157454 
L 328.762461 247.425354 
L 334.219894 247.425354 
L 334.219894 220.157454 
L 328.762461 220.157454 
" style="fill:#2a93d5;"/>
   </g>
   <g id="patch_35">
    <path clip-path="url(#pcfad91e13a)" d="M 349.227834 242.020281 
L 349.227834 247.425354 
L 354.685266 247.425354 
L 354.685266 242.020281 
L 349.227834 242.020281 
" style="fill:#2a93d5;"/>
   </g>
   <g id="patch_36">
    <path clip-path="url(#pcfad91e13a)" d="M 369.693206 246.559157 
L 369.693206 247.425354 
L 375.150639 247.425354 
L 375.150639 246.559157 
L 369.693206 246.559157 
" style="fill:#2a93d5;"/>
   </g>
   <g id="patch_37">
    <path clip-path="url(#pcfad91e13a)" d="M 390.158579 247.425354 
L 390.158579 247.425354 
L 395.616012 247.425354 
L 395.616012 247.425354 
L 390.158579 247.425354 
" style="fill:#2a93d5;"/>
   </g>
   <g id="patch_38">
    <path clip-path="url(#pcfad91e13a)" d="M 410.623952 247.425354 
L 410.623952 247.425354 
L 416.081384 247.425354 
L 416.081384 247.425354 
L 410.623952 247.425354 
" style="fill:#2a93d5;"/>
   </g>
   <g id="patch_39">
    <path d="M 55.208646 247.425354 
L 55.208646 5.714646 
" style="fill:none;stroke:#000000;stroke-linecap:square;stroke-linejoin:miter;"/>
   </g>
   <g id="patch_40">
    <path d="M 55.208646 247.425354 
L 423.585354 247.425354 
" style="fill:none;stroke:#000000;stroke-linecap:square;stroke-linejoin:miter;"/>
   </g>
   <g id="patch_41">
    <path clip-path="url(#pcfad91e13a)" d="M 68.170048 247.425354 
L 68.170048 247.425354 
L 73.627481 247.425354 
L 73.627481 247.425354 
L 68.170048 247.425354 
" style="fill:#6d138b;"/>
   </g>
   <g id="patch_42">
    <path clip-path="url(#pcfad91e13a)" d="M 88.635421 240.3465 
L 88.635421 247.425354 
L 94.092854 247.425354 
L 94.092854 240.3465 
L 88.635421 240.3465 
" style="fill:#6d138b;"/>
   </g>
   <g id="patch_43">
    <path clip-path="url(#pcfad91e13a)" d="M 109.100794 202.615188 
L 109.100794 247.425354 
L 114.558227 247.425354 
L 114.558227 202.615188 
L 109.100794 202.615188 
" style="fill:#6d138b;"/>
   </g>
   <g id="patch_44">
    <path clip-path="url(#pcfad91e13a)" d="M 129.566166 196.992749 
L 129.566166 247.425354 
L 135.023599 247.425354 
L 135.023599 196.992749 
L 129.566166 196.992749 
" style="fill:#6d138b;"/>
   </g>
   <g id="patch_45">
    <path clip-path="url(#pcfad91e13a)" d="M 150.031539 176.738418 
L 150.031539 247.425354 
L 155.488972 247.425354 
L 155.488972 176.738418 
L 150.031539 176.738418 
" style="fill:#6d138b;"/>
   </g>
   <g id="patch_46">
    <path clip-path="url(#pcfad91e13a)" d="M 170.496912 117.635063 
L 170.496912 247.425354 
L 175.954345 247.425354 
L 175.954345 117.635063 
L 170.496912 117.635063 
" style="fill:#6d138b;"/>
   </g>
   <g id="patch_47">
    <path clip-path="url(#pcfad91e13a)" d="M 190.962285 40.749896 
L 190.962285 247.425354 
L 196.419717 247.425354 
L 196.419717 40.749896 
L 190.962285 40.749896 
" style="fill:#6d138b;"/>
   </g>
   <g id="patch_48">
    <path clip-path="url(#pcfad91e13a)" d="M 211.427657 18.294007 
L 211.427657 247.425354 
L 216.88509 247.425354 
L 216.88509 18.294007 
L 211.427657 18.294007 
" style="fill:#6d138b;"/>
   </g>
   <g id="patch_49">
    <path clip-path="url(#pcfad91e13a)" d="M 231.89303 49.183555 
L 231.89303 247.425354 
L 237.350463 247.425354 
L 237.350463 49.183555 
L 231.89303 49.183555 
" style="fill:#6d138b;"/>
   </g>
   <g id="patch_50">
    <path clip-path="url(#pcfad91e13a)" d="M 252.358403 103.816055 
L 252.358403 247.425354 
L 257.815835 247.425354 
L 257.815835 103.816055 
L 252.358403 103.816055 
" style="fill:#6d138b;"/>
   </g>
   <g id="patch_51">
    <path clip-path="url(#pcfad91e13a)" d="M 272.823775 171.962732 
L 272.823775 247.425354 
L 278.281208 247.425354 
L 278.281208 171.962732 
L 272.823775 171.962732 
" style="fill:#6d138b;"/>
   </g>
   <g id="patch_52">
    <path clip-path="url(#pcfad91e13a)" d="M 293.289148 211.048848 
L 293.289148 247.425354 
L 298.746581 247.425354 
L 298.746581 211.048848 
L 293.289148 211.048848 
" style="fill:#6d138b;"/>
   </g>
   <g id="patch_53">
    <path clip-path="url(#pcfad91e13a)" d="M 313.754521 234.216008 
L 313.754521 247.425354 
L 319.211954 247.425354 
L 319.211954 234.216008 
L 313.754521 234.216008 
" style="fill:#6d138b;"/>
   </g>
   <g id="patch_54">
    <path clip-path="url(#pcfad91e13a)" d="M 334.219894 244.681875 
L 334.219894 247.425354 
L 339.677326 247.425354 
L 339.677326 244.681875 
L 334.219894 244.681875 
" style="fill:#6d138b;"/>
   </g>
   <g id="patch_55">
    <path clip-path="url(#pcfad91e13a)" d="M 354.685266 247.222134 
L 354.685266 247.425354 
L 360.142699 247.425354 
L 360.142699 247.222134 
L 354.685266 247.222134 
" style="fill:#6d138b;"/>
   </g>
   <g id="patch_56">
    <path clip-path="url(#pcfad91e13a)" d="M 375.150639 247.323744 
L 375.150639 247.425354 
L 380.608072 247.425354 
L 380.608072 247.323744 
L 375.150639 247.323744 
" style="fill:#6d138b;"/>
   </g>
   <g id="patch_57">
    <path clip-path="url(#pcfad91e13a)" d="M 395.616012 247.425354 
L 395.616012 247.425354 
L 401.073444 247.425354 
L 401.073444 247.425354 
L 395.616012 247.425354 
" style="fill:#6d138b;"/>
   </g>
   <g id="patch_58">
    <path clip-path="url(#pcfad91e13a)" d="M 416.081384 247.425354 
L 416.081384 247.425354 
L 421.538817 247.425354 
L 421.538817 247.425354 
L 416.081384 247.425354 
" style="fill:#6d138b;"/>
   </g>
   <g id="legend_1">
    <g id="patch_59">
     <path d="M 369.700354 47.342146 
L 417.985354 47.342146 
Q 419.585354 47.342146 419.585354 45.742146 
L 419.585354 11.314646 
Q 419.585354 9.714646 417.985354 9.714646 
L 369.700354 9.714646 
Q 368.100354 9.714646 368.100354 11.314646 
L 368.100354 45.742146 
Q 368.100354 47.342146 369.700354 47.342146 
z
" style="fill:#ffffff;stroke:#000000;stroke-linejoin:miter;"/>
    </g>
    <g id="patch_60">
     <path d="M 371.300354 18.993396 
L 387.300354 18.993396 
L 387.300354 13.393396 
L 371.300354 13.393396 
z
" style="fill:#3ddad7;"/>
    </g>
    <g id="text_16">
     <!-- pop 1 -->
     <defs>
      <path d="M 18.109375 8.203125 
L 18.109375 -20.796875 
L 9.078125 -20.796875 
L 9.078125 54.6875 
L 18.109375 54.6875 
L 18.109375 46.390625 
Q 20.953125 51.265625 25.265625 53.625 
Q 29.59375 56 35.59375 56 
Q 45.5625 56 51.78125 48.09375 
Q 58.015625 40.1875 58.015625 27.296875 
Q 58.015625 14.40625 51.78125 6.484375 
Q 45.5625 -1.421875 35.59375 -1.421875 
Q 29.59375 -1.421875 25.265625 0.953125 
Q 20.953125 3.328125 18.109375 8.203125 
z
M 48.6875 27.296875 
Q 48.6875 37.203125 44.609375 42.84375 
Q 40.53125 48.484375 33.40625 48.484375 
Q 26.265625 48.484375 22.1875 42.84375 
Q 18.109375 37.203125 18.109375 27.296875 
Q 18.109375 17.390625 22.1875 11.75 
Q 26.265625 6.109375 33.40625 6.109375 
Q 40.53125 6.109375 44.609375 11.75 
Q 48.6875 17.390625 48.6875 27.296875 
z
" id="DejaVuSans-70"/>
      <path d="M 30.609375 48.390625 
Q 23.390625 48.390625 19.1875 42.75 
Q 14.984375 37.109375 14.984375 27.296875 
Q 14.984375 17.484375 19.15625 11.84375 
Q 23.34375 6.203125 30.609375 6.203125 
Q 37.796875 6.203125 41.984375 11.859375 
Q 46.1875 17.53125 46.1875 27.296875 
Q 46.1875 37.015625 41.984375 42.703125 
Q 37.796875 48.390625 30.609375 48.390625 
z
M 30.609375 56 
Q 42.328125 56 49.015625 48.375 
Q 55.71875 40.765625 55.71875 27.296875 
Q 55.71875 13.875 49.015625 6.21875 
Q 42.328125 -1.421875 30.609375 -1.421875 
Q 18.84375 -1.421875 12.171875 6.21875 
Q 5.515625 13.875 5.515625 27.296875 
Q 5.515625 40.765625 12.171875 48.375 
Q 18.84375 56 30.609375 56 
z
" id="DejaVuSans-6f"/>
     </defs>
     <g transform="translate(393.700354 18.993396)scale(0.08 -0.08)">
      <use xlink:href="#DejaVuSans-70"/>
      <use x="63.476562" xlink:href="#DejaVuSans-6f"/>
      <use x="124.658203" xlink:href="#DejaVuSans-70"/>
      <use x="188.134766" xlink:href="#DejaVuSans-20"/>
      <use x="219.921875" xlink:href="#DejaVuSans-31"/>
     </g>
    </g>
    <g id="patch_61">
     <path d="M 371.300354 30.735896 
L 387.300354 30.735896 
L 387.300354 25.135896 
L 371.300354 25.135896 
z
" style="fill:#2a93d5;"/>
    </g>
    <g id="text_17">
     <!-- pop 2 -->
     <g transform="translate(393.700354 30.735896)scale(0.08 -0.08)">
      <use xlink:href="#DejaVuSans-70"/>
      <use x="63.476562" xlink:href="#DejaVuSans-6f"/>
      <use x="124.658203" xlink:href="#DejaVuSans-70"/>
      <use x="188.134766" xlink:href="#DejaVuSans-20"/>
      <use x="219.921875" xlink:href="#DejaVuSans-32"/>
     </g>
    </g>
    <g id="patch_62">
     <path d="M 371.300354 42.478396 
L 387.300354 42.478396 
L 387.300354 36.878396 
L 371.300354 36.878396 
z
" style="fill:#6d138b;"/>
    </g>
    <g id="text_18">
     <!-- pop 3 -->
     <defs>
      <path d="M 40.578125 39.3125 
Q 47.65625 37.796875 51.625 33 
Q 55.609375 28.21875 55.609375 21.1875 
Q 55.609375 10.40625 48.1875 4.484375 
Q 40.765625 -1.421875 27.09375 -1.421875 
Q 22.515625 -1.421875 17.65625 -0.515625 
Q 12.796875 0.390625 7.625 2.203125 
L 7.625 11.71875 
Q 11.71875 9.328125 16.59375 8.109375 
Q 21.484375 6.890625 26.8125 6.890625 
Q 36.078125 6.890625 40.9375 10.546875 
Q 45.796875 14.203125 45.796875 21.1875 
Q 45.796875 27.640625 41.28125 31.265625 
Q 36.765625 34.90625 28.71875 34.90625 
L 20.21875 34.90625 
L 20.21875 43.015625 
L 29.109375 43.015625 
Q 36.375 43.015625 40.234375 45.921875 
Q 44.09375 48.828125 44.09375 54.296875 
Q 44.09375 59.90625 40.109375 62.90625 
Q 36.140625 65.921875 28.71875 65.921875 
Q 24.65625 65.921875 20.015625 65.03125 
Q 15.375 64.15625 9.8125 62.3125 
L 9.8125 71.09375 
Q 15.4375 72.65625 20.34375 73.4375 
Q 25.25 74.21875 29.59375 74.21875 
Q 40.828125 74.21875 47.359375 69.109375 
Q 53.90625 64.015625 53.90625 55.328125 
Q 53.90625 49.265625 50.4375 45.09375 
Q 46.96875 40.921875 40.578125 39.3125 
z
" id="DejaVuSans-33"/>
     </defs>
     <g transform="translate(393.700354 42.478396)scale(0.08 -0.08)">
      <use xlink:href="#DejaVuSans-70"/>
      <use x="63.476562" xlink:href="#DejaVuSans-6f"/>
      <use x="124.658203" xlink:href="#DejaVuSans-70"/>
      <use x="188.134766" xlink:href="#DejaVuSans-20"/>
      <use x="219.921875" xlink:href="#DejaVuSans-33"/>
     </g>
    </g>
   </g>
  </g>
 </g>
 <defs>
  <clipPath id="pcfad91e13a">
   <rect height="241.710709" width="368.376709" x="55.208646" y="5.714646"/>
  </clipPath>
 </defs>
</svg>
