<?xml version="1.0" encoding="utf-8" standalone="no"?>
<!DOCTYPE svg PUBLIC "-//W3C//DTD SVG 1.1//EN"
  "http://www.w3.org/Graphics/SVG/1.1/DTD/svg11.dtd">
<!-- Created with matplotlib (http://matplotlib.org/) -->
<svg height="288pt" version="1.1" viewBox="0 0 432 288" width="432pt" xmlns="http://www.w3.org/2000/svg" xmlns:xlink="http://www.w3.org/1999/xlink">
 <defs>
  <style type="text/css">
*{stroke-linecap:butt;stroke-linejoin:round;}
  </style>
 </defs>
 <g id="figure_1">
  <g id="patch_1">
   <path d="M 0 288 
L 432 288 
L 432 0 
L 0 0 
z
" style="fill:#ffffff;"/>
  </g>
  <g id="axes_1">
   <g id="patch_2">
    <path d="M 55.208646 247.425354 
L 429.165354 247.425354 
L 429.165354 5.714646 
L 55.208646 5.714646 
z
" style="fill:#ffffff;"/>
   </g>
   <g id="patch_3">
    <path clip-path="url(#pc2523040d9)" d="M 59.727289 247.425354 
L 59.727289 247.425354 
L 66.271532 247.425354 
L 66.271532 247.425354 
L 59.727289 247.425354 
" style="fill:#3ddad7;fill-opacity:0.7;"/>
   </g>
   <g id="patch_4">
    <path clip-path="url(#pc2523040d9)" d="M 69.076207 247.425354 
L 69.076207 247.425354 
L 75.620449 247.425354 
L 75.620449 247.425354 
L 69.076207 247.425354 
" style="fill:#3ddad7;fill-opacity:0.7;"/>
   </g>
   <g id="patch_5">
    <path clip-path="url(#pc2523040d9)" d="M 78.425125 247.425354 
L 78.425125 247.425354 
L 84.969367 247.425354 
L 84.969367 247.425354 
L 78.425125 247.425354 
" style="fill:#3ddad7;fill-opacity:0.7;"/>
   </g>
   <g id="patch_6">
    <path clip-path="url(#pc2523040d9)" d="M 87.774042 247.425354 
L 87.774042 247.425354 
L 94.318285 247.425354 
L 94.318285 247.425354 
L 87.774042 247.425354 
" style="fill:#3ddad7;fill-opacity:0.7;"/>
   </g>
   <g id="patch_7">
    <path clip-path="url(#pc2523040d9)" d="M 97.12296 247.425354 
L 97.12296 247.425354 
L 103.667203 247.425354 
L 103.667203 247.425354 
L 97.12296 247.425354 
" style="fill:#3ddad7;fill-opacity:0.7;"/>
   </g>
   <g id="patch_8">
    <path clip-path="url(#pc2523040d9)" d="M 106.471878 247.353268 
L 106.471878 247.425354 
L 113.01612 247.425354 
L 113.01612 247.353268 
L 106.471878 247.353268 
" style="fill:#3ddad7;fill-opacity:0.7;"/>
   </g>
   <g id="patch_9">
    <path clip-path="url(#pc2523040d9)" d="M 115.820796 247.227116 
L 115.820796 247.425354 
L 122.365038 247.425354 
L 122.365038 247.227116 
L 115.820796 247.227116 
" style="fill:#3ddad7;fill-opacity:0.7;"/>
   </g>
   <g id="patch_10">
    <path clip-path="url(#pc2523040d9)" d="M 125.169713 246.524269 
L 125.169713 247.425354 
L 131.713956 247.425354 
L 131.713956 246.524269 
L 125.169713 246.524269 
" style="fill:#3ddad7;fill-opacity:0.7;"/>
   </g>
   <g id="patch_11">
    <path clip-path="url(#pc2523040d9)" d="M 134.518631 245.731314 
L 134.518631 247.425354 
L 141.062873 247.425354 
L 141.062873 245.731314 
L 134.518631 245.731314 
" style="fill:#3ddad7;fill-opacity:0.7;"/>
   </g>
   <g id="patch_12">
    <path clip-path="url(#pc2523040d9)" d="M 143.867549 243.911122 
L 143.867549 247.425354 
L 150.411791 247.425354 
L 150.411791 243.911122 
L 143.867549 243.911122 
" style="fill:#3ddad7;fill-opacity:0.7;"/>
   </g>
   <g id="patch_13">
    <path clip-path="url(#pc2523040d9)" d="M 153.216466 240.126564 
L 153.216466 247.425354 
L 159.760709 247.425354 
L 159.760709 240.126564 
L 153.216466 240.126564 
" style="fill:#3ddad7;fill-opacity:0.7;"/>
   </g>
   <g id="patch_14">
    <path clip-path="url(#pc2523040d9)" d="M 162.565384 233.981163 
L 162.565384 247.425354 
L 169.109627 247.425354 
L 169.109627 233.981163 
L 162.565384 233.981163 
" style="fill:#3ddad7;fill-opacity:0.7;"/>
   </g>
   <g id="patch_15">
    <path clip-path="url(#pc2523040d9)" d="M 171.914302 225.384809 
L 171.914302 247.425354 
L 178.458544 247.425354 
L 178.458544 225.384809 
L 171.914302 225.384809 
" style="fill:#3ddad7;fill-opacity:0.7;"/>
   </g>
   <g id="patch_16">
    <path clip-path="url(#pc2523040d9)" d="M 181.26322 216.986695 
L 181.26322 247.425354 
L 187.807462 247.425354 
L 187.807462 216.986695 
L 181.26322 216.986695 
" style="fill:#3ddad7;fill-opacity:0.7;"/>
   </g>
   <g id="patch_17">
    <path clip-path="url(#pc2523040d9)" d="M 190.612137 204.695892 
L 190.612137 247.425354 
L 197.15638 247.425354 
L 197.15638 204.695892 
L 190.612137 204.695892 
" style="fill:#3ddad7;fill-opacity:0.7;"/>
   </g>
   <g id="patch_18">
    <path clip-path="url(#pc2523040d9)" d="M 199.961055 188.097902 
L 199.961055 247.425354 
L 206.505297 247.425354 
L 206.505297 188.097902 
L 199.961055 188.097902 
" style="fill:#3ddad7;fill-opacity:0.7;"/>
   </g>
   <g id="patch_19">
    <path clip-path="url(#pc2523040d9)" d="M 209.309973 177.825531 
L 209.309973 247.425354 
L 215.854215 247.425354 
L 215.854215 177.825531 
L 209.309973 177.825531 
" style="fill:#3ddad7;fill-opacity:0.7;"/>
   </g>
   <g id="patch_20">
    <path clip-path="url(#pc2523040d9)" d="M 218.65889 166.183509 
L 218.65889 247.425354 
L 225.203133 247.425354 
L 225.203133 166.183509 
L 218.65889 166.183509 
" style="fill:#3ddad7;fill-opacity:0.7;"/>
   </g>
   <g id="patch_21">
    <path clip-path="url(#pc2523040d9)" d="M 228.007808 162.056539 
L 228.007808 247.425354 
L 234.552051 247.425354 
L 234.552051 162.056539 
L 228.007808 162.056539 
" style="fill:#3ddad7;fill-opacity:0.7;"/>
   </g>
   <g id="patch_22">
    <path clip-path="url(#pc2523040d9)" d="M 237.356726 156.505854 
L 237.356726 247.425354 
L 243.900968 247.425354 
L 243.900968 156.505854 
L 237.356726 156.505854 
" style="fill:#3ddad7;fill-opacity:0.7;"/>
   </g>
   <g id="patch_23">
    <path clip-path="url(#pc2523040d9)" d="M 246.705644 159.082958 
L 246.705644 247.425354 
L 253.249886 247.425354 
L 253.249886 159.082958 
L 246.705644 159.082958 
" style="fill:#3ddad7;fill-opacity:0.7;"/>
   </g>
   <g id="patch_24">
    <path clip-path="url(#pc2523040d9)" d="M 256.054561 171.337717 
L 256.054561 247.425354 
L 262.598804 247.425354 
L 262.598804 171.337717 
L 256.054561 171.337717 
" style="fill:#3ddad7;fill-opacity:0.7;"/>
   </g>
   <g id="patch_25">
    <path clip-path="url(#pc2523040d9)" d="M 265.403479 171.319695 
L 265.403479 247.425354 
L 271.947721 247.425354 
L 271.947721 171.319695 
L 265.403479 171.319695 
" style="fill:#3ddad7;fill-opacity:0.7;"/>
   </g>
   <g id="patch_26">
    <path clip-path="url(#pc2523040d9)" d="M 274.752397 177.39301 
L 274.752397 247.425354 
L 281.296639 247.425354 
L 281.296639 177.39301 
L 274.752397 177.39301 
" style="fill:#3ddad7;fill-opacity:0.7;"/>
   </g>
   <g id="patch_27">
    <path clip-path="url(#pc2523040d9)" d="M 284.101314 187.052643 
L 284.101314 247.425354 
L 290.645557 247.425354 
L 290.645557 187.052643 
L 284.101314 187.052643 
" style="fill:#3ddad7;fill-opacity:0.7;"/>
   </g>
   <g id="patch_28">
    <path clip-path="url(#pc2523040d9)" d="M 293.450232 189.287335 
L 293.450232 247.425354 
L 299.994475 247.425354 
L 299.994475 189.287335 
L 293.450232 189.287335 
" style="fill:#3ddad7;fill-opacity:0.7;"/>
   </g>
   <g id="patch_29">
    <path clip-path="url(#pc2523040d9)" d="M 302.79915 189.539639 
L 302.79915 247.425354 
L 309.343392 247.425354 
L 309.343392 189.539639 
L 302.79915 189.539639 
" style="fill:#3ddad7;fill-opacity:0.7;"/>
   </g>
   <g id="patch_30">
    <path clip-path="url(#pc2523040d9)" d="M 312.148068 203.416351 
L 312.148068 247.425354 
L 318.69231 247.425354 
L 318.69231 203.416351 
L 312.148068 203.416351 
" style="fill:#3ddad7;fill-opacity:0.7;"/>
   </g>
   <g id="patch_31">
    <path clip-path="url(#pc2523040d9)" d="M 321.496985 206.588171 
L 321.496985 247.425354 
L 328.041228 247.425354 
L 328.041228 206.588171 
L 321.496985 206.588171 
" style="fill:#3ddad7;fill-opacity:0.7;"/>
   </g>
   <g id="patch_32">
    <path clip-path="url(#pc2523040d9)" d="M 330.845903 215.941436 
L 330.845903 247.425354 
L 337.390145 247.425354 
L 337.390145 215.941436 
L 330.845903 215.941436 
" style="fill:#3ddad7;fill-opacity:0.7;"/>
   </g>
   <g id="patch_33">
    <path clip-path="url(#pc2523040d9)" d="M 340.194821 220.897405 
L 340.194821 247.425354 
L 346.739063 247.425354 
L 346.739063 220.897405 
L 340.194821 220.897405 
" style="fill:#3ddad7;fill-opacity:0.7;"/>
   </g>
   <g id="patch_34">
    <path clip-path="url(#pc2523040d9)" d="M 349.543738 227.421262 
L 349.543738 247.425354 
L 356.087981 247.425354 
L 356.087981 227.421262 
L 349.543738 227.421262 
" style="fill:#3ddad7;fill-opacity:0.7;"/>
   </g>
   <g id="patch_35">
    <path clip-path="url(#pc2523040d9)" d="M 358.892656 231.818558 
L 358.892656 247.425354 
L 365.436899 247.425354 
L 365.436899 231.818558 
L 358.892656 231.818558 
" style="fill:#3ddad7;fill-opacity:0.7;"/>
   </g>
   <g id="patch_36">
    <path clip-path="url(#pc2523040d9)" d="M 368.241574 235.621138 
L 368.241574 247.425354 
L 374.785816 247.425354 
L 374.785816 235.621138 
L 368.241574 235.621138 
" style="fill:#3ddad7;fill-opacity:0.7;"/>
   </g>
   <g id="patch_37">
    <path clip-path="url(#pc2523040d9)" d="M 377.590492 240.559085 
L 377.590492 247.425354 
L 384.134734 247.425354 
L 384.134734 240.559085 
L 377.590492 240.559085 
" style="fill:#3ddad7;fill-opacity:0.7;"/>
   </g>
   <g id="patch_38">
    <path clip-path="url(#pc2523040d9)" d="M 386.939409 240.82941 
L 386.939409 247.425354 
L 393.483652 247.425354 
L 393.483652 240.82941 
L 386.939409 240.82941 
" style="fill:#3ddad7;fill-opacity:0.7;"/>
   </g>
   <g id="patch_39">
    <path clip-path="url(#pc2523040d9)" d="M 396.288327 244.487816 
L 396.288327 247.425354 
L 402.832569 247.425354 
L 402.832569 244.487816 
L 396.288327 244.487816 
" style="fill:#3ddad7;fill-opacity:0.7;"/>
   </g>
   <g id="patch_40">
    <path clip-path="url(#pc2523040d9)" d="M 405.637245 244.271556 
L 405.637245 247.425354 
L 412.181487 247.425354 
L 412.181487 244.271556 
L 405.637245 244.271556 
" style="fill:#3ddad7;fill-opacity:0.7;"/>
   </g>
   <g id="patch_41">
    <path clip-path="url(#pc2523040d9)" d="M 414.986162 245.100554 
L 414.986162 247.425354 
L 421.530405 247.425354 
L 421.530405 245.100554 
L 414.986162 245.100554 
" style="fill:#3ddad7;fill-opacity:0.7;"/>
   </g>
   <g id="patch_42">
    <path clip-path="url(#pc2523040d9)" d="M 424.33508 246.776573 
L 424.33508 247.425354 
L 430.879323 247.425354 
L 430.879323 246.776573 
L 424.33508 246.776573 
" style="fill:#3ddad7;fill-opacity:0.7;"/>
   </g>
   <g id="matplotlib.axis_1">
    <g id="xtick_1">
     <g id="line2d_1">
      <defs>
       <path d="M 0 0 
L 0 -3.5 
" id="mbeab6ca78e" style="stroke:#000000;stroke-width:0.8;"/>
      </defs>
      <g>
       <use style="stroke:#000000;stroke-width:0.8;" x="55.208646" xlink:href="#mbeab6ca78e" y="247.425354"/>
      </g>
     </g>
     <g id="text_1">
      <!-- 700 -->
      <defs>
       <path d="M 8.203125 72.90625 
L 55.078125 72.90625 
L 55.078125 68.703125 
L 28.609375 0 
L 18.3125 0 
L 43.21875 64.59375 
L 8.203125 64.59375 
z
" id="DejaVuSans-37"/>
       <path d="M 31.78125 66.40625 
Q 24.171875 66.40625 20.328125 58.90625 
Q 16.5 51.421875 16.5 36.375 
Q 16.5 21.390625 20.328125 13.890625 
Q 24.171875 6.390625 31.78125 6.390625 
Q 39.453125 6.390625 43.28125 13.890625 
Q 47.125 21.390625 47.125 36.375 
Q 47.125 51.421875 43.28125 58.90625 
Q 39.453125 66.40625 31.78125 66.40625 
z
M 31.78125 74.21875 
Q 44.046875 74.21875 50.515625 64.515625 
Q 56.984375 54.828125 56.984375 36.375 
Q 56.984375 17.96875 50.515625 8.265625 
Q 44.046875 -1.421875 31.78125 -1.421875 
Q 19.53125 -1.421875 13.0625 8.265625 
Q 6.59375 17.96875 6.59375 36.375 
Q 6.59375 54.828125 13.0625 64.515625 
Q 19.53125 74.21875 31.78125 74.21875 
z
" id="DejaVuSans-30"/>
      </defs>
      <g transform="translate(44.710521 259.283636)scale(0.11 -0.11)">
       <use xlink:href="#DejaVuSans-37"/>
       <use x="63.623047" xlink:href="#DejaVuSans-30"/>
       <use x="127.246094" xlink:href="#DejaVuSans-30"/>
      </g>
     </g>
    </g>
    <g id="xtick_2">
     <g id="line2d_2">
      <g>
       <use style="stroke:#000000;stroke-width:0.8;" x="125.325529" xlink:href="#mbeab6ca78e" y="247.425354"/>
      </g>
     </g>
     <g id="text_2">
      <!-- 1000 -->
      <defs>
       <path d="M 12.40625 8.296875 
L 28.515625 8.296875 
L 28.515625 63.921875 
L 10.984375 60.40625 
L 10.984375 69.390625 
L 28.421875 72.90625 
L 38.28125 72.90625 
L 38.28125 8.296875 
L 54.390625 8.296875 
L 54.390625 0 
L 12.40625 0 
z
" id="DejaVuSans-31"/>
      </defs>
      <g transform="translate(111.328029 259.283636)scale(0.11 -0.11)">
       <use xlink:href="#DejaVuSans-31"/>
       <use x="63.623047" xlink:href="#DejaVuSans-30"/>
       <use x="127.246094" xlink:href="#DejaVuSans-30"/>
       <use x="190.869141" xlink:href="#DejaVuSans-30"/>
      </g>
     </g>
    </g>
    <g id="xtick_3">
     <g id="line2d_3">
      <g>
       <use style="stroke:#000000;stroke-width:0.8;" x="195.442411" xlink:href="#mbeab6ca78e" y="247.425354"/>
      </g>
     </g>
     <g id="text_3">
      <!-- 1300 -->
      <defs>
       <path d="M 40.578125 39.3125 
Q 47.65625 37.796875 51.625 33 
Q 55.609375 28.21875 55.609375 21.1875 
Q 55.609375 10.40625 48.1875 4.484375 
Q 40.765625 -1.421875 27.09375 -1.421875 
Q 22.515625 -1.421875 17.65625 -0.515625 
Q 12.796875 0.390625 7.625 2.203125 
L 7.625 11.71875 
Q 11.71875 9.328125 16.59375 8.109375 
Q 21.484375 6.890625 26.8125 6.890625 
Q 36.078125 6.890625 40.9375 10.546875 
Q 45.796875 14.203125 45.796875 21.1875 
Q 45.796875 27.640625 41.28125 31.265625 
Q 36.765625 34.90625 28.71875 34.90625 
L 20.21875 34.90625 
L 20.21875 43.015625 
L 29.109375 43.015625 
Q 36.375 43.015625 40.234375 45.921875 
Q 44.09375 48.828125 44.09375 54.296875 
Q 44.09375 59.90625 40.109375 62.90625 
Q 36.140625 65.921875 28.71875 65.921875 
Q 24.65625 65.921875 20.015625 65.03125 
Q 15.375 64.15625 9.8125 62.3125 
L 9.8125 71.09375 
Q 15.4375 72.65625 20.34375 73.4375 
Q 25.25 74.21875 29.59375 74.21875 
Q 40.828125 74.21875 47.359375 69.109375 
Q 53.90625 64.015625 53.90625 55.328125 
Q 53.90625 49.265625 50.4375 45.09375 
Q 46.96875 40.921875 40.578125 39.3125 
z
" id="DejaVuSans-33"/>
      </defs>
      <g transform="translate(181.444911 259.283636)scale(0.11 -0.11)">
       <use xlink:href="#DejaVuSans-31"/>
       <use x="63.623047" xlink:href="#DejaVuSans-33"/>
       <use x="127.246094" xlink:href="#DejaVuSans-30"/>
       <use x="190.869141" xlink:href="#DejaVuSans-30"/>
      </g>
     </g>
    </g>
    <g id="xtick_4">
     <g id="line2d_4">
      <g>
       <use style="stroke:#000000;stroke-width:0.8;" x="265.559294" xlink:href="#mbeab6ca78e" y="247.425354"/>
      </g>
     </g>
     <g id="text_4">
      <!-- 1600 -->
      <defs>
       <path d="M 33.015625 40.375 
Q 26.375 40.375 22.484375 35.828125 
Q 18.609375 31.296875 18.609375 23.390625 
Q 18.609375 15.53125 22.484375 10.953125 
Q 26.375 6.390625 33.015625 6.390625 
Q 39.65625 6.390625 43.53125 10.953125 
Q 47.40625 15.53125 47.40625 23.390625 
Q 47.40625 31.296875 43.53125 35.828125 
Q 39.65625 40.375 33.015625 40.375 
z
M 52.59375 71.296875 
L 52.59375 62.3125 
Q 48.875 64.0625 45.09375 64.984375 
Q 41.3125 65.921875 37.59375 65.921875 
Q 27.828125 65.921875 22.671875 59.328125 
Q 17.53125 52.734375 16.796875 39.40625 
Q 19.671875 43.65625 24.015625 45.921875 
Q 28.375 48.1875 33.59375 48.1875 
Q 44.578125 48.1875 50.953125 41.515625 
Q 57.328125 34.859375 57.328125 23.390625 
Q 57.328125 12.15625 50.6875 5.359375 
Q 44.046875 -1.421875 33.015625 -1.421875 
Q 20.359375 -1.421875 13.671875 8.265625 
Q 6.984375 17.96875 6.984375 36.375 
Q 6.984375 53.65625 15.1875 63.9375 
Q 23.390625 74.21875 37.203125 74.21875 
Q 40.921875 74.21875 44.703125 73.484375 
Q 48.484375 72.75 52.59375 71.296875 
z
" id="DejaVuSans-36"/>
      </defs>
      <g transform="translate(251.561794 259.283636)scale(0.11 -0.11)">
       <use xlink:href="#DejaVuSans-31"/>
       <use x="63.623047" xlink:href="#DejaVuSans-36"/>
       <use x="127.246094" xlink:href="#DejaVuSans-30"/>
       <use x="190.869141" xlink:href="#DejaVuSans-30"/>
      </g>
     </g>
    </g>
    <g id="xtick_5">
     <g id="line2d_5">
      <g>
       <use style="stroke:#000000;stroke-width:0.8;" x="335.676177" xlink:href="#mbeab6ca78e" y="247.425354"/>
      </g>
     </g>
     <g id="text_5">
      <!-- 1900 -->
      <defs>
       <path d="M 10.984375 1.515625 
L 10.984375 10.5 
Q 14.703125 8.734375 18.5 7.8125 
Q 22.3125 6.890625 25.984375 6.890625 
Q 35.75 6.890625 40.890625 13.453125 
Q 46.046875 20.015625 46.78125 33.40625 
Q 43.953125 29.203125 39.59375 26.953125 
Q 35.25 24.703125 29.984375 24.703125 
Q 19.046875 24.703125 12.671875 31.3125 
Q 6.296875 37.9375 6.296875 49.421875 
Q 6.296875 60.640625 12.9375 67.421875 
Q 19.578125 74.21875 30.609375 74.21875 
Q 43.265625 74.21875 49.921875 64.515625 
Q 56.59375 54.828125 56.59375 36.375 
Q 56.59375 19.140625 48.40625 8.859375 
Q 40.234375 -1.421875 26.421875 -1.421875 
Q 22.703125 -1.421875 18.890625 -0.6875 
Q 15.09375 0.046875 10.984375 1.515625 
z
M 30.609375 32.421875 
Q 37.25 32.421875 41.125 36.953125 
Q 45.015625 41.5 45.015625 49.421875 
Q 45.015625 57.28125 41.125 61.84375 
Q 37.25 66.40625 30.609375 66.40625 
Q 23.96875 66.40625 20.09375 61.84375 
Q 16.21875 57.28125 16.21875 49.421875 
Q 16.21875 41.5 20.09375 36.953125 
Q 23.96875 32.421875 30.609375 32.421875 
z
" id="DejaVuSans-39"/>
      </defs>
      <g transform="translate(321.678677 259.283636)scale(0.11 -0.11)">
       <use xlink:href="#DejaVuSans-31"/>
       <use x="63.623047" xlink:href="#DejaVuSans-39"/>
       <use x="127.246094" xlink:href="#DejaVuSans-30"/>
       <use x="190.869141" xlink:href="#DejaVuSans-30"/>
      </g>
     </g>
    </g>
    <g id="text_6">
     <!-- Volume $[\AA^3]$  -->
     <defs>
      <path d="M 28.609375 0 
L 0.78125 72.90625 
L 11.078125 72.90625 
L 34.1875 11.53125 
L 57.328125 72.90625 
L 67.578125 72.90625 
L 39.796875 0 
z
" id="DejaVuSans-56"/>
      <path d="M 30.609375 48.390625 
Q 23.390625 48.390625 19.1875 42.75 
Q 14.984375 37.109375 14.984375 27.296875 
Q 14.984375 17.484375 19.15625 11.84375 
Q 23.34375 6.203125 30.609375 6.203125 
Q 37.796875 6.203125 41.984375 11.859375 
Q 46.1875 17.53125 46.1875 27.296875 
Q 46.1875 37.015625 41.984375 42.703125 
Q 37.796875 48.390625 30.609375 48.390625 
z
M 30.609375 56 
Q 42.328125 56 49.015625 48.375 
Q 55.71875 40.765625 55.71875 27.296875 
Q 55.71875 13.875 49.015625 6.21875 
Q 42.328125 -1.421875 30.609375 -1.421875 
Q 18.84375 -1.421875 12.171875 6.21875 
Q 5.515625 13.875 5.515625 27.296875 
Q 5.515625 40.765625 12.171875 48.375 
Q 18.84375 56 30.609375 56 
z
" id="DejaVuSans-6f"/>
      <path d="M 9.421875 75.984375 
L 18.40625 75.984375 
L 18.40625 0 
L 9.421875 0 
z
" id="DejaVuSans-6c"/>
      <path d="M 8.5 21.578125 
L 8.5 54.6875 
L 17.484375 54.6875 
L 17.484375 21.921875 
Q 17.484375 14.15625 20.5 10.265625 
Q 23.53125 6.390625 29.59375 6.390625 
Q 36.859375 6.390625 41.078125 11.03125 
Q 45.3125 15.671875 45.3125 23.6875 
L 45.3125 54.6875 
L 54.296875 54.6875 
L 54.296875 0 
L 45.3125 0 
L 45.3125 8.40625 
Q 42.046875 3.421875 37.71875 1 
Q 33.40625 -1.421875 27.6875 -1.421875 
Q 18.265625 -1.421875 13.375 4.4375 
Q 8.5 10.296875 8.5 21.578125 
z
M 31.109375 56 
z
" id="DejaVuSans-75"/>
      <path d="M 52 44.1875 
Q 55.375 50.25 60.0625 53.125 
Q 64.75 56 71.09375 56 
Q 79.640625 56 84.28125 50.015625 
Q 88.921875 44.046875 88.921875 33.015625 
L 88.921875 0 
L 79.890625 0 
L 79.890625 32.71875 
Q 79.890625 40.578125 77.09375 44.375 
Q 74.3125 48.1875 68.609375 48.1875 
Q 61.625 48.1875 57.5625 43.546875 
Q 53.515625 38.921875 53.515625 30.90625 
L 53.515625 0 
L 44.484375 0 
L 44.484375 32.71875 
Q 44.484375 40.625 41.703125 44.40625 
Q 38.921875 48.1875 33.109375 48.1875 
Q 26.21875 48.1875 22.15625 43.53125 
Q 18.109375 38.875 18.109375 30.90625 
L 18.109375 0 
L 9.078125 0 
L 9.078125 54.6875 
L 18.109375 54.6875 
L 18.109375 46.1875 
Q 21.1875 51.21875 25.484375 53.609375 
Q 29.78125 56 35.6875 56 
Q 41.65625 56 45.828125 52.96875 
Q 50 49.953125 52 44.1875 
z
" id="DejaVuSans-6d"/>
      <path d="M 56.203125 29.59375 
L 56.203125 25.203125 
L 14.890625 25.203125 
Q 15.484375 15.921875 20.484375 11.0625 
Q 25.484375 6.203125 34.421875 6.203125 
Q 39.59375 6.203125 44.453125 7.46875 
Q 49.3125 8.734375 54.109375 11.28125 
L 54.109375 2.78125 
Q 49.265625 0.734375 44.1875 -0.34375 
Q 39.109375 -1.421875 33.890625 -1.421875 
Q 20.796875 -1.421875 13.15625 6.1875 
Q 5.515625 13.8125 5.515625 26.8125 
Q 5.515625 40.234375 12.765625 48.109375 
Q 20.015625 56 32.328125 56 
Q 43.359375 56 49.78125 48.890625 
Q 56.203125 41.796875 56.203125 29.59375 
z
M 47.21875 32.234375 
Q 47.125 39.59375 43.09375 43.984375 
Q 39.0625 48.390625 32.421875 48.390625 
Q 24.90625 48.390625 20.390625 44.140625 
Q 15.875 39.890625 15.1875 32.171875 
z
" id="DejaVuSans-65"/>
      <path id="DejaVuSans-20"/>
      <path d="M 8.59375 75.984375 
L 29.296875 75.984375 
L 29.296875 69 
L 17.578125 69 
L 17.578125 -6.203125 
L 29.296875 -6.203125 
L 29.296875 -13.1875 
L 8.59375 -13.1875 
z
" id="DejaVuSans-5b"/>
      <path d="M 49.8125 79.390625 
Q 49.8125 82.46875 47.625 84.640625 
Q 45.453125 86.8125 42.390625 86.8125 
Q 39.265625 86.8125 37.140625 84.6875 
Q 35.015625 82.5625 35.015625 79.390625 
Q 35.015625 76.3125 37.140625 74.15625 
Q 39.265625 72.015625 42.390625 72.015625 
Q 45.453125 72.015625 47.625 74.15625 
Q 49.8125 76.3125 49.8125 79.390625 
z
M 34.421875 68.703125 
Q 31.78125 70.515625 30.390625 73.265625 
Q 29 76.03125 29 79.390625 
Q 29 84.96875 32.90625 88.890625 
Q 36.8125 92.828125 42.390625 92.828125 
Q 47.953125 92.828125 51.875 88.890625 
Q 55.8125 84.96875 55.8125 79.390625 
Q 55.8125 75.53125 54.03125 72.546875 
Q 52.25 69.578125 48.875 67.828125 
L 61.53125 0 
L 51.21875 0 
L 48.1875 18.703125 
L 15.375 18.703125 
L 5.078125 0 
L -5.328125 0 
z
M 40.375 63.1875 
L 19.921875 26.90625 
L 46.6875 26.90625 
z
" id="DejaVuSans-Oblique-c5"/>
      <path d="M 30.421875 75.984375 
L 30.421875 -13.1875 
L 9.71875 -13.1875 
L 9.71875 -6.203125 
L 21.390625 -6.203125 
L 21.390625 69 
L 9.71875 69 
L 9.71875 75.984375 
z
" id="DejaVuSans-5d"/>
     </defs>
     <g transform="translate(190.427 279.363792)scale(0.16 -0.16)">
      <use transform="translate(0 0.171875)" xlink:href="#DejaVuSans-56"/>
      <use transform="translate(68.408203 0.171875)" xlink:href="#DejaVuSans-6f"/>
      <use transform="translate(129.589844 0.171875)" xlink:href="#DejaVuSans-6c"/>
      <use transform="translate(157.373047 0.171875)" xlink:href="#DejaVuSans-75"/>
      <use transform="translate(220.751953 0.171875)" xlink:href="#DejaVuSans-6d"/>
      <use transform="translate(318.164062 0.171875)" xlink:href="#DejaVuSans-65"/>
      <use transform="translate(379.6875 0.171875)" xlink:href="#DejaVuSans-20"/>
      <use transform="translate(411.474609 0.171875)" xlink:href="#DejaVuSans-5b"/>
      <use transform="translate(450.488281 0.171875)" xlink:href="#DejaVuSans-Oblique-c5"/>
      <use transform="translate(528.702318 38.453125)scale(0.7)" xlink:href="#DejaVuSans-33"/>
      <use transform="translate(575.972826 0.171875)" xlink:href="#DejaVuSans-5d"/>
      <use transform="translate(614.986497 0.171875)" xlink:href="#DejaVuSans-20"/>
     </g>
    </g>
   </g>
   <g id="matplotlib.axis_2">
    <g id="ytick_1">
     <g id="line2d_6">
      <defs>
       <path d="M 0 0 
L 3.5 0 
" id="m0527114b75" style="stroke:#000000;stroke-width:0.8;"/>
      </defs>
      <g>
       <use style="stroke:#000000;stroke-width:0.8;" x="55.208646" xlink:href="#m0527114b75" y="186.997677"/>
      </g>
     </g>
     <g id="text_7">
      <!-- 0.05 -->
      <defs>
       <path d="M 10.6875 12.40625 
L 21 12.40625 
L 21 0 
L 10.6875 0 
z
" id="DejaVuSans-2e"/>
       <path d="M 10.796875 72.90625 
L 49.515625 72.90625 
L 49.515625 64.59375 
L 19.828125 64.59375 
L 19.828125 46.734375 
Q 21.96875 47.46875 24.109375 47.828125 
Q 26.265625 48.1875 28.421875 48.1875 
Q 40.625 48.1875 47.75 41.5 
Q 54.890625 34.8125 54.890625 23.390625 
Q 54.890625 11.625 47.5625 5.09375 
Q 40.234375 -1.421875 26.90625 -1.421875 
Q 22.3125 -1.421875 17.546875 -0.640625 
Q 12.796875 0.140625 7.71875 1.703125 
L 7.71875 11.625 
Q 12.109375 9.234375 16.796875 8.0625 
Q 21.484375 6.890625 26.703125 6.890625 
Q 35.15625 6.890625 40.078125 11.328125 
Q 45.015625 15.765625 45.015625 23.390625 
Q 45.015625 31 40.078125 35.4375 
Q 35.15625 39.890625 26.703125 39.890625 
Q 22.75 39.890625 18.8125 39.015625 
Q 14.890625 38.140625 10.796875 36.28125 
z
" id="DejaVuSans-35"/>
      </defs>
      <g transform="translate(27.216458 191.176818)scale(0.11 -0.11)">
       <use xlink:href="#DejaVuSans-30"/>
       <use x="63.623047" xlink:href="#DejaVuSans-2e"/>
       <use x="95.410156" xlink:href="#DejaVuSans-30"/>
       <use x="159.033203" xlink:href="#DejaVuSans-35"/>
      </g>
     </g>
    </g>
    <g id="ytick_2">
     <g id="line2d_7">
      <g>
       <use style="stroke:#000000;stroke-width:0.8;" x="55.208646" xlink:href="#m0527114b75" y="126.57"/>
      </g>
     </g>
     <g id="text_8">
      <!-- 0.10 -->
      <g transform="translate(27.216458 130.749141)scale(0.11 -0.11)">
       <use xlink:href="#DejaVuSans-30"/>
       <use x="63.623047" xlink:href="#DejaVuSans-2e"/>
       <use x="95.410156" xlink:href="#DejaVuSans-31"/>
       <use x="159.033203" xlink:href="#DejaVuSans-30"/>
      </g>
     </g>
    </g>
    <g id="ytick_3">
     <g id="line2d_8">
      <g>
       <use style="stroke:#000000;stroke-width:0.8;" x="55.208646" xlink:href="#m0527114b75" y="66.142323"/>
      </g>
     </g>
     <g id="text_9">
      <!-- 0.15 -->
      <g transform="translate(27.216458 70.321463)scale(0.11 -0.11)">
       <use xlink:href="#DejaVuSans-30"/>
       <use x="63.623047" xlink:href="#DejaVuSans-2e"/>
       <use x="95.410156" xlink:href="#DejaVuSans-31"/>
       <use x="159.033203" xlink:href="#DejaVuSans-35"/>
      </g>
     </g>
    </g>
    <g id="ytick_4">
     <g id="line2d_9">
      <g>
       <use style="stroke:#000000;stroke-width:0.8;" x="55.208646" xlink:href="#m0527114b75" y="5.714646"/>
      </g>
     </g>
     <g id="text_10">
      <!-- 0.20 -->
      <defs>
       <path d="M 19.1875 8.296875 
L 53.609375 8.296875 
L 53.609375 0 
L 7.328125 0 
L 7.328125 8.296875 
Q 12.9375 14.109375 22.625 23.890625 
Q 32.328125 33.6875 34.8125 36.53125 
Q 39.546875 41.84375 41.421875 45.53125 
Q 43.3125 49.21875 43.3125 52.78125 
Q 43.3125 58.59375 39.234375 62.25 
Q 35.15625 65.921875 28.609375 65.921875 
Q 23.96875 65.921875 18.8125 64.3125 
Q 13.671875 62.703125 7.8125 59.421875 
L 7.8125 69.390625 
Q 13.765625 71.78125 18.9375 73 
Q 24.125 74.21875 28.421875 74.21875 
Q 39.75 74.21875 46.484375 68.546875 
Q 53.21875 62.890625 53.21875 53.421875 
Q 53.21875 48.921875 51.53125 44.890625 
Q 49.859375 40.875 45.40625 35.40625 
Q 44.1875 33.984375 37.640625 27.21875 
Q 31.109375 20.453125 19.1875 8.296875 
z
" id="DejaVuSans-32"/>
      </defs>
      <g transform="translate(27.216458 9.893786)scale(0.11 -0.11)">
       <use xlink:href="#DejaVuSans-30"/>
       <use x="63.623047" xlink:href="#DejaVuSans-2e"/>
       <use x="95.410156" xlink:href="#DejaVuSans-32"/>
       <use x="159.033203" xlink:href="#DejaVuSans-30"/>
      </g>
     </g>
    </g>
    <g id="text_11">
     <!-- Frequency $[cm^{-1}]$ -->
     <defs>
      <path d="M 9.8125 72.90625 
L 51.703125 72.90625 
L 51.703125 64.59375 
L 19.671875 64.59375 
L 19.671875 43.109375 
L 48.578125 43.109375 
L 48.578125 34.8125 
L 19.671875 34.8125 
L 19.671875 0 
L 9.8125 0 
z
" id="DejaVuSans-46"/>
      <path d="M 41.109375 46.296875 
Q 39.59375 47.171875 37.8125 47.578125 
Q 36.03125 48 33.890625 48 
Q 26.265625 48 22.1875 43.046875 
Q 18.109375 38.09375 18.109375 28.8125 
L 18.109375 0 
L 9.078125 0 
L 9.078125 54.6875 
L 18.109375 54.6875 
L 18.109375 46.1875 
Q 20.953125 51.171875 25.484375 53.578125 
Q 30.03125 56 36.53125 56 
Q 37.453125 56 38.578125 55.875 
Q 39.703125 55.765625 41.0625 55.515625 
z
" id="DejaVuSans-72"/>
      <path d="M 14.796875 27.296875 
Q 14.796875 17.390625 18.875 11.75 
Q 22.953125 6.109375 30.078125 6.109375 
Q 37.203125 6.109375 41.296875 11.75 
Q 45.40625 17.390625 45.40625 27.296875 
Q 45.40625 37.203125 41.296875 42.84375 
Q 37.203125 48.484375 30.078125 48.484375 
Q 22.953125 48.484375 18.875 42.84375 
Q 14.796875 37.203125 14.796875 27.296875 
z
M 45.40625 8.203125 
Q 42.578125 3.328125 38.25 0.953125 
Q 33.9375 -1.421875 27.875 -1.421875 
Q 17.96875 -1.421875 11.734375 6.484375 
Q 5.515625 14.40625 5.515625 27.296875 
Q 5.515625 40.1875 11.734375 48.09375 
Q 17.96875 56 27.875 56 
Q 33.9375 56 38.25 53.625 
Q 42.578125 51.265625 45.40625 46.390625 
L 45.40625 54.6875 
L 54.390625 54.6875 
L 54.390625 -20.796875 
L 45.40625 -20.796875 
z
" id="DejaVuSans-71"/>
      <path d="M 54.890625 33.015625 
L 54.890625 0 
L 45.90625 0 
L 45.90625 32.71875 
Q 45.90625 40.484375 42.875 44.328125 
Q 39.84375 48.1875 33.796875 48.1875 
Q 26.515625 48.1875 22.3125 43.546875 
Q 18.109375 38.921875 18.109375 30.90625 
L 18.109375 0 
L 9.078125 0 
L 9.078125 54.6875 
L 18.109375 54.6875 
L 18.109375 46.1875 
Q 21.34375 51.125 25.703125 53.5625 
Q 30.078125 56 35.796875 56 
Q 45.21875 56 50.046875 50.171875 
Q 54.890625 44.34375 54.890625 33.015625 
z
" id="DejaVuSans-6e"/>
      <path d="M 48.78125 52.59375 
L 48.78125 44.1875 
Q 44.96875 46.296875 41.140625 47.34375 
Q 37.3125 48.390625 33.40625 48.390625 
Q 24.65625 48.390625 19.8125 42.84375 
Q 14.984375 37.3125 14.984375 27.296875 
Q 14.984375 17.28125 19.8125 11.734375 
Q 24.65625 6.203125 33.40625 6.203125 
Q 37.3125 6.203125 41.140625 7.25 
Q 44.96875 8.296875 48.78125 10.40625 
L 48.78125 2.09375 
Q 45.015625 0.34375 40.984375 -0.53125 
Q 36.96875 -1.421875 32.421875 -1.421875 
Q 20.0625 -1.421875 12.78125 6.34375 
Q 5.515625 14.109375 5.515625 27.296875 
Q 5.515625 40.671875 12.859375 48.328125 
Q 20.21875 56 33.015625 56 
Q 37.15625 56 41.109375 55.140625 
Q 45.0625 54.296875 48.78125 52.59375 
z
" id="DejaVuSans-63"/>
      <path d="M 32.171875 -5.078125 
Q 28.375 -14.84375 24.75 -17.8125 
Q 21.140625 -20.796875 15.09375 -20.796875 
L 7.90625 -20.796875 
L 7.90625 -13.28125 
L 13.1875 -13.28125 
Q 16.890625 -13.28125 18.9375 -11.515625 
Q 21 -9.765625 23.484375 -3.21875 
L 25.09375 0.875 
L 2.984375 54.6875 
L 12.5 54.6875 
L 29.59375 11.921875 
L 46.6875 54.6875 
L 56.203125 54.6875 
z
" id="DejaVuSans-79"/>
      <path d="M 53.609375 52.59375 
L 51.8125 43.703125 
Q 48.578125 46.046875 44.9375 47.21875 
Q 41.3125 48.390625 37.40625 48.390625 
Q 33.109375 48.390625 29.21875 46.875 
Q 25.34375 45.359375 22.703125 42.578125 
Q 18.5 38.328125 16.203125 32.609375 
Q 13.921875 26.90625 13.921875 20.796875 
Q 13.921875 13.421875 17.609375 9.8125 
Q 21.296875 6.203125 28.8125 6.203125 
Q 32.515625 6.203125 36.6875 7.328125 
Q 40.875 8.453125 45.40625 10.6875 
L 43.703125 1.8125 
Q 39.796875 0.203125 35.671875 -0.609375 
Q 31.546875 -1.421875 27.203125 -1.421875 
Q 16.3125 -1.421875 10.453125 4.015625 
Q 4.59375 9.46875 4.59375 19.578125 
Q 4.59375 28.078125 7.640625 35.234375 
Q 10.6875 42.390625 16.703125 48.09375 
Q 20.796875 52 26.3125 54 
Q 31.84375 56 38.375 56 
Q 42.1875 56 45.9375 55.140625 
Q 49.703125 54.296875 53.609375 52.59375 
z
" id="DejaVuSans-Oblique-63"/>
      <path d="M 89.796875 33.015625 
L 83.40625 0 
L 74.421875 0 
L 80.71875 32.71875 
Q 81.109375 34.8125 81.296875 36.328125 
Q 81.5 37.84375 81.5 38.921875 
Q 81.5 43.3125 79.046875 45.75 
Q 76.609375 48.1875 72.21875 48.1875 
Q 65.671875 48.1875 60.546875 43.28125 
Q 55.421875 38.375 53.90625 30.515625 
L 47.90625 0 
L 38.921875 0 
L 45.3125 32.71875 
Q 45.703125 34.515625 45.890625 36.046875 
Q 46.09375 37.59375 46.09375 38.8125 
Q 46.09375 43.265625 43.65625 45.71875 
Q 41.21875 48.1875 36.921875 48.1875 
Q 30.28125 48.1875 25.140625 43.28125 
Q 20.015625 38.375 18.5 30.515625 
L 12.5 0 
L 3.515625 0 
L 14.203125 54.6875 
L 23.1875 54.6875 
L 21.484375 46.1875 
Q 25.140625 50.984375 30.046875 53.484375 
Q 34.96875 56 40.578125 56 
Q 46.53125 56 50.359375 52.875 
Q 54.203125 49.75 54.984375 44.1875 
Q 59.078125 49.953125 64.46875 52.96875 
Q 69.875 56 75.875 56 
Q 82.90625 56 86.734375 51.953125 
Q 90.578125 47.90625 90.578125 40.484375 
Q 90.578125 38.875 90.375 36.9375 
Q 90.1875 35.015625 89.796875 33.015625 
z
" id="DejaVuSans-Oblique-6d"/>
      <path d="M 10.59375 35.5 
L 73.1875 35.5 
L 73.1875 27.203125 
L 10.59375 27.203125 
z
" id="DejaVuSans-2212"/>
     </defs>
     <g transform="translate(19.856458 198.49)rotate(-90)scale(0.16 -0.16)">
      <use transform="translate(0 0.684375)" xlink:href="#DejaVuSans-46"/>
      <use transform="translate(57.519531 0.684375)" xlink:href="#DejaVuSans-72"/>
      <use transform="translate(98.632812 0.684375)" xlink:href="#DejaVuSans-65"/>
      <use transform="translate(160.15625 0.684375)" xlink:href="#DejaVuSans-71"/>
      <use transform="translate(223.632812 0.684375)" xlink:href="#DejaVuSans-75"/>
      <use transform="translate(287.011719 0.684375)" xlink:href="#DejaVuSans-65"/>
      <use transform="translate(348.535156 0.684375)" xlink:href="#DejaVuSans-6e"/>
      <use transform="translate(411.914062 0.684375)" xlink:href="#DejaVuSans-63"/>
      <use transform="translate(466.894531 0.684375)" xlink:href="#DejaVuSans-79"/>
      <use transform="translate(526.074219 0.684375)" xlink:href="#DejaVuSans-20"/>
      <use transform="translate(557.861328 0.684375)" xlink:href="#DejaVuSans-5b"/>
      <use transform="translate(596.875 0.684375)" xlink:href="#DejaVuSans-Oblique-63"/>
      <use transform="translate(651.855469 0.684375)" xlink:href="#DejaVuSans-Oblique-6d"/>
      <use transform="translate(753.917474 38.965625)scale(0.7)" xlink:href="#DejaVuSans-2212"/>
      <use transform="translate(812.569818 38.965625)scale(0.7)" xlink:href="#DejaVuSans-31"/>
      <use transform="translate(859.840326 0.684375)" xlink:href="#DejaVuSans-5d"/>
     </g>
    </g>
   </g>
   <g id="patch_43">
    <path clip-path="url(#pc2523040d9)" d="M 56.610983 247.425354 
L 56.610983 247.425354 
L 63.155226 247.425354 
L 63.155226 247.425354 
L 56.610983 247.425354 
" style="fill:#2a93d5;fill-opacity:0.7;"/>
   </g>
   <g id="patch_44">
    <path clip-path="url(#pc2523040d9)" d="M 65.959901 247.356059 
L 65.959901 247.425354 
L 72.504143 247.425354 
L 72.504143 247.356059 
L 65.959901 247.356059 
" style="fill:#2a93d5;fill-opacity:0.7;"/>
   </g>
   <g id="patch_45">
    <path clip-path="url(#pc2523040d9)" d="M 75.308819 245.103945 
L 75.308819 247.425354 
L 81.853061 247.425354 
L 81.853061 245.103945 
L 75.308819 245.103945 
" style="fill:#2a93d5;fill-opacity:0.7;"/>
   </g>
   <g id="patch_46">
    <path clip-path="url(#pc2523040d9)" d="M 84.657736 243.232958 
L 84.657736 247.425354 
L 91.201979 247.425354 
L 91.201979 243.232958 
L 84.657736 243.232958 
" style="fill:#2a93d5;fill-opacity:0.7;"/>
   </g>
   <g id="patch_47">
    <path clip-path="url(#pc2523040d9)" d="M 94.006654 238.520843 
L 94.006654 247.425354 
L 100.550897 247.425354 
L 100.550897 238.520843 
L 94.006654 238.520843 
" style="fill:#2a93d5;fill-opacity:0.7;"/>
   </g>
   <g id="patch_48">
    <path clip-path="url(#pc2523040d9)" d="M 103.355572 231.729854 
L 103.355572 247.425354 
L 109.899814 247.425354 
L 109.899814 231.729854 
L 103.355572 231.729854 
" style="fill:#2a93d5;fill-opacity:0.7;"/>
   </g>
   <g id="patch_49">
    <path clip-path="url(#pc2523040d9)" d="M 112.70449 212.327027 
L 112.70449 247.425354 
L 119.248732 247.425354 
L 119.248732 212.327027 
L 112.70449 212.327027 
" style="fill:#2a93d5;fill-opacity:0.7;"/>
   </g>
   <g id="patch_50">
    <path clip-path="url(#pc2523040d9)" d="M 122.053407 195.107019 
L 122.053407 247.425354 
L 128.59765 247.425354 
L 128.59765 195.107019 
L 122.053407 195.107019 
" style="fill:#2a93d5;fill-opacity:0.7;"/>
   </g>
   <g id="patch_51">
    <path clip-path="url(#pc2523040d9)" d="M 131.402325 186.271804 
L 131.402325 247.425354 
L 137.946567 247.425354 
L 137.946567 186.271804 
L 131.402325 186.271804 
" style="fill:#2a93d5;fill-opacity:0.7;"/>
   </g>
   <g id="patch_52">
    <path clip-path="url(#pc2523040d9)" d="M 140.751243 150.930941 
L 140.751243 247.425354 
L 147.295485 247.425354 
L 147.295485 150.930941 
L 140.751243 150.930941 
" style="fill:#2a93d5;fill-opacity:0.7;"/>
   </g>
   <g id="patch_53">
    <path clip-path="url(#pc2523040d9)" d="M 150.10016 119.990363 
L 150.10016 247.425354 
L 156.644403 247.425354 
L 156.644403 119.990363 
L 150.10016 119.990363 
" style="fill:#2a93d5;fill-opacity:0.7;"/>
   </g>
   <g id="patch_54">
    <path clip-path="url(#pc2523040d9)" d="M 159.449078 128.756283 
L 159.449078 247.425354 
L 165.993321 247.425354 
L 165.993321 128.756283 
L 159.449078 128.756283 
" style="fill:#2a93d5;fill-opacity:0.7;"/>
   </g>
   <g id="patch_55">
    <path clip-path="url(#pc2523040d9)" d="M 168.797996 115.520783 
L 168.797996 247.425354 
L 175.342238 247.425354 
L 175.342238 115.520783 
L 168.797996 115.520783 
" style="fill:#2a93d5;fill-opacity:0.7;"/>
   </g>
   <g id="patch_56">
    <path clip-path="url(#pc2523040d9)" d="M 178.146914 123.870928 
L 178.146914 247.425354 
L 184.691156 247.425354 
L 184.691156 123.870928 
L 178.146914 123.870928 
" style="fill:#2a93d5;fill-opacity:0.7;"/>
   </g>
   <g id="patch_57">
    <path clip-path="url(#pc2523040d9)" d="M 187.495831 141.853191 
L 187.495831 247.425354 
L 194.040074 247.425354 
L 194.040074 141.853191 
L 187.495831 141.853191 
" style="fill:#2a93d5;fill-opacity:0.7;"/>
   </g>
   <g id="patch_58">
    <path clip-path="url(#pc2523040d9)" d="M 196.844749 144.521079 
L 196.844749 247.425354 
L 203.388991 247.425354 
L 203.388991 144.521079 
L 196.844749 144.521079 
" style="fill:#2a93d5;fill-opacity:0.7;"/>
   </g>
   <g id="patch_59">
    <path clip-path="url(#pc2523040d9)" d="M 206.193667 181.767576 
L 206.193667 247.425354 
L 212.737909 247.425354 
L 212.737909 181.767576 
L 206.193667 181.767576 
" style="fill:#2a93d5;fill-opacity:0.7;"/>
   </g>
   <g id="patch_60">
    <path clip-path="url(#pc2523040d9)" d="M 215.542585 196.562231 
L 215.542585 247.425354 
L 222.086827 247.425354 
L 222.086827 196.562231 
L 215.542585 196.562231 
" style="fill:#2a93d5;fill-opacity:0.7;"/>
   </g>
   <g id="patch_61">
    <path clip-path="url(#pc2523040d9)" d="M 224.891502 208.931533 
L 224.891502 247.425354 
L 231.435745 247.425354 
L 231.435745 208.931533 
L 224.891502 208.931533 
" style="fill:#2a93d5;fill-opacity:0.7;"/>
   </g>
   <g id="patch_62">
    <path clip-path="url(#pc2523040d9)" d="M 234.24042 224.453794 
L 234.24042 247.425354 
L 240.784662 247.425354 
L 240.784662 224.453794 
L 234.24042 224.453794 
" style="fill:#2a93d5;fill-opacity:0.7;"/>
   </g>
   <g id="patch_63">
    <path clip-path="url(#pc2523040d9)" d="M 243.589338 227.676049 
L 243.589338 247.425354 
L 250.13358 247.425354 
L 250.13358 227.676049 
L 243.589338 227.676049 
" style="fill:#2a93d5;fill-opacity:0.7;"/>
   </g>
   <g id="patch_64">
    <path clip-path="url(#pc2523040d9)" d="M 252.938255 237.931829 
L 252.938255 247.425354 
L 259.482498 247.425354 
L 259.482498 237.931829 
L 252.938255 237.931829 
" style="fill:#2a93d5;fill-opacity:0.7;"/>
   </g>
   <g id="patch_65">
    <path clip-path="url(#pc2523040d9)" d="M 262.287173 240.8769 
L 262.287173 247.425354 
L 268.831415 247.425354 
L 268.831415 240.8769 
L 262.287173 240.8769 
" style="fill:#2a93d5;fill-opacity:0.7;"/>
   </g>
   <g id="patch_66">
    <path clip-path="url(#pc2523040d9)" d="M 271.636091 243.19831 
L 271.636091 247.425354 
L 278.180333 247.425354 
L 278.180333 243.19831 
L 271.636091 243.19831 
" style="fill:#2a93d5;fill-opacity:0.7;"/>
   </g>
   <g id="patch_67">
    <path clip-path="url(#pc2523040d9)" d="M 280.985009 246.732396 
L 280.985009 247.425354 
L 287.529251 247.425354 
L 287.529251 246.732396 
L 280.985009 246.732396 
" style="fill:#2a93d5;fill-opacity:0.7;"/>
   </g>
   <g id="patch_68">
    <path clip-path="url(#pc2523040d9)" d="M 290.333926 246.17803 
L 290.333926 247.425354 
L 296.878169 247.425354 
L 296.878169 246.17803 
L 290.333926 246.17803 
" style="fill:#2a93d5;fill-opacity:0.7;"/>
   </g>
   <g id="patch_69">
    <path clip-path="url(#pc2523040d9)" d="M 299.682844 245.762255 
L 299.682844 247.425354 
L 306.227086 247.425354 
L 306.227086 245.762255 
L 299.682844 245.762255 
" style="fill:#2a93d5;fill-opacity:0.7;"/>
   </g>
   <g id="patch_70">
    <path clip-path="url(#pc2523040d9)" d="M 309.031762 247.078875 
L 309.031762 247.425354 
L 315.576004 247.425354 
L 315.576004 247.078875 
L 309.031762 247.078875 
" style="fill:#2a93d5;fill-opacity:0.7;"/>
   </g>
   <g id="patch_71">
    <path clip-path="url(#pc2523040d9)" d="M 318.380679 247.425354 
L 318.380679 247.425354 
L 324.924922 247.425354 
L 324.924922 247.425354 
L 318.380679 247.425354 
" style="fill:#2a93d5;fill-opacity:0.7;"/>
   </g>
   <g id="patch_72">
    <path clip-path="url(#pc2523040d9)" d="M 327.729597 247.425354 
L 327.729597 247.425354 
L 334.27384 247.425354 
L 334.27384 247.425354 
L 327.729597 247.425354 
" style="fill:#2a93d5;fill-opacity:0.7;"/>
   </g>
   <g id="patch_73">
    <path clip-path="url(#pc2523040d9)" d="M 337.078515 247.425354 
L 337.078515 247.425354 
L 343.622757 247.425354 
L 343.622757 247.425354 
L 337.078515 247.425354 
" style="fill:#2a93d5;fill-opacity:0.7;"/>
   </g>
   <g id="patch_74">
    <path clip-path="url(#pc2523040d9)" d="M 346.427433 247.113523 
L 346.427433 247.425354 
L 352.971675 247.425354 
L 352.971675 247.113523 
L 346.427433 247.113523 
" style="fill:#2a93d5;fill-opacity:0.7;"/>
   </g>
   <g id="patch_75">
    <path clip-path="url(#pc2523040d9)" d="M 355.77635 247.425354 
L 355.77635 247.425354 
L 362.320593 247.425354 
L 362.320593 247.425354 
L 355.77635 247.425354 
" style="fill:#2a93d5;fill-opacity:0.7;"/>
   </g>
   <g id="patch_76">
    <path clip-path="url(#pc2523040d9)" d="M 365.125268 247.425354 
L 365.125268 247.425354 
L 371.66951 247.425354 
L 371.66951 247.425354 
L 365.125268 247.425354 
" style="fill:#2a93d5;fill-opacity:0.7;"/>
   </g>
   <g id="patch_77">
    <path clip-path="url(#pc2523040d9)" d="M 374.474186 247.425354 
L 374.474186 247.425354 
L 381.018428 247.425354 
L 381.018428 247.425354 
L 374.474186 247.425354 
" style="fill:#2a93d5;fill-opacity:0.7;"/>
   </g>
   <g id="patch_78">
    <path clip-path="url(#pc2523040d9)" d="M 383.823103 247.425354 
L 383.823103 247.425354 
L 390.367346 247.425354 
L 390.367346 247.425354 
L 383.823103 247.425354 
" style="fill:#2a93d5;fill-opacity:0.7;"/>
   </g>
   <g id="patch_79">
    <path clip-path="url(#pc2523040d9)" d="M 393.172021 247.425354 
L 393.172021 247.425354 
L 399.716264 247.425354 
L 399.716264 247.425354 
L 393.172021 247.425354 
" style="fill:#2a93d5;fill-opacity:0.7;"/>
   </g>
   <g id="patch_80">
    <path clip-path="url(#pc2523040d9)" d="M 402.520939 247.425354 
L 402.520939 247.425354 
L 409.065181 247.425354 
L 409.065181 247.425354 
L 402.520939 247.425354 
" style="fill:#2a93d5;fill-opacity:0.7;"/>
   </g>
   <g id="patch_81">
    <path clip-path="url(#pc2523040d9)" d="M 411.869857 247.425354 
L 411.869857 247.425354 
L 418.414099 247.425354 
L 418.414099 247.425354 
L 411.869857 247.425354 
" style="fill:#2a93d5;fill-opacity:0.7;"/>
   </g>
   <g id="patch_82">
    <path clip-path="url(#pc2523040d9)" d="M 421.218774 247.425354 
L 421.218774 247.425354 
L 427.763017 247.425354 
L 427.763017 247.425354 
L 421.218774 247.425354 
" style="fill:#2a93d5;fill-opacity:0.7;"/>
   </g>
   <g id="patch_83">
    <path d="M 55.208646 247.425354 
L 55.208646 5.714646 
" style="fill:none;stroke:#000000;stroke-linecap:square;stroke-linejoin:miter;"/>
   </g>
   <g id="patch_84">
    <path d="M 55.208646 247.425354 
L 429.165354 247.425354 
" style="fill:none;stroke:#000000;stroke-linecap:square;stroke-linejoin:miter;"/>
   </g>
   <g id="patch_85">
    <path clip-path="url(#pc2523040d9)" d="M 53.494677 247.425354 
L 53.494677 247.425354 
L 60.03892 247.425354 
L 60.03892 247.425354 
L 53.494677 247.425354 
" style="fill:#6d138b;fill-opacity:0.7;"/>
   </g>
   <g id="patch_86">
    <path clip-path="url(#pc2523040d9)" d="M 62.843595 247.086653 
L 62.843595 247.425354 
L 69.387838 247.425354 
L 69.387838 247.086653 
L 62.843595 247.086653 
" style="fill:#6d138b;fill-opacity:0.7;"/>
   </g>
   <g id="patch_87">
    <path clip-path="url(#pc2523040d9)" d="M 72.192513 246.443121 
L 72.192513 247.425354 
L 78.736755 247.425354 
L 78.736755 246.443121 
L 72.192513 246.443121 
" style="fill:#6d138b;fill-opacity:0.7;"/>
   </g>
   <g id="patch_88">
    <path clip-path="url(#pc2523040d9)" d="M 81.541431 240.888422 
L 81.541431 247.425354 
L 88.085673 247.425354 
L 88.085673 240.888422 
L 81.541431 240.888422 
" style="fill:#6d138b;fill-opacity:0.7;"/>
   </g>
   <g id="patch_89">
    <path clip-path="url(#pc2523040d9)" d="M 90.890348 230.287075 
L 90.890348 247.425354 
L 97.434591 247.425354 
L 97.434591 230.287075 
L 90.890348 230.287075 
" style="fill:#6d138b;fill-opacity:0.7;"/>
   </g>
   <g id="patch_90">
    <path clip-path="url(#pc2523040d9)" d="M 100.239266 214.232639 
L 100.239266 247.425354 
L 106.783508 247.425354 
L 106.783508 214.232639 
L 100.239266 214.232639 
" style="fill:#6d138b;fill-opacity:0.7;"/>
   </g>
   <g id="patch_91">
    <path clip-path="url(#pc2523040d9)" d="M 109.588184 178.635145 
L 109.588184 247.425354 
L 116.132426 247.425354 
L 116.132426 178.635145 
L 109.588184 178.635145 
" style="fill:#6d138b;fill-opacity:0.7;"/>
   </g>
   <g id="patch_92">
    <path clip-path="url(#pc2523040d9)" d="M 118.937101 146.661754 
L 118.937101 247.425354 
L 125.481344 247.425354 
L 125.481344 146.661754 
L 118.937101 146.661754 
" style="fill:#6d138b;fill-opacity:0.7;"/>
   </g>
   <g id="patch_93">
    <path clip-path="url(#pc2523040d9)" d="M 128.286019 104.154756 
L 128.286019 247.425354 
L 134.830262 247.425354 
L 134.830262 104.154756 
L 128.286019 104.154756 
" style="fill:#6d138b;fill-opacity:0.7;"/>
   </g>
   <g id="patch_94">
    <path clip-path="url(#pc2523040d9)" d="M 137.634937 94.806604 
L 137.634937 247.425354 
L 144.179179 247.425354 
L 144.179179 94.806604 
L 137.634937 94.806604 
" style="fill:#6d138b;fill-opacity:0.7;"/>
   </g>
   <g id="patch_95">
    <path clip-path="url(#pc2523040d9)" d="M 146.983855 93.587279 
L 146.983855 247.425354 
L 153.528097 247.425354 
L 153.528097 93.587279 
L 146.983855 93.587279 
" style="fill:#6d138b;fill-opacity:0.7;"/>
   </g>
   <g id="patch_96">
    <path clip-path="url(#pc2523040d9)" d="M 156.332772 103.714445 
L 156.332772 247.425354 
L 162.877015 247.425354 
L 162.877015 103.714445 
L 156.332772 103.714445 
" style="fill:#6d138b;fill-opacity:0.7;"/>
   </g>
   <g id="patch_97">
    <path clip-path="url(#pc2523040d9)" d="M 165.68169 128.473501 
L 165.68169 247.425354 
L 172.225932 247.425354 
L 172.225932 128.473501 
L 165.68169 128.473501 
" style="fill:#6d138b;fill-opacity:0.7;"/>
   </g>
   <g id="patch_98">
    <path clip-path="url(#pc2523040d9)" d="M 175.030608 160.853333 
L 175.030608 247.425354 
L 181.57485 247.425354 
L 181.57485 160.853333 
L 175.030608 160.853333 
" style="fill:#6d138b;fill-opacity:0.7;"/>
   </g>
   <g id="patch_99">
    <path clip-path="url(#pc2523040d9)" d="M 184.379525 176.128756 
L 184.379525 247.425354 
L 190.923768 247.425354 
L 190.923768 176.128756 
L 184.379525 176.128756 
" style="fill:#6d138b;fill-opacity:0.7;"/>
   </g>
   <g id="patch_100">
    <path clip-path="url(#pc2523040d9)" d="M 193.728443 205.90059 
L 193.728443 247.425354 
L 200.272686 247.425354 
L 200.272686 205.90059 
L 193.728443 205.90059 
" style="fill:#6d138b;fill-opacity:0.7;"/>
   </g>
   <g id="patch_101">
    <path clip-path="url(#pc2523040d9)" d="M 203.077361 217.992222 
L 203.077361 247.425354 
L 209.621603 247.425354 
L 209.621603 217.992222 
L 203.077361 217.992222 
" style="fill:#6d138b;fill-opacity:0.7;"/>
   </g>
   <g id="patch_102">
    <path clip-path="url(#pc2523040d9)" d="M 212.426279 230.896737 
L 212.426279 247.425354 
L 218.970521 247.425354 
L 218.970521 230.896737 
L 212.426279 230.896737 
" style="fill:#6d138b;fill-opacity:0.7;"/>
   </g>
   <g id="patch_103">
    <path clip-path="url(#pc2523040d9)" d="M 221.775196 236.857878 
L 221.775196 247.425354 
L 228.319439 247.425354 
L 228.319439 236.857878 
L 221.775196 236.857878 
" style="fill:#6d138b;fill-opacity:0.7;"/>
   </g>
   <g id="patch_104">
    <path clip-path="url(#pc2523040d9)" d="M 231.124114 243.462551 
L 231.124114 247.425354 
L 237.668356 247.425354 
L 237.668356 243.462551 
L 231.124114 243.462551 
" style="fill:#6d138b;fill-opacity:0.7;"/>
   </g>
   <g id="patch_105">
    <path clip-path="url(#pc2523040d9)" d="M 240.473032 243.530291 
L 240.473032 247.425354 
L 247.017274 247.425354 
L 247.017274 243.530291 
L 240.473032 243.530291 
" style="fill:#6d138b;fill-opacity:0.7;"/>
   </g>
   <g id="patch_106">
    <path clip-path="url(#pc2523040d9)" d="M 249.821949 245.901199 
L 249.821949 247.425354 
L 256.366192 247.425354 
L 256.366192 245.901199 
L 249.821949 245.901199 
" style="fill:#6d138b;fill-opacity:0.7;"/>
   </g>
   <g id="patch_107">
    <path clip-path="url(#pc2523040d9)" d="M 259.170867 245.664108 
L 259.170867 247.425354 
L 265.71511 247.425354 
L 265.71511 245.664108 
L 259.170867 245.664108 
" style="fill:#6d138b;fill-opacity:0.7;"/>
   </g>
   <g id="patch_108">
    <path clip-path="url(#pc2523040d9)" d="M 268.519785 247.052783 
L 268.519785 247.425354 
L 275.064027 247.425354 
L 275.064027 247.052783 
L 268.519785 247.052783 
" style="fill:#6d138b;fill-opacity:0.7;"/>
   </g>
   <g id="patch_109">
    <path clip-path="url(#pc2523040d9)" d="M 277.868703 247.018913 
L 277.868703 247.425354 
L 284.412945 247.425354 
L 284.412945 247.018913 
L 277.868703 247.018913 
" style="fill:#6d138b;fill-opacity:0.7;"/>
   </g>
   <g id="patch_110">
    <path clip-path="url(#pc2523040d9)" d="M 287.21762 247.256004 
L 287.21762 247.425354 
L 293.761863 247.425354 
L 293.761863 247.256004 
L 287.21762 247.256004 
" style="fill:#6d138b;fill-opacity:0.7;"/>
   </g>
   <g id="patch_111">
    <path clip-path="url(#pc2523040d9)" d="M 296.566538 247.018913 
L 296.566538 247.425354 
L 303.11078 247.425354 
L 303.11078 247.018913 
L 296.566538 247.018913 
" style="fill:#6d138b;fill-opacity:0.7;"/>
   </g>
   <g id="patch_112">
    <path clip-path="url(#pc2523040d9)" d="M 305.915456 247.425354 
L 305.915456 247.425354 
L 312.459698 247.425354 
L 312.459698 247.425354 
L 305.915456 247.425354 
" style="fill:#6d138b;fill-opacity:0.7;"/>
   </g>
   <g id="patch_113">
    <path clip-path="url(#pc2523040d9)" d="M 315.264373 247.425354 
L 315.264373 247.425354 
L 321.808616 247.425354 
L 321.808616 247.425354 
L 315.264373 247.425354 
" style="fill:#6d138b;fill-opacity:0.7;"/>
   </g>
   <g id="patch_114">
    <path clip-path="url(#pc2523040d9)" d="M 324.613291 247.425354 
L 324.613291 247.425354 
L 331.157534 247.425354 
L 331.157534 247.425354 
L 324.613291 247.425354 
" style="fill:#6d138b;fill-opacity:0.7;"/>
   </g>
   <g id="patch_115">
    <path clip-path="url(#pc2523040d9)" d="M 333.962209 247.425354 
L 333.962209 247.425354 
L 340.506451 247.425354 
L 340.506451 247.425354 
L 333.962209 247.425354 
" style="fill:#6d138b;fill-opacity:0.7;"/>
   </g>
   <g id="patch_116">
    <path clip-path="url(#pc2523040d9)" d="M 343.311127 247.425354 
L 343.311127 247.425354 
L 349.855369 247.425354 
L 349.855369 247.425354 
L 343.311127 247.425354 
" style="fill:#6d138b;fill-opacity:0.7;"/>
   </g>
   <g id="patch_117">
    <path clip-path="url(#pc2523040d9)" d="M 352.660044 247.425354 
L 352.660044 247.425354 
L 359.204287 247.425354 
L 359.204287 247.425354 
L 352.660044 247.425354 
" style="fill:#6d138b;fill-opacity:0.7;"/>
   </g>
   <g id="patch_118">
    <path clip-path="url(#pc2523040d9)" d="M 362.008962 247.425354 
L 362.008962 247.425354 
L 368.553204 247.425354 
L 368.553204 247.425354 
L 362.008962 247.425354 
" style="fill:#6d138b;fill-opacity:0.7;"/>
   </g>
   <g id="patch_119">
    <path clip-path="url(#pc2523040d9)" d="M 371.35788 247.425354 
L 371.35788 247.425354 
L 377.902122 247.425354 
L 377.902122 247.425354 
L 371.35788 247.425354 
" style="fill:#6d138b;fill-opacity:0.7;"/>
   </g>
   <g id="patch_120">
    <path clip-path="url(#pc2523040d9)" d="M 380.706797 247.425354 
L 380.706797 247.425354 
L 387.25104 247.425354 
L 387.25104 247.425354 
L 380.706797 247.425354 
" style="fill:#6d138b;fill-opacity:0.7;"/>
   </g>
   <g id="patch_121">
    <path clip-path="url(#pc2523040d9)" d="M 390.055715 247.425354 
L 390.055715 247.425354 
L 396.599958 247.425354 
L 396.599958 247.425354 
L 390.055715 247.425354 
" style="fill:#6d138b;fill-opacity:0.7;"/>
   </g>
   <g id="patch_122">
    <path clip-path="url(#pc2523040d9)" d="M 399.404633 247.425354 
L 399.404633 247.425354 
L 405.948875 247.425354 
L 405.948875 247.425354 
L 399.404633 247.425354 
" style="fill:#6d138b;fill-opacity:0.7;"/>
   </g>
   <g id="patch_123">
    <path clip-path="url(#pc2523040d9)" d="M 408.753551 247.425354 
L 408.753551 247.425354 
L 415.297793 247.425354 
L 415.297793 247.425354 
L 408.753551 247.425354 
" style="fill:#6d138b;fill-opacity:0.7;"/>
   </g>
   <g id="patch_124">
    <path clip-path="url(#pc2523040d9)" d="M 418.102468 247.425354 
L 418.102468 247.425354 
L 424.646711 247.425354 
L 424.646711 247.425354 
L 418.102468 247.425354 
" style="fill:#6d138b;fill-opacity:0.7;"/>
   </g>
   <g id="legend_1">
    <g id="patch_125">
     <path d="M 375.280354 47.342146 
L 423.565354 47.342146 
Q 425.165354 47.342146 425.165354 45.742146 
L 425.165354 11.314646 
Q 425.165354 9.714646 423.565354 9.714646 
L 375.280354 9.714646 
Q 373.680354 9.714646 373.680354 11.314646 
L 373.680354 45.742146 
Q 373.680354 47.342146 375.280354 47.342146 
z
" style="fill:#ffffff;stroke:#000000;stroke-linejoin:miter;"/>
    </g>
    <g id="patch_126">
     <path d="M 376.880354 18.993396 
L 392.880354 18.993396 
L 392.880354 13.393396 
L 376.880354 13.393396 
z
" style="fill:#3ddad7;fill-opacity:0.7;"/>
    </g>
    <g id="text_12">
     <!-- pop 1 -->
     <defs>
      <path d="M 18.109375 8.203125 
L 18.109375 -20.796875 
L 9.078125 -20.796875 
L 9.078125 54.6875 
L 18.109375 54.6875 
L 18.109375 46.390625 
Q 20.953125 51.265625 25.265625 53.625 
Q 29.59375 56 35.59375 56 
Q 45.5625 56 51.78125 48.09375 
Q 58.015625 40.1875 58.015625 27.296875 
Q 58.015625 14.40625 51.78125 6.484375 
Q 45.5625 -1.421875 35.59375 -1.421875 
Q 29.59375 -1.421875 25.265625 0.953125 
Q 20.953125 3.328125 18.109375 8.203125 
z
M 48.6875 27.296875 
Q 48.6875 37.203125 44.609375 42.84375 
Q 40.53125 48.484375 33.40625 48.484375 
Q 26.265625 48.484375 22.1875 42.84375 
Q 18.109375 37.203125 18.109375 27.296875 
Q 18.109375 17.390625 22.1875 11.75 
Q 26.265625 6.109375 33.40625 6.109375 
Q 40.53125 6.109375 44.609375 11.75 
Q 48.6875 17.390625 48.6875 27.296875 
z
" id="DejaVuSans-70"/>
     </defs>
     <g transform="translate(399.280354 18.993396)scale(0.08 -0.08)">
      <use xlink:href="#DejaVuSans-70"/>
      <use x="63.476562" xlink:href="#DejaVuSans-6f"/>
      <use x="124.658203" xlink:href="#DejaVuSans-70"/>
      <use x="188.134766" xlink:href="#DejaVuSans-20"/>
      <use x="219.921875" xlink:href="#DejaVuSans-31"/>
     </g>
    </g>
    <g id="patch_127">
     <path d="M 376.880354 30.735896 
L 392.880354 30.735896 
L 392.880354 25.135896 
L 376.880354 25.135896 
z
" style="fill:#2a93d5;fill-opacity:0.7;"/>
    </g>
    <g id="text_13">
     <!-- pop 2 -->
     <g transform="translate(399.280354 30.735896)scale(0.08 -0.08)">
      <use xlink:href="#DejaVuSans-70"/>
      <use x="63.476562" xlink:href="#DejaVuSans-6f"/>
      <use x="124.658203" xlink:href="#DejaVuSans-70"/>
      <use x="188.134766" xlink:href="#DejaVuSans-20"/>
      <use x="219.921875" xlink:href="#DejaVuSans-32"/>
     </g>
    </g>
    <g id="patch_128">
     <path d="M 376.880354 42.478396 
L 392.880354 42.478396 
L 392.880354 36.878396 
L 376.880354 36.878396 
z
" style="fill:#6d138b;fill-opacity:0.7;"/>
    </g>
    <g id="text_14">
     <!-- pop 3 -->
     <g transform="translate(399.280354 42.478396)scale(0.08 -0.08)">
      <use xlink:href="#DejaVuSans-70"/>
      <use x="63.476562" xlink:href="#DejaVuSans-6f"/>
      <use x="124.658203" xlink:href="#DejaVuSans-70"/>
      <use x="188.134766" xlink:href="#DejaVuSans-20"/>
      <use x="219.921875" xlink:href="#DejaVuSans-33"/>
     </g>
    </g>
   </g>
  </g>
 </g>
 <defs>
  <clipPath id="pc2523040d9">
   <rect height="241.710709" width="373.956709" x="55.208646" y="5.714646"/>
  </clipPath>
 </defs>
</svg>
