<?xml version="1.0" encoding="utf-8" standalone="no"?>
<!DOCTYPE svg PUBLIC "-//W3C//DTD SVG 1.1//EN"
  "http://www.w3.org/Graphics/SVG/1.1/DTD/svg11.dtd">
<!-- Created with matplotlib (http://matplotlib.org/) -->
<svg height="288pt" version="1.1" viewBox="0 0 432 288" width="432pt" xmlns="http://www.w3.org/2000/svg" xmlns:xlink="http://www.w3.org/1999/xlink">
 <defs>
  <style type="text/css">
*{stroke-linecap:butt;stroke-linejoin:round;}
  </style>
 </defs>
 <g id="figure_1">
  <g id="patch_1">
   <path d="M 0 288 
L 432 288 
L 432 0 
L 0 0 
z
" style="fill:#ffffff;"/>
  </g>
  <g id="axes_1">
   <g id="patch_2">
    <path d="M 50.024646 247.425354 
L 429.165354 247.425354 
L 429.165354 5.714646 
L 50.024646 5.714646 
z
" style="fill:#ffffff;"/>
   </g>
   <g id="patch_3">
    <path clip-path="url(#pa4a183a8fc)" d="M 47.18109 247.425354 
L 47.18109 247.425354 
L 51.446423 247.425354 
L 51.446423 247.425354 
L 47.18109 247.425354 
" style="fill:#d64161;"/>
   </g>
   <g id="patch_4">
    <path clip-path="url(#pa4a183a8fc)" d="M 58.555312 247.425354 
L 58.555312 247.425354 
L 62.820645 247.425354 
L 62.820645 247.425354 
L 58.555312 247.425354 
" style="fill:#d64161;"/>
   </g>
   <g id="patch_5">
    <path clip-path="url(#pa4a183a8fc)" d="M 69.929533 247.425354 
L 69.929533 247.425354 
L 74.194866 247.425354 
L 74.194866 247.425354 
L 69.929533 247.425354 
" style="fill:#d64161;"/>
   </g>
   <g id="patch_6">
    <path clip-path="url(#pa4a183a8fc)" d="M 81.303754 247.425354 
L 81.303754 247.425354 
L 85.569087 247.425354 
L 85.569087 247.425354 
L 81.303754 247.425354 
" style="fill:#d64161;"/>
   </g>
   <g id="patch_7">
    <path clip-path="url(#pa4a183a8fc)" d="M 92.677975 246.907585 
L 92.677975 247.425354 
L 96.943308 247.425354 
L 96.943308 246.907585 
L 92.677975 246.907585 
" style="fill:#d64161;"/>
   </g>
   <g id="patch_8">
    <path clip-path="url(#pa4a183a8fc)" d="M 104.052197 242.367145 
L 104.052197 247.425354 
L 108.31753 247.425354 
L 108.31753 242.367145 
L 104.052197 242.367145 
" style="fill:#d64161;"/>
   </g>
   <g id="patch_9">
    <path clip-path="url(#pa4a183a8fc)" d="M 115.426418 221.656367 
L 115.426418 247.425354 
L 119.691751 247.425354 
L 119.691751 221.656367 
L 115.426418 221.656367 
" style="fill:#d64161;"/>
   </g>
   <g id="patch_10">
    <path clip-path="url(#pa4a183a8fc)" d="M 126.800639 163.706018 
L 126.800639 247.425354 
L 131.065972 247.425354 
L 131.065972 163.706018 
L 126.800639 163.706018 
" style="fill:#d64161;"/>
   </g>
   <g id="patch_11">
    <path clip-path="url(#pa4a183a8fc)" d="M 138.17486 105.158242 
L 138.17486 247.425354 
L 142.440193 247.425354 
L 142.440193 105.158242 
L 138.17486 105.158242 
" style="fill:#d64161;"/>
   </g>
   <g id="patch_12">
    <path clip-path="url(#pa4a183a8fc)" d="M 149.549082 23.788782 
L 149.549082 247.425354 
L 153.814415 247.425354 
L 153.814415 23.788782 
L 149.549082 23.788782 
" style="fill:#d64161;"/>
   </g>
   <g id="patch_13">
    <path clip-path="url(#pa4a183a8fc)" d="M 160.923303 11.322487 
L 160.923303 247.425354 
L 165.188636 247.425354 
L 165.188636 11.322487 
L 160.923303 11.322487 
" style="fill:#d64161;"/>
   </g>
   <g id="patch_14">
    <path clip-path="url(#pa4a183a8fc)" d="M 172.297524 52.983013 
L 172.297524 247.425354 
L 176.562857 247.425354 
L 176.562857 52.983013 
L 172.297524 52.983013 
" style="fill:#d64161;"/>
   </g>
   <g id="patch_15">
    <path clip-path="url(#pa4a183a8fc)" d="M 183.671745 107.587776 
L 183.671745 247.425354 
L 187.937078 247.425354 
L 187.937078 107.587776 
L 183.671745 107.587776 
" style="fill:#d64161;"/>
   </g>
   <g id="patch_16">
    <path clip-path="url(#pa4a183a8fc)" d="M 195.045967 160.519744 
L 195.045967 247.425354 
L 199.3113 247.425354 
L 199.3113 160.519744 
L 195.045967 160.519744 
" style="fill:#d64161;"/>
   </g>
   <g id="patch_17">
    <path clip-path="url(#pa4a183a8fc)" d="M 206.420188 202.220099 
L 206.420188 247.425354 
L 210.685521 247.425354 
L 210.685521 202.220099 
L 206.420188 202.220099 
" style="fill:#d64161;"/>
   </g>
   <g id="patch_18">
    <path clip-path="url(#pa4a183a8fc)" d="M 217.794409 230.816904 
L 217.794409 247.425354 
L 222.059742 247.425354 
L 222.059742 230.816904 
L 217.794409 230.816904 
" style="fill:#d64161;"/>
   </g>
   <g id="patch_19">
    <path clip-path="url(#pa4a183a8fc)" d="M 229.168631 241.291778 
L 229.168631 247.425354 
L 233.433963 247.425354 
L 233.433963 241.291778 
L 229.168631 241.291778 
" style="fill:#d64161;"/>
   </g>
   <g id="patch_20">
    <path clip-path="url(#pa4a183a8fc)" d="M 240.542852 245.752561 
L 240.542852 247.425354 
L 244.808185 247.425354 
L 244.808185 245.752561 
L 240.542852 245.752561 
" style="fill:#d64161;"/>
   </g>
   <g id="patch_21">
    <path clip-path="url(#pa4a183a8fc)" d="M 251.917073 246.748271 
L 251.917073 247.425354 
L 256.182406 247.425354 
L 256.182406 246.748271 
L 251.917073 246.748271 
" style="fill:#d64161;"/>
   </g>
   <g id="patch_22">
    <path clip-path="url(#pa4a183a8fc)" d="M 263.291294 247.425354 
L 263.291294 247.425354 
L 267.556627 247.425354 
L 267.556627 247.425354 
L 263.291294 247.425354 
" style="fill:#d64161;"/>
   </g>
   <g id="patch_23">
    <path clip-path="url(#pa4a183a8fc)" d="M 274.665516 247.425354 
L 274.665516 247.425354 
L 278.930849 247.425354 
L 278.930849 247.425354 
L 274.665516 247.425354 
" style="fill:#d64161;"/>
   </g>
   <g id="patch_24">
    <path clip-path="url(#pa4a183a8fc)" d="M 286.039737 247.425354 
L 286.039737 247.425354 
L 290.30507 247.425354 
L 290.30507 247.425354 
L 286.039737 247.425354 
" style="fill:#d64161;"/>
   </g>
   <g id="patch_25">
    <path clip-path="url(#pa4a183a8fc)" d="M 297.413958 247.425354 
L 297.413958 247.425354 
L 301.679291 247.425354 
L 301.679291 247.425354 
L 297.413958 247.425354 
" style="fill:#d64161;"/>
   </g>
   <g id="patch_26">
    <path clip-path="url(#pa4a183a8fc)" d="M 308.788179 247.425354 
L 308.788179 247.425354 
L 313.053512 247.425354 
L 313.053512 247.425354 
L 308.788179 247.425354 
" style="fill:#d64161;"/>
   </g>
   <g id="patch_27">
    <path clip-path="url(#pa4a183a8fc)" d="M 320.162401 247.425354 
L 320.162401 247.425354 
L 324.427734 247.425354 
L 324.427734 247.425354 
L 320.162401 247.425354 
" style="fill:#d64161;"/>
   </g>
   <g id="patch_28">
    <path clip-path="url(#pa4a183a8fc)" d="M 331.536622 247.425354 
L 331.536622 247.425354 
L 335.801955 247.425354 
L 335.801955 247.425354 
L 331.536622 247.425354 
" style="fill:#d64161;"/>
   </g>
   <g id="patch_29">
    <path clip-path="url(#pa4a183a8fc)" d="M 342.910843 247.425354 
L 342.910843 247.425354 
L 347.176176 247.425354 
L 347.176176 247.425354 
L 342.910843 247.425354 
" style="fill:#d64161;"/>
   </g>
   <g id="patch_30">
    <path clip-path="url(#pa4a183a8fc)" d="M 354.285064 247.425354 
L 354.285064 247.425354 
L 358.550397 247.425354 
L 358.550397 247.425354 
L 354.285064 247.425354 
" style="fill:#d64161;"/>
   </g>
   <g id="patch_31">
    <path clip-path="url(#pa4a183a8fc)" d="M 365.659286 247.425354 
L 365.659286 247.425354 
L 369.924619 247.425354 
L 369.924619 247.425354 
L 365.659286 247.425354 
" style="fill:#d64161;"/>
   </g>
   <g id="patch_32">
    <path clip-path="url(#pa4a183a8fc)" d="M 377.033507 247.425354 
L 377.033507 247.425354 
L 381.29884 247.425354 
L 381.29884 247.425354 
L 377.033507 247.425354 
" style="fill:#d64161;"/>
   </g>
   <g id="patch_33">
    <path clip-path="url(#pa4a183a8fc)" d="M 388.407728 247.425354 
L 388.407728 247.425354 
L 392.673061 247.425354 
L 392.673061 247.425354 
L 388.407728 247.425354 
" style="fill:#d64161;"/>
   </g>
   <g id="patch_34">
    <path clip-path="url(#pa4a183a8fc)" d="M 399.781949 247.425354 
L 399.781949 247.425354 
L 404.047282 247.425354 
L 404.047282 247.425354 
L 399.781949 247.425354 
" style="fill:#d64161;"/>
   </g>
   <g id="patch_35">
    <path clip-path="url(#pa4a183a8fc)" d="M 411.156171 247.425354 
L 411.156171 247.425354 
L 415.421504 247.425354 
L 415.421504 247.425354 
L 411.156171 247.425354 
" style="fill:#d64161;"/>
   </g>
   <g id="matplotlib.axis_1">
    <g id="xtick_1">
     <g id="line2d_1">
      <defs>
       <path d="M 0 0 
L 0 -3.5 
" id="m1db37601d9" style="stroke:#000000;stroke-width:0.8;"/>
      </defs>
      <g>
       <use style="stroke:#000000;stroke-width:0.8;" x="87.938717" xlink:href="#m1db37601d9" y="247.425354"/>
      </g>
     </g>
     <g id="text_1">
      <!-- 300 -->
      <defs>
       <path d="M 40.578125 39.3125 
Q 47.65625 37.796875 51.625 33 
Q 55.609375 28.21875 55.609375 21.1875 
Q 55.609375 10.40625 48.1875 4.484375 
Q 40.765625 -1.421875 27.09375 -1.421875 
Q 22.515625 -1.421875 17.65625 -0.515625 
Q 12.796875 0.390625 7.625 2.203125 
L 7.625 11.71875 
Q 11.71875 9.328125 16.59375 8.109375 
Q 21.484375 6.890625 26.8125 6.890625 
Q 36.078125 6.890625 40.9375 10.546875 
Q 45.796875 14.203125 45.796875 21.1875 
Q 45.796875 27.640625 41.28125 31.265625 
Q 36.765625 34.90625 28.71875 34.90625 
L 20.21875 34.90625 
L 20.21875 43.015625 
L 29.109375 43.015625 
Q 36.375 43.015625 40.234375 45.921875 
Q 44.09375 48.828125 44.09375 54.296875 
Q 44.09375 59.90625 40.109375 62.90625 
Q 36.140625 65.921875 28.71875 65.921875 
Q 24.65625 65.921875 20.015625 65.03125 
Q 15.375 64.15625 9.8125 62.3125 
L 9.8125 71.09375 
Q 15.4375 72.65625 20.34375 73.4375 
Q 25.25 74.21875 29.59375 74.21875 
Q 40.828125 74.21875 47.359375 69.109375 
Q 53.90625 64.015625 53.90625 55.328125 
Q 53.90625 49.265625 50.4375 45.09375 
Q 46.96875 40.921875 40.578125 39.3125 
z
" id="DejaVuSans-33"/>
       <path d="M 31.78125 66.40625 
Q 24.171875 66.40625 20.328125 58.90625 
Q 16.5 51.421875 16.5 36.375 
Q 16.5 21.390625 20.328125 13.890625 
Q 24.171875 6.390625 31.78125 6.390625 
Q 39.453125 6.390625 43.28125 13.890625 
Q 47.125 21.390625 47.125 36.375 
Q 47.125 51.421875 43.28125 58.90625 
Q 39.453125 66.40625 31.78125 66.40625 
z
M 31.78125 74.21875 
Q 44.046875 74.21875 50.515625 64.515625 
Q 56.984375 54.828125 56.984375 36.375 
Q 56.984375 17.96875 50.515625 8.265625 
Q 44.046875 -1.421875 31.78125 -1.421875 
Q 19.53125 -1.421875 13.0625 8.265625 
Q 6.59375 17.96875 6.59375 36.375 
Q 6.59375 54.828125 13.0625 64.515625 
Q 19.53125 74.21875 31.78125 74.21875 
z
" id="DejaVuSans-30"/>
      </defs>
      <g transform="translate(77.440592 259.283636)scale(0.11 -0.11)">
       <use xlink:href="#DejaVuSans-33"/>
       <use x="63.623047" xlink:href="#DejaVuSans-30"/>
       <use x="127.246094" xlink:href="#DejaVuSans-30"/>
      </g>
     </g>
    </g>
    <g id="xtick_2">
     <g id="line2d_2">
      <g>
       <use style="stroke:#000000;stroke-width:0.8;" x="125.852787" xlink:href="#m1db37601d9" y="247.425354"/>
      </g>
     </g>
     <g id="text_2">
      <!-- 400 -->
      <defs>
       <path d="M 37.796875 64.3125 
L 12.890625 25.390625 
L 37.796875 25.390625 
z
M 35.203125 72.90625 
L 47.609375 72.90625 
L 47.609375 25.390625 
L 58.015625 25.390625 
L 58.015625 17.1875 
L 47.609375 17.1875 
L 47.609375 0 
L 37.796875 0 
L 37.796875 17.1875 
L 4.890625 17.1875 
L 4.890625 26.703125 
z
" id="DejaVuSans-34"/>
      </defs>
      <g transform="translate(115.354662 259.283636)scale(0.11 -0.11)">
       <use xlink:href="#DejaVuSans-34"/>
       <use x="63.623047" xlink:href="#DejaVuSans-30"/>
       <use x="127.246094" xlink:href="#DejaVuSans-30"/>
      </g>
     </g>
    </g>
    <g id="xtick_3">
     <g id="line2d_3">
      <g>
       <use style="stroke:#000000;stroke-width:0.8;" x="163.766858" xlink:href="#m1db37601d9" y="247.425354"/>
      </g>
     </g>
     <g id="text_3">
      <!-- 500 -->
      <defs>
       <path d="M 10.796875 72.90625 
L 49.515625 72.90625 
L 49.515625 64.59375 
L 19.828125 64.59375 
L 19.828125 46.734375 
Q 21.96875 47.46875 24.109375 47.828125 
Q 26.265625 48.1875 28.421875 48.1875 
Q 40.625 48.1875 47.75 41.5 
Q 54.890625 34.8125 54.890625 23.390625 
Q 54.890625 11.625 47.5625 5.09375 
Q 40.234375 -1.421875 26.90625 -1.421875 
Q 22.3125 -1.421875 17.546875 -0.640625 
Q 12.796875 0.140625 7.71875 1.703125 
L 7.71875 11.625 
Q 12.109375 9.234375 16.796875 8.0625 
Q 21.484375 6.890625 26.703125 6.890625 
Q 35.15625 6.890625 40.078125 11.328125 
Q 45.015625 15.765625 45.015625 23.390625 
Q 45.015625 31 40.078125 35.4375 
Q 35.15625 39.890625 26.703125 39.890625 
Q 22.75 39.890625 18.8125 39.015625 
Q 14.890625 38.140625 10.796875 36.28125 
z
" id="DejaVuSans-35"/>
      </defs>
      <g transform="translate(153.268733 259.283636)scale(0.11 -0.11)">
       <use xlink:href="#DejaVuSans-35"/>
       <use x="63.623047" xlink:href="#DejaVuSans-30"/>
       <use x="127.246094" xlink:href="#DejaVuSans-30"/>
      </g>
     </g>
    </g>
    <g id="xtick_4">
     <g id="line2d_4">
      <g>
       <use style="stroke:#000000;stroke-width:0.8;" x="201.680929" xlink:href="#m1db37601d9" y="247.425354"/>
      </g>
     </g>
     <g id="text_4">
      <!-- 600 -->
      <defs>
       <path d="M 33.015625 40.375 
Q 26.375 40.375 22.484375 35.828125 
Q 18.609375 31.296875 18.609375 23.390625 
Q 18.609375 15.53125 22.484375 10.953125 
Q 26.375 6.390625 33.015625 6.390625 
Q 39.65625 6.390625 43.53125 10.953125 
Q 47.40625 15.53125 47.40625 23.390625 
Q 47.40625 31.296875 43.53125 35.828125 
Q 39.65625 40.375 33.015625 40.375 
z
M 52.59375 71.296875 
L 52.59375 62.3125 
Q 48.875 64.0625 45.09375 64.984375 
Q 41.3125 65.921875 37.59375 65.921875 
Q 27.828125 65.921875 22.671875 59.328125 
Q 17.53125 52.734375 16.796875 39.40625 
Q 19.671875 43.65625 24.015625 45.921875 
Q 28.375 48.1875 33.59375 48.1875 
Q 44.578125 48.1875 50.953125 41.515625 
Q 57.328125 34.859375 57.328125 23.390625 
Q 57.328125 12.15625 50.6875 5.359375 
Q 44.046875 -1.421875 33.015625 -1.421875 
Q 20.359375 -1.421875 13.671875 8.265625 
Q 6.984375 17.96875 6.984375 36.375 
Q 6.984375 53.65625 15.1875 63.9375 
Q 23.390625 74.21875 37.203125 74.21875 
Q 40.921875 74.21875 44.703125 73.484375 
Q 48.484375 72.75 52.59375 71.296875 
z
" id="DejaVuSans-36"/>
      </defs>
      <g transform="translate(191.182804 259.283636)scale(0.11 -0.11)">
       <use xlink:href="#DejaVuSans-36"/>
       <use x="63.623047" xlink:href="#DejaVuSans-30"/>
       <use x="127.246094" xlink:href="#DejaVuSans-30"/>
      </g>
     </g>
    </g>
    <g id="xtick_5">
     <g id="line2d_5">
      <g>
       <use style="stroke:#000000;stroke-width:0.8;" x="239.595" xlink:href="#m1db37601d9" y="247.425354"/>
      </g>
     </g>
     <g id="text_5">
      <!-- 700 -->
      <defs>
       <path d="M 8.203125 72.90625 
L 55.078125 72.90625 
L 55.078125 68.703125 
L 28.609375 0 
L 18.3125 0 
L 43.21875 64.59375 
L 8.203125 64.59375 
z
" id="DejaVuSans-37"/>
      </defs>
      <g transform="translate(229.096875 259.283636)scale(0.11 -0.11)">
       <use xlink:href="#DejaVuSans-37"/>
       <use x="63.623047" xlink:href="#DejaVuSans-30"/>
       <use x="127.246094" xlink:href="#DejaVuSans-30"/>
      </g>
     </g>
    </g>
    <g id="xtick_6">
     <g id="line2d_6">
      <g>
       <use style="stroke:#000000;stroke-width:0.8;" x="277.509071" xlink:href="#m1db37601d9" y="247.425354"/>
      </g>
     </g>
     <g id="text_6">
      <!-- 800 -->
      <defs>
       <path d="M 31.78125 34.625 
Q 24.75 34.625 20.71875 30.859375 
Q 16.703125 27.09375 16.703125 20.515625 
Q 16.703125 13.921875 20.71875 10.15625 
Q 24.75 6.390625 31.78125 6.390625 
Q 38.8125 6.390625 42.859375 10.171875 
Q 46.921875 13.96875 46.921875 20.515625 
Q 46.921875 27.09375 42.890625 30.859375 
Q 38.875 34.625 31.78125 34.625 
z
M 21.921875 38.8125 
Q 15.578125 40.375 12.03125 44.71875 
Q 8.5 49.078125 8.5 55.328125 
Q 8.5 64.0625 14.71875 69.140625 
Q 20.953125 74.21875 31.78125 74.21875 
Q 42.671875 74.21875 48.875 69.140625 
Q 55.078125 64.0625 55.078125 55.328125 
Q 55.078125 49.078125 51.53125 44.71875 
Q 48 40.375 41.703125 38.8125 
Q 48.828125 37.15625 52.796875 32.3125 
Q 56.78125 27.484375 56.78125 20.515625 
Q 56.78125 9.90625 50.3125 4.234375 
Q 43.84375 -1.421875 31.78125 -1.421875 
Q 19.734375 -1.421875 13.25 4.234375 
Q 6.78125 9.90625 6.78125 20.515625 
Q 6.78125 27.484375 10.78125 32.3125 
Q 14.796875 37.15625 21.921875 38.8125 
z
M 18.3125 54.390625 
Q 18.3125 48.734375 21.84375 45.5625 
Q 25.390625 42.390625 31.78125 42.390625 
Q 38.140625 42.390625 41.71875 45.5625 
Q 45.3125 48.734375 45.3125 54.390625 
Q 45.3125 60.0625 41.71875 63.234375 
Q 38.140625 66.40625 31.78125 66.40625 
Q 25.390625 66.40625 21.84375 63.234375 
Q 18.3125 60.0625 18.3125 54.390625 
z
" id="DejaVuSans-38"/>
      </defs>
      <g transform="translate(267.010946 259.283636)scale(0.11 -0.11)">
       <use xlink:href="#DejaVuSans-38"/>
       <use x="63.623047" xlink:href="#DejaVuSans-30"/>
       <use x="127.246094" xlink:href="#DejaVuSans-30"/>
      </g>
     </g>
    </g>
    <g id="xtick_7">
     <g id="line2d_7">
      <g>
       <use style="stroke:#000000;stroke-width:0.8;" x="315.423142" xlink:href="#m1db37601d9" y="247.425354"/>
      </g>
     </g>
     <g id="text_7">
      <!-- 900 -->
      <defs>
       <path d="M 10.984375 1.515625 
L 10.984375 10.5 
Q 14.703125 8.734375 18.5 7.8125 
Q 22.3125 6.890625 25.984375 6.890625 
Q 35.75 6.890625 40.890625 13.453125 
Q 46.046875 20.015625 46.78125 33.40625 
Q 43.953125 29.203125 39.59375 26.953125 
Q 35.25 24.703125 29.984375 24.703125 
Q 19.046875 24.703125 12.671875 31.3125 
Q 6.296875 37.9375 6.296875 49.421875 
Q 6.296875 60.640625 12.9375 67.421875 
Q 19.578125 74.21875 30.609375 74.21875 
Q 43.265625 74.21875 49.921875 64.515625 
Q 56.59375 54.828125 56.59375 36.375 
Q 56.59375 19.140625 48.40625 8.859375 
Q 40.234375 -1.421875 26.421875 -1.421875 
Q 22.703125 -1.421875 18.890625 -0.6875 
Q 15.09375 0.046875 10.984375 1.515625 
z
M 30.609375 32.421875 
Q 37.25 32.421875 41.125 36.953125 
Q 45.015625 41.5 45.015625 49.421875 
Q 45.015625 57.28125 41.125 61.84375 
Q 37.25 66.40625 30.609375 66.40625 
Q 23.96875 66.40625 20.09375 61.84375 
Q 16.21875 57.28125 16.21875 49.421875 
Q 16.21875 41.5 20.09375 36.953125 
Q 23.96875 32.421875 30.609375 32.421875 
z
" id="DejaVuSans-39"/>
      </defs>
      <g transform="translate(304.925017 259.283636)scale(0.11 -0.11)">
       <use xlink:href="#DejaVuSans-39"/>
       <use x="63.623047" xlink:href="#DejaVuSans-30"/>
       <use x="127.246094" xlink:href="#DejaVuSans-30"/>
      </g>
     </g>
    </g>
    <g id="xtick_8">
     <g id="line2d_8">
      <g>
       <use style="stroke:#000000;stroke-width:0.8;" x="353.337213" xlink:href="#m1db37601d9" y="247.425354"/>
      </g>
     </g>
     <g id="text_8">
      <!-- 1000 -->
      <defs>
       <path d="M 12.40625 8.296875 
L 28.515625 8.296875 
L 28.515625 63.921875 
L 10.984375 60.40625 
L 10.984375 69.390625 
L 28.421875 72.90625 
L 38.28125 72.90625 
L 38.28125 8.296875 
L 54.390625 8.296875 
L 54.390625 0 
L 12.40625 0 
z
" id="DejaVuSans-31"/>
      </defs>
      <g transform="translate(339.339713 259.283636)scale(0.11 -0.11)">
       <use xlink:href="#DejaVuSans-31"/>
       <use x="63.623047" xlink:href="#DejaVuSans-30"/>
       <use x="127.246094" xlink:href="#DejaVuSans-30"/>
       <use x="190.869141" xlink:href="#DejaVuSans-30"/>
      </g>
     </g>
    </g>
    <g id="text_9">
     <!-- Volume $[\AA^3]$  -->
     <defs>
      <path d="M 28.609375 0 
L 0.78125 72.90625 
L 11.078125 72.90625 
L 34.1875 11.53125 
L 57.328125 72.90625 
L 67.578125 72.90625 
L 39.796875 0 
z
" id="DejaVuSans-56"/>
      <path d="M 30.609375 48.390625 
Q 23.390625 48.390625 19.1875 42.75 
Q 14.984375 37.109375 14.984375 27.296875 
Q 14.984375 17.484375 19.15625 11.84375 
Q 23.34375 6.203125 30.609375 6.203125 
Q 37.796875 6.203125 41.984375 11.859375 
Q 46.1875 17.53125 46.1875 27.296875 
Q 46.1875 37.015625 41.984375 42.703125 
Q 37.796875 48.390625 30.609375 48.390625 
z
M 30.609375 56 
Q 42.328125 56 49.015625 48.375 
Q 55.71875 40.765625 55.71875 27.296875 
Q 55.71875 13.875 49.015625 6.21875 
Q 42.328125 -1.421875 30.609375 -1.421875 
Q 18.84375 -1.421875 12.171875 6.21875 
Q 5.515625 13.875 5.515625 27.296875 
Q 5.515625 40.765625 12.171875 48.375 
Q 18.84375 56 30.609375 56 
z
" id="DejaVuSans-6f"/>
      <path d="M 9.421875 75.984375 
L 18.40625 75.984375 
L 18.40625 0 
L 9.421875 0 
z
" id="DejaVuSans-6c"/>
      <path d="M 8.5 21.578125 
L 8.5 54.6875 
L 17.484375 54.6875 
L 17.484375 21.921875 
Q 17.484375 14.15625 20.5 10.265625 
Q 23.53125 6.390625 29.59375 6.390625 
Q 36.859375 6.390625 41.078125 11.03125 
Q 45.3125 15.671875 45.3125 23.6875 
L 45.3125 54.6875 
L 54.296875 54.6875 
L 54.296875 0 
L 45.3125 0 
L 45.3125 8.40625 
Q 42.046875 3.421875 37.71875 1 
Q 33.40625 -1.421875 27.6875 -1.421875 
Q 18.265625 -1.421875 13.375 4.4375 
Q 8.5 10.296875 8.5 21.578125 
z
M 31.109375 56 
z
" id="DejaVuSans-75"/>
      <path d="M 52 44.1875 
Q 55.375 50.25 60.0625 53.125 
Q 64.75 56 71.09375 56 
Q 79.640625 56 84.28125 50.015625 
Q 88.921875 44.046875 88.921875 33.015625 
L 88.921875 0 
L 79.890625 0 
L 79.890625 32.71875 
Q 79.890625 40.578125 77.09375 44.375 
Q 74.3125 48.1875 68.609375 48.1875 
Q 61.625 48.1875 57.5625 43.546875 
Q 53.515625 38.921875 53.515625 30.90625 
L 53.515625 0 
L 44.484375 0 
L 44.484375 32.71875 
Q 44.484375 40.625 41.703125 44.40625 
Q 38.921875 48.1875 33.109375 48.1875 
Q 26.21875 48.1875 22.15625 43.53125 
Q 18.109375 38.875 18.109375 30.90625 
L 18.109375 0 
L 9.078125 0 
L 9.078125 54.6875 
L 18.109375 54.6875 
L 18.109375 46.1875 
Q 21.1875 51.21875 25.484375 53.609375 
Q 29.78125 56 35.6875 56 
Q 41.65625 56 45.828125 52.96875 
Q 50 49.953125 52 44.1875 
z
" id="DejaVuSans-6d"/>
      <path d="M 56.203125 29.59375 
L 56.203125 25.203125 
L 14.890625 25.203125 
Q 15.484375 15.921875 20.484375 11.0625 
Q 25.484375 6.203125 34.421875 6.203125 
Q 39.59375 6.203125 44.453125 7.46875 
Q 49.3125 8.734375 54.109375 11.28125 
L 54.109375 2.78125 
Q 49.265625 0.734375 44.1875 -0.34375 
Q 39.109375 -1.421875 33.890625 -1.421875 
Q 20.796875 -1.421875 13.15625 6.1875 
Q 5.515625 13.8125 5.515625 26.8125 
Q 5.515625 40.234375 12.765625 48.109375 
Q 20.015625 56 32.328125 56 
Q 43.359375 56 49.78125 48.890625 
Q 56.203125 41.796875 56.203125 29.59375 
z
M 47.21875 32.234375 
Q 47.125 39.59375 43.09375 43.984375 
Q 39.0625 48.390625 32.421875 48.390625 
Q 24.90625 48.390625 20.390625 44.140625 
Q 15.875 39.890625 15.1875 32.171875 
z
" id="DejaVuSans-65"/>
      <path id="DejaVuSans-20"/>
      <path d="M 8.59375 75.984375 
L 29.296875 75.984375 
L 29.296875 69 
L 17.578125 69 
L 17.578125 -6.203125 
L 29.296875 -6.203125 
L 29.296875 -13.1875 
L 8.59375 -13.1875 
z
" id="DejaVuSans-5b"/>
      <path d="M 49.8125 79.390625 
Q 49.8125 82.46875 47.625 84.640625 
Q 45.453125 86.8125 42.390625 86.8125 
Q 39.265625 86.8125 37.140625 84.6875 
Q 35.015625 82.5625 35.015625 79.390625 
Q 35.015625 76.3125 37.140625 74.15625 
Q 39.265625 72.015625 42.390625 72.015625 
Q 45.453125 72.015625 47.625 74.15625 
Q 49.8125 76.3125 49.8125 79.390625 
z
M 34.421875 68.703125 
Q 31.78125 70.515625 30.390625 73.265625 
Q 29 76.03125 29 79.390625 
Q 29 84.96875 32.90625 88.890625 
Q 36.8125 92.828125 42.390625 92.828125 
Q 47.953125 92.828125 51.875 88.890625 
Q 55.8125 84.96875 55.8125 79.390625 
Q 55.8125 75.53125 54.03125 72.546875 
Q 52.25 69.578125 48.875 67.828125 
L 61.53125 0 
L 51.21875 0 
L 48.1875 18.703125 
L 15.375 18.703125 
L 5.078125 0 
L -5.328125 0 
z
M 40.375 63.1875 
L 19.921875 26.90625 
L 46.6875 26.90625 
z
" id="DejaVuSans-Oblique-c5"/>
      <path d="M 30.421875 75.984375 
L 30.421875 -13.1875 
L 9.71875 -13.1875 
L 9.71875 -6.203125 
L 21.390625 -6.203125 
L 21.390625 69 
L 9.71875 69 
L 9.71875 75.984375 
z
" id="DejaVuSans-5d"/>
     </defs>
     <g transform="translate(187.835 279.363792)scale(0.16 -0.16)">
      <use transform="translate(0 0.171875)" xlink:href="#DejaVuSans-56"/>
      <use transform="translate(68.408203 0.171875)" xlink:href="#DejaVuSans-6f"/>
      <use transform="translate(129.589844 0.171875)" xlink:href="#DejaVuSans-6c"/>
      <use transform="translate(157.373047 0.171875)" xlink:href="#DejaVuSans-75"/>
      <use transform="translate(220.751953 0.171875)" xlink:href="#DejaVuSans-6d"/>
      <use transform="translate(318.164062 0.171875)" xlink:href="#DejaVuSans-65"/>
      <use transform="translate(379.6875 0.171875)" xlink:href="#DejaVuSans-20"/>
      <use transform="translate(411.474609 0.171875)" xlink:href="#DejaVuSans-5b"/>
      <use transform="translate(450.488281 0.171875)" xlink:href="#DejaVuSans-Oblique-c5"/>
      <use transform="translate(528.702318 38.453125)scale(0.7)" xlink:href="#DejaVuSans-33"/>
      <use transform="translate(575.972826 0.171875)" xlink:href="#DejaVuSans-5d"/>
      <use transform="translate(614.986497 0.171875)" xlink:href="#DejaVuSans-20"/>
     </g>
    </g>
   </g>
   <g id="matplotlib.axis_2">
    <g id="ytick_1">
     <g id="line2d_9">
      <defs>
       <path d="M 0 0 
L 3.5 0 
" id="mcd37e7b2b0" style="stroke:#000000;stroke-width:0.8;"/>
      </defs>
      <g>
       <use style="stroke:#000000;stroke-width:0.8;" x="50.024646" xlink:href="#mcd37e7b2b0" y="186.997677"/>
      </g>
     </g>
     <g id="text_10">
      <!-- 0.05 -->
      <defs>
       <path d="M 10.6875 12.40625 
L 21 12.40625 
L 21 0 
L 10.6875 0 
z
" id="DejaVuSans-2e"/>
      </defs>
      <g transform="translate(22.032458 191.176818)scale(0.11 -0.11)">
       <use xlink:href="#DejaVuSans-30"/>
       <use x="63.623047" xlink:href="#DejaVuSans-2e"/>
       <use x="95.410156" xlink:href="#DejaVuSans-30"/>
       <use x="159.033203" xlink:href="#DejaVuSans-35"/>
      </g>
     </g>
    </g>
    <g id="ytick_2">
     <g id="line2d_10">
      <g>
       <use style="stroke:#000000;stroke-width:0.8;" x="50.024646" xlink:href="#mcd37e7b2b0" y="126.57"/>
      </g>
     </g>
     <g id="text_11">
      <!-- 0.10 -->
      <g transform="translate(22.032458 130.749141)scale(0.11 -0.11)">
       <use xlink:href="#DejaVuSans-30"/>
       <use x="63.623047" xlink:href="#DejaVuSans-2e"/>
       <use x="95.410156" xlink:href="#DejaVuSans-31"/>
       <use x="159.033203" xlink:href="#DejaVuSans-30"/>
      </g>
     </g>
    </g>
    <g id="ytick_3">
     <g id="line2d_11">
      <g>
       <use style="stroke:#000000;stroke-width:0.8;" x="50.024646" xlink:href="#mcd37e7b2b0" y="66.142323"/>
      </g>
     </g>
     <g id="text_12">
      <!-- 0.15 -->
      <g transform="translate(22.032458 70.321463)scale(0.11 -0.11)">
       <use xlink:href="#DejaVuSans-30"/>
       <use x="63.623047" xlink:href="#DejaVuSans-2e"/>
       <use x="95.410156" xlink:href="#DejaVuSans-31"/>
       <use x="159.033203" xlink:href="#DejaVuSans-35"/>
      </g>
     </g>
    </g>
    <g id="ytick_4">
     <g id="line2d_12">
      <g>
       <use style="stroke:#000000;stroke-width:0.8;" x="50.024646" xlink:href="#mcd37e7b2b0" y="5.714646"/>
      </g>
     </g>
     <g id="text_13">
      <!-- 0.20 -->
      <defs>
       <path d="M 19.1875 8.296875 
L 53.609375 8.296875 
L 53.609375 0 
L 7.328125 0 
L 7.328125 8.296875 
Q 12.9375 14.109375 22.625 23.890625 
Q 32.328125 33.6875 34.8125 36.53125 
Q 39.546875 41.84375 41.421875 45.53125 
Q 43.3125 49.21875 43.3125 52.78125 
Q 43.3125 58.59375 39.234375 62.25 
Q 35.15625 65.921875 28.609375 65.921875 
Q 23.96875 65.921875 18.8125 64.3125 
Q 13.671875 62.703125 7.8125 59.421875 
L 7.8125 69.390625 
Q 13.765625 71.78125 18.9375 73 
Q 24.125 74.21875 28.421875 74.21875 
Q 39.75 74.21875 46.484375 68.546875 
Q 53.21875 62.890625 53.21875 53.421875 
Q 53.21875 48.921875 51.53125 44.890625 
Q 49.859375 40.875 45.40625 35.40625 
Q 44.1875 33.984375 37.640625 27.21875 
Q 31.109375 20.453125 19.1875 8.296875 
z
" id="DejaVuSans-32"/>
      </defs>
      <g transform="translate(22.032458 9.893786)scale(0.11 -0.11)">
       <use xlink:href="#DejaVuSans-30"/>
       <use x="63.623047" xlink:href="#DejaVuSans-2e"/>
       <use x="95.410156" xlink:href="#DejaVuSans-32"/>
       <use x="159.033203" xlink:href="#DejaVuSans-30"/>
      </g>
     </g>
    </g>
    <g id="text_14">
     <!-- Density -->
     <defs>
      <path d="M 19.671875 64.796875 
L 19.671875 8.109375 
L 31.59375 8.109375 
Q 46.6875 8.109375 53.6875 14.9375 
Q 60.6875 21.78125 60.6875 36.53125 
Q 60.6875 51.171875 53.6875 57.984375 
Q 46.6875 64.796875 31.59375 64.796875 
z
M 9.8125 72.90625 
L 30.078125 72.90625 
Q 51.265625 72.90625 61.171875 64.09375 
Q 71.09375 55.28125 71.09375 36.53125 
Q 71.09375 17.671875 61.125 8.828125 
Q 51.171875 0 30.078125 0 
L 9.8125 0 
z
" id="DejaVuSans-44"/>
      <path d="M 54.890625 33.015625 
L 54.890625 0 
L 45.90625 0 
L 45.90625 32.71875 
Q 45.90625 40.484375 42.875 44.328125 
Q 39.84375 48.1875 33.796875 48.1875 
Q 26.515625 48.1875 22.3125 43.546875 
Q 18.109375 38.921875 18.109375 30.90625 
L 18.109375 0 
L 9.078125 0 
L 9.078125 54.6875 
L 18.109375 54.6875 
L 18.109375 46.1875 
Q 21.34375 51.125 25.703125 53.5625 
Q 30.078125 56 35.796875 56 
Q 45.21875 56 50.046875 50.171875 
Q 54.890625 44.34375 54.890625 33.015625 
z
" id="DejaVuSans-6e"/>
      <path d="M 44.28125 53.078125 
L 44.28125 44.578125 
Q 40.484375 46.53125 36.375 47.5 
Q 32.28125 48.484375 27.875 48.484375 
Q 21.1875 48.484375 17.84375 46.4375 
Q 14.5 44.390625 14.5 40.28125 
Q 14.5 37.15625 16.890625 35.375 
Q 19.28125 33.59375 26.515625 31.984375 
L 29.59375 31.296875 
Q 39.15625 29.25 43.1875 25.515625 
Q 47.21875 21.78125 47.21875 15.09375 
Q 47.21875 7.46875 41.1875 3.015625 
Q 35.15625 -1.421875 24.609375 -1.421875 
Q 20.21875 -1.421875 15.453125 -0.5625 
Q 10.6875 0.296875 5.421875 2 
L 5.421875 11.28125 
Q 10.40625 8.6875 15.234375 7.390625 
Q 20.0625 6.109375 24.8125 6.109375 
Q 31.15625 6.109375 34.5625 8.28125 
Q 37.984375 10.453125 37.984375 14.40625 
Q 37.984375 18.0625 35.515625 20.015625 
Q 33.0625 21.96875 24.703125 23.78125 
L 21.578125 24.515625 
Q 13.234375 26.265625 9.515625 29.90625 
Q 5.8125 33.546875 5.8125 39.890625 
Q 5.8125 47.609375 11.28125 51.796875 
Q 16.75 56 26.8125 56 
Q 31.78125 56 36.171875 55.265625 
Q 40.578125 54.546875 44.28125 53.078125 
z
" id="DejaVuSans-73"/>
      <path d="M 9.421875 54.6875 
L 18.40625 54.6875 
L 18.40625 0 
L 9.421875 0 
z
M 9.421875 75.984375 
L 18.40625 75.984375 
L 18.40625 64.59375 
L 9.421875 64.59375 
z
" id="DejaVuSans-69"/>
      <path d="M 18.3125 70.21875 
L 18.3125 54.6875 
L 36.8125 54.6875 
L 36.8125 47.703125 
L 18.3125 47.703125 
L 18.3125 18.015625 
Q 18.3125 11.328125 20.140625 9.421875 
Q 21.96875 7.515625 27.59375 7.515625 
L 36.8125 7.515625 
L 36.8125 0 
L 27.59375 0 
Q 17.1875 0 13.234375 3.875 
Q 9.28125 7.765625 9.28125 18.015625 
L 9.28125 47.703125 
L 2.6875 47.703125 
L 2.6875 54.6875 
L 9.28125 54.6875 
L 9.28125 70.21875 
z
" id="DejaVuSans-74"/>
      <path d="M 32.171875 -5.078125 
Q 28.375 -14.84375 24.75 -17.8125 
Q 21.140625 -20.796875 15.09375 -20.796875 
L 7.90625 -20.796875 
L 7.90625 -13.28125 
L 13.1875 -13.28125 
Q 16.890625 -13.28125 18.9375 -11.515625 
Q 21 -9.765625 23.484375 -3.21875 
L 25.09375 0.875 
L 2.984375 54.6875 
L 12.5 54.6875 
L 29.59375 11.921875 
L 46.6875 54.6875 
L 56.203125 54.6875 
z
" id="DejaVuSans-79"/>
     </defs>
     <g transform="translate(14.704958 156.98375)rotate(-90)scale(0.16 -0.16)">
      <use xlink:href="#DejaVuSans-44"/>
      <use x="77.001953" xlink:href="#DejaVuSans-65"/>
      <use x="138.525391" xlink:href="#DejaVuSans-6e"/>
      <use x="201.904297" xlink:href="#DejaVuSans-73"/>
      <use x="254.003906" xlink:href="#DejaVuSans-69"/>
      <use x="281.787109" xlink:href="#DejaVuSans-74"/>
      <use x="320.996094" xlink:href="#DejaVuSans-79"/>
     </g>
    </g>
   </g>
   <g id="patch_36">
    <path clip-path="url(#pa4a183a8fc)" d="M 51.446423 247.425354 
L 51.446423 247.425354 
L 55.711756 247.425354 
L 55.711756 247.425354 
L 51.446423 247.425354 
" style="fill:#feb236;"/>
   </g>
   <g id="patch_37">
    <path clip-path="url(#pa4a183a8fc)" d="M 62.820645 247.425354 
L 62.820645 247.425354 
L 67.085978 247.425354 
L 67.085978 247.425354 
L 62.820645 247.425354 
" style="fill:#feb236;"/>
   </g>
   <g id="patch_38">
    <path clip-path="url(#pa4a183a8fc)" d="M 74.194866 246.925068 
L 74.194866 247.425354 
L 78.460199 247.425354 
L 78.460199 246.925068 
L 74.194866 246.925068 
" style="fill:#feb236;"/>
   </g>
   <g id="patch_39">
    <path clip-path="url(#pa4a183a8fc)" d="M 85.569087 242.122322 
L 85.569087 247.425354 
L 89.83442 247.425354 
L 89.83442 242.122322 
L 85.569087 242.122322 
" style="fill:#feb236;"/>
   </g>
   <g id="patch_40">
    <path clip-path="url(#pa4a183a8fc)" d="M 96.943308 231.32865 
L 96.943308 247.425354 
L 101.208641 247.425354 
L 101.208641 231.32865 
L 96.943308 231.32865 
" style="fill:#feb236;"/>
   </g>
   <g id="patch_41">
    <path clip-path="url(#pa4a183a8fc)" d="M 108.31753 202.749809 
L 108.31753 247.425354 
L 112.582863 247.425354 
L 112.582863 202.749809 
L 108.31753 202.749809 
" style="fill:#feb236;"/>
   </g>
   <g id="patch_42">
    <path clip-path="url(#pa4a183a8fc)" d="M 119.691751 165.953769 
L 119.691751 247.425354 
L 123.957084 247.425354 
L 123.957084 165.953769 
L 119.691751 165.953769 
" style="fill:#feb236;"/>
   </g>
   <g id="patch_43">
    <path clip-path="url(#pa4a183a8fc)" d="M 131.065972 127.419236 
L 131.065972 247.425354 
L 135.331305 247.425354 
L 135.331305 127.419236 
L 131.065972 127.419236 
" style="fill:#feb236;"/>
   </g>
   <g id="patch_44">
    <path clip-path="url(#pa4a183a8fc)" d="M 142.440193 83.331527 
L 142.440193 247.425354 
L 146.705526 247.425354 
L 146.705526 83.331527 
L 142.440193 83.331527 
" style="fill:#feb236;"/>
   </g>
   <g id="patch_45">
    <path clip-path="url(#pa4a183a8fc)" d="M 153.814415 66.847101 
L 153.814415 247.425354 
L 158.079748 247.425354 
L 158.079748 66.847101 
L 153.814415 66.847101 
" style="fill:#feb236;"/>
   </g>
   <g id="patch_46">
    <path clip-path="url(#pa4a183a8fc)" d="M 165.188636 75.902279 
L 165.188636 247.425354 
L 169.453969 247.425354 
L 169.453969 75.902279 
L 165.188636 75.902279 
" style="fill:#feb236;"/>
   </g>
   <g id="patch_47">
    <path clip-path="url(#pa4a183a8fc)" d="M 176.562857 104.756277 
L 176.562857 247.425354 
L 180.82819 247.425354 
L 180.82819 104.756277 
L 176.562857 104.756277 
" style="fill:#feb236;"/>
   </g>
   <g id="patch_48">
    <path clip-path="url(#pa4a183a8fc)" d="M 187.937078 141.45226 
L 187.937078 247.425354 
L 192.202411 247.425354 
L 192.202411 141.45226 
L 187.937078 141.45226 
" style="fill:#feb236;"/>
   </g>
   <g id="patch_49">
    <path clip-path="url(#pa4a183a8fc)" d="M 199.3113 178.060692 
L 199.3113 247.425354 
L 203.576633 247.425354 
L 203.576633 178.060692 
L 199.3113 178.060692 
" style="fill:#feb236;"/>
   </g>
   <g id="patch_50">
    <path clip-path="url(#pa4a183a8fc)" d="M 210.685521 200.923765 
L 210.685521 247.425354 
L 214.950854 247.425354 
L 214.950854 200.923765 
L 210.685521 200.923765 
" style="fill:#feb236;"/>
   </g>
   <g id="patch_51">
    <path clip-path="url(#pa4a183a8fc)" d="M 222.059742 221.235379 
L 222.059742 247.425354 
L 226.325075 247.425354 
L 226.325075 221.235379 
L 222.059742 221.235379 
" style="fill:#feb236;"/>
   </g>
   <g id="patch_52">
    <path clip-path="url(#pa4a183a8fc)" d="M 233.433963 231.566286 
L 233.433963 247.425354 
L 237.699296 247.425354 
L 237.699296 231.566286 
L 233.433963 231.566286 
" style="fill:#feb236;"/>
   </g>
   <g id="patch_53">
    <path clip-path="url(#pa4a183a8fc)" d="M 244.808185 240.146192 
L 244.808185 247.425354 
L 249.073518 247.425354 
L 249.073518 240.146192 
L 244.808185 240.146192 
" style="fill:#feb236;"/>
   </g>
   <g id="patch_54">
    <path clip-path="url(#pa4a183a8fc)" d="M 256.182406 242.497537 
L 256.182406 247.425354 
L 260.447739 247.425354 
L 260.447739 242.497537 
L 256.182406 242.497537 
" style="fill:#feb236;"/>
   </g>
   <g id="patch_55">
    <path clip-path="url(#pa4a183a8fc)" d="M 267.556627 244.486174 
L 267.556627 247.425354 
L 271.82196 247.425354 
L 271.82196 244.486174 
L 267.556627 244.486174 
" style="fill:#feb236;"/>
   </g>
   <g id="patch_56">
    <path clip-path="url(#pa4a183a8fc)" d="M 278.930849 245.94951 
L 278.930849 247.425354 
L 283.196181 247.425354 
L 283.196181 245.94951 
L 278.930849 245.94951 
" style="fill:#feb236;"/>
   </g>
   <g id="patch_57">
    <path clip-path="url(#pa4a183a8fc)" d="M 290.30507 246.987604 
L 290.30507 247.425354 
L 294.570403 247.425354 
L 294.570403 246.987604 
L 290.30507 246.987604 
" style="fill:#feb236;"/>
   </g>
   <g id="patch_58">
    <path clip-path="url(#pa4a183a8fc)" d="M 301.679291 246.987604 
L 301.679291 247.425354 
L 305.944624 247.425354 
L 305.944624 246.987604 
L 301.679291 246.987604 
" style="fill:#feb236;"/>
   </g>
   <g id="patch_59">
    <path clip-path="url(#pa4a183a8fc)" d="M 313.053512 247.40034 
L 313.053512 247.425354 
L 317.318845 247.425354 
L 317.318845 247.40034 
L 313.053512 247.40034 
" style="fill:#feb236;"/>
   </g>
   <g id="patch_60">
    <path clip-path="url(#pa4a183a8fc)" d="M 324.427734 247.362819 
L 324.427734 247.425354 
L 328.693067 247.425354 
L 328.693067 247.362819 
L 324.427734 247.362819 
" style="fill:#feb236;"/>
   </g>
   <g id="patch_61">
    <path clip-path="url(#pa4a183a8fc)" d="M 335.801955 247.362819 
L 335.801955 247.425354 
L 340.067288 247.425354 
L 340.067288 247.362819 
L 335.801955 247.362819 
" style="fill:#feb236;"/>
   </g>
   <g id="patch_62">
    <path clip-path="url(#pa4a183a8fc)" d="M 347.176176 247.325297 
L 347.176176 247.425354 
L 351.441509 247.425354 
L 351.441509 247.325297 
L 347.176176 247.325297 
" style="fill:#feb236;"/>
   </g>
   <g id="patch_63">
    <path clip-path="url(#pa4a183a8fc)" d="M 358.550397 247.425354 
L 358.550397 247.425354 
L 362.81573 247.425354 
L 362.81573 247.425354 
L 358.550397 247.425354 
" style="fill:#feb236;"/>
   </g>
   <g id="patch_64">
    <path clip-path="url(#pa4a183a8fc)" d="M 369.924619 247.425354 
L 369.924619 247.425354 
L 374.189952 247.425354 
L 374.189952 247.425354 
L 369.924619 247.425354 
" style="fill:#feb236;"/>
   </g>
   <g id="patch_65">
    <path clip-path="url(#pa4a183a8fc)" d="M 381.29884 247.425354 
L 381.29884 247.425354 
L 385.564173 247.425354 
L 385.564173 247.425354 
L 381.29884 247.425354 
" style="fill:#feb236;"/>
   </g>
   <g id="patch_66">
    <path clip-path="url(#pa4a183a8fc)" d="M 392.673061 247.425354 
L 392.673061 247.425354 
L 396.938394 247.425354 
L 396.938394 247.425354 
L 392.673061 247.425354 
" style="fill:#feb236;"/>
   </g>
   <g id="patch_67">
    <path clip-path="url(#pa4a183a8fc)" d="M 404.047282 247.425354 
L 404.047282 247.425354 
L 408.312615 247.425354 
L 408.312615 247.425354 
L 404.047282 247.425354 
" style="fill:#feb236;"/>
   </g>
   <g id="patch_68">
    <path clip-path="url(#pa4a183a8fc)" d="M 415.421504 247.425354 
L 415.421504 247.425354 
L 419.686837 247.425354 
L 419.686837 247.425354 
L 415.421504 247.425354 
" style="fill:#feb236;"/>
   </g>
   <g id="patch_69">
    <path d="M 50.024646 247.425354 
L 50.024646 5.714646 
" style="fill:none;stroke:#000000;stroke-linecap:square;stroke-linejoin:miter;"/>
   </g>
   <g id="patch_70">
    <path d="M 50.024646 247.425354 
L 429.165354 247.425354 
" style="fill:none;stroke:#000000;stroke-linecap:square;stroke-linejoin:miter;"/>
   </g>
   <g id="patch_71">
    <path clip-path="url(#pa4a183a8fc)" d="M 55.711756 247.425354 
L 55.711756 247.425354 
L 59.977089 247.425354 
L 59.977089 247.425354 
L 55.711756 247.425354 
" style="fill:#6b5b95;"/>
   </g>
   <g id="patch_72">
    <path clip-path="url(#pa4a183a8fc)" d="M 67.085978 247.425354 
L 67.085978 247.425354 
L 71.351311 247.425354 
L 71.351311 247.425354 
L 67.085978 247.425354 
" style="fill:#6b5b95;"/>
   </g>
   <g id="patch_73">
    <path clip-path="url(#pa4a183a8fc)" d="M 78.460199 247.425354 
L 78.460199 247.425354 
L 82.725532 247.425354 
L 82.725532 247.425354 
L 78.460199 247.425354 
" style="fill:#6b5b95;"/>
   </g>
   <g id="patch_74">
    <path clip-path="url(#pa4a183a8fc)" d="M 89.83442 247.425354 
L 89.83442 247.425354 
L 94.099753 247.425354 
L 94.099753 247.425354 
L 89.83442 247.425354 
" style="fill:#6b5b95;"/>
   </g>
   <g id="patch_75">
    <path clip-path="url(#pa4a183a8fc)" d="M 101.208641 247.425354 
L 101.208641 247.425354 
L 105.473974 247.425354 
L 105.473974 247.425354 
L 101.208641 247.425354 
" style="fill:#6b5b95;"/>
   </g>
   <g id="patch_76">
    <path clip-path="url(#pa4a183a8fc)" d="M 112.582863 247.425354 
L 112.582863 247.425354 
L 116.848196 247.425354 
L 116.848196 247.425354 
L 112.582863 247.425354 
" style="fill:#6b5b95;"/>
   </g>
   <g id="patch_77">
    <path clip-path="url(#pa4a183a8fc)" d="M 123.957084 246.990696 
L 123.957084 247.425354 
L 128.222417 247.425354 
L 128.222417 246.990696 
L 123.957084 246.990696 
" style="fill:#6b5b95;"/>
   </g>
   <g id="patch_78">
    <path clip-path="url(#pa4a183a8fc)" d="M 135.331305 245.303201 
L 135.331305 247.425354 
L 139.596638 247.425354 
L 139.596638 245.303201 
L 135.331305 245.303201 
" style="fill:#6b5b95;"/>
   </g>
   <g id="patch_79">
    <path clip-path="url(#pa4a183a8fc)" d="M 146.705526 243.129911 
L 146.705526 247.425354 
L 150.970859 247.425354 
L 150.970859 243.129911 
L 146.705526 243.129911 
" style="fill:#6b5b95;"/>
   </g>
   <g id="patch_80">
    <path clip-path="url(#pa4a183a8fc)" d="M 158.079748 238.604356 
L 158.079748 247.425354 
L 162.345081 247.425354 
L 162.345081 238.604356 
L 158.079748 238.604356 
" style="fill:#6b5b95;"/>
   </g>
   <g id="patch_81">
    <path clip-path="url(#pa4a183a8fc)" d="M 169.453969 227.073137 
L 169.453969 247.425354 
L 173.719302 247.425354 
L 173.719302 227.073137 
L 169.453969 227.073137 
" style="fill:#6b5b95;"/>
   </g>
   <g id="patch_82">
    <path clip-path="url(#pa4a183a8fc)" d="M 180.82819 215.132828 
L 180.82819 247.425354 
L 185.093523 247.425354 
L 185.093523 215.132828 
L 180.82819 215.132828 
" style="fill:#6b5b95;"/>
   </g>
   <g id="patch_83">
    <path clip-path="url(#pa4a183a8fc)" d="M 192.202411 198.487987 
L 192.202411 247.425354 
L 196.467744 247.425354 
L 196.467744 198.487987 
L 192.202411 198.487987 
" style="fill:#6b5b95;"/>
   </g>
   <g id="patch_84">
    <path clip-path="url(#pa4a183a8fc)" d="M 203.576633 175.988048 
L 203.576633 247.425354 
L 207.841966 247.425354 
L 207.841966 175.988048 
L 203.576633 175.988048 
" style="fill:#6b5b95;"/>
   </g>
   <g id="patch_85">
    <path clip-path="url(#pa4a183a8fc)" d="M 214.950854 155.942648 
L 214.950854 247.425354 
L 219.216187 247.425354 
L 219.216187 155.942648 
L 214.950854 155.942648 
" style="fill:#6b5b95;"/>
   </g>
   <g id="patch_86">
    <path clip-path="url(#pa4a183a8fc)" d="M 226.325075 148.221078 
L 226.325075 247.425354 
L 230.590408 247.425354 
L 230.590408 148.221078 
L 226.325075 148.221078 
" style="fill:#6b5b95;"/>
   </g>
   <g id="patch_87">
    <path clip-path="url(#pa4a183a8fc)" d="M 237.699296 133.263732 
L 237.699296 247.425354 
L 241.964629 247.425354 
L 241.964629 133.263732 
L 237.699296 133.263732 
" style="fill:#6b5b95;"/>
   </g>
   <g id="patch_88">
    <path clip-path="url(#pa4a183a8fc)" d="M 249.073518 136.8177 
L 249.073518 247.425354 
L 253.338851 247.425354 
L 253.338851 136.8177 
L 249.073518 136.8177 
" style="fill:#6b5b95;"/>
   </g>
   <g id="patch_89">
    <path clip-path="url(#pa4a183a8fc)" d="M 260.447739 138.786444 
L 260.447739 247.425354 
L 264.713072 247.425354 
L 264.713072 138.786444 
L 260.447739 138.786444 
" style="fill:#6b5b95;"/>
   </g>
   <g id="patch_90">
    <path clip-path="url(#pa4a183a8fc)" d="M 271.82196 140.934166 
L 271.82196 247.425354 
L 276.087293 247.425354 
L 276.087293 140.934166 
L 271.82196 140.934166 
" style="fill:#6b5b95;"/>
   </g>
   <g id="patch_91">
    <path clip-path="url(#pa4a183a8fc)" d="M 283.196181 150.394367 
L 283.196181 247.425354 
L 287.461514 247.425354 
L 287.461514 150.394367 
L 283.196181 150.394367 
" style="fill:#6b5b95;"/>
   </g>
   <g id="patch_92">
    <path clip-path="url(#pa4a183a8fc)" d="M 294.570403 160.570476 
L 294.570403 247.425354 
L 298.835736 247.425354 
L 298.835736 160.570476 
L 294.570403 160.570476 
" style="fill:#6b5b95;"/>
   </g>
   <g id="patch_93">
    <path clip-path="url(#pa4a183a8fc)" d="M 305.944624 176.678387 
L 305.944624 247.425354 
L 310.209957 247.425354 
L 310.209957 176.678387 
L 305.944624 176.678387 
" style="fill:#6b5b95;"/>
   </g>
   <g id="patch_94">
    <path clip-path="url(#pa4a183a8fc)" d="M 317.318845 195.931176 
L 317.318845 247.425354 
L 321.584178 247.425354 
L 321.584178 195.931176 
L 317.318845 195.931176 
" style="fill:#6b5b95;"/>
   </g>
   <g id="patch_95">
    <path clip-path="url(#pa4a183a8fc)" d="M 328.693067 212.499313 
L 328.693067 247.425354 
L 332.9584 247.425354 
L 332.9584 212.499313 
L 328.693067 212.499313 
" style="fill:#6b5b95;"/>
   </g>
   <g id="patch_96">
    <path clip-path="url(#pa4a183a8fc)" d="M 340.067288 227.84018 
L 340.067288 247.425354 
L 344.332621 247.425354 
L 344.332621 227.84018 
L 340.067288 227.84018 
" style="fill:#6b5b95;"/>
   </g>
   <g id="patch_97">
    <path clip-path="url(#pa4a183a8fc)" d="M 351.441509 232.774826 
L 351.441509 247.425354 
L 355.706842 247.425354 
L 355.706842 232.774826 
L 351.441509 232.774826 
" style="fill:#6b5b95;"/>
   </g>
   <g id="patch_98">
    <path clip-path="url(#pa4a183a8fc)" d="M 362.81573 240.44526 
L 362.81573 247.425354 
L 367.081063 247.425354 
L 367.081063 240.44526 
L 362.81573 240.44526 
" style="fill:#6b5b95;"/>
   </g>
   <g id="patch_99">
    <path clip-path="url(#pa4a183a8fc)" d="M 374.189952 243.232184 
L 374.189952 247.425354 
L 378.455285 247.425354 
L 378.455285 243.232184 
L 374.189952 243.232184 
" style="fill:#6b5b95;"/>
   </g>
   <g id="patch_100">
    <path clip-path="url(#pa4a183a8fc)" d="M 385.564173 245.45661 
L 385.564173 247.425354 
L 389.829506 247.425354 
L 389.829506 245.45661 
L 385.564173 245.45661 
" style="fill:#6b5b95;"/>
   </g>
   <g id="patch_101">
    <path clip-path="url(#pa4a183a8fc)" d="M 396.938394 246.990696 
L 396.938394 247.425354 
L 401.203727 247.425354 
L 401.203727 246.990696 
L 396.938394 246.990696 
" style="fill:#6b5b95;"/>
   </g>
   <g id="patch_102">
    <path clip-path="url(#pa4a183a8fc)" d="M 408.312615 247.195241 
L 408.312615 247.425354 
L 412.577948 247.425354 
L 412.577948 247.195241 
L 408.312615 247.195241 
" style="fill:#6b5b95;"/>
   </g>
   <g id="patch_103">
    <path clip-path="url(#pa4a183a8fc)" d="M 419.686837 247.246378 
L 419.686837 247.425354 
L 423.95217 247.425354 
L 423.95217 247.246378 
L 419.686837 247.246378 
" style="fill:#6b5b95;"/>
   </g>
   <g id="patch_104">
    <path clip-path="url(#pa4a183a8fc)" d="M 59.977089 247.425354 
L 59.977089 247.425354 
L 64.242422 247.425354 
L 64.242422 247.425354 
L 59.977089 247.425354 
" style="fill:#a0522d;"/>
   </g>
   <g id="patch_105">
    <path clip-path="url(#pa4a183a8fc)" d="M 71.351311 247.425354 
L 71.351311 247.425354 
L 75.616644 247.425354 
L 75.616644 247.425354 
L 71.351311 247.425354 
" style="fill:#a0522d;"/>
   </g>
   <g id="patch_106">
    <path clip-path="url(#pa4a183a8fc)" d="M 82.725532 247.425354 
L 82.725532 247.425354 
L 86.990865 247.425354 
L 86.990865 247.425354 
L 82.725532 247.425354 
" style="fill:#a0522d;"/>
   </g>
   <g id="patch_107">
    <path clip-path="url(#pa4a183a8fc)" d="M 94.099753 247.425354 
L 94.099753 247.425354 
L 98.365086 247.425354 
L 98.365086 247.425354 
L 94.099753 247.425354 
" style="fill:#a0522d;"/>
   </g>
   <g id="patch_108">
    <path clip-path="url(#pa4a183a8fc)" d="M 105.473974 247.425354 
L 105.473974 247.425354 
L 109.739307 247.425354 
L 109.739307 247.425354 
L 105.473974 247.425354 
" style="fill:#a0522d;"/>
   </g>
   <g id="patch_109">
    <path clip-path="url(#pa4a183a8fc)" d="M 116.848196 247.425354 
L 116.848196 247.425354 
L 121.113529 247.425354 
L 121.113529 247.425354 
L 116.848196 247.425354 
" style="fill:#a0522d;"/>
   </g>
   <g id="patch_110">
    <path clip-path="url(#pa4a183a8fc)" d="M 128.222417 247.152438 
L 128.222417 247.425354 
L 132.48775 247.425354 
L 132.48775 247.152438 
L 128.222417 247.152438 
" style="fill:#a0522d;"/>
   </g>
   <g id="patch_111">
    <path clip-path="url(#pa4a183a8fc)" d="M 139.596638 246.723568 
L 139.596638 247.425354 
L 143.861971 247.425354 
L 143.861971 246.723568 
L 139.596638 246.723568 
" style="fill:#a0522d;"/>
   </g>
   <g id="patch_112">
    <path clip-path="url(#pa4a183a8fc)" d="M 150.970859 246.333687 
L 150.970859 247.425354 
L 155.236192 247.425354 
L 155.236192 246.333687 
L 150.970859 246.333687 
" style="fill:#a0522d;"/>
   </g>
   <g id="patch_113">
    <path clip-path="url(#pa4a183a8fc)" d="M 162.345081 243.253626 
L 162.345081 247.425354 
L 166.610414 247.425354 
L 166.610414 243.253626 
L 162.345081 243.253626 
" style="fill:#a0522d;"/>
   </g>
   <g id="patch_114">
    <path clip-path="url(#pa4a183a8fc)" d="M 173.719302 236.586659 
L 173.719302 247.425354 
L 177.984635 247.425354 
L 177.984635 236.586659 
L 173.719302 236.586659 
" style="fill:#a0522d;"/>
   </g>
   <g id="patch_115">
    <path clip-path="url(#pa4a183a8fc)" d="M 185.093523 232.726836 
L 185.093523 247.425354 
L 189.358856 247.425354 
L 189.358856 232.726836 
L 185.093523 232.726836 
" style="fill:#a0522d;"/>
   </g>
   <g id="patch_116">
    <path clip-path="url(#pa4a183a8fc)" d="M 196.467744 219.977722 
L 196.467744 247.425354 
L 200.733077 247.425354 
L 200.733077 219.977722 
L 196.467744 219.977722 
" style="fill:#a0522d;"/>
   </g>
   <g id="patch_117">
    <path clip-path="url(#pa4a183a8fc)" d="M 207.841966 190.697649 
L 207.841966 247.425354 
L 212.107299 247.425354 
L 212.107299 190.697649 
L 207.841966 190.697649 
" style="fill:#a0522d;"/>
   </g>
   <g id="patch_118">
    <path clip-path="url(#pa4a183a8fc)" d="M 219.216187 156.58305 
L 219.216187 247.425354 
L 223.48152 247.425354 
L 223.48152 156.58305 
L 219.216187 156.58305 
" style="fill:#a0522d;"/>
   </g>
   <g id="patch_119">
    <path clip-path="url(#pa4a183a8fc)" d="M 230.590408 128.511608 
L 230.590408 247.425354 
L 234.855741 247.425354 
L 234.855741 128.511608 
L 230.590408 128.511608 
" style="fill:#a0522d;"/>
   </g>
   <g id="patch_120">
    <path clip-path="url(#pa4a183a8fc)" d="M 241.964629 106.951181 
L 241.964629 247.425354 
L 246.229962 247.425354 
L 246.229962 106.951181 
L 241.964629 106.951181 
" style="fill:#a0522d;"/>
   </g>
   <g id="patch_121">
    <path clip-path="url(#pa4a183a8fc)" d="M 253.338851 114.63184 
L 253.338851 247.425354 
L 257.604184 247.425354 
L 257.604184 114.63184 
L 253.338851 114.63184 
" style="fill:#a0522d;"/>
   </g>
   <g id="patch_122">
    <path clip-path="url(#pa4a183a8fc)" d="M 264.713072 106.015467 
L 264.713072 247.425354 
L 268.978405 247.425354 
L 268.978405 106.015467 
L 264.713072 106.015467 
" style="fill:#a0522d;"/>
   </g>
   <g id="patch_123">
    <path clip-path="url(#pa4a183a8fc)" d="M 276.087293 123.638094 
L 276.087293 247.425354 
L 280.352626 247.425354 
L 280.352626 123.638094 
L 276.087293 123.638094 
" style="fill:#a0522d;"/>
   </g>
   <g id="patch_124">
    <path clip-path="url(#pa4a183a8fc)" d="M 287.461514 139.038399 
L 287.461514 247.425354 
L 291.726847 247.425354 
L 291.726847 139.038399 
L 287.461514 139.038399 
" style="fill:#a0522d;"/>
   </g>
   <g id="patch_125">
    <path clip-path="url(#pa4a183a8fc)" d="M 298.835736 166.719959 
L 298.835736 247.425354 
L 303.101069 247.425354 
L 303.101069 166.719959 
L 298.835736 166.719959 
" style="fill:#a0522d;"/>
   </g>
   <g id="patch_126">
    <path clip-path="url(#pa4a183a8fc)" d="M 310.209957 192.413126 
L 310.209957 247.425354 
L 314.47529 247.425354 
L 314.47529 192.413126 
L 310.209957 192.413126 
" style="fill:#a0522d;"/>
   </g>
   <g id="patch_127">
    <path clip-path="url(#pa4a183a8fc)" d="M 321.584178 206.214918 
L 321.584178 247.425354 
L 325.849511 247.425354 
L 325.849511 206.214918 
L 321.584178 206.214918 
" style="fill:#a0522d;"/>
   </g>
   <g id="patch_128">
    <path clip-path="url(#pa4a183a8fc)" d="M 332.9584 225.708975 
L 332.9584 247.425354 
L 337.223732 247.425354 
L 337.223732 225.708975 
L 332.9584 225.708975 
" style="fill:#a0522d;"/>
   </g>
   <g id="patch_129">
    <path clip-path="url(#pa4a183a8fc)" d="M 344.332621 234.754217 
L 344.332621 247.425354 
L 348.597954 247.425354 
L 348.597954 234.754217 
L 344.332621 234.754217 
" style="fill:#a0522d;"/>
   </g>
   <g id="patch_130">
    <path clip-path="url(#pa4a183a8fc)" d="M 355.706842 235.10511 
L 355.706842 247.425354 
L 359.972175 247.425354 
L 359.972175 235.10511 
L 355.706842 235.10511 
" style="fill:#a0522d;"/>
   </g>
   <g id="patch_131">
    <path clip-path="url(#pa4a183a8fc)" d="M 367.081063 241.889042 
L 367.081063 247.425354 
L 371.346396 247.425354 
L 371.346396 241.889042 
L 367.081063 241.889042 
" style="fill:#a0522d;"/>
   </g>
   <g id="patch_132">
    <path clip-path="url(#pa4a183a8fc)" d="M 378.455285 244.501246 
L 378.455285 247.425354 
L 382.720618 247.425354 
L 382.720618 244.501246 
L 378.455285 244.501246 
" style="fill:#a0522d;"/>
   </g>
   <g id="patch_133">
    <path clip-path="url(#pa4a183a8fc)" d="M 389.829506 245.086068 
L 389.829506 247.425354 
L 394.094839 247.425354 
L 394.094839 245.086068 
L 389.829506 245.086068 
" style="fill:#a0522d;"/>
   </g>
   <g id="patch_134">
    <path clip-path="url(#pa4a183a8fc)" d="M 401.203727 247.30839 
L 401.203727 247.425354 
L 405.46906 247.425354 
L 405.46906 247.30839 
L 401.203727 247.30839 
" style="fill:#a0522d;"/>
   </g>
   <g id="patch_135">
    <path clip-path="url(#pa4a183a8fc)" d="M 412.577948 246.918509 
L 412.577948 247.425354 
L 416.843281 247.425354 
L 416.843281 246.918509 
L 412.577948 246.918509 
" style="fill:#a0522d;"/>
   </g>
   <g id="patch_136">
    <path clip-path="url(#pa4a183a8fc)" d="M 423.95217 246.48964 
L 423.95217 247.425354 
L 428.217503 247.425354 
L 428.217503 246.48964 
L 423.95217 246.48964 
" style="fill:#a0522d;"/>
   </g>
   <g id="legend_1">
    <g id="patch_137">
     <path d="M 347.779104 59.084646 
L 423.565354 59.084646 
Q 425.165354 59.084646 425.165354 57.484646 
L 425.165354 11.314646 
Q 425.165354 9.714646 423.565354 9.714646 
L 347.779104 9.714646 
Q 346.179104 9.714646 346.179104 11.314646 
L 346.179104 57.484646 
Q 346.179104 59.084646 347.779104 59.084646 
z
" style="fill:#ffffff;stroke:#000000;stroke-linejoin:miter;"/>
    </g>
    <g id="patch_138">
     <path d="M 349.379104 18.993396 
L 365.379104 18.993396 
L 365.379104 13.393396 
L 349.379104 13.393396 
z
" style="fill:#d64161;"/>
    </g>
    <g id="text_15">
     <!-- Conformer 1 -->
     <defs>
      <path d="M 64.40625 67.28125 
L 64.40625 56.890625 
Q 59.421875 61.53125 53.78125 63.8125 
Q 48.140625 66.109375 41.796875 66.109375 
Q 29.296875 66.109375 22.65625 58.46875 
Q 16.015625 50.828125 16.015625 36.375 
Q 16.015625 21.96875 22.65625 14.328125 
Q 29.296875 6.6875 41.796875 6.6875 
Q 48.140625 6.6875 53.78125 8.984375 
Q 59.421875 11.28125 64.40625 15.921875 
L 64.40625 5.609375 
Q 59.234375 2.09375 53.4375 0.328125 
Q 47.65625 -1.421875 41.21875 -1.421875 
Q 24.65625 -1.421875 15.125 8.703125 
Q 5.609375 18.84375 5.609375 36.375 
Q 5.609375 53.953125 15.125 64.078125 
Q 24.65625 74.21875 41.21875 74.21875 
Q 47.75 74.21875 53.53125 72.484375 
Q 59.328125 70.75 64.40625 67.28125 
z
" id="DejaVuSans-43"/>
      <path d="M 37.109375 75.984375 
L 37.109375 68.5 
L 28.515625 68.5 
Q 23.6875 68.5 21.796875 66.546875 
Q 19.921875 64.59375 19.921875 59.515625 
L 19.921875 54.6875 
L 34.71875 54.6875 
L 34.71875 47.703125 
L 19.921875 47.703125 
L 19.921875 0 
L 10.890625 0 
L 10.890625 47.703125 
L 2.296875 47.703125 
L 2.296875 54.6875 
L 10.890625 54.6875 
L 10.890625 58.5 
Q 10.890625 67.625 15.140625 71.796875 
Q 19.390625 75.984375 28.609375 75.984375 
z
" id="DejaVuSans-66"/>
      <path d="M 41.109375 46.296875 
Q 39.59375 47.171875 37.8125 47.578125 
Q 36.03125 48 33.890625 48 
Q 26.265625 48 22.1875 43.046875 
Q 18.109375 38.09375 18.109375 28.8125 
L 18.109375 0 
L 9.078125 0 
L 9.078125 54.6875 
L 18.109375 54.6875 
L 18.109375 46.1875 
Q 20.953125 51.171875 25.484375 53.578125 
Q 30.03125 56 36.53125 56 
Q 37.453125 56 38.578125 55.875 
Q 39.703125 55.765625 41.0625 55.515625 
z
" id="DejaVuSans-72"/>
     </defs>
     <g transform="translate(371.779104 18.993396)scale(0.08 -0.08)">
      <use xlink:href="#DejaVuSans-43"/>
      <use x="69.824219" xlink:href="#DejaVuSans-6f"/>
      <use x="131.005859" xlink:href="#DejaVuSans-6e"/>
      <use x="194.384766" xlink:href="#DejaVuSans-66"/>
      <use x="229.589844" xlink:href="#DejaVuSans-6f"/>
      <use x="290.771484" xlink:href="#DejaVuSans-72"/>
      <use x="331.869141" xlink:href="#DejaVuSans-6d"/>
      <use x="429.28125" xlink:href="#DejaVuSans-65"/>
      <use x="490.804688" xlink:href="#DejaVuSans-72"/>
      <use x="531.917969" xlink:href="#DejaVuSans-20"/>
      <use x="563.705078" xlink:href="#DejaVuSans-31"/>
     </g>
    </g>
    <g id="patch_139">
     <path d="M 349.379104 30.735896 
L 365.379104 30.735896 
L 365.379104 25.135896 
L 349.379104 25.135896 
z
" style="fill:#feb236;"/>
    </g>
    <g id="text_16">
     <!-- Conformer 2 -->
     <g transform="translate(371.779104 30.735896)scale(0.08 -0.08)">
      <use xlink:href="#DejaVuSans-43"/>
      <use x="69.824219" xlink:href="#DejaVuSans-6f"/>
      <use x="131.005859" xlink:href="#DejaVuSans-6e"/>
      <use x="194.384766" xlink:href="#DejaVuSans-66"/>
      <use x="229.589844" xlink:href="#DejaVuSans-6f"/>
      <use x="290.771484" xlink:href="#DejaVuSans-72"/>
      <use x="331.869141" xlink:href="#DejaVuSans-6d"/>
      <use x="429.28125" xlink:href="#DejaVuSans-65"/>
      <use x="490.804688" xlink:href="#DejaVuSans-72"/>
      <use x="531.917969" xlink:href="#DejaVuSans-20"/>
      <use x="563.705078" xlink:href="#DejaVuSans-32"/>
     </g>
    </g>
    <g id="patch_140">
     <path d="M 349.379104 42.478396 
L 365.379104 42.478396 
L 365.379104 36.878396 
L 349.379104 36.878396 
z
" style="fill:#6b5b95;"/>
    </g>
    <g id="text_17">
     <!-- Conformer 3 -->
     <g transform="translate(371.779104 42.478396)scale(0.08 -0.08)">
      <use xlink:href="#DejaVuSans-43"/>
      <use x="69.824219" xlink:href="#DejaVuSans-6f"/>
      <use x="131.005859" xlink:href="#DejaVuSans-6e"/>
      <use x="194.384766" xlink:href="#DejaVuSans-66"/>
      <use x="229.589844" xlink:href="#DejaVuSans-6f"/>
      <use x="290.771484" xlink:href="#DejaVuSans-72"/>
      <use x="331.869141" xlink:href="#DejaVuSans-6d"/>
      <use x="429.28125" xlink:href="#DejaVuSans-65"/>
      <use x="490.804688" xlink:href="#DejaVuSans-72"/>
      <use x="531.917969" xlink:href="#DejaVuSans-20"/>
      <use x="563.705078" xlink:href="#DejaVuSans-33"/>
     </g>
    </g>
    <g id="patch_141">
     <path d="M 349.379104 54.220896 
L 365.379104 54.220896 
L 365.379104 48.620896 
L 349.379104 48.620896 
z
" style="fill:#a0522d;"/>
    </g>
    <g id="text_18">
     <!-- Conformer 4 -->
     <g transform="translate(371.779104 54.220896)scale(0.08 -0.08)">
      <use xlink:href="#DejaVuSans-43"/>
      <use x="69.824219" xlink:href="#DejaVuSans-6f"/>
      <use x="131.005859" xlink:href="#DejaVuSans-6e"/>
      <use x="194.384766" xlink:href="#DejaVuSans-66"/>
      <use x="229.589844" xlink:href="#DejaVuSans-6f"/>
      <use x="290.771484" xlink:href="#DejaVuSans-72"/>
      <use x="331.869141" xlink:href="#DejaVuSans-6d"/>
      <use x="429.28125" xlink:href="#DejaVuSans-65"/>
      <use x="490.804688" xlink:href="#DejaVuSans-72"/>
      <use x="531.917969" xlink:href="#DejaVuSans-20"/>
      <use x="563.705078" xlink:href="#DejaVuSans-34"/>
     </g>
    </g>
   </g>
  </g>
 </g>
 <defs>
  <clipPath id="pa4a183a8fc">
   <rect height="241.710709" width="379.140709" x="50.024646" y="5.714646"/>
  </clipPath>
 </defs>
</svg>
