<?xml version="1.0" encoding="utf-8" standalone="no"?>
<!DOCTYPE svg PUBLIC "-//W3C//DTD SVG 1.1//EN"
  "http://www.w3.org/Graphics/SVG/1.1/DTD/svg11.dtd">
<!-- Created with matplotlib (http://matplotlib.org/) -->
<svg height="288pt" version="1.1" viewBox="0 0 432 288" width="432pt" xmlns="http://www.w3.org/2000/svg" xmlns:xlink="http://www.w3.org/1999/xlink">
 <defs>
  <style type="text/css">
*{stroke-linecap:butt;stroke-linejoin:round;}
  </style>
 </defs>
 <g id="figure_1">
  <g id="patch_1">
   <path d="M 0 288 
L 432 288 
L 432 0 
L 0 0 
z
" style="fill:#ffffff;"/>
  </g>
  <g id="axes_1">
   <g id="patch_2">
    <path d="M 55.208646 247.425354 
L 429.165354 247.425354 
L 429.165354 5.714646 
L 55.208646 5.714646 
z
" style="fill:#ffffff;"/>
   </g>
   <g id="patch_3">
    <path clip-path="url(#p96c1fae1b0)" d="M 54.624338 247.425354 
L 54.624338 247.425354 
L 58.130182 247.425354 
L 58.130182 247.425354 
L 54.624338 247.425354 
" style="fill:#3ddad7;"/>
   </g>
   <g id="patch_4">
    <path clip-path="url(#p96c1fae1b0)" d="M 63.973256 247.425354 
L 63.973256 247.425354 
L 67.4791 247.425354 
L 67.4791 247.425354 
L 63.973256 247.425354 
" style="fill:#3ddad7;"/>
   </g>
   <g id="patch_5">
    <path clip-path="url(#p96c1fae1b0)" d="M 73.322174 247.425354 
L 73.322174 247.425354 
L 76.828018 247.425354 
L 76.828018 247.425354 
L 73.322174 247.425354 
" style="fill:#3ddad7;"/>
   </g>
   <g id="patch_6">
    <path clip-path="url(#p96c1fae1b0)" d="M 82.671091 247.425354 
L 82.671091 247.425354 
L 86.176936 247.425354 
L 86.176936 247.425354 
L 82.671091 247.425354 
" style="fill:#3ddad7;"/>
   </g>
   <g id="patch_7">
    <path clip-path="url(#p96c1fae1b0)" d="M 92.020009 247.425354 
L 92.020009 247.425354 
L 95.525853 247.425354 
L 95.525853 247.425354 
L 92.020009 247.425354 
" style="fill:#3ddad7;"/>
   </g>
   <g id="patch_8">
    <path clip-path="url(#p96c1fae1b0)" d="M 101.368927 247.353268 
L 101.368927 247.425354 
L 104.874771 247.425354 
L 104.874771 247.353268 
L 101.368927 247.353268 
" style="fill:#3ddad7;"/>
   </g>
   <g id="patch_9">
    <path clip-path="url(#p96c1fae1b0)" d="M 110.717845 247.227116 
L 110.717845 247.425354 
L 114.223689 247.425354 
L 114.223689 247.227116 
L 110.717845 247.227116 
" style="fill:#3ddad7;"/>
   </g>
   <g id="patch_10">
    <path clip-path="url(#p96c1fae1b0)" d="M 120.066762 246.524269 
L 120.066762 247.425354 
L 123.572606 247.425354 
L 123.572606 246.524269 
L 120.066762 246.524269 
" style="fill:#3ddad7;"/>
   </g>
   <g id="patch_11">
    <path clip-path="url(#p96c1fae1b0)" d="M 129.41568 245.731314 
L 129.41568 247.425354 
L 132.921524 247.425354 
L 132.921524 245.731314 
L 129.41568 245.731314 
" style="fill:#3ddad7;"/>
   </g>
   <g id="patch_12">
    <path clip-path="url(#p96c1fae1b0)" d="M 138.764598 243.911122 
L 138.764598 247.425354 
L 142.270442 247.425354 
L 142.270442 243.911122 
L 138.764598 243.911122 
" style="fill:#3ddad7;"/>
   </g>
   <g id="patch_13">
    <path clip-path="url(#p96c1fae1b0)" d="M 148.113515 240.126564 
L 148.113515 247.425354 
L 151.61936 247.425354 
L 151.61936 240.126564 
L 148.113515 240.126564 
" style="fill:#3ddad7;"/>
   </g>
   <g id="patch_14">
    <path clip-path="url(#p96c1fae1b0)" d="M 157.462433 233.981163 
L 157.462433 247.425354 
L 160.968277 247.425354 
L 160.968277 233.981163 
L 157.462433 233.981163 
" style="fill:#3ddad7;"/>
   </g>
   <g id="patch_15">
    <path clip-path="url(#p96c1fae1b0)" d="M 166.811351 225.384809 
L 166.811351 247.425354 
L 170.317195 247.425354 
L 170.317195 225.384809 
L 166.811351 225.384809 
" style="fill:#3ddad7;"/>
   </g>
   <g id="patch_16">
    <path clip-path="url(#p96c1fae1b0)" d="M 176.160269 216.986695 
L 176.160269 247.425354 
L 179.666113 247.425354 
L 179.666113 216.986695 
L 176.160269 216.986695 
" style="fill:#3ddad7;"/>
   </g>
   <g id="patch_17">
    <path clip-path="url(#p96c1fae1b0)" d="M 185.509186 204.695892 
L 185.509186 247.425354 
L 189.01503 247.425354 
L 189.01503 204.695892 
L 185.509186 204.695892 
" style="fill:#3ddad7;"/>
   </g>
   <g id="patch_18">
    <path clip-path="url(#p96c1fae1b0)" d="M 194.858104 188.097902 
L 194.858104 247.425354 
L 198.363948 247.425354 
L 198.363948 188.097902 
L 194.858104 188.097902 
" style="fill:#3ddad7;"/>
   </g>
   <g id="patch_19">
    <path clip-path="url(#p96c1fae1b0)" d="M 204.207022 177.825531 
L 204.207022 247.425354 
L 207.712866 247.425354 
L 207.712866 177.825531 
L 204.207022 177.825531 
" style="fill:#3ddad7;"/>
   </g>
   <g id="patch_20">
    <path clip-path="url(#p96c1fae1b0)" d="M 213.555939 166.183509 
L 213.555939 247.425354 
L 217.061784 247.425354 
L 217.061784 166.183509 
L 213.555939 166.183509 
" style="fill:#3ddad7;"/>
   </g>
   <g id="patch_21">
    <path clip-path="url(#p96c1fae1b0)" d="M 222.904857 162.056539 
L 222.904857 247.425354 
L 226.410701 247.425354 
L 226.410701 162.056539 
L 222.904857 162.056539 
" style="fill:#3ddad7;"/>
   </g>
   <g id="patch_22">
    <path clip-path="url(#p96c1fae1b0)" d="M 232.253775 156.505854 
L 232.253775 247.425354 
L 235.759619 247.425354 
L 235.759619 156.505854 
L 232.253775 156.505854 
" style="fill:#3ddad7;"/>
   </g>
   <g id="patch_23">
    <path clip-path="url(#p96c1fae1b0)" d="M 241.602693 159.082958 
L 241.602693 247.425354 
L 245.108537 247.425354 
L 245.108537 159.082958 
L 241.602693 159.082958 
" style="fill:#3ddad7;"/>
   </g>
   <g id="patch_24">
    <path clip-path="url(#p96c1fae1b0)" d="M 250.95161 171.337717 
L 250.95161 247.425354 
L 254.457455 247.425354 
L 254.457455 171.337717 
L 250.95161 171.337717 
" style="fill:#3ddad7;"/>
   </g>
   <g id="patch_25">
    <path clip-path="url(#p96c1fae1b0)" d="M 260.300528 171.319695 
L 260.300528 247.425354 
L 263.806372 247.425354 
L 263.806372 171.319695 
L 260.300528 171.319695 
" style="fill:#3ddad7;"/>
   </g>
   <g id="patch_26">
    <path clip-path="url(#p96c1fae1b0)" d="M 269.649446 177.39301 
L 269.649446 247.425354 
L 273.15529 247.425354 
L 273.15529 177.39301 
L 269.649446 177.39301 
" style="fill:#3ddad7;"/>
   </g>
   <g id="patch_27">
    <path clip-path="url(#p96c1fae1b0)" d="M 278.998364 187.052643 
L 278.998364 247.425354 
L 282.504208 247.425354 
L 282.504208 187.052643 
L 278.998364 187.052643 
" style="fill:#3ddad7;"/>
   </g>
   <g id="patch_28">
    <path clip-path="url(#p96c1fae1b0)" d="M 288.347281 189.287335 
L 288.347281 247.425354 
L 291.853125 247.425354 
L 291.853125 189.287335 
L 288.347281 189.287335 
" style="fill:#3ddad7;"/>
   </g>
   <g id="patch_29">
    <path clip-path="url(#p96c1fae1b0)" d="M 297.696199 189.539639 
L 297.696199 247.425354 
L 301.202043 247.425354 
L 301.202043 189.539639 
L 297.696199 189.539639 
" style="fill:#3ddad7;"/>
   </g>
   <g id="patch_30">
    <path clip-path="url(#p96c1fae1b0)" d="M 307.045117 203.416351 
L 307.045117 247.425354 
L 310.550961 247.425354 
L 310.550961 203.416351 
L 307.045117 203.416351 
" style="fill:#3ddad7;"/>
   </g>
   <g id="patch_31">
    <path clip-path="url(#p96c1fae1b0)" d="M 316.394034 206.588171 
L 316.394034 247.425354 
L 319.899879 247.425354 
L 319.899879 206.588171 
L 316.394034 206.588171 
" style="fill:#3ddad7;"/>
   </g>
   <g id="patch_32">
    <path clip-path="url(#p96c1fae1b0)" d="M 325.742952 215.941436 
L 325.742952 247.425354 
L 329.248796 247.425354 
L 329.248796 215.941436 
L 325.742952 215.941436 
" style="fill:#3ddad7;"/>
   </g>
   <g id="patch_33">
    <path clip-path="url(#p96c1fae1b0)" d="M 335.09187 220.897405 
L 335.09187 247.425354 
L 338.597714 247.425354 
L 338.597714 220.897405 
L 335.09187 220.897405 
" style="fill:#3ddad7;"/>
   </g>
   <g id="patch_34">
    <path clip-path="url(#p96c1fae1b0)" d="M 344.440788 227.421262 
L 344.440788 247.425354 
L 347.946632 247.425354 
L 347.946632 227.421262 
L 344.440788 227.421262 
" style="fill:#3ddad7;"/>
   </g>
   <g id="patch_35">
    <path clip-path="url(#p96c1fae1b0)" d="M 353.789705 231.818558 
L 353.789705 247.425354 
L 357.295549 247.425354 
L 357.295549 231.818558 
L 353.789705 231.818558 
" style="fill:#3ddad7;"/>
   </g>
   <g id="patch_36">
    <path clip-path="url(#p96c1fae1b0)" d="M 363.138623 235.621138 
L 363.138623 247.425354 
L 366.644467 247.425354 
L 366.644467 235.621138 
L 363.138623 235.621138 
" style="fill:#3ddad7;"/>
   </g>
   <g id="patch_37">
    <path clip-path="url(#p96c1fae1b0)" d="M 372.487541 240.559085 
L 372.487541 247.425354 
L 375.993385 247.425354 
L 375.993385 240.559085 
L 372.487541 240.559085 
" style="fill:#3ddad7;"/>
   </g>
   <g id="patch_38">
    <path clip-path="url(#p96c1fae1b0)" d="M 381.836458 240.82941 
L 381.836458 247.425354 
L 385.342303 247.425354 
L 385.342303 240.82941 
L 381.836458 240.82941 
" style="fill:#3ddad7;"/>
   </g>
   <g id="patch_39">
    <path clip-path="url(#p96c1fae1b0)" d="M 391.185376 244.487816 
L 391.185376 247.425354 
L 394.69122 247.425354 
L 394.69122 244.487816 
L 391.185376 244.487816 
" style="fill:#3ddad7;"/>
   </g>
   <g id="patch_40">
    <path clip-path="url(#p96c1fae1b0)" d="M 400.534294 244.271556 
L 400.534294 247.425354 
L 404.040138 247.425354 
L 404.040138 244.271556 
L 400.534294 244.271556 
" style="fill:#3ddad7;"/>
   </g>
   <g id="patch_41">
    <path clip-path="url(#p96c1fae1b0)" d="M 409.883212 245.100554 
L 409.883212 247.425354 
L 413.389056 247.425354 
L 413.389056 245.100554 
L 409.883212 245.100554 
" style="fill:#3ddad7;"/>
   </g>
   <g id="patch_42">
    <path clip-path="url(#p96c1fae1b0)" d="M 419.232129 246.776573 
L 419.232129 247.425354 
L 422.737973 247.425354 
L 422.737973 246.776573 
L 419.232129 246.776573 
" style="fill:#3ddad7;"/>
   </g>
   <g id="matplotlib.axis_1">
    <g id="xtick_1">
     <g id="line2d_1">
      <defs>
       <path d="M 0 0 
L 0 -3.5 
" id="mffb9ae380e" style="stroke:#000000;stroke-width:0.8;"/>
      </defs>
      <g>
       <use style="stroke:#000000;stroke-width:0.8;" x="125.325529" xlink:href="#mffb9ae380e" y="247.425354"/>
      </g>
     </g>
     <g id="text_1">
      <!-- 1000 -->
      <defs>
       <path d="M 12.40625 8.296875 
L 28.515625 8.296875 
L 28.515625 63.921875 
L 10.984375 60.40625 
L 10.984375 69.390625 
L 28.421875 72.90625 
L 38.28125 72.90625 
L 38.28125 8.296875 
L 54.390625 8.296875 
L 54.390625 0 
L 12.40625 0 
z
" id="DejaVuSans-31"/>
       <path d="M 31.78125 66.40625 
Q 24.171875 66.40625 20.328125 58.90625 
Q 16.5 51.421875 16.5 36.375 
Q 16.5 21.390625 20.328125 13.890625 
Q 24.171875 6.390625 31.78125 6.390625 
Q 39.453125 6.390625 43.28125 13.890625 
Q 47.125 21.390625 47.125 36.375 
Q 47.125 51.421875 43.28125 58.90625 
Q 39.453125 66.40625 31.78125 66.40625 
z
M 31.78125 74.21875 
Q 44.046875 74.21875 50.515625 64.515625 
Q 56.984375 54.828125 56.984375 36.375 
Q 56.984375 17.96875 50.515625 8.265625 
Q 44.046875 -1.421875 31.78125 -1.421875 
Q 19.53125 -1.421875 13.0625 8.265625 
Q 6.59375 17.96875 6.59375 36.375 
Q 6.59375 54.828125 13.0625 64.515625 
Q 19.53125 74.21875 31.78125 74.21875 
z
" id="DejaVuSans-30"/>
      </defs>
      <g transform="translate(111.328029 259.283636)scale(0.11 -0.11)">
       <use xlink:href="#DejaVuSans-31"/>
       <use x="63.623047" xlink:href="#DejaVuSans-30"/>
       <use x="127.246094" xlink:href="#DejaVuSans-30"/>
       <use x="190.869141" xlink:href="#DejaVuSans-30"/>
      </g>
     </g>
    </g>
    <g id="xtick_2">
     <g id="line2d_2">
      <g>
       <use style="stroke:#000000;stroke-width:0.8;" x="183.756264" xlink:href="#mffb9ae380e" y="247.425354"/>
      </g>
     </g>
     <g id="text_2">
      <!-- 1250 -->
      <defs>
       <path d="M 19.1875 8.296875 
L 53.609375 8.296875 
L 53.609375 0 
L 7.328125 0 
L 7.328125 8.296875 
Q 12.9375 14.109375 22.625 23.890625 
Q 32.328125 33.6875 34.8125 36.53125 
Q 39.546875 41.84375 41.421875 45.53125 
Q 43.3125 49.21875 43.3125 52.78125 
Q 43.3125 58.59375 39.234375 62.25 
Q 35.15625 65.921875 28.609375 65.921875 
Q 23.96875 65.921875 18.8125 64.3125 
Q 13.671875 62.703125 7.8125 59.421875 
L 7.8125 69.390625 
Q 13.765625 71.78125 18.9375 73 
Q 24.125 74.21875 28.421875 74.21875 
Q 39.75 74.21875 46.484375 68.546875 
Q 53.21875 62.890625 53.21875 53.421875 
Q 53.21875 48.921875 51.53125 44.890625 
Q 49.859375 40.875 45.40625 35.40625 
Q 44.1875 33.984375 37.640625 27.21875 
Q 31.109375 20.453125 19.1875 8.296875 
z
" id="DejaVuSans-32"/>
       <path d="M 10.796875 72.90625 
L 49.515625 72.90625 
L 49.515625 64.59375 
L 19.828125 64.59375 
L 19.828125 46.734375 
Q 21.96875 47.46875 24.109375 47.828125 
Q 26.265625 48.1875 28.421875 48.1875 
Q 40.625 48.1875 47.75 41.5 
Q 54.890625 34.8125 54.890625 23.390625 
Q 54.890625 11.625 47.5625 5.09375 
Q 40.234375 -1.421875 26.90625 -1.421875 
Q 22.3125 -1.421875 17.546875 -0.640625 
Q 12.796875 0.140625 7.71875 1.703125 
L 7.71875 11.625 
Q 12.109375 9.234375 16.796875 8.0625 
Q 21.484375 6.890625 26.703125 6.890625 
Q 35.15625 6.890625 40.078125 11.328125 
Q 45.015625 15.765625 45.015625 23.390625 
Q 45.015625 31 40.078125 35.4375 
Q 35.15625 39.890625 26.703125 39.890625 
Q 22.75 39.890625 18.8125 39.015625 
Q 14.890625 38.140625 10.796875 36.28125 
z
" id="DejaVuSans-35"/>
      </defs>
      <g transform="translate(169.758764 259.283636)scale(0.11 -0.11)">
       <use xlink:href="#DejaVuSans-31"/>
       <use x="63.623047" xlink:href="#DejaVuSans-32"/>
       <use x="127.246094" xlink:href="#DejaVuSans-35"/>
       <use x="190.869141" xlink:href="#DejaVuSans-30"/>
      </g>
     </g>
    </g>
    <g id="xtick_3">
     <g id="line2d_3">
      <g>
       <use style="stroke:#000000;stroke-width:0.8;" x="242.187" xlink:href="#mffb9ae380e" y="247.425354"/>
      </g>
     </g>
     <g id="text_3">
      <!-- 1500 -->
      <g transform="translate(228.1895 259.283636)scale(0.11 -0.11)">
       <use xlink:href="#DejaVuSans-31"/>
       <use x="63.623047" xlink:href="#DejaVuSans-35"/>
       <use x="127.246094" xlink:href="#DejaVuSans-30"/>
       <use x="190.869141" xlink:href="#DejaVuSans-30"/>
      </g>
     </g>
    </g>
    <g id="xtick_4">
     <g id="line2d_4">
      <g>
       <use style="stroke:#000000;stroke-width:0.8;" x="300.617736" xlink:href="#mffb9ae380e" y="247.425354"/>
      </g>
     </g>
     <g id="text_4">
      <!-- 1750 -->
      <defs>
       <path d="M 8.203125 72.90625 
L 55.078125 72.90625 
L 55.078125 68.703125 
L 28.609375 0 
L 18.3125 0 
L 43.21875 64.59375 
L 8.203125 64.59375 
z
" id="DejaVuSans-37"/>
      </defs>
      <g transform="translate(286.620236 259.283636)scale(0.11 -0.11)">
       <use xlink:href="#DejaVuSans-31"/>
       <use x="63.623047" xlink:href="#DejaVuSans-37"/>
       <use x="127.246094" xlink:href="#DejaVuSans-35"/>
       <use x="190.869141" xlink:href="#DejaVuSans-30"/>
      </g>
     </g>
    </g>
    <g id="xtick_5">
     <g id="line2d_5">
      <g>
       <use style="stroke:#000000;stroke-width:0.8;" x="359.048471" xlink:href="#mffb9ae380e" y="247.425354"/>
      </g>
     </g>
     <g id="text_5">
      <!-- 2000 -->
      <g transform="translate(345.050971 259.283636)scale(0.11 -0.11)">
       <use xlink:href="#DejaVuSans-32"/>
       <use x="63.623047" xlink:href="#DejaVuSans-30"/>
       <use x="127.246094" xlink:href="#DejaVuSans-30"/>
       <use x="190.869141" xlink:href="#DejaVuSans-30"/>
      </g>
     </g>
    </g>
    <g id="text_6">
     <!-- Volume $[\AA^3]$  -->
     <defs>
      <path d="M 28.609375 0 
L 0.78125 72.90625 
L 11.078125 72.90625 
L 34.1875 11.53125 
L 57.328125 72.90625 
L 67.578125 72.90625 
L 39.796875 0 
z
" id="DejaVuSans-56"/>
      <path d="M 30.609375 48.390625 
Q 23.390625 48.390625 19.1875 42.75 
Q 14.984375 37.109375 14.984375 27.296875 
Q 14.984375 17.484375 19.15625 11.84375 
Q 23.34375 6.203125 30.609375 6.203125 
Q 37.796875 6.203125 41.984375 11.859375 
Q 46.1875 17.53125 46.1875 27.296875 
Q 46.1875 37.015625 41.984375 42.703125 
Q 37.796875 48.390625 30.609375 48.390625 
z
M 30.609375 56 
Q 42.328125 56 49.015625 48.375 
Q 55.71875 40.765625 55.71875 27.296875 
Q 55.71875 13.875 49.015625 6.21875 
Q 42.328125 -1.421875 30.609375 -1.421875 
Q 18.84375 -1.421875 12.171875 6.21875 
Q 5.515625 13.875 5.515625 27.296875 
Q 5.515625 40.765625 12.171875 48.375 
Q 18.84375 56 30.609375 56 
z
" id="DejaVuSans-6f"/>
      <path d="M 9.421875 75.984375 
L 18.40625 75.984375 
L 18.40625 0 
L 9.421875 0 
z
" id="DejaVuSans-6c"/>
      <path d="M 8.5 21.578125 
L 8.5 54.6875 
L 17.484375 54.6875 
L 17.484375 21.921875 
Q 17.484375 14.15625 20.5 10.265625 
Q 23.53125 6.390625 29.59375 6.390625 
Q 36.859375 6.390625 41.078125 11.03125 
Q 45.3125 15.671875 45.3125 23.6875 
L 45.3125 54.6875 
L 54.296875 54.6875 
L 54.296875 0 
L 45.3125 0 
L 45.3125 8.40625 
Q 42.046875 3.421875 37.71875 1 
Q 33.40625 -1.421875 27.6875 -1.421875 
Q 18.265625 -1.421875 13.375 4.4375 
Q 8.5 10.296875 8.5 21.578125 
z
M 31.109375 56 
z
" id="DejaVuSans-75"/>
      <path d="M 52 44.1875 
Q 55.375 50.25 60.0625 53.125 
Q 64.75 56 71.09375 56 
Q 79.640625 56 84.28125 50.015625 
Q 88.921875 44.046875 88.921875 33.015625 
L 88.921875 0 
L 79.890625 0 
L 79.890625 32.71875 
Q 79.890625 40.578125 77.09375 44.375 
Q 74.3125 48.1875 68.609375 48.1875 
Q 61.625 48.1875 57.5625 43.546875 
Q 53.515625 38.921875 53.515625 30.90625 
L 53.515625 0 
L 44.484375 0 
L 44.484375 32.71875 
Q 44.484375 40.625 41.703125 44.40625 
Q 38.921875 48.1875 33.109375 48.1875 
Q 26.21875 48.1875 22.15625 43.53125 
Q 18.109375 38.875 18.109375 30.90625 
L 18.109375 0 
L 9.078125 0 
L 9.078125 54.6875 
L 18.109375 54.6875 
L 18.109375 46.1875 
Q 21.1875 51.21875 25.484375 53.609375 
Q 29.78125 56 35.6875 56 
Q 41.65625 56 45.828125 52.96875 
Q 50 49.953125 52 44.1875 
z
" id="DejaVuSans-6d"/>
      <path d="M 56.203125 29.59375 
L 56.203125 25.203125 
L 14.890625 25.203125 
Q 15.484375 15.921875 20.484375 11.0625 
Q 25.484375 6.203125 34.421875 6.203125 
Q 39.59375 6.203125 44.453125 7.46875 
Q 49.3125 8.734375 54.109375 11.28125 
L 54.109375 2.78125 
Q 49.265625 0.734375 44.1875 -0.34375 
Q 39.109375 -1.421875 33.890625 -1.421875 
Q 20.796875 -1.421875 13.15625 6.1875 
Q 5.515625 13.8125 5.515625 26.8125 
Q 5.515625 40.234375 12.765625 48.109375 
Q 20.015625 56 32.328125 56 
Q 43.359375 56 49.78125 48.890625 
Q 56.203125 41.796875 56.203125 29.59375 
z
M 47.21875 32.234375 
Q 47.125 39.59375 43.09375 43.984375 
Q 39.0625 48.390625 32.421875 48.390625 
Q 24.90625 48.390625 20.390625 44.140625 
Q 15.875 39.890625 15.1875 32.171875 
z
" id="DejaVuSans-65"/>
      <path id="DejaVuSans-20"/>
      <path d="M 8.59375 75.984375 
L 29.296875 75.984375 
L 29.296875 69 
L 17.578125 69 
L 17.578125 -6.203125 
L 29.296875 -6.203125 
L 29.296875 -13.1875 
L 8.59375 -13.1875 
z
" id="DejaVuSans-5b"/>
      <path d="M 49.8125 79.390625 
Q 49.8125 82.46875 47.625 84.640625 
Q 45.453125 86.8125 42.390625 86.8125 
Q 39.265625 86.8125 37.140625 84.6875 
Q 35.015625 82.5625 35.015625 79.390625 
Q 35.015625 76.3125 37.140625 74.15625 
Q 39.265625 72.015625 42.390625 72.015625 
Q 45.453125 72.015625 47.625 74.15625 
Q 49.8125 76.3125 49.8125 79.390625 
z
M 34.421875 68.703125 
Q 31.78125 70.515625 30.390625 73.265625 
Q 29 76.03125 29 79.390625 
Q 29 84.96875 32.90625 88.890625 
Q 36.8125 92.828125 42.390625 92.828125 
Q 47.953125 92.828125 51.875 88.890625 
Q 55.8125 84.96875 55.8125 79.390625 
Q 55.8125 75.53125 54.03125 72.546875 
Q 52.25 69.578125 48.875 67.828125 
L 61.53125 0 
L 51.21875 0 
L 48.1875 18.703125 
L 15.375 18.703125 
L 5.078125 0 
L -5.328125 0 
z
M 40.375 63.1875 
L 19.921875 26.90625 
L 46.6875 26.90625 
z
" id="DejaVuSans-Oblique-c5"/>
      <path d="M 40.578125 39.3125 
Q 47.65625 37.796875 51.625 33 
Q 55.609375 28.21875 55.609375 21.1875 
Q 55.609375 10.40625 48.1875 4.484375 
Q 40.765625 -1.421875 27.09375 -1.421875 
Q 22.515625 -1.421875 17.65625 -0.515625 
Q 12.796875 0.390625 7.625 2.203125 
L 7.625 11.71875 
Q 11.71875 9.328125 16.59375 8.109375 
Q 21.484375 6.890625 26.8125 6.890625 
Q 36.078125 6.890625 40.9375 10.546875 
Q 45.796875 14.203125 45.796875 21.1875 
Q 45.796875 27.640625 41.28125 31.265625 
Q 36.765625 34.90625 28.71875 34.90625 
L 20.21875 34.90625 
L 20.21875 43.015625 
L 29.109375 43.015625 
Q 36.375 43.015625 40.234375 45.921875 
Q 44.09375 48.828125 44.09375 54.296875 
Q 44.09375 59.90625 40.109375 62.90625 
Q 36.140625 65.921875 28.71875 65.921875 
Q 24.65625 65.921875 20.015625 65.03125 
Q 15.375 64.15625 9.8125 62.3125 
L 9.8125 71.09375 
Q 15.4375 72.65625 20.34375 73.4375 
Q 25.25 74.21875 29.59375 74.21875 
Q 40.828125 74.21875 47.359375 69.109375 
Q 53.90625 64.015625 53.90625 55.328125 
Q 53.90625 49.265625 50.4375 45.09375 
Q 46.96875 40.921875 40.578125 39.3125 
z
" id="DejaVuSans-33"/>
      <path d="M 30.421875 75.984375 
L 30.421875 -13.1875 
L 9.71875 -13.1875 
L 9.71875 -6.203125 
L 21.390625 -6.203125 
L 21.390625 69 
L 9.71875 69 
L 9.71875 75.984375 
z
" id="DejaVuSans-5d"/>
     </defs>
     <g transform="translate(190.427 279.363792)scale(0.16 -0.16)">
      <use transform="translate(0 0.171875)" xlink:href="#DejaVuSans-56"/>
      <use transform="translate(68.408203 0.171875)" xlink:href="#DejaVuSans-6f"/>
      <use transform="translate(129.589844 0.171875)" xlink:href="#DejaVuSans-6c"/>
      <use transform="translate(157.373047 0.171875)" xlink:href="#DejaVuSans-75"/>
      <use transform="translate(220.751953 0.171875)" xlink:href="#DejaVuSans-6d"/>
      <use transform="translate(318.164062 0.171875)" xlink:href="#DejaVuSans-65"/>
      <use transform="translate(379.6875 0.171875)" xlink:href="#DejaVuSans-20"/>
      <use transform="translate(411.474609 0.171875)" xlink:href="#DejaVuSans-5b"/>
      <use transform="translate(450.488281 0.171875)" xlink:href="#DejaVuSans-Oblique-c5"/>
      <use transform="translate(528.702318 38.453125)scale(0.7)" xlink:href="#DejaVuSans-33"/>
      <use transform="translate(575.972826 0.171875)" xlink:href="#DejaVuSans-5d"/>
      <use transform="translate(614.986497 0.171875)" xlink:href="#DejaVuSans-20"/>
     </g>
    </g>
   </g>
   <g id="matplotlib.axis_2">
    <g id="ytick_1">
     <g id="line2d_6">
      <defs>
       <path d="M 0 0 
L 3.5 0 
" id="mf0d0f3eadc" style="stroke:#000000;stroke-width:0.8;"/>
      </defs>
      <g>
       <use style="stroke:#000000;stroke-width:0.8;" x="55.208646" xlink:href="#mf0d0f3eadc" y="186.997677"/>
      </g>
     </g>
     <g id="text_7">
      <!-- 0.05 -->
      <defs>
       <path d="M 10.6875 12.40625 
L 21 12.40625 
L 21 0 
L 10.6875 0 
z
" id="DejaVuSans-2e"/>
      </defs>
      <g transform="translate(27.216458 191.176818)scale(0.11 -0.11)">
       <use xlink:href="#DejaVuSans-30"/>
       <use x="63.623047" xlink:href="#DejaVuSans-2e"/>
       <use x="95.410156" xlink:href="#DejaVuSans-30"/>
       <use x="159.033203" xlink:href="#DejaVuSans-35"/>
      </g>
     </g>
    </g>
    <g id="ytick_2">
     <g id="line2d_7">
      <g>
       <use style="stroke:#000000;stroke-width:0.8;" x="55.208646" xlink:href="#mf0d0f3eadc" y="126.57"/>
      </g>
     </g>
     <g id="text_8">
      <!-- 0.10 -->
      <g transform="translate(27.216458 130.749141)scale(0.11 -0.11)">
       <use xlink:href="#DejaVuSans-30"/>
       <use x="63.623047" xlink:href="#DejaVuSans-2e"/>
       <use x="95.410156" xlink:href="#DejaVuSans-31"/>
       <use x="159.033203" xlink:href="#DejaVuSans-30"/>
      </g>
     </g>
    </g>
    <g id="ytick_3">
     <g id="line2d_8">
      <g>
       <use style="stroke:#000000;stroke-width:0.8;" x="55.208646" xlink:href="#mf0d0f3eadc" y="66.142323"/>
      </g>
     </g>
     <g id="text_9">
      <!-- 0.15 -->
      <g transform="translate(27.216458 70.321463)scale(0.11 -0.11)">
       <use xlink:href="#DejaVuSans-30"/>
       <use x="63.623047" xlink:href="#DejaVuSans-2e"/>
       <use x="95.410156" xlink:href="#DejaVuSans-31"/>
       <use x="159.033203" xlink:href="#DejaVuSans-35"/>
      </g>
     </g>
    </g>
    <g id="ytick_4">
     <g id="line2d_9">
      <g>
       <use style="stroke:#000000;stroke-width:0.8;" x="55.208646" xlink:href="#mf0d0f3eadc" y="5.714646"/>
      </g>
     </g>
     <g id="text_10">
      <!-- 0.20 -->
      <g transform="translate(27.216458 9.893786)scale(0.11 -0.11)">
       <use xlink:href="#DejaVuSans-30"/>
       <use x="63.623047" xlink:href="#DejaVuSans-2e"/>
       <use x="95.410156" xlink:href="#DejaVuSans-32"/>
       <use x="159.033203" xlink:href="#DejaVuSans-30"/>
      </g>
     </g>
    </g>
    <g id="text_11">
     <!-- Frequency $[cm^{-1}]$ -->
     <defs>
      <path d="M 9.8125 72.90625 
L 51.703125 72.90625 
L 51.703125 64.59375 
L 19.671875 64.59375 
L 19.671875 43.109375 
L 48.578125 43.109375 
L 48.578125 34.8125 
L 19.671875 34.8125 
L 19.671875 0 
L 9.8125 0 
z
" id="DejaVuSans-46"/>
      <path d="M 41.109375 46.296875 
Q 39.59375 47.171875 37.8125 47.578125 
Q 36.03125 48 33.890625 48 
Q 26.265625 48 22.1875 43.046875 
Q 18.109375 38.09375 18.109375 28.8125 
L 18.109375 0 
L 9.078125 0 
L 9.078125 54.6875 
L 18.109375 54.6875 
L 18.109375 46.1875 
Q 20.953125 51.171875 25.484375 53.578125 
Q 30.03125 56 36.53125 56 
Q 37.453125 56 38.578125 55.875 
Q 39.703125 55.765625 41.0625 55.515625 
z
" id="DejaVuSans-72"/>
      <path d="M 14.796875 27.296875 
Q 14.796875 17.390625 18.875 11.75 
Q 22.953125 6.109375 30.078125 6.109375 
Q 37.203125 6.109375 41.296875 11.75 
Q 45.40625 17.390625 45.40625 27.296875 
Q 45.40625 37.203125 41.296875 42.84375 
Q 37.203125 48.484375 30.078125 48.484375 
Q 22.953125 48.484375 18.875 42.84375 
Q 14.796875 37.203125 14.796875 27.296875 
z
M 45.40625 8.203125 
Q 42.578125 3.328125 38.25 0.953125 
Q 33.9375 -1.421875 27.875 -1.421875 
Q 17.96875 -1.421875 11.734375 6.484375 
Q 5.515625 14.40625 5.515625 27.296875 
Q 5.515625 40.1875 11.734375 48.09375 
Q 17.96875 56 27.875 56 
Q 33.9375 56 38.25 53.625 
Q 42.578125 51.265625 45.40625 46.390625 
L 45.40625 54.6875 
L 54.390625 54.6875 
L 54.390625 -20.796875 
L 45.40625 -20.796875 
z
" id="DejaVuSans-71"/>
      <path d="M 54.890625 33.015625 
L 54.890625 0 
L 45.90625 0 
L 45.90625 32.71875 
Q 45.90625 40.484375 42.875 44.328125 
Q 39.84375 48.1875 33.796875 48.1875 
Q 26.515625 48.1875 22.3125 43.546875 
Q 18.109375 38.921875 18.109375 30.90625 
L 18.109375 0 
L 9.078125 0 
L 9.078125 54.6875 
L 18.109375 54.6875 
L 18.109375 46.1875 
Q 21.34375 51.125 25.703125 53.5625 
Q 30.078125 56 35.796875 56 
Q 45.21875 56 50.046875 50.171875 
Q 54.890625 44.34375 54.890625 33.015625 
z
" id="DejaVuSans-6e"/>
      <path d="M 48.78125 52.59375 
L 48.78125 44.1875 
Q 44.96875 46.296875 41.140625 47.34375 
Q 37.3125 48.390625 33.40625 48.390625 
Q 24.65625 48.390625 19.8125 42.84375 
Q 14.984375 37.3125 14.984375 27.296875 
Q 14.984375 17.28125 19.8125 11.734375 
Q 24.65625 6.203125 33.40625 6.203125 
Q 37.3125 6.203125 41.140625 7.25 
Q 44.96875 8.296875 48.78125 10.40625 
L 48.78125 2.09375 
Q 45.015625 0.34375 40.984375 -0.53125 
Q 36.96875 -1.421875 32.421875 -1.421875 
Q 20.0625 -1.421875 12.78125 6.34375 
Q 5.515625 14.109375 5.515625 27.296875 
Q 5.515625 40.671875 12.859375 48.328125 
Q 20.21875 56 33.015625 56 
Q 37.15625 56 41.109375 55.140625 
Q 45.0625 54.296875 48.78125 52.59375 
z
" id="DejaVuSans-63"/>
      <path d="M 32.171875 -5.078125 
Q 28.375 -14.84375 24.75 -17.8125 
Q 21.140625 -20.796875 15.09375 -20.796875 
L 7.90625 -20.796875 
L 7.90625 -13.28125 
L 13.1875 -13.28125 
Q 16.890625 -13.28125 18.9375 -11.515625 
Q 21 -9.765625 23.484375 -3.21875 
L 25.09375 0.875 
L 2.984375 54.6875 
L 12.5 54.6875 
L 29.59375 11.921875 
L 46.6875 54.6875 
L 56.203125 54.6875 
z
" id="DejaVuSans-79"/>
      <path d="M 53.609375 52.59375 
L 51.8125 43.703125 
Q 48.578125 46.046875 44.9375 47.21875 
Q 41.3125 48.390625 37.40625 48.390625 
Q 33.109375 48.390625 29.21875 46.875 
Q 25.34375 45.359375 22.703125 42.578125 
Q 18.5 38.328125 16.203125 32.609375 
Q 13.921875 26.90625 13.921875 20.796875 
Q 13.921875 13.421875 17.609375 9.8125 
Q 21.296875 6.203125 28.8125 6.203125 
Q 32.515625 6.203125 36.6875 7.328125 
Q 40.875 8.453125 45.40625 10.6875 
L 43.703125 1.8125 
Q 39.796875 0.203125 35.671875 -0.609375 
Q 31.546875 -1.421875 27.203125 -1.421875 
Q 16.3125 -1.421875 10.453125 4.015625 
Q 4.59375 9.46875 4.59375 19.578125 
Q 4.59375 28.078125 7.640625 35.234375 
Q 10.6875 42.390625 16.703125 48.09375 
Q 20.796875 52 26.3125 54 
Q 31.84375 56 38.375 56 
Q 42.1875 56 45.9375 55.140625 
Q 49.703125 54.296875 53.609375 52.59375 
z
" id="DejaVuSans-Oblique-63"/>
      <path d="M 89.796875 33.015625 
L 83.40625 0 
L 74.421875 0 
L 80.71875 32.71875 
Q 81.109375 34.8125 81.296875 36.328125 
Q 81.5 37.84375 81.5 38.921875 
Q 81.5 43.3125 79.046875 45.75 
Q 76.609375 48.1875 72.21875 48.1875 
Q 65.671875 48.1875 60.546875 43.28125 
Q 55.421875 38.375 53.90625 30.515625 
L 47.90625 0 
L 38.921875 0 
L 45.3125 32.71875 
Q 45.703125 34.515625 45.890625 36.046875 
Q 46.09375 37.59375 46.09375 38.8125 
Q 46.09375 43.265625 43.65625 45.71875 
Q 41.21875 48.1875 36.921875 48.1875 
Q 30.28125 48.1875 25.140625 43.28125 
Q 20.015625 38.375 18.5 30.515625 
L 12.5 0 
L 3.515625 0 
L 14.203125 54.6875 
L 23.1875 54.6875 
L 21.484375 46.1875 
Q 25.140625 50.984375 30.046875 53.484375 
Q 34.96875 56 40.578125 56 
Q 46.53125 56 50.359375 52.875 
Q 54.203125 49.75 54.984375 44.1875 
Q 59.078125 49.953125 64.46875 52.96875 
Q 69.875 56 75.875 56 
Q 82.90625 56 86.734375 51.953125 
Q 90.578125 47.90625 90.578125 40.484375 
Q 90.578125 38.875 90.375 36.9375 
Q 90.1875 35.015625 89.796875 33.015625 
z
" id="DejaVuSans-Oblique-6d"/>
      <path d="M 10.59375 35.5 
L 73.1875 35.5 
L 73.1875 27.203125 
L 10.59375 27.203125 
z
" id="DejaVuSans-2212"/>
     </defs>
     <g transform="translate(19.856458 198.49)rotate(-90)scale(0.16 -0.16)">
      <use transform="translate(0 0.684375)" xlink:href="#DejaVuSans-46"/>
      <use transform="translate(57.519531 0.684375)" xlink:href="#DejaVuSans-72"/>
      <use transform="translate(98.632812 0.684375)" xlink:href="#DejaVuSans-65"/>
      <use transform="translate(160.15625 0.684375)" xlink:href="#DejaVuSans-71"/>
      <use transform="translate(223.632812 0.684375)" xlink:href="#DejaVuSans-75"/>
      <use transform="translate(287.011719 0.684375)" xlink:href="#DejaVuSans-65"/>
      <use transform="translate(348.535156 0.684375)" xlink:href="#DejaVuSans-6e"/>
      <use transform="translate(411.914062 0.684375)" xlink:href="#DejaVuSans-63"/>
      <use transform="translate(466.894531 0.684375)" xlink:href="#DejaVuSans-79"/>
      <use transform="translate(526.074219 0.684375)" xlink:href="#DejaVuSans-20"/>
      <use transform="translate(557.861328 0.684375)" xlink:href="#DejaVuSans-5b"/>
      <use transform="translate(596.875 0.684375)" xlink:href="#DejaVuSans-Oblique-63"/>
      <use transform="translate(651.855469 0.684375)" xlink:href="#DejaVuSans-Oblique-6d"/>
      <use transform="translate(753.917474 38.965625)scale(0.7)" xlink:href="#DejaVuSans-2212"/>
      <use transform="translate(812.569818 38.965625)scale(0.7)" xlink:href="#DejaVuSans-31"/>
      <use transform="translate(859.840326 0.684375)" xlink:href="#DejaVuSans-5d"/>
     </g>
    </g>
   </g>
   <g id="patch_43">
    <path clip-path="url(#p96c1fae1b0)" d="M 58.130182 247.425354 
L 58.130182 247.425354 
L 61.636027 247.425354 
L 61.636027 247.425354 
L 58.130182 247.425354 
" style="fill:#2a93d5;"/>
   </g>
   <g id="patch_44">
    <path clip-path="url(#p96c1fae1b0)" d="M 67.4791 247.356059 
L 67.4791 247.425354 
L 70.984944 247.425354 
L 70.984944 247.356059 
L 67.4791 247.356059 
" style="fill:#2a93d5;"/>
   </g>
   <g id="patch_45">
    <path clip-path="url(#p96c1fae1b0)" d="M 76.828018 245.103945 
L 76.828018 247.425354 
L 80.333862 247.425354 
L 80.333862 245.103945 
L 76.828018 245.103945 
" style="fill:#2a93d5;"/>
   </g>
   <g id="patch_46">
    <path clip-path="url(#p96c1fae1b0)" d="M 86.176936 243.232958 
L 86.176936 247.425354 
L 89.68278 247.425354 
L 89.68278 243.232958 
L 86.176936 243.232958 
" style="fill:#2a93d5;"/>
   </g>
   <g id="patch_47">
    <path clip-path="url(#p96c1fae1b0)" d="M 95.525853 238.520843 
L 95.525853 247.425354 
L 99.031697 247.425354 
L 99.031697 238.520843 
L 95.525853 238.520843 
" style="fill:#2a93d5;"/>
   </g>
   <g id="patch_48">
    <path clip-path="url(#p96c1fae1b0)" d="M 104.874771 231.729854 
L 104.874771 247.425354 
L 108.380615 247.425354 
L 108.380615 231.729854 
L 104.874771 231.729854 
" style="fill:#2a93d5;"/>
   </g>
   <g id="patch_49">
    <path clip-path="url(#p96c1fae1b0)" d="M 114.223689 212.327027 
L 114.223689 247.425354 
L 117.729533 247.425354 
L 117.729533 212.327027 
L 114.223689 212.327027 
" style="fill:#2a93d5;"/>
   </g>
   <g id="patch_50">
    <path clip-path="url(#p96c1fae1b0)" d="M 123.572606 195.107019 
L 123.572606 247.425354 
L 127.078451 247.425354 
L 127.078451 195.107019 
L 123.572606 195.107019 
" style="fill:#2a93d5;"/>
   </g>
   <g id="patch_51">
    <path clip-path="url(#p96c1fae1b0)" d="M 132.921524 186.271804 
L 132.921524 247.425354 
L 136.427368 247.425354 
L 136.427368 186.271804 
L 132.921524 186.271804 
" style="fill:#2a93d5;"/>
   </g>
   <g id="patch_52">
    <path clip-path="url(#p96c1fae1b0)" d="M 142.270442 150.930941 
L 142.270442 247.425354 
L 145.776286 247.425354 
L 145.776286 150.930941 
L 142.270442 150.930941 
" style="fill:#2a93d5;"/>
   </g>
   <g id="patch_53">
    <path clip-path="url(#p96c1fae1b0)" d="M 151.61936 119.990363 
L 151.61936 247.425354 
L 155.125204 247.425354 
L 155.125204 119.990363 
L 151.61936 119.990363 
" style="fill:#2a93d5;"/>
   </g>
   <g id="patch_54">
    <path clip-path="url(#p96c1fae1b0)" d="M 160.968277 128.756283 
L 160.968277 247.425354 
L 164.474121 247.425354 
L 164.474121 128.756283 
L 160.968277 128.756283 
" style="fill:#2a93d5;"/>
   </g>
   <g id="patch_55">
    <path clip-path="url(#p96c1fae1b0)" d="M 170.317195 115.520783 
L 170.317195 247.425354 
L 173.823039 247.425354 
L 173.823039 115.520783 
L 170.317195 115.520783 
" style="fill:#2a93d5;"/>
   </g>
   <g id="patch_56">
    <path clip-path="url(#p96c1fae1b0)" d="M 179.666113 123.870928 
L 179.666113 247.425354 
L 183.171957 247.425354 
L 183.171957 123.870928 
L 179.666113 123.870928 
" style="fill:#2a93d5;"/>
   </g>
   <g id="patch_57">
    <path clip-path="url(#p96c1fae1b0)" d="M 189.01503 141.853191 
L 189.01503 247.425354 
L 192.520875 247.425354 
L 192.520875 141.853191 
L 189.01503 141.853191 
" style="fill:#2a93d5;"/>
   </g>
   <g id="patch_58">
    <path clip-path="url(#p96c1fae1b0)" d="M 198.363948 144.521079 
L 198.363948 247.425354 
L 201.869792 247.425354 
L 201.869792 144.521079 
L 198.363948 144.521079 
" style="fill:#2a93d5;"/>
   </g>
   <g id="patch_59">
    <path clip-path="url(#p96c1fae1b0)" d="M 207.712866 181.767576 
L 207.712866 247.425354 
L 211.21871 247.425354 
L 211.21871 181.767576 
L 207.712866 181.767576 
" style="fill:#2a93d5;"/>
   </g>
   <g id="patch_60">
    <path clip-path="url(#p96c1fae1b0)" d="M 217.061784 196.562231 
L 217.061784 247.425354 
L 220.567628 247.425354 
L 220.567628 196.562231 
L 217.061784 196.562231 
" style="fill:#2a93d5;"/>
   </g>
   <g id="patch_61">
    <path clip-path="url(#p96c1fae1b0)" d="M 226.410701 208.931533 
L 226.410701 247.425354 
L 229.916545 247.425354 
L 229.916545 208.931533 
L 226.410701 208.931533 
" style="fill:#2a93d5;"/>
   </g>
   <g id="patch_62">
    <path clip-path="url(#p96c1fae1b0)" d="M 235.759619 224.453794 
L 235.759619 247.425354 
L 239.265463 247.425354 
L 239.265463 224.453794 
L 235.759619 224.453794 
" style="fill:#2a93d5;"/>
   </g>
   <g id="patch_63">
    <path clip-path="url(#p96c1fae1b0)" d="M 245.108537 227.676049 
L 245.108537 247.425354 
L 248.614381 247.425354 
L 248.614381 227.676049 
L 245.108537 227.676049 
" style="fill:#2a93d5;"/>
   </g>
   <g id="patch_64">
    <path clip-path="url(#p96c1fae1b0)" d="M 254.457455 237.931829 
L 254.457455 247.425354 
L 257.963299 247.425354 
L 257.963299 237.931829 
L 254.457455 237.931829 
" style="fill:#2a93d5;"/>
   </g>
   <g id="patch_65">
    <path clip-path="url(#p96c1fae1b0)" d="M 263.806372 240.8769 
L 263.806372 247.425354 
L 267.312216 247.425354 
L 267.312216 240.8769 
L 263.806372 240.8769 
" style="fill:#2a93d5;"/>
   </g>
   <g id="patch_66">
    <path clip-path="url(#p96c1fae1b0)" d="M 273.15529 243.19831 
L 273.15529 247.425354 
L 276.661134 247.425354 
L 276.661134 243.19831 
L 273.15529 243.19831 
" style="fill:#2a93d5;"/>
   </g>
   <g id="patch_67">
    <path clip-path="url(#p96c1fae1b0)" d="M 282.504208 246.732396 
L 282.504208 247.425354 
L 286.010052 247.425354 
L 286.010052 246.732396 
L 282.504208 246.732396 
" style="fill:#2a93d5;"/>
   </g>
   <g id="patch_68">
    <path clip-path="url(#p96c1fae1b0)" d="M 291.853125 246.17803 
L 291.853125 247.425354 
L 295.35897 247.425354 
L 295.35897 246.17803 
L 291.853125 246.17803 
" style="fill:#2a93d5;"/>
   </g>
   <g id="patch_69">
    <path clip-path="url(#p96c1fae1b0)" d="M 301.202043 245.762255 
L 301.202043 247.425354 
L 304.707887 247.425354 
L 304.707887 245.762255 
L 301.202043 245.762255 
" style="fill:#2a93d5;"/>
   </g>
   <g id="patch_70">
    <path clip-path="url(#p96c1fae1b0)" d="M 310.550961 247.078875 
L 310.550961 247.425354 
L 314.056805 247.425354 
L 314.056805 247.078875 
L 310.550961 247.078875 
" style="fill:#2a93d5;"/>
   </g>
   <g id="patch_71">
    <path clip-path="url(#p96c1fae1b0)" d="M 319.899879 247.425354 
L 319.899879 247.425354 
L 323.405723 247.425354 
L 323.405723 247.425354 
L 319.899879 247.425354 
" style="fill:#2a93d5;"/>
   </g>
   <g id="patch_72">
    <path clip-path="url(#p96c1fae1b0)" d="M 329.248796 247.425354 
L 329.248796 247.425354 
L 332.75464 247.425354 
L 332.75464 247.425354 
L 329.248796 247.425354 
" style="fill:#2a93d5;"/>
   </g>
   <g id="patch_73">
    <path clip-path="url(#p96c1fae1b0)" d="M 338.597714 247.425354 
L 338.597714 247.425354 
L 342.103558 247.425354 
L 342.103558 247.425354 
L 338.597714 247.425354 
" style="fill:#2a93d5;"/>
   </g>
   <g id="patch_74">
    <path clip-path="url(#p96c1fae1b0)" d="M 347.946632 247.113523 
L 347.946632 247.425354 
L 351.452476 247.425354 
L 351.452476 247.113523 
L 347.946632 247.113523 
" style="fill:#2a93d5;"/>
   </g>
   <g id="patch_75">
    <path clip-path="url(#p96c1fae1b0)" d="M 357.295549 247.425354 
L 357.295549 247.425354 
L 360.801394 247.425354 
L 360.801394 247.425354 
L 357.295549 247.425354 
" style="fill:#2a93d5;"/>
   </g>
   <g id="patch_76">
    <path clip-path="url(#p96c1fae1b0)" d="M 366.644467 247.425354 
L 366.644467 247.425354 
L 370.150311 247.425354 
L 370.150311 247.425354 
L 366.644467 247.425354 
" style="fill:#2a93d5;"/>
   </g>
   <g id="patch_77">
    <path clip-path="url(#p96c1fae1b0)" d="M 375.993385 247.425354 
L 375.993385 247.425354 
L 379.499229 247.425354 
L 379.499229 247.425354 
L 375.993385 247.425354 
" style="fill:#2a93d5;"/>
   </g>
   <g id="patch_78">
    <path clip-path="url(#p96c1fae1b0)" d="M 385.342303 247.425354 
L 385.342303 247.425354 
L 388.848147 247.425354 
L 388.848147 247.425354 
L 385.342303 247.425354 
" style="fill:#2a93d5;"/>
   </g>
   <g id="patch_79">
    <path clip-path="url(#p96c1fae1b0)" d="M 394.69122 247.425354 
L 394.69122 247.425354 
L 398.197064 247.425354 
L 398.197064 247.425354 
L 394.69122 247.425354 
" style="fill:#2a93d5;"/>
   </g>
   <g id="patch_80">
    <path clip-path="url(#p96c1fae1b0)" d="M 404.040138 247.425354 
L 404.040138 247.425354 
L 407.545982 247.425354 
L 407.545982 247.425354 
L 404.040138 247.425354 
" style="fill:#2a93d5;"/>
   </g>
   <g id="patch_81">
    <path clip-path="url(#p96c1fae1b0)" d="M 413.389056 247.425354 
L 413.389056 247.425354 
L 416.8949 247.425354 
L 416.8949 247.425354 
L 413.389056 247.425354 
" style="fill:#2a93d5;"/>
   </g>
   <g id="patch_82">
    <path clip-path="url(#p96c1fae1b0)" d="M 422.737973 247.425354 
L 422.737973 247.425354 
L 426.243818 247.425354 
L 426.243818 247.425354 
L 422.737973 247.425354 
" style="fill:#2a93d5;"/>
   </g>
   <g id="patch_83">
    <path d="M 55.208646 247.425354 
L 55.208646 5.714646 
" style="fill:none;stroke:#000000;stroke-linecap:square;stroke-linejoin:miter;"/>
   </g>
   <g id="patch_84">
    <path d="M 55.208646 247.425354 
L 429.165354 247.425354 
" style="fill:none;stroke:#000000;stroke-linecap:square;stroke-linejoin:miter;"/>
   </g>
   <g id="patch_85">
    <path clip-path="url(#p96c1fae1b0)" d="M 61.636027 247.425354 
L 61.636027 247.425354 
L 65.141871 247.425354 
L 65.141871 247.425354 
L 61.636027 247.425354 
" style="fill:#6d138b;"/>
   </g>
   <g id="patch_86">
    <path clip-path="url(#p96c1fae1b0)" d="M 70.984944 247.086653 
L 70.984944 247.425354 
L 74.490788 247.425354 
L 74.490788 247.086653 
L 70.984944 247.086653 
" style="fill:#6d138b;"/>
   </g>
   <g id="patch_87">
    <path clip-path="url(#p96c1fae1b0)" d="M 80.333862 246.443121 
L 80.333862 247.425354 
L 83.839706 247.425354 
L 83.839706 246.443121 
L 80.333862 246.443121 
" style="fill:#6d138b;"/>
   </g>
   <g id="patch_88">
    <path clip-path="url(#p96c1fae1b0)" d="M 89.68278 240.888422 
L 89.68278 247.425354 
L 93.188624 247.425354 
L 93.188624 240.888422 
L 89.68278 240.888422 
" style="fill:#6d138b;"/>
   </g>
   <g id="patch_89">
    <path clip-path="url(#p96c1fae1b0)" d="M 99.031697 230.287075 
L 99.031697 247.425354 
L 102.537542 247.425354 
L 102.537542 230.287075 
L 99.031697 230.287075 
" style="fill:#6d138b;"/>
   </g>
   <g id="patch_90">
    <path clip-path="url(#p96c1fae1b0)" d="M 108.380615 214.232639 
L 108.380615 247.425354 
L 111.886459 247.425354 
L 111.886459 214.232639 
L 108.380615 214.232639 
" style="fill:#6d138b;"/>
   </g>
   <g id="patch_91">
    <path clip-path="url(#p96c1fae1b0)" d="M 117.729533 178.635145 
L 117.729533 247.425354 
L 121.235377 247.425354 
L 121.235377 178.635145 
L 117.729533 178.635145 
" style="fill:#6d138b;"/>
   </g>
   <g id="patch_92">
    <path clip-path="url(#p96c1fae1b0)" d="M 127.078451 146.661754 
L 127.078451 247.425354 
L 130.584295 247.425354 
L 130.584295 146.661754 
L 127.078451 146.661754 
" style="fill:#6d138b;"/>
   </g>
   <g id="patch_93">
    <path clip-path="url(#p96c1fae1b0)" d="M 136.427368 104.154756 
L 136.427368 247.425354 
L 139.933212 247.425354 
L 139.933212 104.154756 
L 136.427368 104.154756 
" style="fill:#6d138b;"/>
   </g>
   <g id="patch_94">
    <path clip-path="url(#p96c1fae1b0)" d="M 145.776286 94.806604 
L 145.776286 247.425354 
L 149.28213 247.425354 
L 149.28213 94.806604 
L 145.776286 94.806604 
" style="fill:#6d138b;"/>
   </g>
   <g id="patch_95">
    <path clip-path="url(#p96c1fae1b0)" d="M 155.125204 93.587279 
L 155.125204 247.425354 
L 158.631048 247.425354 
L 158.631048 93.587279 
L 155.125204 93.587279 
" style="fill:#6d138b;"/>
   </g>
   <g id="patch_96">
    <path clip-path="url(#p96c1fae1b0)" d="M 164.474121 103.714445 
L 164.474121 247.425354 
L 167.979966 247.425354 
L 167.979966 103.714445 
L 164.474121 103.714445 
" style="fill:#6d138b;"/>
   </g>
   <g id="patch_97">
    <path clip-path="url(#p96c1fae1b0)" d="M 173.823039 128.473501 
L 173.823039 247.425354 
L 177.328883 247.425354 
L 177.328883 128.473501 
L 173.823039 128.473501 
" style="fill:#6d138b;"/>
   </g>
   <g id="patch_98">
    <path clip-path="url(#p96c1fae1b0)" d="M 183.171957 160.853333 
L 183.171957 247.425354 
L 186.677801 247.425354 
L 186.677801 160.853333 
L 183.171957 160.853333 
" style="fill:#6d138b;"/>
   </g>
   <g id="patch_99">
    <path clip-path="url(#p96c1fae1b0)" d="M 192.520875 176.128756 
L 192.520875 247.425354 
L 196.026719 247.425354 
L 196.026719 176.128756 
L 192.520875 176.128756 
" style="fill:#6d138b;"/>
   </g>
   <g id="patch_100">
    <path clip-path="url(#p96c1fae1b0)" d="M 201.869792 205.90059 
L 201.869792 247.425354 
L 205.375636 247.425354 
L 205.375636 205.90059 
L 201.869792 205.90059 
" style="fill:#6d138b;"/>
   </g>
   <g id="patch_101">
    <path clip-path="url(#p96c1fae1b0)" d="M 211.21871 217.992222 
L 211.21871 247.425354 
L 214.724554 247.425354 
L 214.724554 217.992222 
L 211.21871 217.992222 
" style="fill:#6d138b;"/>
   </g>
   <g id="patch_102">
    <path clip-path="url(#p96c1fae1b0)" d="M 220.567628 230.896737 
L 220.567628 247.425354 
L 224.073472 247.425354 
L 224.073472 230.896737 
L 220.567628 230.896737 
" style="fill:#6d138b;"/>
   </g>
   <g id="patch_103">
    <path clip-path="url(#p96c1fae1b0)" d="M 229.916545 236.857878 
L 229.916545 247.425354 
L 233.42239 247.425354 
L 233.42239 236.857878 
L 229.916545 236.857878 
" style="fill:#6d138b;"/>
   </g>
   <g id="patch_104">
    <path clip-path="url(#p96c1fae1b0)" d="M 239.265463 243.462551 
L 239.265463 247.425354 
L 242.771307 247.425354 
L 242.771307 243.462551 
L 239.265463 243.462551 
" style="fill:#6d138b;"/>
   </g>
   <g id="patch_105">
    <path clip-path="url(#p96c1fae1b0)" d="M 248.614381 243.530291 
L 248.614381 247.425354 
L 252.120225 247.425354 
L 252.120225 243.530291 
L 248.614381 243.530291 
" style="fill:#6d138b;"/>
   </g>
   <g id="patch_106">
    <path clip-path="url(#p96c1fae1b0)" d="M 257.963299 245.901199 
L 257.963299 247.425354 
L 261.469143 247.425354 
L 261.469143 245.901199 
L 257.963299 245.901199 
" style="fill:#6d138b;"/>
   </g>
   <g id="patch_107">
    <path clip-path="url(#p96c1fae1b0)" d="M 267.312216 245.664108 
L 267.312216 247.425354 
L 270.818061 247.425354 
L 270.818061 245.664108 
L 267.312216 245.664108 
" style="fill:#6d138b;"/>
   </g>
   <g id="patch_108">
    <path clip-path="url(#p96c1fae1b0)" d="M 276.661134 247.052783 
L 276.661134 247.425354 
L 280.166978 247.425354 
L 280.166978 247.052783 
L 276.661134 247.052783 
" style="fill:#6d138b;"/>
   </g>
   <g id="patch_109">
    <path clip-path="url(#p96c1fae1b0)" d="M 286.010052 247.018913 
L 286.010052 247.425354 
L 289.515896 247.425354 
L 289.515896 247.018913 
L 286.010052 247.018913 
" style="fill:#6d138b;"/>
   </g>
   <g id="patch_110">
    <path clip-path="url(#p96c1fae1b0)" d="M 295.35897 247.256004 
L 295.35897 247.425354 
L 298.864814 247.425354 
L 298.864814 247.256004 
L 295.35897 247.256004 
" style="fill:#6d138b;"/>
   </g>
   <g id="patch_111">
    <path clip-path="url(#p96c1fae1b0)" d="M 304.707887 247.018913 
L 304.707887 247.425354 
L 308.213731 247.425354 
L 308.213731 247.018913 
L 304.707887 247.018913 
" style="fill:#6d138b;"/>
   </g>
   <g id="patch_112">
    <path clip-path="url(#p96c1fae1b0)" d="M 314.056805 247.425354 
L 314.056805 247.425354 
L 317.562649 247.425354 
L 317.562649 247.425354 
L 314.056805 247.425354 
" style="fill:#6d138b;"/>
   </g>
   <g id="patch_113">
    <path clip-path="url(#p96c1fae1b0)" d="M 323.405723 247.425354 
L 323.405723 247.425354 
L 326.911567 247.425354 
L 326.911567 247.425354 
L 323.405723 247.425354 
" style="fill:#6d138b;"/>
   </g>
   <g id="patch_114">
    <path clip-path="url(#p96c1fae1b0)" d="M 332.75464 247.425354 
L 332.75464 247.425354 
L 336.260485 247.425354 
L 336.260485 247.425354 
L 332.75464 247.425354 
" style="fill:#6d138b;"/>
   </g>
   <g id="patch_115">
    <path clip-path="url(#p96c1fae1b0)" d="M 342.103558 247.425354 
L 342.103558 247.425354 
L 345.609402 247.425354 
L 345.609402 247.425354 
L 342.103558 247.425354 
" style="fill:#6d138b;"/>
   </g>
   <g id="patch_116">
    <path clip-path="url(#p96c1fae1b0)" d="M 351.452476 247.425354 
L 351.452476 247.425354 
L 354.95832 247.425354 
L 354.95832 247.425354 
L 351.452476 247.425354 
" style="fill:#6d138b;"/>
   </g>
   <g id="patch_117">
    <path clip-path="url(#p96c1fae1b0)" d="M 360.801394 247.425354 
L 360.801394 247.425354 
L 364.307238 247.425354 
L 364.307238 247.425354 
L 360.801394 247.425354 
" style="fill:#6d138b;"/>
   </g>
   <g id="patch_118">
    <path clip-path="url(#p96c1fae1b0)" d="M 370.150311 247.425354 
L 370.150311 247.425354 
L 373.656155 247.425354 
L 373.656155 247.425354 
L 370.150311 247.425354 
" style="fill:#6d138b;"/>
   </g>
   <g id="patch_119">
    <path clip-path="url(#p96c1fae1b0)" d="M 379.499229 247.425354 
L 379.499229 247.425354 
L 383.005073 247.425354 
L 383.005073 247.425354 
L 379.499229 247.425354 
" style="fill:#6d138b;"/>
   </g>
   <g id="patch_120">
    <path clip-path="url(#p96c1fae1b0)" d="M 388.848147 247.425354 
L 388.848147 247.425354 
L 392.353991 247.425354 
L 392.353991 247.425354 
L 388.848147 247.425354 
" style="fill:#6d138b;"/>
   </g>
   <g id="patch_121">
    <path clip-path="url(#p96c1fae1b0)" d="M 398.197064 247.425354 
L 398.197064 247.425354 
L 401.702909 247.425354 
L 401.702909 247.425354 
L 398.197064 247.425354 
" style="fill:#6d138b;"/>
   </g>
   <g id="patch_122">
    <path clip-path="url(#p96c1fae1b0)" d="M 407.545982 247.425354 
L 407.545982 247.425354 
L 411.051826 247.425354 
L 411.051826 247.425354 
L 407.545982 247.425354 
" style="fill:#6d138b;"/>
   </g>
   <g id="patch_123">
    <path clip-path="url(#p96c1fae1b0)" d="M 416.8949 247.425354 
L 416.8949 247.425354 
L 420.400744 247.425354 
L 420.400744 247.425354 
L 416.8949 247.425354 
" style="fill:#6d138b;"/>
   </g>
   <g id="patch_124">
    <path clip-path="url(#p96c1fae1b0)" d="M 426.243818 247.425354 
L 426.243818 247.425354 
L 429.749662 247.425354 
L 429.749662 247.425354 
L 426.243818 247.425354 
" style="fill:#6d138b;"/>
   </g>
   <g id="legend_1">
    <g id="patch_125">
     <path d="M 375.280354 47.342146 
L 423.565354 47.342146 
Q 425.165354 47.342146 425.165354 45.742146 
L 425.165354 11.314646 
Q 425.165354 9.714646 423.565354 9.714646 
L 375.280354 9.714646 
Q 373.680354 9.714646 373.680354 11.314646 
L 373.680354 45.742146 
Q 373.680354 47.342146 375.280354 47.342146 
z
" style="fill:#ffffff;stroke:#000000;stroke-linejoin:miter;"/>
    </g>
    <g id="patch_126">
     <path d="M 376.880354 18.993396 
L 392.880354 18.993396 
L 392.880354 13.393396 
L 376.880354 13.393396 
z
" style="fill:#3ddad7;"/>
    </g>
    <g id="text_12">
     <!-- pop 1 -->
     <defs>
      <path d="M 18.109375 8.203125 
L 18.109375 -20.796875 
L 9.078125 -20.796875 
L 9.078125 54.6875 
L 18.109375 54.6875 
L 18.109375 46.390625 
Q 20.953125 51.265625 25.265625 53.625 
Q 29.59375 56 35.59375 56 
Q 45.5625 56 51.78125 48.09375 
Q 58.015625 40.1875 58.015625 27.296875 
Q 58.015625 14.40625 51.78125 6.484375 
Q 45.5625 -1.421875 35.59375 -1.421875 
Q 29.59375 -1.421875 25.265625 0.953125 
Q 20.953125 3.328125 18.109375 8.203125 
z
M 48.6875 27.296875 
Q 48.6875 37.203125 44.609375 42.84375 
Q 40.53125 48.484375 33.40625 48.484375 
Q 26.265625 48.484375 22.1875 42.84375 
Q 18.109375 37.203125 18.109375 27.296875 
Q 18.109375 17.390625 22.1875 11.75 
Q 26.265625 6.109375 33.40625 6.109375 
Q 40.53125 6.109375 44.609375 11.75 
Q 48.6875 17.390625 48.6875 27.296875 
z
" id="DejaVuSans-70"/>
     </defs>
     <g transform="translate(399.280354 18.993396)scale(0.08 -0.08)">
      <use xlink:href="#DejaVuSans-70"/>
      <use x="63.476562" xlink:href="#DejaVuSans-6f"/>
      <use x="124.658203" xlink:href="#DejaVuSans-70"/>
      <use x="188.134766" xlink:href="#DejaVuSans-20"/>
      <use x="219.921875" xlink:href="#DejaVuSans-31"/>
     </g>
    </g>
    <g id="patch_127">
     <path d="M 376.880354 30.735896 
L 392.880354 30.735896 
L 392.880354 25.135896 
L 376.880354 25.135896 
z
" style="fill:#2a93d5;"/>
    </g>
    <g id="text_13">
     <!-- pop 2 -->
     <g transform="translate(399.280354 30.735896)scale(0.08 -0.08)">
      <use xlink:href="#DejaVuSans-70"/>
      <use x="63.476562" xlink:href="#DejaVuSans-6f"/>
      <use x="124.658203" xlink:href="#DejaVuSans-70"/>
      <use x="188.134766" xlink:href="#DejaVuSans-20"/>
      <use x="219.921875" xlink:href="#DejaVuSans-32"/>
     </g>
    </g>
    <g id="patch_128">
     <path d="M 376.880354 42.478396 
L 392.880354 42.478396 
L 392.880354 36.878396 
L 376.880354 36.878396 
z
" style="fill:#6d138b;"/>
    </g>
    <g id="text_14">
     <!-- pop 3 -->
     <g transform="translate(399.280354 42.478396)scale(0.08 -0.08)">
      <use xlink:href="#DejaVuSans-70"/>
      <use x="63.476562" xlink:href="#DejaVuSans-6f"/>
      <use x="124.658203" xlink:href="#DejaVuSans-70"/>
      <use x="188.134766" xlink:href="#DejaVuSans-20"/>
      <use x="219.921875" xlink:href="#DejaVuSans-33"/>
     </g>
    </g>
   </g>
  </g>
 </g>
 <defs>
  <clipPath id="p96c1fae1b0">
   <rect height="241.710709" width="373.956709" x="55.208646" y="5.714646"/>
  </clipPath>
 </defs>
</svg>
