<?xml version="1.0" encoding="utf-8" standalone="no"?>
<!DOCTYPE svg PUBLIC "-//W3C//DTD SVG 1.1//EN"
  "http://www.w3.org/Graphics/SVG/1.1/DTD/svg11.dtd">
<!-- Created with matplotlib (http://matplotlib.org/) -->
<svg height="288pt" version="1.1" viewBox="0 0 432 288" width="432pt" xmlns="http://www.w3.org/2000/svg" xmlns:xlink="http://www.w3.org/1999/xlink">
 <defs>
  <style type="text/css">
*{stroke-linecap:butt;stroke-linejoin:round;}
  </style>
 </defs>
 <g id="figure_1">
  <g id="patch_1">
   <path d="M 0 288 
L 432 288 
L 432 0 
L 0 0 
z
" style="fill:#ffffff;"/>
  </g>
  <g id="axes_1">
   <g id="patch_2">
    <path d="M 55.208646 247.425354 
L 416.655354 247.425354 
L 416.655354 5.714646 
L 55.208646 5.714646 
z
" style="fill:#ffffff;"/>
   </g>
   <g id="patch_3">
    <path clip-path="url(#pa25c371fd1)" d="M 59.626328 247.425354 
L 59.626328 247.425354 
L 70.871336 247.425354 
L 70.871336 247.425354 
L 59.626328 247.425354 
" style="fill:#3ddad7;fill-opacity:0.7;"/>
   </g>
   <g id="patch_4">
    <path clip-path="url(#pa25c371fd1)" d="M 71.674551 247.364714 
L 71.674551 247.425354 
L 82.91956 247.425354 
L 82.91956 247.364714 
L 71.674551 247.364714 
" style="fill:#3ddad7;fill-opacity:0.7;"/>
   </g>
   <g id="patch_5">
    <path clip-path="url(#pa25c371fd1)" d="M 83.722775 247.413226 
L 83.722775 247.425354 
L 94.967784 247.425354 
L 94.967784 247.413226 
L 83.722775 247.413226 
" style="fill:#3ddad7;fill-opacity:0.7;"/>
   </g>
   <g id="patch_6">
    <path clip-path="url(#pa25c371fd1)" d="M 95.770999 246.442978 
L 95.770999 247.425354 
L 107.016007 247.425354 
L 107.016007 246.442978 
L 95.770999 246.442978 
" style="fill:#3ddad7;fill-opacity:0.7;"/>
   </g>
   <g id="patch_7">
    <path clip-path="url(#pa25c371fd1)" d="M 107.819222 242.731778 
L 107.819222 247.425354 
L 119.064231 247.425354 
L 119.064231 242.731778 
L 107.819222 242.731778 
" style="fill:#3ddad7;fill-opacity:0.7;"/>
   </g>
   <g id="patch_8">
    <path clip-path="url(#pa25c371fd1)" d="M 119.867446 236.267498 
L 119.867446 247.425354 
L 131.112454 247.425354 
L 131.112454 236.267498 
L 119.867446 236.267498 
" style="fill:#3ddad7;fill-opacity:0.7;"/>
   </g>
   <g id="patch_9">
    <path clip-path="url(#pa25c371fd1)" d="M 131.915669 218.487696 
L 131.915669 247.425354 
L 143.160678 247.425354 
L 143.160678 218.487696 
L 131.915669 218.487696 
" style="fill:#3ddad7;fill-opacity:0.7;"/>
   </g>
   <g id="patch_10">
    <path clip-path="url(#pa25c371fd1)" d="M 143.963893 188.082536 
L 143.963893 247.425354 
L 155.208902 247.425354 
L 155.208902 188.082536 
L 143.963893 188.082536 
" style="fill:#3ddad7;fill-opacity:0.7;"/>
   </g>
   <g id="patch_11">
    <path clip-path="url(#pa25c371fd1)" d="M 156.012117 161.340064 
L 156.012117 247.425354 
L 167.257125 247.425354 
L 167.257125 161.340064 
L 156.012117 161.340064 
" style="fill:#3ddad7;fill-opacity:0.7;"/>
   </g>
   <g id="patch_12">
    <path clip-path="url(#pa25c371fd1)" d="M 168.06034 137.083854 
L 168.06034 247.425354 
L 179.305349 247.425354 
L 179.305349 137.083854 
L 168.06034 137.083854 
" style="fill:#3ddad7;fill-opacity:0.7;"/>
   </g>
   <g id="patch_13">
    <path clip-path="url(#pa25c371fd1)" d="M 180.108564 115.99308 
L 180.108564 247.425354 
L 191.353573 247.425354 
L 191.353573 115.99308 
L 180.108564 115.99308 
" style="fill:#3ddad7;fill-opacity:0.7;"/>
   </g>
   <g id="patch_14">
    <path clip-path="url(#pa25c371fd1)" d="M 192.156788 121.972235 
L 192.156788 247.425354 
L 203.401796 247.425354 
L 203.401796 121.972235 
L 192.156788 121.972235 
" style="fill:#3ddad7;fill-opacity:0.7;"/>
   </g>
   <g id="patch_15">
    <path clip-path="url(#pa25c371fd1)" d="M 204.205011 118.309548 
L 204.205011 247.425354 
L 215.45002 247.425354 
L 215.45002 118.309548 
L 204.205011 118.309548 
" style="fill:#3ddad7;fill-opacity:0.7;"/>
   </g>
   <g id="patch_16">
    <path clip-path="url(#pa25c371fd1)" d="M 216.253235 143.111523 
L 216.253235 247.425354 
L 227.498243 247.425354 
L 227.498243 143.111523 
L 216.253235 143.111523 
" style="fill:#3ddad7;fill-opacity:0.7;"/>
   </g>
   <g id="patch_17">
    <path clip-path="url(#pa25c371fd1)" d="M 228.301458 149.515162 
L 228.301458 247.425354 
L 239.546467 247.425354 
L 239.546467 149.515162 
L 228.301458 149.515162 
" style="fill:#3ddad7;fill-opacity:0.7;"/>
   </g>
   <g id="patch_18">
    <path clip-path="url(#pa25c371fd1)" d="M 240.349682 170.035916 
L 240.349682 247.425354 
L 251.594691 247.425354 
L 251.594691 170.035916 
L 240.349682 170.035916 
" style="fill:#3ddad7;fill-opacity:0.7;"/>
   </g>
   <g id="patch_19">
    <path clip-path="url(#pa25c371fd1)" d="M 252.397906 181.218029 
L 252.397906 247.425354 
L 263.642914 247.425354 
L 263.642914 181.218029 
L 252.397906 181.218029 
" style="fill:#3ddad7;fill-opacity:0.7;"/>
   </g>
   <g id="patch_20">
    <path clip-path="url(#pa25c371fd1)" d="M 264.446129 200.016592 
L 264.446129 247.425354 
L 275.691138 247.425354 
L 275.691138 200.016592 
L 264.446129 200.016592 
" style="fill:#3ddad7;fill-opacity:0.7;"/>
   </g>
   <g id="patch_21">
    <path clip-path="url(#pa25c371fd1)" d="M 276.494353 211.489779 
L 276.494353 247.425354 
L 287.739362 247.425354 
L 287.739362 211.489779 
L 276.494353 211.489779 
" style="fill:#3ddad7;fill-opacity:0.7;"/>
   </g>
   <g id="patch_22">
    <path clip-path="url(#pa25c371fd1)" d="M 288.542576 220.82842 
L 288.542576 247.425354 
L 299.787585 247.425354 
L 299.787585 220.82842 
L 288.542576 220.82842 
" style="fill:#3ddad7;fill-opacity:0.7;"/>
   </g>
   <g id="patch_23">
    <path clip-path="url(#pa25c371fd1)" d="M 300.5908 224.842823 
L 300.5908 247.425354 
L 311.835809 247.425354 
L 311.835809 224.842823 
L 300.5908 224.842823 
" style="fill:#3ddad7;fill-opacity:0.7;"/>
   </g>
   <g id="patch_24">
    <path clip-path="url(#pa25c371fd1)" d="M 312.639024 230.967516 
L 312.639024 247.425354 
L 323.884032 247.425354 
L 323.884032 230.967516 
L 312.639024 230.967516 
" style="fill:#3ddad7;fill-opacity:0.7;"/>
   </g>
   <g id="patch_25">
    <path clip-path="url(#pa25c371fd1)" d="M 324.687247 236.31601 
L 324.687247 247.425354 
L 335.932256 247.425354 
L 335.932256 236.31601 
L 324.687247 236.31601 
" style="fill:#3ddad7;fill-opacity:0.7;"/>
   </g>
   <g id="patch_26">
    <path clip-path="url(#pa25c371fd1)" d="M 336.735471 241.931323 
L 336.735471 247.425354 
L 347.98048 247.425354 
L 347.98048 241.931323 
L 336.735471 241.931323 
" style="fill:#3ddad7;fill-opacity:0.7;"/>
   </g>
   <g id="patch_27">
    <path clip-path="url(#pa25c371fd1)" d="M 348.783695 243.265414 
L 348.783695 247.425354 
L 360.028703 247.425354 
L 360.028703 243.265414 
L 348.783695 243.265414 
" style="fill:#3ddad7;fill-opacity:0.7;"/>
   </g>
   <g id="patch_28">
    <path clip-path="url(#pa25c371fd1)" d="M 360.831918 245.424217 
L 360.831918 247.425354 
L 372.076927 247.425354 
L 372.076927 245.424217 
L 360.831918 245.424217 
" style="fill:#3ddad7;fill-opacity:0.7;"/>
   </g>
   <g id="patch_29">
    <path clip-path="url(#pa25c371fd1)" d="M 372.880142 245.933597 
L 372.880142 247.425354 
L 384.125151 247.425354 
L 384.125151 245.933597 
L 372.880142 245.933597 
" style="fill:#3ddad7;fill-opacity:0.7;"/>
   </g>
   <g id="patch_30">
    <path clip-path="url(#pa25c371fd1)" d="M 384.928365 246.406594 
L 384.928365 247.425354 
L 396.173374 247.425354 
L 396.173374 246.406594 
L 384.928365 246.406594 
" style="fill:#3ddad7;fill-opacity:0.7;"/>
   </g>
   <g id="patch_31">
    <path clip-path="url(#pa25c371fd1)" d="M 396.976589 246.794693 
L 396.976589 247.425354 
L 408.221598 247.425354 
L 408.221598 246.794693 
L 396.976589 246.794693 
" style="fill:#3ddad7;fill-opacity:0.7;"/>
   </g>
   <g id="patch_32">
    <path clip-path="url(#pa25c371fd1)" d="M 409.024813 247.19492 
L 409.024813 247.425354 
L 420.269821 247.425354 
L 420.269821 247.19492 
L 409.024813 247.19492 
" style="fill:#3ddad7;fill-opacity:0.7;"/>
   </g>
   <g id="matplotlib.axis_1">
    <g id="xtick_1">
     <g id="line2d_1">
      <defs>
       <path d="M 0 0 
L 0 -3.5 
" id="m8f8cf702ec" style="stroke:#000000;stroke-width:0.8;"/>
      </defs>
      <g>
       <use style="stroke:#000000;stroke-width:0.8;" x="95.369391" xlink:href="#m8f8cf702ec" y="247.425354"/>
      </g>
     </g>
     <g id="text_1">
      <!-- 800 -->
      <defs>
       <path d="M 31.78125 34.625 
Q 24.75 34.625 20.71875 30.859375 
Q 16.703125 27.09375 16.703125 20.515625 
Q 16.703125 13.921875 20.71875 10.15625 
Q 24.75 6.390625 31.78125 6.390625 
Q 38.8125 6.390625 42.859375 10.171875 
Q 46.921875 13.96875 46.921875 20.515625 
Q 46.921875 27.09375 42.890625 30.859375 
Q 38.875 34.625 31.78125 34.625 
z
M 21.921875 38.8125 
Q 15.578125 40.375 12.03125 44.71875 
Q 8.5 49.078125 8.5 55.328125 
Q 8.5 64.0625 14.71875 69.140625 
Q 20.953125 74.21875 31.78125 74.21875 
Q 42.671875 74.21875 48.875 69.140625 
Q 55.078125 64.0625 55.078125 55.328125 
Q 55.078125 49.078125 51.53125 44.71875 
Q 48 40.375 41.703125 38.8125 
Q 48.828125 37.15625 52.796875 32.3125 
Q 56.78125 27.484375 56.78125 20.515625 
Q 56.78125 9.90625 50.3125 4.234375 
Q 43.84375 -1.421875 31.78125 -1.421875 
Q 19.734375 -1.421875 13.25 4.234375 
Q 6.78125 9.90625 6.78125 20.515625 
Q 6.78125 27.484375 10.78125 32.3125 
Q 14.796875 37.15625 21.921875 38.8125 
z
M 18.3125 54.390625 
Q 18.3125 48.734375 21.84375 45.5625 
Q 25.390625 42.390625 31.78125 42.390625 
Q 38.140625 42.390625 41.71875 45.5625 
Q 45.3125 48.734375 45.3125 54.390625 
Q 45.3125 60.0625 41.71875 63.234375 
Q 38.140625 66.40625 31.78125 66.40625 
Q 25.390625 66.40625 21.84375 63.234375 
Q 18.3125 60.0625 18.3125 54.390625 
z
" id="DejaVuSans-38"/>
       <path d="M 31.78125 66.40625 
Q 24.171875 66.40625 20.328125 58.90625 
Q 16.5 51.421875 16.5 36.375 
Q 16.5 21.390625 20.328125 13.890625 
Q 24.171875 6.390625 31.78125 6.390625 
Q 39.453125 6.390625 43.28125 13.890625 
Q 47.125 21.390625 47.125 36.375 
Q 47.125 51.421875 43.28125 58.90625 
Q 39.453125 66.40625 31.78125 66.40625 
z
M 31.78125 74.21875 
Q 44.046875 74.21875 50.515625 64.515625 
Q 56.984375 54.828125 56.984375 36.375 
Q 56.984375 17.96875 50.515625 8.265625 
Q 44.046875 -1.421875 31.78125 -1.421875 
Q 19.53125 -1.421875 13.0625 8.265625 
Q 6.59375 17.96875 6.59375 36.375 
Q 6.59375 54.828125 13.0625 64.515625 
Q 19.53125 74.21875 31.78125 74.21875 
z
" id="DejaVuSans-30"/>
      </defs>
      <g transform="translate(84.871266 259.283636)scale(0.11 -0.11)">
       <use xlink:href="#DejaVuSans-38"/>
       <use x="63.623047" xlink:href="#DejaVuSans-30"/>
       <use x="127.246094" xlink:href="#DejaVuSans-30"/>
      </g>
     </g>
    </g>
    <g id="xtick_2">
     <g id="line2d_2">
      <g>
       <use style="stroke:#000000;stroke-width:0.8;" x="175.690882" xlink:href="#m8f8cf702ec" y="247.425354"/>
      </g>
     </g>
     <g id="text_2">
      <!-- 1000 -->
      <defs>
       <path d="M 12.40625 8.296875 
L 28.515625 8.296875 
L 28.515625 63.921875 
L 10.984375 60.40625 
L 10.984375 69.390625 
L 28.421875 72.90625 
L 38.28125 72.90625 
L 38.28125 8.296875 
L 54.390625 8.296875 
L 54.390625 0 
L 12.40625 0 
z
" id="DejaVuSans-31"/>
      </defs>
      <g transform="translate(161.693382 259.283636)scale(0.11 -0.11)">
       <use xlink:href="#DejaVuSans-31"/>
       <use x="63.623047" xlink:href="#DejaVuSans-30"/>
       <use x="127.246094" xlink:href="#DejaVuSans-30"/>
       <use x="190.869141" xlink:href="#DejaVuSans-30"/>
      </g>
     </g>
    </g>
    <g id="xtick_3">
     <g id="line2d_3">
      <g>
       <use style="stroke:#000000;stroke-width:0.8;" x="256.012373" xlink:href="#m8f8cf702ec" y="247.425354"/>
      </g>
     </g>
     <g id="text_3">
      <!-- 1200 -->
      <defs>
       <path d="M 19.1875 8.296875 
L 53.609375 8.296875 
L 53.609375 0 
L 7.328125 0 
L 7.328125 8.296875 
Q 12.9375 14.109375 22.625 23.890625 
Q 32.328125 33.6875 34.8125 36.53125 
Q 39.546875 41.84375 41.421875 45.53125 
Q 43.3125 49.21875 43.3125 52.78125 
Q 43.3125 58.59375 39.234375 62.25 
Q 35.15625 65.921875 28.609375 65.921875 
Q 23.96875 65.921875 18.8125 64.3125 
Q 13.671875 62.703125 7.8125 59.421875 
L 7.8125 69.390625 
Q 13.765625 71.78125 18.9375 73 
Q 24.125 74.21875 28.421875 74.21875 
Q 39.75 74.21875 46.484375 68.546875 
Q 53.21875 62.890625 53.21875 53.421875 
Q 53.21875 48.921875 51.53125 44.890625 
Q 49.859375 40.875 45.40625 35.40625 
Q 44.1875 33.984375 37.640625 27.21875 
Q 31.109375 20.453125 19.1875 8.296875 
z
" id="DejaVuSans-32"/>
      </defs>
      <g transform="translate(242.014873 259.283636)scale(0.11 -0.11)">
       <use xlink:href="#DejaVuSans-31"/>
       <use x="63.623047" xlink:href="#DejaVuSans-32"/>
       <use x="127.246094" xlink:href="#DejaVuSans-30"/>
       <use x="190.869141" xlink:href="#DejaVuSans-30"/>
      </g>
     </g>
    </g>
    <g id="xtick_4">
     <g id="line2d_4">
      <g>
       <use style="stroke:#000000;stroke-width:0.8;" x="336.333864" xlink:href="#m8f8cf702ec" y="247.425354"/>
      </g>
     </g>
     <g id="text_4">
      <!-- 1400 -->
      <defs>
       <path d="M 37.796875 64.3125 
L 12.890625 25.390625 
L 37.796875 25.390625 
z
M 35.203125 72.90625 
L 47.609375 72.90625 
L 47.609375 25.390625 
L 58.015625 25.390625 
L 58.015625 17.1875 
L 47.609375 17.1875 
L 47.609375 0 
L 37.796875 0 
L 37.796875 17.1875 
L 4.890625 17.1875 
L 4.890625 26.703125 
z
" id="DejaVuSans-34"/>
      </defs>
      <g transform="translate(322.336364 259.283636)scale(0.11 -0.11)">
       <use xlink:href="#DejaVuSans-31"/>
       <use x="63.623047" xlink:href="#DejaVuSans-34"/>
       <use x="127.246094" xlink:href="#DejaVuSans-30"/>
       <use x="190.869141" xlink:href="#DejaVuSans-30"/>
      </g>
     </g>
    </g>
    <g id="xtick_5">
     <g id="line2d_5">
      <g>
       <use style="stroke:#000000;stroke-width:0.8;" x="416.655354" xlink:href="#m8f8cf702ec" y="247.425354"/>
      </g>
     </g>
     <g id="text_5">
      <!-- 1600 -->
      <defs>
       <path d="M 33.015625 40.375 
Q 26.375 40.375 22.484375 35.828125 
Q 18.609375 31.296875 18.609375 23.390625 
Q 18.609375 15.53125 22.484375 10.953125 
Q 26.375 6.390625 33.015625 6.390625 
Q 39.65625 6.390625 43.53125 10.953125 
Q 47.40625 15.53125 47.40625 23.390625 
Q 47.40625 31.296875 43.53125 35.828125 
Q 39.65625 40.375 33.015625 40.375 
z
M 52.59375 71.296875 
L 52.59375 62.3125 
Q 48.875 64.0625 45.09375 64.984375 
Q 41.3125 65.921875 37.59375 65.921875 
Q 27.828125 65.921875 22.671875 59.328125 
Q 17.53125 52.734375 16.796875 39.40625 
Q 19.671875 43.65625 24.015625 45.921875 
Q 28.375 48.1875 33.59375 48.1875 
Q 44.578125 48.1875 50.953125 41.515625 
Q 57.328125 34.859375 57.328125 23.390625 
Q 57.328125 12.15625 50.6875 5.359375 
Q 44.046875 -1.421875 33.015625 -1.421875 
Q 20.359375 -1.421875 13.671875 8.265625 
Q 6.984375 17.96875 6.984375 36.375 
Q 6.984375 53.65625 15.1875 63.9375 
Q 23.390625 74.21875 37.203125 74.21875 
Q 40.921875 74.21875 44.703125 73.484375 
Q 48.484375 72.75 52.59375 71.296875 
z
" id="DejaVuSans-36"/>
      </defs>
      <g transform="translate(402.657854 259.283636)scale(0.11 -0.11)">
       <use xlink:href="#DejaVuSans-31"/>
       <use x="63.623047" xlink:href="#DejaVuSans-36"/>
       <use x="127.246094" xlink:href="#DejaVuSans-30"/>
       <use x="190.869141" xlink:href="#DejaVuSans-30"/>
      </g>
     </g>
    </g>
    <g id="text_6">
     <!-- Volume $[\AA^3]$  -->
     <defs>
      <path d="M 28.609375 0 
L 0.78125 72.90625 
L 11.078125 72.90625 
L 34.1875 11.53125 
L 57.328125 72.90625 
L 67.578125 72.90625 
L 39.796875 0 
z
" id="DejaVuSans-56"/>
      <path d="M 30.609375 48.390625 
Q 23.390625 48.390625 19.1875 42.75 
Q 14.984375 37.109375 14.984375 27.296875 
Q 14.984375 17.484375 19.15625 11.84375 
Q 23.34375 6.203125 30.609375 6.203125 
Q 37.796875 6.203125 41.984375 11.859375 
Q 46.1875 17.53125 46.1875 27.296875 
Q 46.1875 37.015625 41.984375 42.703125 
Q 37.796875 48.390625 30.609375 48.390625 
z
M 30.609375 56 
Q 42.328125 56 49.015625 48.375 
Q 55.71875 40.765625 55.71875 27.296875 
Q 55.71875 13.875 49.015625 6.21875 
Q 42.328125 -1.421875 30.609375 -1.421875 
Q 18.84375 -1.421875 12.171875 6.21875 
Q 5.515625 13.875 5.515625 27.296875 
Q 5.515625 40.765625 12.171875 48.375 
Q 18.84375 56 30.609375 56 
z
" id="DejaVuSans-6f"/>
      <path d="M 9.421875 75.984375 
L 18.40625 75.984375 
L 18.40625 0 
L 9.421875 0 
z
" id="DejaVuSans-6c"/>
      <path d="M 8.5 21.578125 
L 8.5 54.6875 
L 17.484375 54.6875 
L 17.484375 21.921875 
Q 17.484375 14.15625 20.5 10.265625 
Q 23.53125 6.390625 29.59375 6.390625 
Q 36.859375 6.390625 41.078125 11.03125 
Q 45.3125 15.671875 45.3125 23.6875 
L 45.3125 54.6875 
L 54.296875 54.6875 
L 54.296875 0 
L 45.3125 0 
L 45.3125 8.40625 
Q 42.046875 3.421875 37.71875 1 
Q 33.40625 -1.421875 27.6875 -1.421875 
Q 18.265625 -1.421875 13.375 4.4375 
Q 8.5 10.296875 8.5 21.578125 
z
M 31.109375 56 
z
" id="DejaVuSans-75"/>
      <path d="M 52 44.1875 
Q 55.375 50.25 60.0625 53.125 
Q 64.75 56 71.09375 56 
Q 79.640625 56 84.28125 50.015625 
Q 88.921875 44.046875 88.921875 33.015625 
L 88.921875 0 
L 79.890625 0 
L 79.890625 32.71875 
Q 79.890625 40.578125 77.09375 44.375 
Q 74.3125 48.1875 68.609375 48.1875 
Q 61.625 48.1875 57.5625 43.546875 
Q 53.515625 38.921875 53.515625 30.90625 
L 53.515625 0 
L 44.484375 0 
L 44.484375 32.71875 
Q 44.484375 40.625 41.703125 44.40625 
Q 38.921875 48.1875 33.109375 48.1875 
Q 26.21875 48.1875 22.15625 43.53125 
Q 18.109375 38.875 18.109375 30.90625 
L 18.109375 0 
L 9.078125 0 
L 9.078125 54.6875 
L 18.109375 54.6875 
L 18.109375 46.1875 
Q 21.1875 51.21875 25.484375 53.609375 
Q 29.78125 56 35.6875 56 
Q 41.65625 56 45.828125 52.96875 
Q 50 49.953125 52 44.1875 
z
" id="DejaVuSans-6d"/>
      <path d="M 56.203125 29.59375 
L 56.203125 25.203125 
L 14.890625 25.203125 
Q 15.484375 15.921875 20.484375 11.0625 
Q 25.484375 6.203125 34.421875 6.203125 
Q 39.59375 6.203125 44.453125 7.46875 
Q 49.3125 8.734375 54.109375 11.28125 
L 54.109375 2.78125 
Q 49.265625 0.734375 44.1875 -0.34375 
Q 39.109375 -1.421875 33.890625 -1.421875 
Q 20.796875 -1.421875 13.15625 6.1875 
Q 5.515625 13.8125 5.515625 26.8125 
Q 5.515625 40.234375 12.765625 48.109375 
Q 20.015625 56 32.328125 56 
Q 43.359375 56 49.78125 48.890625 
Q 56.203125 41.796875 56.203125 29.59375 
z
M 47.21875 32.234375 
Q 47.125 39.59375 43.09375 43.984375 
Q 39.0625 48.390625 32.421875 48.390625 
Q 24.90625 48.390625 20.390625 44.140625 
Q 15.875 39.890625 15.1875 32.171875 
z
" id="DejaVuSans-65"/>
      <path id="DejaVuSans-20"/>
      <path d="M 8.59375 75.984375 
L 29.296875 75.984375 
L 29.296875 69 
L 17.578125 69 
L 17.578125 -6.203125 
L 29.296875 -6.203125 
L 29.296875 -13.1875 
L 8.59375 -13.1875 
z
" id="DejaVuSans-5b"/>
      <path d="M 49.8125 79.390625 
Q 49.8125 82.46875 47.625 84.640625 
Q 45.453125 86.8125 42.390625 86.8125 
Q 39.265625 86.8125 37.140625 84.6875 
Q 35.015625 82.5625 35.015625 79.390625 
Q 35.015625 76.3125 37.140625 74.15625 
Q 39.265625 72.015625 42.390625 72.015625 
Q 45.453125 72.015625 47.625 74.15625 
Q 49.8125 76.3125 49.8125 79.390625 
z
M 34.421875 68.703125 
Q 31.78125 70.515625 30.390625 73.265625 
Q 29 76.03125 29 79.390625 
Q 29 84.96875 32.90625 88.890625 
Q 36.8125 92.828125 42.390625 92.828125 
Q 47.953125 92.828125 51.875 88.890625 
Q 55.8125 84.96875 55.8125 79.390625 
Q 55.8125 75.53125 54.03125 72.546875 
Q 52.25 69.578125 48.875 67.828125 
L 61.53125 0 
L 51.21875 0 
L 48.1875 18.703125 
L 15.375 18.703125 
L 5.078125 0 
L -5.328125 0 
z
M 40.375 63.1875 
L 19.921875 26.90625 
L 46.6875 26.90625 
z
" id="DejaVuSans-Oblique-c5"/>
      <path d="M 40.578125 39.3125 
Q 47.65625 37.796875 51.625 33 
Q 55.609375 28.21875 55.609375 21.1875 
Q 55.609375 10.40625 48.1875 4.484375 
Q 40.765625 -1.421875 27.09375 -1.421875 
Q 22.515625 -1.421875 17.65625 -0.515625 
Q 12.796875 0.390625 7.625 2.203125 
L 7.625 11.71875 
Q 11.71875 9.328125 16.59375 8.109375 
Q 21.484375 6.890625 26.8125 6.890625 
Q 36.078125 6.890625 40.9375 10.546875 
Q 45.796875 14.203125 45.796875 21.1875 
Q 45.796875 27.640625 41.28125 31.265625 
Q 36.765625 34.90625 28.71875 34.90625 
L 20.21875 34.90625 
L 20.21875 43.015625 
L 29.109375 43.015625 
Q 36.375 43.015625 40.234375 45.921875 
Q 44.09375 48.828125 44.09375 54.296875 
Q 44.09375 59.90625 40.109375 62.90625 
Q 36.140625 65.921875 28.71875 65.921875 
Q 24.65625 65.921875 20.015625 65.03125 
Q 15.375 64.15625 9.8125 62.3125 
L 9.8125 71.09375 
Q 15.4375 72.65625 20.34375 73.4375 
Q 25.25 74.21875 29.59375 74.21875 
Q 40.828125 74.21875 47.359375 69.109375 
Q 53.90625 64.015625 53.90625 55.328125 
Q 53.90625 49.265625 50.4375 45.09375 
Q 46.96875 40.921875 40.578125 39.3125 
z
" id="DejaVuSans-33"/>
      <path d="M 30.421875 75.984375 
L 30.421875 -13.1875 
L 9.71875 -13.1875 
L 9.71875 -6.203125 
L 21.390625 -6.203125 
L 21.390625 69 
L 9.71875 69 
L 9.71875 75.984375 
z
" id="DejaVuSans-5d"/>
     </defs>
     <g transform="translate(184.172 279.363792)scale(0.16 -0.16)">
      <use transform="translate(0 0.171875)" xlink:href="#DejaVuSans-56"/>
      <use transform="translate(68.408203 0.171875)" xlink:href="#DejaVuSans-6f"/>
      <use transform="translate(129.589844 0.171875)" xlink:href="#DejaVuSans-6c"/>
      <use transform="translate(157.373047 0.171875)" xlink:href="#DejaVuSans-75"/>
      <use transform="translate(220.751953 0.171875)" xlink:href="#DejaVuSans-6d"/>
      <use transform="translate(318.164062 0.171875)" xlink:href="#DejaVuSans-65"/>
      <use transform="translate(379.6875 0.171875)" xlink:href="#DejaVuSans-20"/>
      <use transform="translate(411.474609 0.171875)" xlink:href="#DejaVuSans-5b"/>
      <use transform="translate(450.488281 0.171875)" xlink:href="#DejaVuSans-Oblique-c5"/>
      <use transform="translate(528.702318 38.453125)scale(0.7)" xlink:href="#DejaVuSans-33"/>
      <use transform="translate(575.972826 0.171875)" xlink:href="#DejaVuSans-5d"/>
      <use transform="translate(614.986497 0.171875)" xlink:href="#DejaVuSans-20"/>
     </g>
    </g>
   </g>
   <g id="matplotlib.axis_2">
    <g id="ytick_1">
     <g id="line2d_6">
      <defs>
       <path d="M 0 0 
L 3.5 0 
" id="m1da2db17ab" style="stroke:#000000;stroke-width:0.8;"/>
      </defs>
      <g>
       <use style="stroke:#000000;stroke-width:0.8;" x="55.208646" xlink:href="#m1da2db17ab" y="186.997677"/>
      </g>
     </g>
     <g id="text_7">
      <!-- 0.05 -->
      <defs>
       <path d="M 10.6875 12.40625 
L 21 12.40625 
L 21 0 
L 10.6875 0 
z
" id="DejaVuSans-2e"/>
       <path d="M 10.796875 72.90625 
L 49.515625 72.90625 
L 49.515625 64.59375 
L 19.828125 64.59375 
L 19.828125 46.734375 
Q 21.96875 47.46875 24.109375 47.828125 
Q 26.265625 48.1875 28.421875 48.1875 
Q 40.625 48.1875 47.75 41.5 
Q 54.890625 34.8125 54.890625 23.390625 
Q 54.890625 11.625 47.5625 5.09375 
Q 40.234375 -1.421875 26.90625 -1.421875 
Q 22.3125 -1.421875 17.546875 -0.640625 
Q 12.796875 0.140625 7.71875 1.703125 
L 7.71875 11.625 
Q 12.109375 9.234375 16.796875 8.0625 
Q 21.484375 6.890625 26.703125 6.890625 
Q 35.15625 6.890625 40.078125 11.328125 
Q 45.015625 15.765625 45.015625 23.390625 
Q 45.015625 31 40.078125 35.4375 
Q 35.15625 39.890625 26.703125 39.890625 
Q 22.75 39.890625 18.8125 39.015625 
Q 14.890625 38.140625 10.796875 36.28125 
z
" id="DejaVuSans-35"/>
      </defs>
      <g transform="translate(27.216458 191.176818)scale(0.11 -0.11)">
       <use xlink:href="#DejaVuSans-30"/>
       <use x="63.623047" xlink:href="#DejaVuSans-2e"/>
       <use x="95.410156" xlink:href="#DejaVuSans-30"/>
       <use x="159.033203" xlink:href="#DejaVuSans-35"/>
      </g>
     </g>
    </g>
    <g id="ytick_2">
     <g id="line2d_7">
      <g>
       <use style="stroke:#000000;stroke-width:0.8;" x="55.208646" xlink:href="#m1da2db17ab" y="126.57"/>
      </g>
     </g>
     <g id="text_8">
      <!-- 0.10 -->
      <g transform="translate(27.216458 130.749141)scale(0.11 -0.11)">
       <use xlink:href="#DejaVuSans-30"/>
       <use x="63.623047" xlink:href="#DejaVuSans-2e"/>
       <use x="95.410156" xlink:href="#DejaVuSans-31"/>
       <use x="159.033203" xlink:href="#DejaVuSans-30"/>
      </g>
     </g>
    </g>
    <g id="ytick_3">
     <g id="line2d_8">
      <g>
       <use style="stroke:#000000;stroke-width:0.8;" x="55.208646" xlink:href="#m1da2db17ab" y="66.142323"/>
      </g>
     </g>
     <g id="text_9">
      <!-- 0.15 -->
      <g transform="translate(27.216458 70.321463)scale(0.11 -0.11)">
       <use xlink:href="#DejaVuSans-30"/>
       <use x="63.623047" xlink:href="#DejaVuSans-2e"/>
       <use x="95.410156" xlink:href="#DejaVuSans-31"/>
       <use x="159.033203" xlink:href="#DejaVuSans-35"/>
      </g>
     </g>
    </g>
    <g id="ytick_4">
     <g id="line2d_9">
      <g>
       <use style="stroke:#000000;stroke-width:0.8;" x="55.208646" xlink:href="#m1da2db17ab" y="5.714646"/>
      </g>
     </g>
     <g id="text_10">
      <!-- 0.20 -->
      <g transform="translate(27.216458 9.893786)scale(0.11 -0.11)">
       <use xlink:href="#DejaVuSans-30"/>
       <use x="63.623047" xlink:href="#DejaVuSans-2e"/>
       <use x="95.410156" xlink:href="#DejaVuSans-32"/>
       <use x="159.033203" xlink:href="#DejaVuSans-30"/>
      </g>
     </g>
    </g>
    <g id="text_11">
     <!-- Frequency $[cm^{-1}]$ -->
     <defs>
      <path d="M 9.8125 72.90625 
L 51.703125 72.90625 
L 51.703125 64.59375 
L 19.671875 64.59375 
L 19.671875 43.109375 
L 48.578125 43.109375 
L 48.578125 34.8125 
L 19.671875 34.8125 
L 19.671875 0 
L 9.8125 0 
z
" id="DejaVuSans-46"/>
      <path d="M 41.109375 46.296875 
Q 39.59375 47.171875 37.8125 47.578125 
Q 36.03125 48 33.890625 48 
Q 26.265625 48 22.1875 43.046875 
Q 18.109375 38.09375 18.109375 28.8125 
L 18.109375 0 
L 9.078125 0 
L 9.078125 54.6875 
L 18.109375 54.6875 
L 18.109375 46.1875 
Q 20.953125 51.171875 25.484375 53.578125 
Q 30.03125 56 36.53125 56 
Q 37.453125 56 38.578125 55.875 
Q 39.703125 55.765625 41.0625 55.515625 
z
" id="DejaVuSans-72"/>
      <path d="M 14.796875 27.296875 
Q 14.796875 17.390625 18.875 11.75 
Q 22.953125 6.109375 30.078125 6.109375 
Q 37.203125 6.109375 41.296875 11.75 
Q 45.40625 17.390625 45.40625 27.296875 
Q 45.40625 37.203125 41.296875 42.84375 
Q 37.203125 48.484375 30.078125 48.484375 
Q 22.953125 48.484375 18.875 42.84375 
Q 14.796875 37.203125 14.796875 27.296875 
z
M 45.40625 8.203125 
Q 42.578125 3.328125 38.25 0.953125 
Q 33.9375 -1.421875 27.875 -1.421875 
Q 17.96875 -1.421875 11.734375 6.484375 
Q 5.515625 14.40625 5.515625 27.296875 
Q 5.515625 40.1875 11.734375 48.09375 
Q 17.96875 56 27.875 56 
Q 33.9375 56 38.25 53.625 
Q 42.578125 51.265625 45.40625 46.390625 
L 45.40625 54.6875 
L 54.390625 54.6875 
L 54.390625 -20.796875 
L 45.40625 -20.796875 
z
" id="DejaVuSans-71"/>
      <path d="M 54.890625 33.015625 
L 54.890625 0 
L 45.90625 0 
L 45.90625 32.71875 
Q 45.90625 40.484375 42.875 44.328125 
Q 39.84375 48.1875 33.796875 48.1875 
Q 26.515625 48.1875 22.3125 43.546875 
Q 18.109375 38.921875 18.109375 30.90625 
L 18.109375 0 
L 9.078125 0 
L 9.078125 54.6875 
L 18.109375 54.6875 
L 18.109375 46.1875 
Q 21.34375 51.125 25.703125 53.5625 
Q 30.078125 56 35.796875 56 
Q 45.21875 56 50.046875 50.171875 
Q 54.890625 44.34375 54.890625 33.015625 
z
" id="DejaVuSans-6e"/>
      <path d="M 48.78125 52.59375 
L 48.78125 44.1875 
Q 44.96875 46.296875 41.140625 47.34375 
Q 37.3125 48.390625 33.40625 48.390625 
Q 24.65625 48.390625 19.8125 42.84375 
Q 14.984375 37.3125 14.984375 27.296875 
Q 14.984375 17.28125 19.8125 11.734375 
Q 24.65625 6.203125 33.40625 6.203125 
Q 37.3125 6.203125 41.140625 7.25 
Q 44.96875 8.296875 48.78125 10.40625 
L 48.78125 2.09375 
Q 45.015625 0.34375 40.984375 -0.53125 
Q 36.96875 -1.421875 32.421875 -1.421875 
Q 20.0625 -1.421875 12.78125 6.34375 
Q 5.515625 14.109375 5.515625 27.296875 
Q 5.515625 40.671875 12.859375 48.328125 
Q 20.21875 56 33.015625 56 
Q 37.15625 56 41.109375 55.140625 
Q 45.0625 54.296875 48.78125 52.59375 
z
" id="DejaVuSans-63"/>
      <path d="M 32.171875 -5.078125 
Q 28.375 -14.84375 24.75 -17.8125 
Q 21.140625 -20.796875 15.09375 -20.796875 
L 7.90625 -20.796875 
L 7.90625 -13.28125 
L 13.1875 -13.28125 
Q 16.890625 -13.28125 18.9375 -11.515625 
Q 21 -9.765625 23.484375 -3.21875 
L 25.09375 0.875 
L 2.984375 54.6875 
L 12.5 54.6875 
L 29.59375 11.921875 
L 46.6875 54.6875 
L 56.203125 54.6875 
z
" id="DejaVuSans-79"/>
      <path d="M 53.609375 52.59375 
L 51.8125 43.703125 
Q 48.578125 46.046875 44.9375 47.21875 
Q 41.3125 48.390625 37.40625 48.390625 
Q 33.109375 48.390625 29.21875 46.875 
Q 25.34375 45.359375 22.703125 42.578125 
Q 18.5 38.328125 16.203125 32.609375 
Q 13.921875 26.90625 13.921875 20.796875 
Q 13.921875 13.421875 17.609375 9.8125 
Q 21.296875 6.203125 28.8125 6.203125 
Q 32.515625 6.203125 36.6875 7.328125 
Q 40.875 8.453125 45.40625 10.6875 
L 43.703125 1.8125 
Q 39.796875 0.203125 35.671875 -0.609375 
Q 31.546875 -1.421875 27.203125 -1.421875 
Q 16.3125 -1.421875 10.453125 4.015625 
Q 4.59375 9.46875 4.59375 19.578125 
Q 4.59375 28.078125 7.640625 35.234375 
Q 10.6875 42.390625 16.703125 48.09375 
Q 20.796875 52 26.3125 54 
Q 31.84375 56 38.375 56 
Q 42.1875 56 45.9375 55.140625 
Q 49.703125 54.296875 53.609375 52.59375 
z
" id="DejaVuSans-Oblique-63"/>
      <path d="M 89.796875 33.015625 
L 83.40625 0 
L 74.421875 0 
L 80.71875 32.71875 
Q 81.109375 34.8125 81.296875 36.328125 
Q 81.5 37.84375 81.5 38.921875 
Q 81.5 43.3125 79.046875 45.75 
Q 76.609375 48.1875 72.21875 48.1875 
Q 65.671875 48.1875 60.546875 43.28125 
Q 55.421875 38.375 53.90625 30.515625 
L 47.90625 0 
L 38.921875 0 
L 45.3125 32.71875 
Q 45.703125 34.515625 45.890625 36.046875 
Q 46.09375 37.59375 46.09375 38.8125 
Q 46.09375 43.265625 43.65625 45.71875 
Q 41.21875 48.1875 36.921875 48.1875 
Q 30.28125 48.1875 25.140625 43.28125 
Q 20.015625 38.375 18.5 30.515625 
L 12.5 0 
L 3.515625 0 
L 14.203125 54.6875 
L 23.1875 54.6875 
L 21.484375 46.1875 
Q 25.140625 50.984375 30.046875 53.484375 
Q 34.96875 56 40.578125 56 
Q 46.53125 56 50.359375 52.875 
Q 54.203125 49.75 54.984375 44.1875 
Q 59.078125 49.953125 64.46875 52.96875 
Q 69.875 56 75.875 56 
Q 82.90625 56 86.734375 51.953125 
Q 90.578125 47.90625 90.578125 40.484375 
Q 90.578125 38.875 90.375 36.9375 
Q 90.1875 35.015625 89.796875 33.015625 
z
" id="DejaVuSans-Oblique-6d"/>
      <path d="M 10.59375 35.5 
L 73.1875 35.5 
L 73.1875 27.203125 
L 10.59375 27.203125 
z
" id="DejaVuSans-2212"/>
     </defs>
     <g transform="translate(19.856458 198.49)rotate(-90)scale(0.16 -0.16)">
      <use transform="translate(0 0.684375)" xlink:href="#DejaVuSans-46"/>
      <use transform="translate(57.519531 0.684375)" xlink:href="#DejaVuSans-72"/>
      <use transform="translate(98.632812 0.684375)" xlink:href="#DejaVuSans-65"/>
      <use transform="translate(160.15625 0.684375)" xlink:href="#DejaVuSans-71"/>
      <use transform="translate(223.632812 0.684375)" xlink:href="#DejaVuSans-75"/>
      <use transform="translate(287.011719 0.684375)" xlink:href="#DejaVuSans-65"/>
      <use transform="translate(348.535156 0.684375)" xlink:href="#DejaVuSans-6e"/>
      <use transform="translate(411.914062 0.684375)" xlink:href="#DejaVuSans-63"/>
      <use transform="translate(466.894531 0.684375)" xlink:href="#DejaVuSans-79"/>
      <use transform="translate(526.074219 0.684375)" xlink:href="#DejaVuSans-20"/>
      <use transform="translate(557.861328 0.684375)" xlink:href="#DejaVuSans-5b"/>
      <use transform="translate(596.875 0.684375)" xlink:href="#DejaVuSans-Oblique-63"/>
      <use transform="translate(651.855469 0.684375)" xlink:href="#DejaVuSans-Oblique-6d"/>
      <use transform="translate(753.917474 38.965625)scale(0.7)" xlink:href="#DejaVuSans-2212"/>
      <use transform="translate(812.569818 38.965625)scale(0.7)" xlink:href="#DejaVuSans-31"/>
      <use transform="translate(859.840326 0.684375)" xlink:href="#DejaVuSans-5d"/>
     </g>
    </g>
   </g>
   <g id="patch_33">
    <path clip-path="url(#pa25c371fd1)" d="M 55.610253 247.425354 
L 55.610253 247.425354 
L 66.855262 247.425354 
L 66.855262 247.425354 
L 55.610253 247.425354 
" style="fill:#2a93d5;fill-opacity:0.7;"/>
   </g>
   <g id="patch_34">
    <path clip-path="url(#pa25c371fd1)" d="M 67.658477 247.425354 
L 67.658477 247.425354 
L 78.903485 247.425354 
L 78.903485 247.425354 
L 67.658477 247.425354 
" style="fill:#2a93d5;fill-opacity:0.7;"/>
   </g>
   <g id="patch_35">
    <path clip-path="url(#pa25c371fd1)" d="M 79.7067 247.280252 
L 79.7067 247.425354 
L 90.951709 247.425354 
L 90.951709 247.280252 
L 79.7067 247.280252 
" style="fill:#2a93d5;fill-opacity:0.7;"/>
   </g>
   <g id="patch_36">
    <path clip-path="url(#pa25c371fd1)" d="M 91.754924 241.766381 
L 91.754924 247.425354 
L 102.999933 247.425354 
L 102.999933 241.766381 
L 91.754924 241.766381 
" style="fill:#2a93d5;fill-opacity:0.7;"/>
   </g>
   <g id="patch_37">
    <path clip-path="url(#pa25c371fd1)" d="M 103.803148 236.542713 
L 103.803148 247.425354 
L 115.048156 247.425354 
L 115.048156 236.542713 
L 103.803148 236.542713 
" style="fill:#2a93d5;fill-opacity:0.7;"/>
   </g>
   <g id="patch_38">
    <path clip-path="url(#pa25c371fd1)" d="M 115.851371 226.530684 
L 115.851371 247.425354 
L 127.09638 247.425354 
L 127.09638 226.530684 
L 115.851371 226.530684 
" style="fill:#2a93d5;fill-opacity:0.7;"/>
   </g>
   <g id="patch_39">
    <path clip-path="url(#pa25c371fd1)" d="M 127.899595 195.043576 
L 127.899595 247.425354 
L 139.144604 247.425354 
L 139.144604 195.043576 
L 127.899595 195.043576 
" style="fill:#2a93d5;fill-opacity:0.7;"/>
   </g>
   <g id="patch_40">
    <path clip-path="url(#pa25c371fd1)" d="M 139.947818 166.023201 
L 139.947818 247.425354 
L 151.192827 247.425354 
L 151.192827 166.023201 
L 139.947818 166.023201 
" style="fill:#2a93d5;fill-opacity:0.7;"/>
   </g>
   <g id="patch_41">
    <path clip-path="url(#pa25c371fd1)" d="M 151.996042 145.708938 
L 151.996042 247.425354 
L 163.241051 247.425354 
L 163.241051 145.708938 
L 151.996042 145.708938 
" style="fill:#2a93d5;fill-opacity:0.7;"/>
   </g>
   <g id="patch_42">
    <path clip-path="url(#pa25c371fd1)" d="M 164.044266 140.920576 
L 164.044266 247.425354 
L 175.289274 247.425354 
L 175.289274 140.920576 
L 164.044266 140.920576 
" style="fill:#2a93d5;fill-opacity:0.7;"/>
   </g>
   <g id="patch_43">
    <path clip-path="url(#pa25c371fd1)" d="M 176.092489 137.583233 
L 176.092489 247.425354 
L 187.337498 247.425354 
L 187.337498 137.583233 
L 176.092489 137.583233 
" style="fill:#2a93d5;fill-opacity:0.7;"/>
   </g>
   <g id="patch_44">
    <path clip-path="url(#pa25c371fd1)" d="M 188.140713 141.936289 
L 188.140713 247.425354 
L 199.385722 247.425354 
L 199.385722 141.936289 
L 188.140713 141.936289 
" style="fill:#2a93d5;fill-opacity:0.7;"/>
   </g>
   <g id="patch_45">
    <path clip-path="url(#pa25c371fd1)" d="M 200.188937 140.775474 
L 200.188937 247.425354 
L 211.433945 247.425354 
L 211.433945 140.775474 
L 200.188937 140.775474 
" style="fill:#2a93d5;fill-opacity:0.7;"/>
   </g>
   <g id="patch_46">
    <path clip-path="url(#pa25c371fd1)" d="M 212.23716 137.583233 
L 212.23716 247.425354 
L 223.482169 247.425354 
L 223.482169 137.583233 
L 212.23716 137.583233 
" style="fill:#2a93d5;fill-opacity:0.7;"/>
   </g>
   <g id="patch_47">
    <path clip-path="url(#pa25c371fd1)" d="M 224.285384 148.030568 
L 224.285384 247.425354 
L 235.530393 247.425354 
L 235.530393 148.030568 
L 224.285384 148.030568 
" style="fill:#2a93d5;fill-opacity:0.7;"/>
   </g>
   <g id="patch_48">
    <path clip-path="url(#pa25c371fd1)" d="M 236.333607 154.850356 
L 236.333607 247.425354 
L 247.578616 247.425354 
L 247.578616 154.850356 
L 236.333607 154.850356 
" style="fill:#2a93d5;fill-opacity:0.7;"/>
   </g>
   <g id="patch_49">
    <path clip-path="url(#pa25c371fd1)" d="M 248.381831 179.517675 
L 248.381831 247.425354 
L 259.62684 247.425354 
L 259.62684 179.517675 
L 248.381831 179.517675 
" style="fill:#2a93d5;fill-opacity:0.7;"/>
   </g>
   <g id="patch_50">
    <path clip-path="url(#pa25c371fd1)" d="M 260.430055 193.882761 
L 260.430055 247.425354 
L 271.675063 247.425354 
L 271.675063 193.882761 
L 260.430055 193.882761 
" style="fill:#2a93d5;fill-opacity:0.7;"/>
   </g>
   <g id="patch_51">
    <path clip-path="url(#pa25c371fd1)" d="M 272.478278 210.859681 
L 272.478278 247.425354 
L 283.723287 247.425354 
L 283.723287 210.859681 
L 272.478278 210.859681 
" style="fill:#2a93d5;fill-opacity:0.7;"/>
   </g>
   <g id="patch_52">
    <path clip-path="url(#pa25c371fd1)" d="M 284.526502 221.161914 
L 284.526502 247.425354 
L 295.771511 247.425354 
L 295.771511 221.161914 
L 284.526502 221.161914 
" style="fill:#2a93d5;fill-opacity:0.7;"/>
   </g>
   <g id="patch_53">
    <path clip-path="url(#pa25c371fd1)" d="M 296.574726 238.57414 
L 296.574726 247.425354 
L 307.819734 247.425354 
L 307.819734 238.57414 
L 296.574726 238.57414 
" style="fill:#2a93d5;fill-opacity:0.7;"/>
   </g>
   <g id="patch_54">
    <path clip-path="url(#pa25c371fd1)" d="M 308.622949 239.444751 
L 308.622949 247.425354 
L 319.867958 247.425354 
L 319.867958 239.444751 
L 308.622949 239.444751 
" style="fill:#2a93d5;fill-opacity:0.7;"/>
   </g>
   <g id="patch_55">
    <path clip-path="url(#pa25c371fd1)" d="M 320.671173 246.264539 
L 320.671173 247.425354 
L 331.916182 247.425354 
L 331.916182 246.264539 
L 320.671173 246.264539 
" style="fill:#2a93d5;fill-opacity:0.7;"/>
   </g>
   <g id="patch_56">
    <path clip-path="url(#pa25c371fd1)" d="M 332.719396 246.409641 
L 332.719396 247.425354 
L 343.964405 247.425354 
L 343.964405 246.409641 
L 332.719396 246.409641 
" style="fill:#2a93d5;fill-opacity:0.7;"/>
   </g>
   <g id="patch_57">
    <path clip-path="url(#pa25c371fd1)" d="M 344.76762 246.264539 
L 344.76762 247.425354 
L 356.012629 247.425354 
L 356.012629 246.264539 
L 344.76762 246.264539 
" style="fill:#2a93d5;fill-opacity:0.7;"/>
   </g>
   <g id="patch_58">
    <path clip-path="url(#pa25c371fd1)" d="M 356.815844 247.280252 
L 356.815844 247.425354 
L 368.060852 247.425354 
L 368.060852 247.280252 
L 356.815844 247.280252 
" style="fill:#2a93d5;fill-opacity:0.7;"/>
   </g>
   <g id="patch_59">
    <path clip-path="url(#pa25c371fd1)" d="M 368.864067 247.280252 
L 368.864067 247.425354 
L 380.109076 247.425354 
L 380.109076 247.280252 
L 368.864067 247.280252 
" style="fill:#2a93d5;fill-opacity:0.7;"/>
   </g>
   <g id="patch_60">
    <path clip-path="url(#pa25c371fd1)" d="M 380.912291 247.425354 
L 380.912291 247.425354 
L 392.1573 247.425354 
L 392.1573 247.425354 
L 380.912291 247.425354 
" style="fill:#2a93d5;fill-opacity:0.7;"/>
   </g>
   <g id="patch_61">
    <path clip-path="url(#pa25c371fd1)" d="M 392.960515 246.990049 
L 392.960515 247.425354 
L 404.205523 247.425354 
L 404.205523 246.990049 
L 392.960515 246.990049 
" style="fill:#2a93d5;fill-opacity:0.7;"/>
   </g>
   <g id="patch_62">
    <path clip-path="url(#pa25c371fd1)" d="M 405.008738 247.425354 
L 405.008738 247.425354 
L 416.253747 247.425354 
L 416.253747 247.425354 
L 405.008738 247.425354 
" style="fill:#2a93d5;fill-opacity:0.7;"/>
   </g>
   <g id="patch_63">
    <path d="M 55.208646 247.425354 
L 55.208646 5.714646 
" style="fill:none;stroke:#000000;stroke-linecap:square;stroke-linejoin:miter;"/>
   </g>
   <g id="patch_64">
    <path d="M 55.208646 247.425354 
L 416.655354 247.425354 
" style="fill:none;stroke:#000000;stroke-linecap:square;stroke-linejoin:miter;"/>
   </g>
   <g id="patch_65">
    <path clip-path="url(#pa25c371fd1)" d="M 51.594179 247.425354 
L 51.594179 247.425354 
L 62.839187 247.425354 
L 62.839187 247.425354 
L 51.594179 247.425354 
" style="fill:#6d138b;fill-opacity:0.7;"/>
   </g>
   <g id="patch_66">
    <path clip-path="url(#pa25c371fd1)" d="M 63.642402 247.313948 
L 63.642402 247.425354 
L 74.887411 247.425354 
L 74.887411 247.313948 
L 63.642402 247.313948 
" style="fill:#6d138b;fill-opacity:0.7;"/>
   </g>
   <g id="patch_67">
    <path clip-path="url(#pa25c371fd1)" d="M 75.690626 246.868325 
L 75.690626 247.425354 
L 86.935635 247.425354 
L 86.935635 246.868325 
L 75.690626 246.868325 
" style="fill:#6d138b;fill-opacity:0.7;"/>
   </g>
   <g id="patch_68">
    <path clip-path="url(#pa25c371fd1)" d="M 87.738849 245.687422 
L 87.738849 247.425354 
L 98.983858 247.425354 
L 98.983858 245.687422 
L 87.738849 245.687422 
" style="fill:#6d138b;fill-opacity:0.7;"/>
   </g>
   <g id="patch_69">
    <path clip-path="url(#pa25c371fd1)" d="M 99.787073 241.398295 
L 99.787073 247.425354 
L 111.032082 247.425354 
L 111.032082 241.398295 
L 99.787073 241.398295 
" style="fill:#6d138b;fill-opacity:0.7;"/>
   </g>
   <g id="patch_70">
    <path clip-path="url(#pa25c371fd1)" d="M 111.835297 229.61155 
L 111.835297 247.425354 
L 123.080305 247.425354 
L 123.080305 229.61155 
L 111.835297 229.61155 
" style="fill:#6d138b;fill-opacity:0.7;"/>
   </g>
   <g id="patch_71">
    <path clip-path="url(#pa25c371fd1)" d="M 123.88352 207.018432 
L 123.88352 247.425354 
L 135.128529 247.425354 
L 135.128529 207.018432 
L 123.88352 207.018432 
" style="fill:#6d138b;fill-opacity:0.7;"/>
   </g>
   <g id="patch_72">
    <path clip-path="url(#pa25c371fd1)" d="M 135.931744 172.63857 
L 135.931744 247.425354 
L 147.176753 247.425354 
L 147.176753 172.63857 
L 135.931744 172.63857 
" style="fill:#6d138b;fill-opacity:0.7;"/>
   </g>
   <g id="patch_73">
    <path clip-path="url(#pa25c371fd1)" d="M 147.979968 146.157386 
L 147.979968 247.425354 
L 159.224976 247.425354 
L 159.224976 146.157386 
L 147.979968 146.157386 
" style="fill:#6d138b;fill-opacity:0.7;"/>
   </g>
   <g id="patch_74">
    <path clip-path="url(#pa25c371fd1)" d="M 160.028191 118.718112 
L 160.028191 247.425354 
L 171.2732 247.425354 
L 171.2732 118.718112 
L 160.028191 118.718112 
" style="fill:#6d138b;fill-opacity:0.7;"/>
   </g>
   <g id="patch_75">
    <path clip-path="url(#pa25c371fd1)" d="M 172.076415 112.769036 
L 172.076415 247.425354 
L 183.321424 247.425354 
L 183.321424 112.769036 
L 172.076415 112.769036 
" style="fill:#6d138b;fill-opacity:0.7;"/>
   </g>
   <g id="patch_76">
    <path clip-path="url(#pa25c371fd1)" d="M 184.124638 118.896361 
L 184.124638 247.425354 
L 195.369647 247.425354 
L 195.369647 118.896361 
L 184.124638 118.896361 
" style="fill:#6d138b;fill-opacity:0.7;"/>
   </g>
   <g id="patch_77">
    <path clip-path="url(#pa25c371fd1)" d="M 196.172862 130.014671 
L 196.172862 247.425354 
L 207.417871 247.425354 
L 207.417871 130.014671 
L 196.172862 130.014671 
" style="fill:#6d138b;fill-opacity:0.7;"/>
   </g>
   <g id="patch_78">
    <path clip-path="url(#pa25c371fd1)" d="M 208.221086 139.851812 
L 208.221086 247.425354 
L 219.466094 247.425354 
L 219.466094 139.851812 
L 208.221086 139.851812 
" style="fill:#6d138b;fill-opacity:0.7;"/>
   </g>
   <g id="patch_79">
    <path clip-path="url(#pa25c371fd1)" d="M 220.269309 158.891081 
L 220.269309 247.425354 
L 231.514318 247.425354 
L 231.514318 158.891081 
L 220.269309 158.891081 
" style="fill:#6d138b;fill-opacity:0.7;"/>
   </g>
   <g id="patch_80">
    <path clip-path="url(#pa25c371fd1)" d="M 232.317533 173.808332 
L 232.317533 247.425354 
L 243.562542 247.425354 
L 243.562542 173.808332 
L 232.317533 173.808332 
" style="fill:#6d138b;fill-opacity:0.7;"/>
   </g>
   <g id="patch_81">
    <path clip-path="url(#pa25c371fd1)" d="M 244.365757 186.831682 
L 244.365757 247.425354 
L 255.610765 247.425354 
L 255.610765 186.831682 
L 244.365757 186.831682 
" style="fill:#6d138b;fill-opacity:0.7;"/>
   </g>
   <g id="patch_82">
    <path clip-path="url(#pa25c371fd1)" d="M 256.41398 203.286335 
L 256.41398 247.425354 
L 267.658989 247.425354 
L 267.658989 203.286335 
L 256.41398 203.286335 
" style="fill:#6d138b;fill-opacity:0.7;"/>
   </g>
   <g id="patch_83">
    <path clip-path="url(#pa25c371fd1)" d="M 268.462204 218.493241 
L 268.462204 247.425354 
L 279.707212 247.425354 
L 279.707212 218.493241 
L 268.462204 218.493241 
" style="fill:#6d138b;fill-opacity:0.7;"/>
   </g>
   <g id="patch_84">
    <path clip-path="url(#pa25c371fd1)" d="M 280.510427 225.055049 
L 280.510427 247.425354 
L 291.755436 247.425354 
L 291.755436 225.055049 
L 280.510427 225.055049 
" style="fill:#6d138b;fill-opacity:0.7;"/>
   </g>
   <g id="patch_85">
    <path clip-path="url(#pa25c371fd1)" d="M 292.558651 235.282111 
L 292.558651 247.425354 
L 303.80366 247.425354 
L 303.80366 235.282111 
L 292.558651 235.282111 
" style="fill:#6d138b;fill-opacity:0.7;"/>
   </g>
   <g id="patch_86">
    <path clip-path="url(#pa25c371fd1)" d="M 304.606875 239.526676 
L 304.606875 247.425354 
L 315.851883 247.425354 
L 315.851883 239.526676 
L 304.606875 239.526676 
" style="fill:#6d138b;fill-opacity:0.7;"/>
   </g>
   <g id="patch_87">
    <path clip-path="url(#pa25c371fd1)" d="M 316.655098 242.62376 
L 316.655098 247.425354 
L 327.900107 247.425354 
L 327.900107 242.62376 
L 316.655098 242.62376 
" style="fill:#6d138b;fill-opacity:0.7;"/>
   </g>
   <g id="patch_88">
    <path clip-path="url(#pa25c371fd1)" d="M 328.703322 245.442329 
L 328.703322 247.425354 
L 339.948331 247.425354 
L 339.948331 245.442329 
L 328.703322 245.442329 
" style="fill:#6d138b;fill-opacity:0.7;"/>
   </g>
   <g id="patch_89">
    <path clip-path="url(#pa25c371fd1)" d="M 340.751546 245.609438 
L 340.751546 247.425354 
L 351.996554 247.425354 
L 351.996554 245.609438 
L 340.751546 245.609438 
" style="fill:#6d138b;fill-opacity:0.7;"/>
   </g>
   <g id="patch_90">
    <path clip-path="url(#pa25c371fd1)" d="M 352.799769 246.935168 
L 352.799769 247.425354 
L 364.044778 247.425354 
L 364.044778 246.935168 
L 352.799769 246.935168 
" style="fill:#6d138b;fill-opacity:0.7;"/>
   </g>
   <g id="patch_91">
    <path clip-path="url(#pa25c371fd1)" d="M 364.847993 246.801481 
L 364.847993 247.425354 
L 376.093001 247.425354 
L 376.093001 246.801481 
L 364.847993 246.801481 
" style="fill:#6d138b;fill-opacity:0.7;"/>
   </g>
   <g id="patch_92">
    <path clip-path="url(#pa25c371fd1)" d="M 376.896216 247.113418 
L 376.896216 247.425354 
L 388.141225 247.425354 
L 388.141225 247.113418 
L 376.896216 247.113418 
" style="fill:#6d138b;fill-opacity:0.7;"/>
   </g>
   <g id="patch_93">
    <path clip-path="url(#pa25c371fd1)" d="M 388.94444 246.857184 
L 388.94444 247.425354 
L 400.189449 247.425354 
L 400.189449 246.857184 
L 388.94444 246.857184 
" style="fill:#6d138b;fill-opacity:0.7;"/>
   </g>
   <g id="patch_94">
    <path clip-path="url(#pa25c371fd1)" d="M 400.992664 247.280527 
L 400.992664 247.425354 
L 412.237672 247.425354 
L 412.237672 247.280527 
L 400.992664 247.280527 
" style="fill:#6d138b;fill-opacity:0.7;"/>
   </g>
   <g id="legend_1">
    <g id="patch_95">
     <path d="M 362.770354 47.342146 
L 411.055354 47.342146 
Q 412.655354 47.342146 412.655354 45.742146 
L 412.655354 11.314646 
Q 412.655354 9.714646 411.055354 9.714646 
L 362.770354 9.714646 
Q 361.170354 9.714646 361.170354 11.314646 
L 361.170354 45.742146 
Q 361.170354 47.342146 362.770354 47.342146 
z
" style="fill:#ffffff;stroke:#000000;stroke-linejoin:miter;"/>
    </g>
    <g id="patch_96">
     <path d="M 364.370354 18.993396 
L 380.370354 18.993396 
L 380.370354 13.393396 
L 364.370354 13.393396 
z
" style="fill:#3ddad7;fill-opacity:0.7;"/>
    </g>
    <g id="text_12">
     <!-- pop 1 -->
     <defs>
      <path d="M 18.109375 8.203125 
L 18.109375 -20.796875 
L 9.078125 -20.796875 
L 9.078125 54.6875 
L 18.109375 54.6875 
L 18.109375 46.390625 
Q 20.953125 51.265625 25.265625 53.625 
Q 29.59375 56 35.59375 56 
Q 45.5625 56 51.78125 48.09375 
Q 58.015625 40.1875 58.015625 27.296875 
Q 58.015625 14.40625 51.78125 6.484375 
Q 45.5625 -1.421875 35.59375 -1.421875 
Q 29.59375 -1.421875 25.265625 0.953125 
Q 20.953125 3.328125 18.109375 8.203125 
z
M 48.6875 27.296875 
Q 48.6875 37.203125 44.609375 42.84375 
Q 40.53125 48.484375 33.40625 48.484375 
Q 26.265625 48.484375 22.1875 42.84375 
Q 18.109375 37.203125 18.109375 27.296875 
Q 18.109375 17.390625 22.1875 11.75 
Q 26.265625 6.109375 33.40625 6.109375 
Q 40.53125 6.109375 44.609375 11.75 
Q 48.6875 17.390625 48.6875 27.296875 
z
" id="DejaVuSans-70"/>
     </defs>
     <g transform="translate(386.770354 18.993396)scale(0.08 -0.08)">
      <use xlink:href="#DejaVuSans-70"/>
      <use x="63.476562" xlink:href="#DejaVuSans-6f"/>
      <use x="124.658203" xlink:href="#DejaVuSans-70"/>
      <use x="188.134766" xlink:href="#DejaVuSans-20"/>
      <use x="219.921875" xlink:href="#DejaVuSans-31"/>
     </g>
    </g>
    <g id="patch_97">
     <path d="M 364.370354 30.735896 
L 380.370354 30.735896 
L 380.370354 25.135896 
L 364.370354 25.135896 
z
" style="fill:#2a93d5;fill-opacity:0.7;"/>
    </g>
    <g id="text_13">
     <!-- pop 2 -->
     <g transform="translate(386.770354 30.735896)scale(0.08 -0.08)">
      <use xlink:href="#DejaVuSans-70"/>
      <use x="63.476562" xlink:href="#DejaVuSans-6f"/>
      <use x="124.658203" xlink:href="#DejaVuSans-70"/>
      <use x="188.134766" xlink:href="#DejaVuSans-20"/>
      <use x="219.921875" xlink:href="#DejaVuSans-32"/>
     </g>
    </g>
    <g id="patch_98">
     <path d="M 364.370354 42.478396 
L 380.370354 42.478396 
L 380.370354 36.878396 
L 364.370354 36.878396 
z
" style="fill:#6d138b;fill-opacity:0.7;"/>
    </g>
    <g id="text_14">
     <!-- pop 3 -->
     <g transform="translate(386.770354 42.478396)scale(0.08 -0.08)">
      <use xlink:href="#DejaVuSans-70"/>
      <use x="63.476562" xlink:href="#DejaVuSans-6f"/>
      <use x="124.658203" xlink:href="#DejaVuSans-70"/>
      <use x="188.134766" xlink:href="#DejaVuSans-20"/>
      <use x="219.921875" xlink:href="#DejaVuSans-33"/>
     </g>
    </g>
   </g>
  </g>
 </g>
 <defs>
  <clipPath id="pa25c371fd1">
   <rect height="241.710709" width="361.446709" x="55.208646" y="5.714646"/>
  </clipPath>
 </defs>
</svg>
