<?xml version="1.0" encoding="utf-8" standalone="no"?>
<!DOCTYPE svg PUBLIC "-//W3C//DTD SVG 1.1//EN"
  "http://www.w3.org/Graphics/SVG/1.1/DTD/svg11.dtd">
<!-- Created with matplotlib (http://matplotlib.org/) -->
<svg height="288pt" version="1.1" viewBox="0 0 432 288" width="432pt" xmlns="http://www.w3.org/2000/svg" xmlns:xlink="http://www.w3.org/1999/xlink">
 <defs>
  <style type="text/css">
*{stroke-linecap:butt;stroke-linejoin:round;}
  </style>
 </defs>
 <g id="figure_1">
  <g id="patch_1">
   <path d="M 0 288 
L 432 288 
L 432 0 
L 0 0 
z
" style="fill:#ffffff;"/>
  </g>
  <g id="axes_1">
   <g id="patch_2">
    <path d="M 49.934646 247.425354 
L 429.165354 247.425354 
L 429.165354 5.714646 
L 49.934646 5.714646 
z
" style="fill:#ffffff;"/>
   </g>
   <g id="patch_3">
    <path clip-path="url(#p369131c166)" d="M 49.342098 247.425354 
L 49.342098 247.425354 
L 52.897386 247.425354 
L 52.897386 247.425354 
L 49.342098 247.425354 
" style="fill:#d64161;"/>
   </g>
   <g id="patch_4">
    <path clip-path="url(#p369131c166)" d="M 58.822865 247.425354 
L 58.822865 247.425354 
L 62.378153 247.425354 
L 62.378153 247.425354 
L 58.822865 247.425354 
" style="fill:#d64161;"/>
   </g>
   <g id="patch_5">
    <path clip-path="url(#p369131c166)" d="M 68.303633 247.425354 
L 68.303633 247.425354 
L 71.858921 247.425354 
L 71.858921 247.425354 
L 68.303633 247.425354 
" style="fill:#d64161;"/>
   </g>
   <g id="patch_6">
    <path clip-path="url(#p369131c166)" d="M 77.784401 247.425354 
L 77.784401 247.425354 
L 81.339689 247.425354 
L 81.339689 247.425354 
L 77.784401 247.425354 
" style="fill:#d64161;"/>
   </g>
   <g id="patch_7">
    <path clip-path="url(#p369131c166)" d="M 87.265169 247.425354 
L 87.265169 247.425354 
L 90.820456 247.425354 
L 90.820456 247.425354 
L 87.265169 247.425354 
" style="fill:#d64161;"/>
   </g>
   <g id="patch_8">
    <path clip-path="url(#p369131c166)" d="M 96.745936 247.329239 
L 96.745936 247.425354 
L 100.301224 247.425354 
L 100.301224 247.329239 
L 96.745936 247.329239 
" style="fill:#d64161;"/>
   </g>
   <g id="patch_9">
    <path clip-path="url(#p369131c166)" d="M 106.226704 247.161036 
L 106.226704 247.425354 
L 109.781992 247.425354 
L 109.781992 247.161036 
L 106.226704 247.161036 
" style="fill:#d64161;"/>
   </g>
   <g id="patch_10">
    <path clip-path="url(#p369131c166)" d="M 115.707472 246.223907 
L 115.707472 247.425354 
L 119.26276 247.425354 
L 119.26276 246.223907 
L 115.707472 246.223907 
" style="fill:#d64161;"/>
   </g>
   <g id="patch_11">
    <path clip-path="url(#p369131c166)" d="M 125.188239 245.166634 
L 125.188239 247.425354 
L 128.743527 247.425354 
L 128.743527 245.166634 
L 125.188239 245.166634 
" style="fill:#d64161;"/>
   </g>
   <g id="patch_12">
    <path clip-path="url(#p369131c166)" d="M 134.669007 242.739711 
L 134.669007 247.425354 
L 138.224295 247.425354 
L 138.224295 242.739711 
L 134.669007 242.739711 
" style="fill:#d64161;"/>
   </g>
   <g id="patch_13">
    <path clip-path="url(#p369131c166)" d="M 144.149775 237.693634 
L 144.149775 247.425354 
L 147.705063 247.425354 
L 147.705063 237.693634 
L 144.149775 237.693634 
" style="fill:#d64161;"/>
   </g>
   <g id="patch_14">
    <path clip-path="url(#p369131c166)" d="M 153.630543 229.499765 
L 153.630543 247.425354 
L 157.18583 247.425354 
L 157.18583 229.499765 
L 153.630543 229.499765 
" style="fill:#d64161;"/>
   </g>
   <g id="patch_15">
    <path clip-path="url(#p369131c166)" d="M 163.11131 218.037961 
L 163.11131 247.425354 
L 166.666598 247.425354 
L 166.666598 218.037961 
L 163.11131 218.037961 
" style="fill:#d64161;"/>
   </g>
   <g id="patch_16">
    <path clip-path="url(#p369131c166)" d="M 172.592078 206.840475 
L 172.592078 247.425354 
L 176.147366 247.425354 
L 176.147366 206.840475 
L 172.592078 206.840475 
" style="fill:#d64161;"/>
   </g>
   <g id="patch_17">
    <path clip-path="url(#p369131c166)" d="M 182.072846 190.452738 
L 182.072846 247.425354 
L 185.628134 247.425354 
L 185.628134 190.452738 
L 182.072846 190.452738 
" style="fill:#d64161;"/>
   </g>
   <g id="patch_18">
    <path clip-path="url(#p369131c166)" d="M 191.553613 168.322085 
L 191.553613 247.425354 
L 195.108901 247.425354 
L 195.108901 168.322085 
L 191.553613 168.322085 
" style="fill:#d64161;"/>
   </g>
   <g id="patch_19">
    <path clip-path="url(#p369131c166)" d="M 201.034381 154.625589 
L 201.034381 247.425354 
L 204.589669 247.425354 
L 204.589669 154.625589 
L 201.034381 154.625589 
" style="fill:#d64161;"/>
   </g>
   <g id="patch_20">
    <path clip-path="url(#p369131c166)" d="M 210.515149 139.102894 
L 210.515149 247.425354 
L 214.070437 247.425354 
L 214.070437 139.102894 
L 210.515149 139.102894 
" style="fill:#d64161;"/>
   </g>
   <g id="patch_21">
    <path clip-path="url(#p369131c166)" d="M 219.995917 133.600267 
L 219.995917 247.425354 
L 223.551204 247.425354 
L 223.551204 133.600267 
L 219.995917 133.600267 
" style="fill:#d64161;"/>
   </g>
   <g id="patch_22">
    <path clip-path="url(#p369131c166)" d="M 229.476684 126.199354 
L 229.476684 247.425354 
L 233.031972 247.425354 
L 233.031972 126.199354 
L 229.476684 126.199354 
" style="fill:#d64161;"/>
   </g>
   <g id="patch_23">
    <path clip-path="url(#p369131c166)" d="M 238.957452 129.635492 
L 238.957452 247.425354 
L 242.51274 247.425354 
L 242.51274 129.635492 
L 238.957452 129.635492 
" style="fill:#d64161;"/>
   </g>
   <g id="patch_24">
    <path clip-path="url(#p369131c166)" d="M 248.43822 145.975171 
L 248.43822 247.425354 
L 251.993508 247.425354 
L 251.993508 145.975171 
L 248.43822 145.975171 
" style="fill:#d64161;"/>
   </g>
   <g id="patch_25">
    <path clip-path="url(#p369131c166)" d="M 257.918987 145.951142 
L 257.918987 247.425354 
L 261.474275 247.425354 
L 261.474275 145.951142 
L 257.918987 145.951142 
" style="fill:#d64161;"/>
   </g>
   <g id="patch_26">
    <path clip-path="url(#p369131c166)" d="M 267.399755 154.048895 
L 267.399755 247.425354 
L 270.955043 247.425354 
L 270.955043 154.048895 
L 267.399755 154.048895 
" style="fill:#d64161;"/>
   </g>
   <g id="patch_27">
    <path clip-path="url(#p369131c166)" d="M 276.880523 166.928406 
L 276.880523 247.425354 
L 280.435811 247.425354 
L 280.435811 166.928406 
L 276.880523 166.928406 
" style="fill:#d64161;"/>
   </g>
   <g id="patch_28">
    <path clip-path="url(#p369131c166)" d="M 286.361291 169.907995 
L 286.361291 247.425354 
L 289.916578 247.425354 
L 289.916578 169.907995 
L 286.361291 169.907995 
" style="fill:#d64161;"/>
   </g>
   <g id="patch_29">
    <path clip-path="url(#p369131c166)" d="M 295.842058 170.2444 
L 295.842058 247.425354 
L 299.397346 247.425354 
L 299.397346 170.2444 
L 295.842058 170.2444 
" style="fill:#d64161;"/>
   </g>
   <g id="patch_30">
    <path clip-path="url(#p369131c166)" d="M 305.322826 188.746684 
L 305.322826 247.425354 
L 308.878114 247.425354 
L 308.878114 188.746684 
L 305.322826 188.746684 
" style="fill:#d64161;"/>
   </g>
   <g id="patch_31">
    <path clip-path="url(#p369131c166)" d="M 314.803594 192.975777 
L 314.803594 247.425354 
L 318.358882 247.425354 
L 318.358882 192.975777 
L 314.803594 192.975777 
" style="fill:#d64161;"/>
   </g>
   <g id="patch_32">
    <path clip-path="url(#p369131c166)" d="M 324.284361 205.446797 
L 324.284361 247.425354 
L 327.839649 247.425354 
L 327.839649 205.446797 
L 324.284361 205.446797 
" style="fill:#d64161;"/>
   </g>
   <g id="patch_33">
    <path clip-path="url(#p369131c166)" d="M 333.765129 212.054755 
L 333.765129 247.425354 
L 337.320417 247.425354 
L 337.320417 212.054755 
L 333.765129 212.054755 
" style="fill:#d64161;"/>
   </g>
   <g id="patch_34">
    <path clip-path="url(#p369131c166)" d="M 343.245897 220.753231 
L 343.245897 247.425354 
L 346.801185 247.425354 
L 346.801185 220.753231 
L 343.245897 220.753231 
" style="fill:#d64161;"/>
   </g>
   <g id="patch_35">
    <path clip-path="url(#p369131c166)" d="M 352.726665 226.616293 
L 352.726665 247.425354 
L 356.281953 247.425354 
L 356.281953 226.616293 
L 352.726665 226.616293 
" style="fill:#d64161;"/>
   </g>
   <g id="patch_36">
    <path clip-path="url(#p369131c166)" d="M 362.207432 231.686399 
L 362.207432 247.425354 
L 365.76272 247.425354 
L 365.76272 231.686399 
L 362.207432 231.686399 
" style="fill:#d64161;"/>
   </g>
   <g id="patch_37">
    <path clip-path="url(#p369131c166)" d="M 371.6882 238.270328 
L 371.6882 247.425354 
L 375.243488 247.425354 
L 375.243488 238.270328 
L 371.6882 238.270328 
" style="fill:#d64161;"/>
   </g>
   <g id="patch_38">
    <path clip-path="url(#p369131c166)" d="M 381.168968 238.630762 
L 381.168968 247.425354 
L 384.724256 247.425354 
L 384.724256 238.630762 
L 381.168968 238.630762 
" style="fill:#d64161;"/>
   </g>
   <g id="patch_39">
    <path clip-path="url(#p369131c166)" d="M 390.649735 243.508637 
L 390.649735 247.425354 
L 394.205023 247.425354 
L 394.205023 243.508637 
L 390.649735 243.508637 
" style="fill:#d64161;"/>
   </g>
   <g id="patch_40">
    <path clip-path="url(#p369131c166)" d="M 400.130503 243.22029 
L 400.130503 247.425354 
L 403.685791 247.425354 
L 403.685791 243.22029 
L 400.130503 243.22029 
" style="fill:#d64161;"/>
   </g>
   <g id="patch_41">
    <path clip-path="url(#p369131c166)" d="M 409.611271 244.325621 
L 409.611271 247.425354 
L 413.166559 247.425354 
L 413.166559 244.325621 
L 409.611271 244.325621 
" style="fill:#d64161;"/>
   </g>
   <g id="patch_42">
    <path clip-path="url(#p369131c166)" d="M 419.092039 246.560313 
L 419.092039 247.425354 
L 422.647327 247.425354 
L 422.647327 246.560313 
L 419.092039 246.560313 
" style="fill:#d64161;"/>
   </g>
   <g id="matplotlib.axis_1">
    <g id="xtick_1">
     <g id="line2d_1">
      <defs>
       <path d="M 0 0 
L 0 -3.5 
" id="m3852c1e193" style="stroke:#000000;stroke-width:0.8;"/>
      </defs>
      <g>
       <use style="stroke:#000000;stroke-width:0.8;" x="121.040404" xlink:href="#m3852c1e193" y="247.425354"/>
      </g>
     </g>
     <g id="text_1">
      <!-- 1000 -->
      <defs>
       <path d="M 12.40625 8.296875 
L 28.515625 8.296875 
L 28.515625 63.921875 
L 10.984375 60.40625 
L 10.984375 69.390625 
L 28.421875 72.90625 
L 38.28125 72.90625 
L 38.28125 8.296875 
L 54.390625 8.296875 
L 54.390625 0 
L 12.40625 0 
z
" id="DejaVuSans-31"/>
       <path d="M 31.78125 66.40625 
Q 24.171875 66.40625 20.328125 58.90625 
Q 16.5 51.421875 16.5 36.375 
Q 16.5 21.390625 20.328125 13.890625 
Q 24.171875 6.390625 31.78125 6.390625 
Q 39.453125 6.390625 43.28125 13.890625 
Q 47.125 21.390625 47.125 36.375 
Q 47.125 51.421875 43.28125 58.90625 
Q 39.453125 66.40625 31.78125 66.40625 
z
M 31.78125 74.21875 
Q 44.046875 74.21875 50.515625 64.515625 
Q 56.984375 54.828125 56.984375 36.375 
Q 56.984375 17.96875 50.515625 8.265625 
Q 44.046875 -1.421875 31.78125 -1.421875 
Q 19.53125 -1.421875 13.0625 8.265625 
Q 6.59375 17.96875 6.59375 36.375 
Q 6.59375 54.828125 13.0625 64.515625 
Q 19.53125 74.21875 31.78125 74.21875 
z
" id="DejaVuSans-30"/>
      </defs>
      <g transform="translate(107.042904 259.283636)scale(0.11 -0.11)">
       <use xlink:href="#DejaVuSans-31"/>
       <use x="63.623047" xlink:href="#DejaVuSans-30"/>
       <use x="127.246094" xlink:href="#DejaVuSans-30"/>
       <use x="190.869141" xlink:href="#DejaVuSans-30"/>
      </g>
     </g>
    </g>
    <g id="xtick_2">
     <g id="line2d_2">
      <g>
       <use style="stroke:#000000;stroke-width:0.8;" x="180.295202" xlink:href="#m3852c1e193" y="247.425354"/>
      </g>
     </g>
     <g id="text_2">
      <!-- 1250 -->
      <defs>
       <path d="M 19.1875 8.296875 
L 53.609375 8.296875 
L 53.609375 0 
L 7.328125 0 
L 7.328125 8.296875 
Q 12.9375 14.109375 22.625 23.890625 
Q 32.328125 33.6875 34.8125 36.53125 
Q 39.546875 41.84375 41.421875 45.53125 
Q 43.3125 49.21875 43.3125 52.78125 
Q 43.3125 58.59375 39.234375 62.25 
Q 35.15625 65.921875 28.609375 65.921875 
Q 23.96875 65.921875 18.8125 64.3125 
Q 13.671875 62.703125 7.8125 59.421875 
L 7.8125 69.390625 
Q 13.765625 71.78125 18.9375 73 
Q 24.125 74.21875 28.421875 74.21875 
Q 39.75 74.21875 46.484375 68.546875 
Q 53.21875 62.890625 53.21875 53.421875 
Q 53.21875 48.921875 51.53125 44.890625 
Q 49.859375 40.875 45.40625 35.40625 
Q 44.1875 33.984375 37.640625 27.21875 
Q 31.109375 20.453125 19.1875 8.296875 
z
" id="DejaVuSans-32"/>
       <path d="M 10.796875 72.90625 
L 49.515625 72.90625 
L 49.515625 64.59375 
L 19.828125 64.59375 
L 19.828125 46.734375 
Q 21.96875 47.46875 24.109375 47.828125 
Q 26.265625 48.1875 28.421875 48.1875 
Q 40.625 48.1875 47.75 41.5 
Q 54.890625 34.8125 54.890625 23.390625 
Q 54.890625 11.625 47.5625 5.09375 
Q 40.234375 -1.421875 26.90625 -1.421875 
Q 22.3125 -1.421875 17.546875 -0.640625 
Q 12.796875 0.140625 7.71875 1.703125 
L 7.71875 11.625 
Q 12.109375 9.234375 16.796875 8.0625 
Q 21.484375 6.890625 26.703125 6.890625 
Q 35.15625 6.890625 40.078125 11.328125 
Q 45.015625 15.765625 45.015625 23.390625 
Q 45.015625 31 40.078125 35.4375 
Q 35.15625 39.890625 26.703125 39.890625 
Q 22.75 39.890625 18.8125 39.015625 
Q 14.890625 38.140625 10.796875 36.28125 
z
" id="DejaVuSans-35"/>
      </defs>
      <g transform="translate(166.297702 259.283636)scale(0.11 -0.11)">
       <use xlink:href="#DejaVuSans-31"/>
       <use x="63.623047" xlink:href="#DejaVuSans-32"/>
       <use x="127.246094" xlink:href="#DejaVuSans-35"/>
       <use x="190.869141" xlink:href="#DejaVuSans-30"/>
      </g>
     </g>
    </g>
    <g id="xtick_3">
     <g id="line2d_3">
      <g>
       <use style="stroke:#000000;stroke-width:0.8;" x="239.55" xlink:href="#m3852c1e193" y="247.425354"/>
      </g>
     </g>
     <g id="text_3">
      <!-- 1500 -->
      <g transform="translate(225.5525 259.283636)scale(0.11 -0.11)">
       <use xlink:href="#DejaVuSans-31"/>
       <use x="63.623047" xlink:href="#DejaVuSans-35"/>
       <use x="127.246094" xlink:href="#DejaVuSans-30"/>
       <use x="190.869141" xlink:href="#DejaVuSans-30"/>
      </g>
     </g>
    </g>
    <g id="xtick_4">
     <g id="line2d_4">
      <g>
       <use style="stroke:#000000;stroke-width:0.8;" x="298.804798" xlink:href="#m3852c1e193" y="247.425354"/>
      </g>
     </g>
     <g id="text_4">
      <!-- 1750 -->
      <defs>
       <path d="M 8.203125 72.90625 
L 55.078125 72.90625 
L 55.078125 68.703125 
L 28.609375 0 
L 18.3125 0 
L 43.21875 64.59375 
L 8.203125 64.59375 
z
" id="DejaVuSans-37"/>
      </defs>
      <g transform="translate(284.807298 259.283636)scale(0.11 -0.11)">
       <use xlink:href="#DejaVuSans-31"/>
       <use x="63.623047" xlink:href="#DejaVuSans-37"/>
       <use x="127.246094" xlink:href="#DejaVuSans-35"/>
       <use x="190.869141" xlink:href="#DejaVuSans-30"/>
      </g>
     </g>
    </g>
    <g id="xtick_5">
     <g id="line2d_5">
      <g>
       <use style="stroke:#000000;stroke-width:0.8;" x="358.059596" xlink:href="#m3852c1e193" y="247.425354"/>
      </g>
     </g>
     <g id="text_5">
      <!-- 2000 -->
      <g transform="translate(344.062096 259.283636)scale(0.11 -0.11)">
       <use xlink:href="#DejaVuSans-32"/>
       <use x="63.623047" xlink:href="#DejaVuSans-30"/>
       <use x="127.246094" xlink:href="#DejaVuSans-30"/>
       <use x="190.869141" xlink:href="#DejaVuSans-30"/>
      </g>
     </g>
    </g>
    <g id="text_6">
     <!-- Volume $[\AA^3]$  -->
     <defs>
      <path d="M 28.609375 0 
L 0.78125 72.90625 
L 11.078125 72.90625 
L 34.1875 11.53125 
L 57.328125 72.90625 
L 67.578125 72.90625 
L 39.796875 0 
z
" id="DejaVuSans-56"/>
      <path d="M 30.609375 48.390625 
Q 23.390625 48.390625 19.1875 42.75 
Q 14.984375 37.109375 14.984375 27.296875 
Q 14.984375 17.484375 19.15625 11.84375 
Q 23.34375 6.203125 30.609375 6.203125 
Q 37.796875 6.203125 41.984375 11.859375 
Q 46.1875 17.53125 46.1875 27.296875 
Q 46.1875 37.015625 41.984375 42.703125 
Q 37.796875 48.390625 30.609375 48.390625 
z
M 30.609375 56 
Q 42.328125 56 49.015625 48.375 
Q 55.71875 40.765625 55.71875 27.296875 
Q 55.71875 13.875 49.015625 6.21875 
Q 42.328125 -1.421875 30.609375 -1.421875 
Q 18.84375 -1.421875 12.171875 6.21875 
Q 5.515625 13.875 5.515625 27.296875 
Q 5.515625 40.765625 12.171875 48.375 
Q 18.84375 56 30.609375 56 
z
" id="DejaVuSans-6f"/>
      <path d="M 9.421875 75.984375 
L 18.40625 75.984375 
L 18.40625 0 
L 9.421875 0 
z
" id="DejaVuSans-6c"/>
      <path d="M 8.5 21.578125 
L 8.5 54.6875 
L 17.484375 54.6875 
L 17.484375 21.921875 
Q 17.484375 14.15625 20.5 10.265625 
Q 23.53125 6.390625 29.59375 6.390625 
Q 36.859375 6.390625 41.078125 11.03125 
Q 45.3125 15.671875 45.3125 23.6875 
L 45.3125 54.6875 
L 54.296875 54.6875 
L 54.296875 0 
L 45.3125 0 
L 45.3125 8.40625 
Q 42.046875 3.421875 37.71875 1 
Q 33.40625 -1.421875 27.6875 -1.421875 
Q 18.265625 -1.421875 13.375 4.4375 
Q 8.5 10.296875 8.5 21.578125 
z
M 31.109375 56 
z
" id="DejaVuSans-75"/>
      <path d="M 52 44.1875 
Q 55.375 50.25 60.0625 53.125 
Q 64.75 56 71.09375 56 
Q 79.640625 56 84.28125 50.015625 
Q 88.921875 44.046875 88.921875 33.015625 
L 88.921875 0 
L 79.890625 0 
L 79.890625 32.71875 
Q 79.890625 40.578125 77.09375 44.375 
Q 74.3125 48.1875 68.609375 48.1875 
Q 61.625 48.1875 57.5625 43.546875 
Q 53.515625 38.921875 53.515625 30.90625 
L 53.515625 0 
L 44.484375 0 
L 44.484375 32.71875 
Q 44.484375 40.625 41.703125 44.40625 
Q 38.921875 48.1875 33.109375 48.1875 
Q 26.21875 48.1875 22.15625 43.53125 
Q 18.109375 38.875 18.109375 30.90625 
L 18.109375 0 
L 9.078125 0 
L 9.078125 54.6875 
L 18.109375 54.6875 
L 18.109375 46.1875 
Q 21.1875 51.21875 25.484375 53.609375 
Q 29.78125 56 35.6875 56 
Q 41.65625 56 45.828125 52.96875 
Q 50 49.953125 52 44.1875 
z
" id="DejaVuSans-6d"/>
      <path d="M 56.203125 29.59375 
L 56.203125 25.203125 
L 14.890625 25.203125 
Q 15.484375 15.921875 20.484375 11.0625 
Q 25.484375 6.203125 34.421875 6.203125 
Q 39.59375 6.203125 44.453125 7.46875 
Q 49.3125 8.734375 54.109375 11.28125 
L 54.109375 2.78125 
Q 49.265625 0.734375 44.1875 -0.34375 
Q 39.109375 -1.421875 33.890625 -1.421875 
Q 20.796875 -1.421875 13.15625 6.1875 
Q 5.515625 13.8125 5.515625 26.8125 
Q 5.515625 40.234375 12.765625 48.109375 
Q 20.015625 56 32.328125 56 
Q 43.359375 56 49.78125 48.890625 
Q 56.203125 41.796875 56.203125 29.59375 
z
M 47.21875 32.234375 
Q 47.125 39.59375 43.09375 43.984375 
Q 39.0625 48.390625 32.421875 48.390625 
Q 24.90625 48.390625 20.390625 44.140625 
Q 15.875 39.890625 15.1875 32.171875 
z
" id="DejaVuSans-65"/>
      <path id="DejaVuSans-20"/>
      <path d="M 8.59375 75.984375 
L 29.296875 75.984375 
L 29.296875 69 
L 17.578125 69 
L 17.578125 -6.203125 
L 29.296875 -6.203125 
L 29.296875 -13.1875 
L 8.59375 -13.1875 
z
" id="DejaVuSans-5b"/>
      <path d="M 49.8125 79.390625 
Q 49.8125 82.46875 47.625 84.640625 
Q 45.453125 86.8125 42.390625 86.8125 
Q 39.265625 86.8125 37.140625 84.6875 
Q 35.015625 82.5625 35.015625 79.390625 
Q 35.015625 76.3125 37.140625 74.15625 
Q 39.265625 72.015625 42.390625 72.015625 
Q 45.453125 72.015625 47.625 74.15625 
Q 49.8125 76.3125 49.8125 79.390625 
z
M 34.421875 68.703125 
Q 31.78125 70.515625 30.390625 73.265625 
Q 29 76.03125 29 79.390625 
Q 29 84.96875 32.90625 88.890625 
Q 36.8125 92.828125 42.390625 92.828125 
Q 47.953125 92.828125 51.875 88.890625 
Q 55.8125 84.96875 55.8125 79.390625 
Q 55.8125 75.53125 54.03125 72.546875 
Q 52.25 69.578125 48.875 67.828125 
L 61.53125 0 
L 51.21875 0 
L 48.1875 18.703125 
L 15.375 18.703125 
L 5.078125 0 
L -5.328125 0 
z
M 40.375 63.1875 
L 19.921875 26.90625 
L 46.6875 26.90625 
z
" id="DejaVuSans-Oblique-c5"/>
      <path d="M 40.578125 39.3125 
Q 47.65625 37.796875 51.625 33 
Q 55.609375 28.21875 55.609375 21.1875 
Q 55.609375 10.40625 48.1875 4.484375 
Q 40.765625 -1.421875 27.09375 -1.421875 
Q 22.515625 -1.421875 17.65625 -0.515625 
Q 12.796875 0.390625 7.625 2.203125 
L 7.625 11.71875 
Q 11.71875 9.328125 16.59375 8.109375 
Q 21.484375 6.890625 26.8125 6.890625 
Q 36.078125 6.890625 40.9375 10.546875 
Q 45.796875 14.203125 45.796875 21.1875 
Q 45.796875 27.640625 41.28125 31.265625 
Q 36.765625 34.90625 28.71875 34.90625 
L 20.21875 34.90625 
L 20.21875 43.015625 
L 29.109375 43.015625 
Q 36.375 43.015625 40.234375 45.921875 
Q 44.09375 48.828125 44.09375 54.296875 
Q 44.09375 59.90625 40.109375 62.90625 
Q 36.140625 65.921875 28.71875 65.921875 
Q 24.65625 65.921875 20.015625 65.03125 
Q 15.375 64.15625 9.8125 62.3125 
L 9.8125 71.09375 
Q 15.4375 72.65625 20.34375 73.4375 
Q 25.25 74.21875 29.59375 74.21875 
Q 40.828125 74.21875 47.359375 69.109375 
Q 53.90625 64.015625 53.90625 55.328125 
Q 53.90625 49.265625 50.4375 45.09375 
Q 46.96875 40.921875 40.578125 39.3125 
z
" id="DejaVuSans-33"/>
      <path d="M 30.421875 75.984375 
L 30.421875 -13.1875 
L 9.71875 -13.1875 
L 9.71875 -6.203125 
L 21.390625 -6.203125 
L 21.390625 69 
L 9.71875 69 
L 9.71875 75.984375 
z
" id="DejaVuSans-5d"/>
     </defs>
     <g transform="translate(187.79 279.363792)scale(0.16 -0.16)">
      <use transform="translate(0 0.171875)" xlink:href="#DejaVuSans-56"/>
      <use transform="translate(68.408203 0.171875)" xlink:href="#DejaVuSans-6f"/>
      <use transform="translate(129.589844 0.171875)" xlink:href="#DejaVuSans-6c"/>
      <use transform="translate(157.373047 0.171875)" xlink:href="#DejaVuSans-75"/>
      <use transform="translate(220.751953 0.171875)" xlink:href="#DejaVuSans-6d"/>
      <use transform="translate(318.164062 0.171875)" xlink:href="#DejaVuSans-65"/>
      <use transform="translate(379.6875 0.171875)" xlink:href="#DejaVuSans-20"/>
      <use transform="translate(411.474609 0.171875)" xlink:href="#DejaVuSans-5b"/>
      <use transform="translate(450.488281 0.171875)" xlink:href="#DejaVuSans-Oblique-c5"/>
      <use transform="translate(528.702318 38.453125)scale(0.7)" xlink:href="#DejaVuSans-33"/>
      <use transform="translate(575.972826 0.171875)" xlink:href="#DejaVuSans-5d"/>
      <use transform="translate(614.986497 0.171875)" xlink:href="#DejaVuSans-20"/>
     </g>
    </g>
   </g>
   <g id="matplotlib.axis_2">
    <g id="ytick_1">
     <g id="line2d_6">
      <defs>
       <path d="M 0 0 
L 3.5 0 
" id="m6e36c56300" style="stroke:#000000;stroke-width:0.8;"/>
      </defs>
      <g>
       <use style="stroke:#000000;stroke-width:0.8;" x="49.934646" xlink:href="#m6e36c56300" y="166.855118"/>
      </g>
     </g>
     <g id="text_7">
      <!-- 0.05 -->
      <defs>
       <path d="M 10.6875 12.40625 
L 21 12.40625 
L 21 0 
L 10.6875 0 
z
" id="DejaVuSans-2e"/>
      </defs>
      <g transform="translate(21.942458 171.034259)scale(0.11 -0.11)">
       <use xlink:href="#DejaVuSans-30"/>
       <use x="63.623047" xlink:href="#DejaVuSans-2e"/>
       <use x="95.410156" xlink:href="#DejaVuSans-30"/>
       <use x="159.033203" xlink:href="#DejaVuSans-35"/>
      </g>
     </g>
    </g>
    <g id="ytick_2">
     <g id="line2d_7">
      <g>
       <use style="stroke:#000000;stroke-width:0.8;" x="49.934646" xlink:href="#m6e36c56300" y="86.284882"/>
      </g>
     </g>
     <g id="text_8">
      <!-- 0.10 -->
      <g transform="translate(21.942458 90.464023)scale(0.11 -0.11)">
       <use xlink:href="#DejaVuSans-30"/>
       <use x="63.623047" xlink:href="#DejaVuSans-2e"/>
       <use x="95.410156" xlink:href="#DejaVuSans-31"/>
       <use x="159.033203" xlink:href="#DejaVuSans-30"/>
      </g>
     </g>
    </g>
    <g id="ytick_3">
     <g id="line2d_8">
      <g>
       <use style="stroke:#000000;stroke-width:0.8;" x="49.934646" xlink:href="#m6e36c56300" y="5.714646"/>
      </g>
     </g>
     <g id="text_9">
      <!-- 0.15 -->
      <g transform="translate(21.942458 9.893786)scale(0.11 -0.11)">
       <use xlink:href="#DejaVuSans-30"/>
       <use x="63.623047" xlink:href="#DejaVuSans-2e"/>
       <use x="95.410156" xlink:href="#DejaVuSans-31"/>
       <use x="159.033203" xlink:href="#DejaVuSans-35"/>
      </g>
     </g>
    </g>
    <g id="text_10">
     <!-- Density -->
     <defs>
      <path d="M 19.671875 64.796875 
L 19.671875 8.109375 
L 31.59375 8.109375 
Q 46.6875 8.109375 53.6875 14.9375 
Q 60.6875 21.78125 60.6875 36.53125 
Q 60.6875 51.171875 53.6875 57.984375 
Q 46.6875 64.796875 31.59375 64.796875 
z
M 9.8125 72.90625 
L 30.078125 72.90625 
Q 51.265625 72.90625 61.171875 64.09375 
Q 71.09375 55.28125 71.09375 36.53125 
Q 71.09375 17.671875 61.125 8.828125 
Q 51.171875 0 30.078125 0 
L 9.8125 0 
z
" id="DejaVuSans-44"/>
      <path d="M 54.890625 33.015625 
L 54.890625 0 
L 45.90625 0 
L 45.90625 32.71875 
Q 45.90625 40.484375 42.875 44.328125 
Q 39.84375 48.1875 33.796875 48.1875 
Q 26.515625 48.1875 22.3125 43.546875 
Q 18.109375 38.921875 18.109375 30.90625 
L 18.109375 0 
L 9.078125 0 
L 9.078125 54.6875 
L 18.109375 54.6875 
L 18.109375 46.1875 
Q 21.34375 51.125 25.703125 53.5625 
Q 30.078125 56 35.796875 56 
Q 45.21875 56 50.046875 50.171875 
Q 54.890625 44.34375 54.890625 33.015625 
z
" id="DejaVuSans-6e"/>
      <path d="M 44.28125 53.078125 
L 44.28125 44.578125 
Q 40.484375 46.53125 36.375 47.5 
Q 32.28125 48.484375 27.875 48.484375 
Q 21.1875 48.484375 17.84375 46.4375 
Q 14.5 44.390625 14.5 40.28125 
Q 14.5 37.15625 16.890625 35.375 
Q 19.28125 33.59375 26.515625 31.984375 
L 29.59375 31.296875 
Q 39.15625 29.25 43.1875 25.515625 
Q 47.21875 21.78125 47.21875 15.09375 
Q 47.21875 7.46875 41.1875 3.015625 
Q 35.15625 -1.421875 24.609375 -1.421875 
Q 20.21875 -1.421875 15.453125 -0.5625 
Q 10.6875 0.296875 5.421875 2 
L 5.421875 11.28125 
Q 10.40625 8.6875 15.234375 7.390625 
Q 20.0625 6.109375 24.8125 6.109375 
Q 31.15625 6.109375 34.5625 8.28125 
Q 37.984375 10.453125 37.984375 14.40625 
Q 37.984375 18.0625 35.515625 20.015625 
Q 33.0625 21.96875 24.703125 23.78125 
L 21.578125 24.515625 
Q 13.234375 26.265625 9.515625 29.90625 
Q 5.8125 33.546875 5.8125 39.890625 
Q 5.8125 47.609375 11.28125 51.796875 
Q 16.75 56 26.8125 56 
Q 31.78125 56 36.171875 55.265625 
Q 40.578125 54.546875 44.28125 53.078125 
z
" id="DejaVuSans-73"/>
      <path d="M 9.421875 54.6875 
L 18.40625 54.6875 
L 18.40625 0 
L 9.421875 0 
z
M 9.421875 75.984375 
L 18.40625 75.984375 
L 18.40625 64.59375 
L 9.421875 64.59375 
z
" id="DejaVuSans-69"/>
      <path d="M 18.3125 70.21875 
L 18.3125 54.6875 
L 36.8125 54.6875 
L 36.8125 47.703125 
L 18.3125 47.703125 
L 18.3125 18.015625 
Q 18.3125 11.328125 20.140625 9.421875 
Q 21.96875 7.515625 27.59375 7.515625 
L 36.8125 7.515625 
L 36.8125 0 
L 27.59375 0 
Q 17.1875 0 13.234375 3.875 
Q 9.28125 7.765625 9.28125 18.015625 
L 9.28125 47.703125 
L 2.6875 47.703125 
L 2.6875 54.6875 
L 9.28125 54.6875 
L 9.28125 70.21875 
z
" id="DejaVuSans-74"/>
      <path d="M 32.171875 -5.078125 
Q 28.375 -14.84375 24.75 -17.8125 
Q 21.140625 -20.796875 15.09375 -20.796875 
L 7.90625 -20.796875 
L 7.90625 -13.28125 
L 13.1875 -13.28125 
Q 16.890625 -13.28125 18.9375 -11.515625 
Q 21 -9.765625 23.484375 -3.21875 
L 25.09375 0.875 
L 2.984375 54.6875 
L 12.5 54.6875 
L 29.59375 11.921875 
L 46.6875 54.6875 
L 56.203125 54.6875 
z
" id="DejaVuSans-79"/>
     </defs>
     <g transform="translate(14.614958 156.98375)rotate(-90)scale(0.16 -0.16)">
      <use xlink:href="#DejaVuSans-44"/>
      <use x="77.001953" xlink:href="#DejaVuSans-65"/>
      <use x="138.525391" xlink:href="#DejaVuSans-6e"/>
      <use x="201.904297" xlink:href="#DejaVuSans-73"/>
      <use x="254.003906" xlink:href="#DejaVuSans-69"/>
      <use x="281.787109" xlink:href="#DejaVuSans-74"/>
      <use x="320.996094" xlink:href="#DejaVuSans-79"/>
     </g>
    </g>
   </g>
   <g id="patch_43">
    <path clip-path="url(#p369131c166)" d="M 52.897386 247.425354 
L 52.897386 247.425354 
L 56.452673 247.425354 
L 56.452673 247.425354 
L 52.897386 247.425354 
" style="fill:#feb236;"/>
   </g>
   <g id="patch_44">
    <path clip-path="url(#p369131c166)" d="M 62.378153 247.33296 
L 62.378153 247.425354 
L 65.933441 247.425354 
L 65.933441 247.33296 
L 62.378153 247.33296 
" style="fill:#feb236;"/>
   </g>
   <g id="patch_45">
    <path clip-path="url(#p369131c166)" d="M 71.858921 244.330142 
L 71.858921 247.425354 
L 75.414209 247.425354 
L 75.414209 244.330142 
L 71.858921 244.330142 
" style="fill:#feb236;"/>
   </g>
   <g id="patch_46">
    <path clip-path="url(#p369131c166)" d="M 81.339689 241.835492 
L 81.339689 247.425354 
L 84.894977 247.425354 
L 84.894977 241.835492 
L 81.339689 241.835492 
" style="fill:#feb236;"/>
   </g>
   <g id="patch_47">
    <path clip-path="url(#p369131c166)" d="M 90.820456 235.552673 
L 90.820456 247.425354 
L 94.375744 247.425354 
L 94.375744 235.552673 
L 90.820456 235.552673 
" style="fill:#feb236;"/>
   </g>
   <g id="patch_48">
    <path clip-path="url(#p369131c166)" d="M 100.301224 226.49802 
L 100.301224 247.425354 
L 103.856512 247.425354 
L 103.856512 226.49802 
L 100.301224 226.49802 
" style="fill:#feb236;"/>
   </g>
   <g id="patch_49">
    <path clip-path="url(#p369131c166)" d="M 109.781992 200.627585 
L 109.781992 247.425354 
L 113.33728 247.425354 
L 113.33728 200.627585 
L 109.781992 200.627585 
" style="fill:#feb236;"/>
   </g>
   <g id="patch_50">
    <path clip-path="url(#p369131c166)" d="M 119.26276 177.667574 
L 119.26276 247.425354 
L 122.818047 247.425354 
L 122.818047 177.667574 
L 119.26276 177.667574 
" style="fill:#feb236;"/>
   </g>
   <g id="patch_51">
    <path clip-path="url(#p369131c166)" d="M 128.743527 165.887287 
L 128.743527 247.425354 
L 132.298815 247.425354 
L 132.298815 165.887287 
L 128.743527 165.887287 
" style="fill:#feb236;"/>
   </g>
   <g id="patch_52">
    <path clip-path="url(#p369131c166)" d="M 138.224295 118.766137 
L 138.224295 247.425354 
L 141.779583 247.425354 
L 141.779583 118.766137 
L 138.224295 118.766137 
" style="fill:#feb236;"/>
   </g>
   <g id="patch_53">
    <path clip-path="url(#p369131c166)" d="M 147.705063 77.512033 
L 147.705063 247.425354 
L 151.260351 247.425354 
L 151.260351 77.512033 
L 147.705063 77.512033 
" style="fill:#feb236;"/>
   </g>
   <g id="patch_54">
    <path clip-path="url(#p369131c166)" d="M 157.18583 89.199926 
L 157.18583 247.425354 
L 160.741118 247.425354 
L 160.741118 89.199926 
L 157.18583 89.199926 
" style="fill:#feb236;"/>
   </g>
   <g id="patch_55">
    <path clip-path="url(#p369131c166)" d="M 166.666598 71.552593 
L 166.666598 247.425354 
L 170.221886 247.425354 
L 170.221886 71.552593 
L 166.666598 71.552593 
" style="fill:#feb236;"/>
   </g>
   <g id="patch_56">
    <path clip-path="url(#p369131c166)" d="M 176.147366 82.68612 
L 176.147366 247.425354 
L 179.702654 247.425354 
L 179.702654 82.68612 
L 176.147366 82.68612 
" style="fill:#feb236;"/>
   </g>
   <g id="patch_57">
    <path clip-path="url(#p369131c166)" d="M 185.628134 106.662469 
L 185.628134 247.425354 
L 189.183422 247.425354 
L 189.183422 106.662469 
L 185.628134 106.662469 
" style="fill:#feb236;"/>
   </g>
   <g id="patch_58">
    <path clip-path="url(#p369131c166)" d="M 195.108901 110.219654 
L 195.108901 247.425354 
L 198.664189 247.425354 
L 198.664189 110.219654 
L 195.108901 110.219654 
" style="fill:#feb236;"/>
   </g>
   <g id="patch_59">
    <path clip-path="url(#p369131c166)" d="M 204.589669 159.88165 
L 204.589669 247.425354 
L 208.144957 247.425354 
L 208.144957 159.88165 
L 204.589669 159.88165 
" style="fill:#feb236;"/>
   </g>
   <g id="patch_60">
    <path clip-path="url(#p369131c166)" d="M 214.070437 179.607857 
L 214.070437 247.425354 
L 217.625725 247.425354 
L 217.625725 179.607857 
L 214.070437 179.607857 
" style="fill:#feb236;"/>
   </g>
   <g id="patch_61">
    <path clip-path="url(#p369131c166)" d="M 223.551204 196.100259 
L 223.551204 247.425354 
L 227.106492 247.425354 
L 227.106492 196.100259 
L 223.551204 196.100259 
" style="fill:#feb236;"/>
   </g>
   <g id="patch_62">
    <path clip-path="url(#p369131c166)" d="M 233.031972 216.796607 
L 233.031972 247.425354 
L 236.58726 247.425354 
L 236.58726 216.796607 
L 233.031972 216.796607 
" style="fill:#feb236;"/>
   </g>
   <g id="patch_63">
    <path clip-path="url(#p369131c166)" d="M 242.51274 221.092947 
L 242.51274 247.425354 
L 246.068028 247.425354 
L 246.068028 221.092947 
L 242.51274 221.092947 
" style="fill:#feb236;"/>
   </g>
   <g id="patch_64">
    <path clip-path="url(#p369131c166)" d="M 251.993508 234.76732 
L 251.993508 247.425354 
L 255.548796 247.425354 
L 255.548796 234.76732 
L 251.993508 234.76732 
" style="fill:#feb236;"/>
   </g>
   <g id="patch_65">
    <path clip-path="url(#p369131c166)" d="M 261.474275 238.694082 
L 261.474275 247.425354 
L 265.029563 247.425354 
L 265.029563 238.694082 
L 261.474275 238.694082 
" style="fill:#feb236;"/>
   </g>
   <g id="patch_66">
    <path clip-path="url(#p369131c166)" d="M 270.955043 241.789295 
L 270.955043 247.425354 
L 274.510331 247.425354 
L 274.510331 241.789295 
L 270.955043 241.789295 
" style="fill:#feb236;"/>
   </g>
   <g id="patch_67">
    <path clip-path="url(#p369131c166)" d="M 280.435811 246.50141 
L 280.435811 247.425354 
L 283.991099 247.425354 
L 283.991099 246.50141 
L 280.435811 246.50141 
" style="fill:#feb236;"/>
   </g>
   <g id="patch_68">
    <path clip-path="url(#p369131c166)" d="M 289.916578 245.762255 
L 289.916578 247.425354 
L 293.471866 247.425354 
L 293.471866 245.762255 
L 289.916578 245.762255 
" style="fill:#feb236;"/>
   </g>
   <g id="patch_69">
    <path clip-path="url(#p369131c166)" d="M 299.397346 245.207888 
L 299.397346 247.425354 
L 302.952634 247.425354 
L 302.952634 245.207888 
L 299.397346 245.207888 
" style="fill:#feb236;"/>
   </g>
   <g id="patch_70">
    <path clip-path="url(#p369131c166)" d="M 308.878114 246.963382 
L 308.878114 247.425354 
L 312.433402 247.425354 
L 312.433402 246.963382 
L 308.878114 246.963382 
" style="fill:#feb236;"/>
   </g>
   <g id="patch_71">
    <path clip-path="url(#p369131c166)" d="M 318.358882 247.425354 
L 318.358882 247.425354 
L 321.91417 247.425354 
L 321.91417 247.425354 
L 318.358882 247.425354 
" style="fill:#feb236;"/>
   </g>
   <g id="patch_72">
    <path clip-path="url(#p369131c166)" d="M 327.839649 247.425354 
L 327.839649 247.425354 
L 331.394937 247.425354 
L 331.394937 247.425354 
L 327.839649 247.425354 
" style="fill:#feb236;"/>
   </g>
   <g id="patch_73">
    <path clip-path="url(#p369131c166)" d="M 337.320417 247.425354 
L 337.320417 247.425354 
L 340.875705 247.425354 
L 340.875705 247.425354 
L 337.320417 247.425354 
" style="fill:#feb236;"/>
   </g>
   <g id="patch_74">
    <path clip-path="url(#p369131c166)" d="M 346.801185 247.009579 
L 346.801185 247.425354 
L 350.356473 247.425354 
L 350.356473 247.009579 
L 346.801185 247.009579 
" style="fill:#feb236;"/>
   </g>
   <g id="patch_75">
    <path clip-path="url(#p369131c166)" d="M 356.281953 247.425354 
L 356.281953 247.425354 
L 359.83724 247.425354 
L 359.83724 247.425354 
L 356.281953 247.425354 
" style="fill:#feb236;"/>
   </g>
   <g id="patch_76">
    <path clip-path="url(#p369131c166)" d="M 365.76272 247.425354 
L 365.76272 247.425354 
L 369.318008 247.425354 
L 369.318008 247.425354 
L 365.76272 247.425354 
" style="fill:#feb236;"/>
   </g>
   <g id="patch_77">
    <path clip-path="url(#p369131c166)" d="M 375.243488 247.425354 
L 375.243488 247.425354 
L 378.798776 247.425354 
L 378.798776 247.425354 
L 375.243488 247.425354 
" style="fill:#feb236;"/>
   </g>
   <g id="patch_78">
    <path clip-path="url(#p369131c166)" d="M 384.724256 247.425354 
L 384.724256 247.425354 
L 388.279544 247.425354 
L 388.279544 247.425354 
L 384.724256 247.425354 
" style="fill:#feb236;"/>
   </g>
   <g id="patch_79">
    <path clip-path="url(#p369131c166)" d="M 394.205023 247.425354 
L 394.205023 247.425354 
L 397.760311 247.425354 
L 397.760311 247.425354 
L 394.205023 247.425354 
" style="fill:#feb236;"/>
   </g>
   <g id="patch_80">
    <path clip-path="url(#p369131c166)" d="M 403.685791 247.425354 
L 403.685791 247.425354 
L 407.241079 247.425354 
L 407.241079 247.425354 
L 403.685791 247.425354 
" style="fill:#feb236;"/>
   </g>
   <g id="patch_81">
    <path clip-path="url(#p369131c166)" d="M 413.166559 247.425354 
L 413.166559 247.425354 
L 416.721847 247.425354 
L 416.721847 247.425354 
L 413.166559 247.425354 
" style="fill:#feb236;"/>
   </g>
   <g id="patch_82">
    <path clip-path="url(#p369131c166)" d="M 422.647327 247.425354 
L 422.647327 247.425354 
L 426.202614 247.425354 
L 426.202614 247.425354 
L 422.647327 247.425354 
" style="fill:#feb236;"/>
   </g>
   <g id="patch_83">
    <path d="M 49.934646 247.425354 
L 49.934646 5.714646 
" style="fill:none;stroke:#000000;stroke-linecap:square;stroke-linejoin:miter;"/>
   </g>
   <g id="patch_84">
    <path d="M 49.934646 247.425354 
L 429.165354 247.425354 
" style="fill:none;stroke:#000000;stroke-linecap:square;stroke-linejoin:miter;"/>
   </g>
   <g id="patch_85">
    <path clip-path="url(#p369131c166)" d="M 56.452673 247.425354 
L 56.452673 247.425354 
L 60.007961 247.425354 
L 60.007961 247.425354 
L 56.452673 247.425354 
" style="fill:#6b5b95;"/>
   </g>
   <g id="patch_86">
    <path clip-path="url(#p369131c166)" d="M 65.933441 246.973753 
L 65.933441 247.425354 
L 69.488729 247.425354 
L 69.488729 246.973753 
L 65.933441 246.973753 
" style="fill:#6b5b95;"/>
   </g>
   <g id="patch_87">
    <path clip-path="url(#p369131c166)" d="M 75.414209 246.11571 
L 75.414209 247.425354 
L 78.969497 247.425354 
L 78.969497 246.11571 
L 75.414209 246.11571 
" style="fill:#6b5b95;"/>
   </g>
   <g id="patch_88">
    <path clip-path="url(#p369131c166)" d="M 84.894977 238.709444 
L 84.894977 247.425354 
L 88.450265 247.425354 
L 88.450265 238.709444 
L 84.894977 238.709444 
" style="fill:#6b5b95;"/>
   </g>
   <g id="patch_89">
    <path clip-path="url(#p369131c166)" d="M 94.375744 224.574315 
L 94.375744 247.425354 
L 97.931032 247.425354 
L 97.931032 224.574315 
L 94.375744 224.574315 
" style="fill:#6b5b95;"/>
   </g>
   <g id="patch_90">
    <path clip-path="url(#p369131c166)" d="M 103.856512 203.1684 
L 103.856512 247.425354 
L 107.4118 247.425354 
L 107.4118 203.1684 
L 103.856512 203.1684 
" style="fill:#6b5b95;"/>
   </g>
   <g id="patch_91">
    <path clip-path="url(#p369131c166)" d="M 113.33728 155.705075 
L 113.33728 247.425354 
L 116.892568 247.425354 
L 116.892568 155.705075 
L 113.33728 155.705075 
" style="fill:#6b5b95;"/>
   </g>
   <g id="patch_92">
    <path clip-path="url(#p369131c166)" d="M 122.818047 113.073887 
L 122.818047 247.425354 
L 126.373335 247.425354 
L 126.373335 113.073887 
L 122.818047 113.073887 
" style="fill:#6b5b95;"/>
   </g>
   <g id="patch_93">
    <path clip-path="url(#p369131c166)" d="M 132.298815 56.39789 
L 132.298815 247.425354 
L 135.854103 247.425354 
L 135.854103 56.39789 
L 132.298815 56.39789 
" style="fill:#6b5b95;"/>
   </g>
   <g id="patch_94">
    <path clip-path="url(#p369131c166)" d="M 141.779583 43.933687 
L 141.779583 247.425354 
L 145.334871 247.425354 
L 145.334871 43.933687 
L 141.779583 43.933687 
" style="fill:#6b5b95;"/>
   </g>
   <g id="patch_95">
    <path clip-path="url(#p369131c166)" d="M 151.260351 42.307921 
L 151.260351 247.425354 
L 154.815639 247.425354 
L 154.815639 42.307921 
L 151.260351 42.307921 
" style="fill:#6b5b95;"/>
   </g>
   <g id="patch_96">
    <path clip-path="url(#p369131c166)" d="M 160.741118 55.810808 
L 160.741118 247.425354 
L 164.296406 247.425354 
L 164.296406 55.810808 
L 160.741118 55.810808 
" style="fill:#6b5b95;"/>
   </g>
   <g id="patch_97">
    <path clip-path="url(#p369131c166)" d="M 170.221886 88.822883 
L 170.221886 247.425354 
L 173.777174 247.425354 
L 173.777174 88.822883 
L 170.221886 88.822883 
" style="fill:#6b5b95;"/>
   </g>
   <g id="patch_98">
    <path clip-path="url(#p369131c166)" d="M 179.702654 131.995993 
L 179.702654 247.425354 
L 183.257942 247.425354 
L 183.257942 131.995993 
L 179.702654 131.995993 
" style="fill:#6b5b95;"/>
   </g>
   <g id="patch_99">
    <path clip-path="url(#p369131c166)" d="M 189.183422 152.363224 
L 189.183422 247.425354 
L 192.738709 247.425354 
L 192.738709 152.363224 
L 189.183422 152.363224 
" style="fill:#6b5b95;"/>
   </g>
   <g id="patch_100">
    <path clip-path="url(#p369131c166)" d="M 198.664189 192.059002 
L 198.664189 247.425354 
L 202.219477 247.425354 
L 202.219477 192.059002 
L 198.664189 192.059002 
" style="fill:#6b5b95;"/>
   </g>
   <g id="patch_101">
    <path clip-path="url(#p369131c166)" d="M 208.144957 208.181178 
L 208.144957 247.425354 
L 211.700245 247.425354 
L 211.700245 208.181178 
L 208.144957 208.181178 
" style="fill:#6b5b95;"/>
   </g>
   <g id="patch_102">
    <path clip-path="url(#p369131c166)" d="M 217.625725 225.387198 
L 217.625725 247.425354 
L 221.181013 247.425354 
L 221.181013 225.387198 
L 217.625725 225.387198 
" style="fill:#6b5b95;"/>
   </g>
   <g id="patch_103">
    <path clip-path="url(#p369131c166)" d="M 227.106492 233.335385 
L 227.106492 247.425354 
L 230.66178 247.425354 
L 230.66178 233.335385 
L 227.106492 233.335385 
" style="fill:#6b5b95;"/>
   </g>
   <g id="patch_104">
    <path clip-path="url(#p369131c166)" d="M 236.58726 242.141616 
L 236.58726 247.425354 
L 240.142548 247.425354 
L 240.142548 242.141616 
L 236.58726 242.141616 
" style="fill:#6b5b95;"/>
   </g>
   <g id="patch_105">
    <path clip-path="url(#p369131c166)" d="M 246.068028 242.231936 
L 246.068028 247.425354 
L 249.623316 247.425354 
L 249.623316 242.231936 
L 246.068028 242.231936 
" style="fill:#6b5b95;"/>
   </g>
   <g id="patch_106">
    <path clip-path="url(#p369131c166)" d="M 255.548796 245.393147 
L 255.548796 247.425354 
L 259.104083 247.425354 
L 259.104083 245.393147 
L 255.548796 245.393147 
" style="fill:#6b5b95;"/>
   </g>
   <g id="patch_107">
    <path clip-path="url(#p369131c166)" d="M 265.029563 245.077026 
L 265.029563 247.425354 
L 268.584851 247.425354 
L 268.584851 245.077026 
L 265.029563 245.077026 
" style="fill:#6b5b95;"/>
   </g>
   <g id="patch_108">
    <path clip-path="url(#p369131c166)" d="M 274.510331 246.928593 
L 274.510331 247.425354 
L 278.065619 247.425354 
L 278.065619 246.928593 
L 274.510331 246.928593 
" style="fill:#6b5b95;"/>
   </g>
   <g id="patch_109">
    <path clip-path="url(#p369131c166)" d="M 283.991099 246.883432 
L 283.991099 247.425354 
L 287.546387 247.425354 
L 287.546387 246.883432 
L 283.991099 246.883432 
" style="fill:#6b5b95;"/>
   </g>
   <g id="patch_110">
    <path clip-path="url(#p369131c166)" d="M 293.471866 247.199554 
L 293.471866 247.425354 
L 297.027154 247.425354 
L 297.027154 247.199554 
L 293.471866 247.199554 
" style="fill:#6b5b95;"/>
   </g>
   <g id="patch_111">
    <path clip-path="url(#p369131c166)" d="M 302.952634 246.883432 
L 302.952634 247.425354 
L 306.507922 247.425354 
L 306.507922 246.883432 
L 302.952634 246.883432 
" style="fill:#6b5b95;"/>
   </g>
   <g id="patch_112">
    <path clip-path="url(#p369131c166)" d="M 312.433402 247.425354 
L 312.433402 247.425354 
L 315.98869 247.425354 
L 315.98869 247.425354 
L 312.433402 247.425354 
" style="fill:#6b5b95;"/>
   </g>
   <g id="patch_113">
    <path clip-path="url(#p369131c166)" d="M 321.91417 247.425354 
L 321.91417 247.425354 
L 325.469457 247.425354 
L 325.469457 247.425354 
L 321.91417 247.425354 
" style="fill:#6b5b95;"/>
   </g>
   <g id="patch_114">
    <path clip-path="url(#p369131c166)" d="M 331.394937 247.425354 
L 331.394937 247.425354 
L 334.950225 247.425354 
L 334.950225 247.425354 
L 331.394937 247.425354 
" style="fill:#6b5b95;"/>
   </g>
   <g id="patch_115">
    <path clip-path="url(#p369131c166)" d="M 340.875705 247.425354 
L 340.875705 247.425354 
L 344.430993 247.425354 
L 344.430993 247.425354 
L 340.875705 247.425354 
" style="fill:#6b5b95;"/>
   </g>
   <g id="patch_116">
    <path clip-path="url(#p369131c166)" d="M 350.356473 247.425354 
L 350.356473 247.425354 
L 353.911761 247.425354 
L 353.911761 247.425354 
L 350.356473 247.425354 
" style="fill:#6b5b95;"/>
   </g>
   <g id="patch_117">
    <path clip-path="url(#p369131c166)" d="M 359.83724 247.425354 
L 359.83724 247.425354 
L 363.392528 247.425354 
L 363.392528 247.425354 
L 359.83724 247.425354 
" style="fill:#6b5b95;"/>
   </g>
   <g id="patch_118">
    <path clip-path="url(#p369131c166)" d="M 369.318008 247.425354 
L 369.318008 247.425354 
L 372.873296 247.425354 
L 372.873296 247.425354 
L 369.318008 247.425354 
" style="fill:#6b5b95;"/>
   </g>
   <g id="patch_119">
    <path clip-path="url(#p369131c166)" d="M 378.798776 247.425354 
L 378.798776 247.425354 
L 382.354064 247.425354 
L 382.354064 247.425354 
L 378.798776 247.425354 
" style="fill:#6b5b95;"/>
   </g>
   <g id="patch_120">
    <path clip-path="url(#p369131c166)" d="M 388.279544 247.425354 
L 388.279544 247.425354 
L 391.834831 247.425354 
L 391.834831 247.425354 
L 388.279544 247.425354 
" style="fill:#6b5b95;"/>
   </g>
   <g id="patch_121">
    <path clip-path="url(#p369131c166)" d="M 397.760311 247.425354 
L 397.760311 247.425354 
L 401.315599 247.425354 
L 401.315599 247.425354 
L 397.760311 247.425354 
" style="fill:#6b5b95;"/>
   </g>
   <g id="patch_122">
    <path clip-path="url(#p369131c166)" d="M 407.241079 247.425354 
L 407.241079 247.425354 
L 410.796367 247.425354 
L 410.796367 247.425354 
L 407.241079 247.425354 
" style="fill:#6b5b95;"/>
   </g>
   <g id="patch_123">
    <path clip-path="url(#p369131c166)" d="M 416.721847 247.425354 
L 416.721847 247.425354 
L 420.277135 247.425354 
L 420.277135 247.425354 
L 416.721847 247.425354 
" style="fill:#6b5b95;"/>
   </g>
   <g id="patch_124">
    <path clip-path="url(#p369131c166)" d="M 426.202614 247.425354 
L 426.202614 247.425354 
L 429.757902 247.425354 
L 429.757902 247.425354 
L 426.202614 247.425354 
" style="fill:#6b5b95;"/>
   </g>
   <g id="legend_1">
    <g id="patch_125">
     <path d="M 347.779104 47.342146 
L 423.565354 47.342146 
Q 425.165354 47.342146 425.165354 45.742146 
L 425.165354 11.314646 
Q 425.165354 9.714646 423.565354 9.714646 
L 347.779104 9.714646 
Q 346.179104 9.714646 346.179104 11.314646 
L 346.179104 45.742146 
Q 346.179104 47.342146 347.779104 47.342146 
z
" style="fill:#ffffff;stroke:#000000;stroke-linejoin:miter;"/>
    </g>
    <g id="patch_126">
     <path d="M 349.379104 18.993396 
L 365.379104 18.993396 
L 365.379104 13.393396 
L 349.379104 13.393396 
z
" style="fill:#d64161;"/>
    </g>
    <g id="text_11">
     <!-- Conformer 1 -->
     <defs>
      <path d="M 64.40625 67.28125 
L 64.40625 56.890625 
Q 59.421875 61.53125 53.78125 63.8125 
Q 48.140625 66.109375 41.796875 66.109375 
Q 29.296875 66.109375 22.65625 58.46875 
Q 16.015625 50.828125 16.015625 36.375 
Q 16.015625 21.96875 22.65625 14.328125 
Q 29.296875 6.6875 41.796875 6.6875 
Q 48.140625 6.6875 53.78125 8.984375 
Q 59.421875 11.28125 64.40625 15.921875 
L 64.40625 5.609375 
Q 59.234375 2.09375 53.4375 0.328125 
Q 47.65625 -1.421875 41.21875 -1.421875 
Q 24.65625 -1.421875 15.125 8.703125 
Q 5.609375 18.84375 5.609375 36.375 
Q 5.609375 53.953125 15.125 64.078125 
Q 24.65625 74.21875 41.21875 74.21875 
Q 47.75 74.21875 53.53125 72.484375 
Q 59.328125 70.75 64.40625 67.28125 
z
" id="DejaVuSans-43"/>
      <path d="M 37.109375 75.984375 
L 37.109375 68.5 
L 28.515625 68.5 
Q 23.6875 68.5 21.796875 66.546875 
Q 19.921875 64.59375 19.921875 59.515625 
L 19.921875 54.6875 
L 34.71875 54.6875 
L 34.71875 47.703125 
L 19.921875 47.703125 
L 19.921875 0 
L 10.890625 0 
L 10.890625 47.703125 
L 2.296875 47.703125 
L 2.296875 54.6875 
L 10.890625 54.6875 
L 10.890625 58.5 
Q 10.890625 67.625 15.140625 71.796875 
Q 19.390625 75.984375 28.609375 75.984375 
z
" id="DejaVuSans-66"/>
      <path d="M 41.109375 46.296875 
Q 39.59375 47.171875 37.8125 47.578125 
Q 36.03125 48 33.890625 48 
Q 26.265625 48 22.1875 43.046875 
Q 18.109375 38.09375 18.109375 28.8125 
L 18.109375 0 
L 9.078125 0 
L 9.078125 54.6875 
L 18.109375 54.6875 
L 18.109375 46.1875 
Q 20.953125 51.171875 25.484375 53.578125 
Q 30.03125 56 36.53125 56 
Q 37.453125 56 38.578125 55.875 
Q 39.703125 55.765625 41.0625 55.515625 
z
" id="DejaVuSans-72"/>
     </defs>
     <g transform="translate(371.779104 18.993396)scale(0.08 -0.08)">
      <use xlink:href="#DejaVuSans-43"/>
      <use x="69.824219" xlink:href="#DejaVuSans-6f"/>
      <use x="131.005859" xlink:href="#DejaVuSans-6e"/>
      <use x="194.384766" xlink:href="#DejaVuSans-66"/>
      <use x="229.589844" xlink:href="#DejaVuSans-6f"/>
      <use x="290.771484" xlink:href="#DejaVuSans-72"/>
      <use x="331.869141" xlink:href="#DejaVuSans-6d"/>
      <use x="429.28125" xlink:href="#DejaVuSans-65"/>
      <use x="490.804688" xlink:href="#DejaVuSans-72"/>
      <use x="531.917969" xlink:href="#DejaVuSans-20"/>
      <use x="563.705078" xlink:href="#DejaVuSans-31"/>
     </g>
    </g>
    <g id="patch_127">
     <path d="M 349.379104 30.735896 
L 365.379104 30.735896 
L 365.379104 25.135896 
L 349.379104 25.135896 
z
" style="fill:#feb236;"/>
    </g>
    <g id="text_12">
     <!-- Conformer 2 -->
     <g transform="translate(371.779104 30.735896)scale(0.08 -0.08)">
      <use xlink:href="#DejaVuSans-43"/>
      <use x="69.824219" xlink:href="#DejaVuSans-6f"/>
      <use x="131.005859" xlink:href="#DejaVuSans-6e"/>
      <use x="194.384766" xlink:href="#DejaVuSans-66"/>
      <use x="229.589844" xlink:href="#DejaVuSans-6f"/>
      <use x="290.771484" xlink:href="#DejaVuSans-72"/>
      <use x="331.869141" xlink:href="#DejaVuSans-6d"/>
      <use x="429.28125" xlink:href="#DejaVuSans-65"/>
      <use x="490.804688" xlink:href="#DejaVuSans-72"/>
      <use x="531.917969" xlink:href="#DejaVuSans-20"/>
      <use x="563.705078" xlink:href="#DejaVuSans-32"/>
     </g>
    </g>
    <g id="patch_128">
     <path d="M 349.379104 42.478396 
L 365.379104 42.478396 
L 365.379104 36.878396 
L 349.379104 36.878396 
z
" style="fill:#6b5b95;"/>
    </g>
    <g id="text_13">
     <!-- Conformer 3 -->
     <g transform="translate(371.779104 42.478396)scale(0.08 -0.08)">
      <use xlink:href="#DejaVuSans-43"/>
      <use x="69.824219" xlink:href="#DejaVuSans-6f"/>
      <use x="131.005859" xlink:href="#DejaVuSans-6e"/>
      <use x="194.384766" xlink:href="#DejaVuSans-66"/>
      <use x="229.589844" xlink:href="#DejaVuSans-6f"/>
      <use x="290.771484" xlink:href="#DejaVuSans-72"/>
      <use x="331.869141" xlink:href="#DejaVuSans-6d"/>
      <use x="429.28125" xlink:href="#DejaVuSans-65"/>
      <use x="490.804688" xlink:href="#DejaVuSans-72"/>
      <use x="531.917969" xlink:href="#DejaVuSans-20"/>
      <use x="563.705078" xlink:href="#DejaVuSans-33"/>
     </g>
    </g>
   </g>
  </g>
 </g>
 <defs>
  <clipPath id="p369131c166">
   <rect height="241.710709" width="379.230709" x="49.934646" y="5.714646"/>
  </clipPath>
 </defs>
</svg>
