<?xml version="1.0" encoding="utf-8" standalone="no"?>
<!DOCTYPE svg PUBLIC "-//W3C//DTD SVG 1.1//EN"
  "http://www.w3.org/Graphics/SVG/1.1/DTD/svg11.dtd">
<!-- Created with matplotlib (http://matplotlib.org/) -->
<svg height="288pt" version="1.1" viewBox="0 0 432 288" width="432pt" xmlns="http://www.w3.org/2000/svg" xmlns:xlink="http://www.w3.org/1999/xlink">
 <defs>
  <style type="text/css">
*{stroke-linecap:butt;stroke-linejoin:round;}
  </style>
 </defs>
 <g id="figure_1">
  <g id="patch_1">
   <path d="M 0 288 
L 432 288 
L 432 0 
L 0 0 
z
" style="fill:#ffffff;"/>
  </g>
  <g id="axes_1">
   <g id="patch_2">
    <path d="M 55.208646 247.425354 
L 429.165354 247.425354 
L 429.165354 5.714646 
L 55.208646 5.714646 
z
" style="fill:#ffffff;"/>
   </g>
   <g id="patch_3">
    <path clip-path="url(#p761b43c13e)" d="M 60.077874 247.425354 
L 60.077874 247.425354 
L 65.920947 247.425354 
L 65.920947 247.425354 
L 60.077874 247.425354 
" style="fill:#849974;fill-opacity:0.7;"/>
   </g>
   <g id="patch_4">
    <path clip-path="url(#p761b43c13e)" d="M 69.426791 247.425354 
L 69.426791 247.425354 
L 75.269865 247.425354 
L 75.269865 247.425354 
L 69.426791 247.425354 
" style="fill:#849974;fill-opacity:0.7;"/>
   </g>
   <g id="patch_5">
    <path clip-path="url(#p761b43c13e)" d="M 78.775709 247.425354 
L 78.775709 247.425354 
L 84.618783 247.425354 
L 84.618783 247.425354 
L 78.775709 247.425354 
" style="fill:#849974;fill-opacity:0.7;"/>
   </g>
   <g id="patch_6">
    <path clip-path="url(#p761b43c13e)" d="M 88.124627 247.345982 
L 88.124627 247.425354 
L 93.9677 247.425354 
L 93.9677 247.345982 
L 88.124627 247.345982 
" style="fill:#849974;fill-opacity:0.7;"/>
   </g>
   <g id="patch_7">
    <path clip-path="url(#p761b43c13e)" d="M 97.473545 247.398897 
L 97.473545 247.425354 
L 103.316618 247.425354 
L 103.316618 247.398897 
L 97.473545 247.398897 
" style="fill:#849974;fill-opacity:0.7;"/>
   </g>
   <g id="patch_8">
    <path clip-path="url(#p761b43c13e)" d="M 106.822462 247.319524 
L 106.822462 247.425354 
L 112.665536 247.425354 
L 112.665536 247.319524 
L 106.822462 247.319524 
" style="fill:#849974;fill-opacity:0.7;"/>
   </g>
   <g id="patch_9">
    <path clip-path="url(#p761b43c13e)" d="M 116.17138 246.763916 
L 116.17138 247.425354 
L 122.014454 247.425354 
L 122.014454 246.763916 
L 116.17138 246.763916 
" style="fill:#849974;fill-opacity:0.7;"/>
   </g>
   <g id="patch_10">
    <path clip-path="url(#p761b43c13e)" d="M 125.520298 246.763916 
L 125.520298 247.425354 
L 131.363371 247.425354 
L 131.363371 246.763916 
L 125.520298 246.763916 
" style="fill:#849974;fill-opacity:0.7;"/>
   </g>
   <g id="patch_11">
    <path clip-path="url(#p761b43c13e)" d="M 134.869215 246.367053 
L 134.869215 247.425354 
L 140.712289 247.425354 
L 140.712289 246.367053 
L 134.869215 246.367053 
" style="fill:#849974;fill-opacity:0.7;"/>
   </g>
   <g id="patch_12">
    <path clip-path="url(#p761b43c13e)" d="M 144.218133 244.567941 
L 144.218133 247.425354 
L 150.061207 247.425354 
L 150.061207 244.567941 
L 144.218133 244.567941 
" style="fill:#849974;fill-opacity:0.7;"/>
   </g>
   <g id="patch_13">
    <path clip-path="url(#p761b43c13e)" d="M 153.567051 242.213221 
L 153.567051 247.425354 
L 159.410124 247.425354 
L 159.410124 242.213221 
L 153.567051 242.213221 
" style="fill:#849974;fill-opacity:0.7;"/>
   </g>
   <g id="patch_14">
    <path clip-path="url(#p761b43c13e)" d="M 162.915969 236.101531 
L 162.915969 247.425354 
L 168.759042 247.425354 
L 168.759042 236.101531 
L 162.915969 236.101531 
" style="fill:#849974;fill-opacity:0.7;"/>
   </g>
   <g id="patch_15">
    <path clip-path="url(#p761b43c13e)" d="M 172.264886 229.328403 
L 172.264886 247.425354 
L 178.10796 247.425354 
L 178.10796 229.328403 
L 172.264886 229.328403 
" style="fill:#849974;fill-opacity:0.7;"/>
   </g>
   <g id="patch_16">
    <path clip-path="url(#p761b43c13e)" d="M 181.613804 210.913962 
L 181.613804 247.425354 
L 187.456878 247.425354 
L 187.456878 210.913962 
L 181.613804 210.913962 
" style="fill:#849974;fill-opacity:0.7;"/>
   </g>
   <g id="patch_17">
    <path clip-path="url(#p761b43c13e)" d="M 190.962722 203.902716 
L 190.962722 247.425354 
L 196.805795 247.425354 
L 196.805795 203.902716 
L 190.962722 203.902716 
" style="fill:#849974;fill-opacity:0.7;"/>
   </g>
   <g id="patch_18">
    <path clip-path="url(#p761b43c13e)" d="M 200.311639 179.350128 
L 200.311639 247.425354 
L 206.154713 247.425354 
L 206.154713 179.350128 
L 200.311639 179.350128 
" style="fill:#849974;fill-opacity:0.7;"/>
   </g>
   <g id="patch_19">
    <path clip-path="url(#p761b43c13e)" d="M 209.660557 168.18505 
L 209.660557 247.425354 
L 215.503631 247.425354 
L 215.503631 168.18505 
L 209.660557 168.18505 
" style="fill:#849974;fill-opacity:0.7;"/>
   </g>
   <g id="patch_20">
    <path clip-path="url(#p761b43c13e)" d="M 219.009475 156.914142 
L 219.009475 247.425354 
L 224.852548 247.425354 
L 224.852548 156.914142 
L 219.009475 156.914142 
" style="fill:#849974;fill-opacity:0.7;"/>
   </g>
   <g id="patch_21">
    <path clip-path="url(#p761b43c13e)" d="M 228.358393 157.549123 
L 228.358393 247.425354 
L 234.201466 247.425354 
L 234.201466 157.549123 
L 228.358393 157.549123 
" style="fill:#849974;fill-opacity:0.7;"/>
   </g>
   <g id="patch_22">
    <path clip-path="url(#p761b43c13e)" d="M 237.70731 164.904316 
L 237.70731 247.425354 
L 243.550384 247.425354 
L 243.550384 164.904316 
L 237.70731 164.904316 
" style="fill:#849974;fill-opacity:0.7;"/>
   </g>
   <g id="patch_23">
    <path clip-path="url(#p761b43c13e)" d="M 247.056228 167.232579 
L 247.056228 247.425354 
L 252.899302 247.425354 
L 252.899302 167.232579 
L 247.056228 167.232579 
" style="fill:#849974;fill-opacity:0.7;"/>
   </g>
   <g id="patch_24">
    <path clip-path="url(#p761b43c13e)" d="M 256.405146 181.519645 
L 256.405146 247.425354 
L 262.248219 247.425354 
L 262.248219 181.519645 
L 256.405146 181.519645 
" style="fill:#849974;fill-opacity:0.7;"/>
   </g>
   <g id="patch_25">
    <path clip-path="url(#p761b43c13e)" d="M 265.754063 179.799906 
L 265.754063 247.425354 
L 271.597137 247.425354 
L 271.597137 179.799906 
L 265.754063 179.799906 
" style="fill:#849974;fill-opacity:0.7;"/>
   </g>
   <g id="patch_26">
    <path clip-path="url(#p761b43c13e)" d="M 275.102981 185.673478 
L 275.102981 247.425354 
L 280.946055 247.425354 
L 280.946055 185.673478 
L 275.102981 185.673478 
" style="fill:#849974;fill-opacity:0.7;"/>
   </g>
   <g id="patch_27">
    <path clip-path="url(#p761b43c13e)" d="M 284.451899 192.949299 
L 284.451899 247.425354 
L 290.294972 247.425354 
L 290.294972 192.949299 
L 284.451899 192.949299 
" style="fill:#849974;fill-opacity:0.7;"/>
   </g>
   <g id="patch_28">
    <path clip-path="url(#p761b43c13e)" d="M 293.800817 198.71704 
L 293.800817 247.425354 
L 299.64389 247.425354 
L 299.64389 198.71704 
L 293.800817 198.71704 
" style="fill:#849974;fill-opacity:0.7;"/>
   </g>
   <g id="patch_29">
    <path clip-path="url(#p761b43c13e)" d="M 303.149734 189.82731 
L 303.149734 247.425354 
L 308.992808 247.425354 
L 308.992808 189.82731 
L 303.149734 189.82731 
" style="fill:#849974;fill-opacity:0.7;"/>
   </g>
   <g id="patch_30">
    <path clip-path="url(#p761b43c13e)" d="M 312.498652 199.193276 
L 312.498652 247.425354 
L 318.341726 247.425354 
L 318.341726 199.193276 
L 312.498652 199.193276 
" style="fill:#849974;fill-opacity:0.7;"/>
   </g>
   <g id="patch_31">
    <path clip-path="url(#p761b43c13e)" d="M 321.84757 200.145747 
L 321.84757 247.425354 
L 327.690643 247.425354 
L 327.690643 200.145747 
L 321.84757 200.145747 
" style="fill:#849974;fill-opacity:0.7;"/>
   </g>
   <g id="patch_32">
    <path clip-path="url(#p761b43c13e)" d="M 331.196487 211.390198 
L 331.196487 247.425354 
L 337.039561 247.425354 
L 337.039561 211.390198 
L 331.196487 211.390198 
" style="fill:#849974;fill-opacity:0.7;"/>
   </g>
   <g id="patch_33">
    <path clip-path="url(#p761b43c13e)" d="M 340.545405 217.316684 
L 340.545405 247.425354 
L 346.388479 247.425354 
L 346.388479 217.316684 
L 340.545405 217.316684 
" style="fill:#849974;fill-opacity:0.7;"/>
   </g>
   <g id="patch_34">
    <path clip-path="url(#p761b43c13e)" d="M 349.894323 224.2221 
L 349.894323 247.425354 
L 355.737396 247.425354 
L 355.737396 224.2221 
L 349.894323 224.2221 
" style="fill:#849974;fill-opacity:0.7;"/>
   </g>
   <g id="patch_35">
    <path clip-path="url(#p761b43c13e)" d="M 359.243241 229.222573 
L 359.243241 247.425354 
L 365.086314 247.425354 
L 365.086314 229.222573 
L 359.243241 229.222573 
" style="fill:#849974;fill-opacity:0.7;"/>
   </g>
   <g id="patch_36">
    <path clip-path="url(#p761b43c13e)" d="M 368.592158 235.14906 
L 368.592158 247.425354 
L 374.435232 247.425354 
L 374.435232 235.14906 
L 368.592158 235.14906 
" style="fill:#849974;fill-opacity:0.7;"/>
   </g>
   <g id="patch_37">
    <path clip-path="url(#p761b43c13e)" d="M 377.941076 238.403336 
L 377.941076 247.425354 
L 383.78415 247.425354 
L 383.78415 238.403336 
L 377.941076 238.403336 
" style="fill:#849974;fill-opacity:0.7;"/>
   </g>
   <g id="patch_38">
    <path clip-path="url(#p761b43c13e)" d="M 387.289994 240.705142 
L 387.289994 247.425354 
L 393.133067 247.425354 
L 393.133067 240.705142 
L 387.289994 240.705142 
" style="fill:#849974;fill-opacity:0.7;"/>
   </g>
   <g id="patch_39">
    <path clip-path="url(#p761b43c13e)" d="M 396.638911 243.033404 
L 396.638911 247.425354 
L 402.481985 247.425354 
L 402.481985 243.033404 
L 396.638911 243.033404 
" style="fill:#849974;fill-opacity:0.7;"/>
   </g>
   <g id="patch_40">
    <path clip-path="url(#p761b43c13e)" d="M 405.987829 243.456725 
L 405.987829 247.425354 
L 411.830903 247.425354 
L 411.830903 243.456725 
L 405.987829 243.456725 
" style="fill:#849974;fill-opacity:0.7;"/>
   </g>
   <g id="patch_41">
    <path clip-path="url(#p761b43c13e)" d="M 415.336747 245.176464 
L 415.336747 247.425354 
L 421.17982 247.425354 
L 421.17982 245.176464 
L 415.336747 245.176464 
" style="fill:#849974;fill-opacity:0.7;"/>
   </g>
   <g id="patch_42">
    <path clip-path="url(#p761b43c13e)" d="M 424.685665 247.160779 
L 424.685665 247.425354 
L 430.528738 247.425354 
L 430.528738 247.160779 
L 424.685665 247.160779 
" style="fill:#849974;fill-opacity:0.7;"/>
   </g>
   <g id="matplotlib.axis_1">
    <g id="xtick_1">
     <g id="line2d_1">
      <defs>
       <path d="M 0 0 
L 0 -3.5 
" id="mb74545d16d" style="stroke:#000000;stroke-width:0.8;"/>
      </defs>
      <g>
       <use style="stroke:#000000;stroke-width:0.8;" x="125.325529" xlink:href="#mb74545d16d" y="247.425354"/>
      </g>
     </g>
     <g id="text_1">
      <!-- 1000 -->
      <defs>
       <path d="M 12.40625 8.296875 
L 28.515625 8.296875 
L 28.515625 63.921875 
L 10.984375 60.40625 
L 10.984375 69.390625 
L 28.421875 72.90625 
L 38.28125 72.90625 
L 38.28125 8.296875 
L 54.390625 8.296875 
L 54.390625 0 
L 12.40625 0 
z
" id="DejaVuSans-31"/>
       <path d="M 31.78125 66.40625 
Q 24.171875 66.40625 20.328125 58.90625 
Q 16.5 51.421875 16.5 36.375 
Q 16.5 21.390625 20.328125 13.890625 
Q 24.171875 6.390625 31.78125 6.390625 
Q 39.453125 6.390625 43.28125 13.890625 
Q 47.125 21.390625 47.125 36.375 
Q 47.125 51.421875 43.28125 58.90625 
Q 39.453125 66.40625 31.78125 66.40625 
z
M 31.78125 74.21875 
Q 44.046875 74.21875 50.515625 64.515625 
Q 56.984375 54.828125 56.984375 36.375 
Q 56.984375 17.96875 50.515625 8.265625 
Q 44.046875 -1.421875 31.78125 -1.421875 
Q 19.53125 -1.421875 13.0625 8.265625 
Q 6.59375 17.96875 6.59375 36.375 
Q 6.59375 54.828125 13.0625 64.515625 
Q 19.53125 74.21875 31.78125 74.21875 
z
" id="DejaVuSans-30"/>
      </defs>
      <g transform="translate(111.328029 259.283636)scale(0.11 -0.11)">
       <use xlink:href="#DejaVuSans-31"/>
       <use x="63.623047" xlink:href="#DejaVuSans-30"/>
       <use x="127.246094" xlink:href="#DejaVuSans-30"/>
       <use x="190.869141" xlink:href="#DejaVuSans-30"/>
      </g>
     </g>
    </g>
    <g id="xtick_2">
     <g id="line2d_2">
      <g>
       <use style="stroke:#000000;stroke-width:0.8;" x="183.756264" xlink:href="#mb74545d16d" y="247.425354"/>
      </g>
     </g>
     <g id="text_2">
      <!-- 1250 -->
      <defs>
       <path d="M 19.1875 8.296875 
L 53.609375 8.296875 
L 53.609375 0 
L 7.328125 0 
L 7.328125 8.296875 
Q 12.9375 14.109375 22.625 23.890625 
Q 32.328125 33.6875 34.8125 36.53125 
Q 39.546875 41.84375 41.421875 45.53125 
Q 43.3125 49.21875 43.3125 52.78125 
Q 43.3125 58.59375 39.234375 62.25 
Q 35.15625 65.921875 28.609375 65.921875 
Q 23.96875 65.921875 18.8125 64.3125 
Q 13.671875 62.703125 7.8125 59.421875 
L 7.8125 69.390625 
Q 13.765625 71.78125 18.9375 73 
Q 24.125 74.21875 28.421875 74.21875 
Q 39.75 74.21875 46.484375 68.546875 
Q 53.21875 62.890625 53.21875 53.421875 
Q 53.21875 48.921875 51.53125 44.890625 
Q 49.859375 40.875 45.40625 35.40625 
Q 44.1875 33.984375 37.640625 27.21875 
Q 31.109375 20.453125 19.1875 8.296875 
z
" id="DejaVuSans-32"/>
       <path d="M 10.796875 72.90625 
L 49.515625 72.90625 
L 49.515625 64.59375 
L 19.828125 64.59375 
L 19.828125 46.734375 
Q 21.96875 47.46875 24.109375 47.828125 
Q 26.265625 48.1875 28.421875 48.1875 
Q 40.625 48.1875 47.75 41.5 
Q 54.890625 34.8125 54.890625 23.390625 
Q 54.890625 11.625 47.5625 5.09375 
Q 40.234375 -1.421875 26.90625 -1.421875 
Q 22.3125 -1.421875 17.546875 -0.640625 
Q 12.796875 0.140625 7.71875 1.703125 
L 7.71875 11.625 
Q 12.109375 9.234375 16.796875 8.0625 
Q 21.484375 6.890625 26.703125 6.890625 
Q 35.15625 6.890625 40.078125 11.328125 
Q 45.015625 15.765625 45.015625 23.390625 
Q 45.015625 31 40.078125 35.4375 
Q 35.15625 39.890625 26.703125 39.890625 
Q 22.75 39.890625 18.8125 39.015625 
Q 14.890625 38.140625 10.796875 36.28125 
z
" id="DejaVuSans-35"/>
      </defs>
      <g transform="translate(169.758764 259.283636)scale(0.11 -0.11)">
       <use xlink:href="#DejaVuSans-31"/>
       <use x="63.623047" xlink:href="#DejaVuSans-32"/>
       <use x="127.246094" xlink:href="#DejaVuSans-35"/>
       <use x="190.869141" xlink:href="#DejaVuSans-30"/>
      </g>
     </g>
    </g>
    <g id="xtick_3">
     <g id="line2d_3">
      <g>
       <use style="stroke:#000000;stroke-width:0.8;" x="242.187" xlink:href="#mb74545d16d" y="247.425354"/>
      </g>
     </g>
     <g id="text_3">
      <!-- 1500 -->
      <g transform="translate(228.1895 259.283636)scale(0.11 -0.11)">
       <use xlink:href="#DejaVuSans-31"/>
       <use x="63.623047" xlink:href="#DejaVuSans-35"/>
       <use x="127.246094" xlink:href="#DejaVuSans-30"/>
       <use x="190.869141" xlink:href="#DejaVuSans-30"/>
      </g>
     </g>
    </g>
    <g id="xtick_4">
     <g id="line2d_4">
      <g>
       <use style="stroke:#000000;stroke-width:0.8;" x="300.617736" xlink:href="#mb74545d16d" y="247.425354"/>
      </g>
     </g>
     <g id="text_4">
      <!-- 1750 -->
      <defs>
       <path d="M 8.203125 72.90625 
L 55.078125 72.90625 
L 55.078125 68.703125 
L 28.609375 0 
L 18.3125 0 
L 43.21875 64.59375 
L 8.203125 64.59375 
z
" id="DejaVuSans-37"/>
      </defs>
      <g transform="translate(286.620236 259.283636)scale(0.11 -0.11)">
       <use xlink:href="#DejaVuSans-31"/>
       <use x="63.623047" xlink:href="#DejaVuSans-37"/>
       <use x="127.246094" xlink:href="#DejaVuSans-35"/>
       <use x="190.869141" xlink:href="#DejaVuSans-30"/>
      </g>
     </g>
    </g>
    <g id="xtick_5">
     <g id="line2d_5">
      <g>
       <use style="stroke:#000000;stroke-width:0.8;" x="359.048471" xlink:href="#mb74545d16d" y="247.425354"/>
      </g>
     </g>
     <g id="text_5">
      <!-- 2000 -->
      <g transform="translate(345.050971 259.283636)scale(0.11 -0.11)">
       <use xlink:href="#DejaVuSans-32"/>
       <use x="63.623047" xlink:href="#DejaVuSans-30"/>
       <use x="127.246094" xlink:href="#DejaVuSans-30"/>
       <use x="190.869141" xlink:href="#DejaVuSans-30"/>
      </g>
     </g>
    </g>
    <g id="text_6">
     <!-- Volume $[\AA^3]$  -->
     <defs>
      <path d="M 28.609375 0 
L 0.78125 72.90625 
L 11.078125 72.90625 
L 34.1875 11.53125 
L 57.328125 72.90625 
L 67.578125 72.90625 
L 39.796875 0 
z
" id="DejaVuSans-56"/>
      <path d="M 30.609375 48.390625 
Q 23.390625 48.390625 19.1875 42.75 
Q 14.984375 37.109375 14.984375 27.296875 
Q 14.984375 17.484375 19.15625 11.84375 
Q 23.34375 6.203125 30.609375 6.203125 
Q 37.796875 6.203125 41.984375 11.859375 
Q 46.1875 17.53125 46.1875 27.296875 
Q 46.1875 37.015625 41.984375 42.703125 
Q 37.796875 48.390625 30.609375 48.390625 
z
M 30.609375 56 
Q 42.328125 56 49.015625 48.375 
Q 55.71875 40.765625 55.71875 27.296875 
Q 55.71875 13.875 49.015625 6.21875 
Q 42.328125 -1.421875 30.609375 -1.421875 
Q 18.84375 -1.421875 12.171875 6.21875 
Q 5.515625 13.875 5.515625 27.296875 
Q 5.515625 40.765625 12.171875 48.375 
Q 18.84375 56 30.609375 56 
z
" id="DejaVuSans-6f"/>
      <path d="M 9.421875 75.984375 
L 18.40625 75.984375 
L 18.40625 0 
L 9.421875 0 
z
" id="DejaVuSans-6c"/>
      <path d="M 8.5 21.578125 
L 8.5 54.6875 
L 17.484375 54.6875 
L 17.484375 21.921875 
Q 17.484375 14.15625 20.5 10.265625 
Q 23.53125 6.390625 29.59375 6.390625 
Q 36.859375 6.390625 41.078125 11.03125 
Q 45.3125 15.671875 45.3125 23.6875 
L 45.3125 54.6875 
L 54.296875 54.6875 
L 54.296875 0 
L 45.3125 0 
L 45.3125 8.40625 
Q 42.046875 3.421875 37.71875 1 
Q 33.40625 -1.421875 27.6875 -1.421875 
Q 18.265625 -1.421875 13.375 4.4375 
Q 8.5 10.296875 8.5 21.578125 
z
M 31.109375 56 
z
" id="DejaVuSans-75"/>
      <path d="M 52 44.1875 
Q 55.375 50.25 60.0625 53.125 
Q 64.75 56 71.09375 56 
Q 79.640625 56 84.28125 50.015625 
Q 88.921875 44.046875 88.921875 33.015625 
L 88.921875 0 
L 79.890625 0 
L 79.890625 32.71875 
Q 79.890625 40.578125 77.09375 44.375 
Q 74.3125 48.1875 68.609375 48.1875 
Q 61.625 48.1875 57.5625 43.546875 
Q 53.515625 38.921875 53.515625 30.90625 
L 53.515625 0 
L 44.484375 0 
L 44.484375 32.71875 
Q 44.484375 40.625 41.703125 44.40625 
Q 38.921875 48.1875 33.109375 48.1875 
Q 26.21875 48.1875 22.15625 43.53125 
Q 18.109375 38.875 18.109375 30.90625 
L 18.109375 0 
L 9.078125 0 
L 9.078125 54.6875 
L 18.109375 54.6875 
L 18.109375 46.1875 
Q 21.1875 51.21875 25.484375 53.609375 
Q 29.78125 56 35.6875 56 
Q 41.65625 56 45.828125 52.96875 
Q 50 49.953125 52 44.1875 
z
" id="DejaVuSans-6d"/>
      <path d="M 56.203125 29.59375 
L 56.203125 25.203125 
L 14.890625 25.203125 
Q 15.484375 15.921875 20.484375 11.0625 
Q 25.484375 6.203125 34.421875 6.203125 
Q 39.59375 6.203125 44.453125 7.46875 
Q 49.3125 8.734375 54.109375 11.28125 
L 54.109375 2.78125 
Q 49.265625 0.734375 44.1875 -0.34375 
Q 39.109375 -1.421875 33.890625 -1.421875 
Q 20.796875 -1.421875 13.15625 6.1875 
Q 5.515625 13.8125 5.515625 26.8125 
Q 5.515625 40.234375 12.765625 48.109375 
Q 20.015625 56 32.328125 56 
Q 43.359375 56 49.78125 48.890625 
Q 56.203125 41.796875 56.203125 29.59375 
z
M 47.21875 32.234375 
Q 47.125 39.59375 43.09375 43.984375 
Q 39.0625 48.390625 32.421875 48.390625 
Q 24.90625 48.390625 20.390625 44.140625 
Q 15.875 39.890625 15.1875 32.171875 
z
" id="DejaVuSans-65"/>
      <path id="DejaVuSans-20"/>
      <path d="M 8.59375 75.984375 
L 29.296875 75.984375 
L 29.296875 69 
L 17.578125 69 
L 17.578125 -6.203125 
L 29.296875 -6.203125 
L 29.296875 -13.1875 
L 8.59375 -13.1875 
z
" id="DejaVuSans-5b"/>
      <path d="M 49.8125 79.390625 
Q 49.8125 82.46875 47.625 84.640625 
Q 45.453125 86.8125 42.390625 86.8125 
Q 39.265625 86.8125 37.140625 84.6875 
Q 35.015625 82.5625 35.015625 79.390625 
Q 35.015625 76.3125 37.140625 74.15625 
Q 39.265625 72.015625 42.390625 72.015625 
Q 45.453125 72.015625 47.625 74.15625 
Q 49.8125 76.3125 49.8125 79.390625 
z
M 34.421875 68.703125 
Q 31.78125 70.515625 30.390625 73.265625 
Q 29 76.03125 29 79.390625 
Q 29 84.96875 32.90625 88.890625 
Q 36.8125 92.828125 42.390625 92.828125 
Q 47.953125 92.828125 51.875 88.890625 
Q 55.8125 84.96875 55.8125 79.390625 
Q 55.8125 75.53125 54.03125 72.546875 
Q 52.25 69.578125 48.875 67.828125 
L 61.53125 0 
L 51.21875 0 
L 48.1875 18.703125 
L 15.375 18.703125 
L 5.078125 0 
L -5.328125 0 
z
M 40.375 63.1875 
L 19.921875 26.90625 
L 46.6875 26.90625 
z
" id="DejaVuSans-Oblique-c5"/>
      <path d="M 40.578125 39.3125 
Q 47.65625 37.796875 51.625 33 
Q 55.609375 28.21875 55.609375 21.1875 
Q 55.609375 10.40625 48.1875 4.484375 
Q 40.765625 -1.421875 27.09375 -1.421875 
Q 22.515625 -1.421875 17.65625 -0.515625 
Q 12.796875 0.390625 7.625 2.203125 
L 7.625 11.71875 
Q 11.71875 9.328125 16.59375 8.109375 
Q 21.484375 6.890625 26.8125 6.890625 
Q 36.078125 6.890625 40.9375 10.546875 
Q 45.796875 14.203125 45.796875 21.1875 
Q 45.796875 27.640625 41.28125 31.265625 
Q 36.765625 34.90625 28.71875 34.90625 
L 20.21875 34.90625 
L 20.21875 43.015625 
L 29.109375 43.015625 
Q 36.375 43.015625 40.234375 45.921875 
Q 44.09375 48.828125 44.09375 54.296875 
Q 44.09375 59.90625 40.109375 62.90625 
Q 36.140625 65.921875 28.71875 65.921875 
Q 24.65625 65.921875 20.015625 65.03125 
Q 15.375 64.15625 9.8125 62.3125 
L 9.8125 71.09375 
Q 15.4375 72.65625 20.34375 73.4375 
Q 25.25 74.21875 29.59375 74.21875 
Q 40.828125 74.21875 47.359375 69.109375 
Q 53.90625 64.015625 53.90625 55.328125 
Q 53.90625 49.265625 50.4375 45.09375 
Q 46.96875 40.921875 40.578125 39.3125 
z
" id="DejaVuSans-33"/>
      <path d="M 30.421875 75.984375 
L 30.421875 -13.1875 
L 9.71875 -13.1875 
L 9.71875 -6.203125 
L 21.390625 -6.203125 
L 21.390625 69 
L 9.71875 69 
L 9.71875 75.984375 
z
" id="DejaVuSans-5d"/>
     </defs>
     <g transform="translate(190.427 279.363792)scale(0.16 -0.16)">
      <use transform="translate(0 0.171875)" xlink:href="#DejaVuSans-56"/>
      <use transform="translate(68.408203 0.171875)" xlink:href="#DejaVuSans-6f"/>
      <use transform="translate(129.589844 0.171875)" xlink:href="#DejaVuSans-6c"/>
      <use transform="translate(157.373047 0.171875)" xlink:href="#DejaVuSans-75"/>
      <use transform="translate(220.751953 0.171875)" xlink:href="#DejaVuSans-6d"/>
      <use transform="translate(318.164062 0.171875)" xlink:href="#DejaVuSans-65"/>
      <use transform="translate(379.6875 0.171875)" xlink:href="#DejaVuSans-20"/>
      <use transform="translate(411.474609 0.171875)" xlink:href="#DejaVuSans-5b"/>
      <use transform="translate(450.488281 0.171875)" xlink:href="#DejaVuSans-Oblique-c5"/>
      <use transform="translate(528.702318 38.453125)scale(0.7)" xlink:href="#DejaVuSans-33"/>
      <use transform="translate(575.972826 0.171875)" xlink:href="#DejaVuSans-5d"/>
      <use transform="translate(614.986497 0.171875)" xlink:href="#DejaVuSans-20"/>
     </g>
    </g>
   </g>
   <g id="matplotlib.axis_2">
    <g id="ytick_1">
     <g id="line2d_6">
      <defs>
       <path d="M 0 0 
L 3.5 0 
" id="mf6a5f66f78" style="stroke:#000000;stroke-width:0.8;"/>
      </defs>
      <g>
       <use style="stroke:#000000;stroke-width:0.8;" x="55.208646" xlink:href="#mf6a5f66f78" y="186.997677"/>
      </g>
     </g>
     <g id="text_7">
      <!-- 0.05 -->
      <defs>
       <path d="M 10.6875 12.40625 
L 21 12.40625 
L 21 0 
L 10.6875 0 
z
" id="DejaVuSans-2e"/>
      </defs>
      <g transform="translate(27.216458 191.176818)scale(0.11 -0.11)">
       <use xlink:href="#DejaVuSans-30"/>
       <use x="63.623047" xlink:href="#DejaVuSans-2e"/>
       <use x="95.410156" xlink:href="#DejaVuSans-30"/>
       <use x="159.033203" xlink:href="#DejaVuSans-35"/>
      </g>
     </g>
    </g>
    <g id="ytick_2">
     <g id="line2d_7">
      <g>
       <use style="stroke:#000000;stroke-width:0.8;" x="55.208646" xlink:href="#mf6a5f66f78" y="126.57"/>
      </g>
     </g>
     <g id="text_8">
      <!-- 0.10 -->
      <g transform="translate(27.216458 130.749141)scale(0.11 -0.11)">
       <use xlink:href="#DejaVuSans-30"/>
       <use x="63.623047" xlink:href="#DejaVuSans-2e"/>
       <use x="95.410156" xlink:href="#DejaVuSans-31"/>
       <use x="159.033203" xlink:href="#DejaVuSans-30"/>
      </g>
     </g>
    </g>
    <g id="ytick_3">
     <g id="line2d_8">
      <g>
       <use style="stroke:#000000;stroke-width:0.8;" x="55.208646" xlink:href="#mf6a5f66f78" y="66.142323"/>
      </g>
     </g>
     <g id="text_9">
      <!-- 0.15 -->
      <g transform="translate(27.216458 70.321463)scale(0.11 -0.11)">
       <use xlink:href="#DejaVuSans-30"/>
       <use x="63.623047" xlink:href="#DejaVuSans-2e"/>
       <use x="95.410156" xlink:href="#DejaVuSans-31"/>
       <use x="159.033203" xlink:href="#DejaVuSans-35"/>
      </g>
     </g>
    </g>
    <g id="ytick_4">
     <g id="line2d_9">
      <g>
       <use style="stroke:#000000;stroke-width:0.8;" x="55.208646" xlink:href="#mf6a5f66f78" y="5.714646"/>
      </g>
     </g>
     <g id="text_10">
      <!-- 0.20 -->
      <g transform="translate(27.216458 9.893786)scale(0.11 -0.11)">
       <use xlink:href="#DejaVuSans-30"/>
       <use x="63.623047" xlink:href="#DejaVuSans-2e"/>
       <use x="95.410156" xlink:href="#DejaVuSans-32"/>
       <use x="159.033203" xlink:href="#DejaVuSans-30"/>
      </g>
     </g>
    </g>
    <g id="text_11">
     <!-- Frequency $[cm^{-1}]$ -->
     <defs>
      <path d="M 9.8125 72.90625 
L 51.703125 72.90625 
L 51.703125 64.59375 
L 19.671875 64.59375 
L 19.671875 43.109375 
L 48.578125 43.109375 
L 48.578125 34.8125 
L 19.671875 34.8125 
L 19.671875 0 
L 9.8125 0 
z
" id="DejaVuSans-46"/>
      <path d="M 41.109375 46.296875 
Q 39.59375 47.171875 37.8125 47.578125 
Q 36.03125 48 33.890625 48 
Q 26.265625 48 22.1875 43.046875 
Q 18.109375 38.09375 18.109375 28.8125 
L 18.109375 0 
L 9.078125 0 
L 9.078125 54.6875 
L 18.109375 54.6875 
L 18.109375 46.1875 
Q 20.953125 51.171875 25.484375 53.578125 
Q 30.03125 56 36.53125 56 
Q 37.453125 56 38.578125 55.875 
Q 39.703125 55.765625 41.0625 55.515625 
z
" id="DejaVuSans-72"/>
      <path d="M 14.796875 27.296875 
Q 14.796875 17.390625 18.875 11.75 
Q 22.953125 6.109375 30.078125 6.109375 
Q 37.203125 6.109375 41.296875 11.75 
Q 45.40625 17.390625 45.40625 27.296875 
Q 45.40625 37.203125 41.296875 42.84375 
Q 37.203125 48.484375 30.078125 48.484375 
Q 22.953125 48.484375 18.875 42.84375 
Q 14.796875 37.203125 14.796875 27.296875 
z
M 45.40625 8.203125 
Q 42.578125 3.328125 38.25 0.953125 
Q 33.9375 -1.421875 27.875 -1.421875 
Q 17.96875 -1.421875 11.734375 6.484375 
Q 5.515625 14.40625 5.515625 27.296875 
Q 5.515625 40.1875 11.734375 48.09375 
Q 17.96875 56 27.875 56 
Q 33.9375 56 38.25 53.625 
Q 42.578125 51.265625 45.40625 46.390625 
L 45.40625 54.6875 
L 54.390625 54.6875 
L 54.390625 -20.796875 
L 45.40625 -20.796875 
z
" id="DejaVuSans-71"/>
      <path d="M 54.890625 33.015625 
L 54.890625 0 
L 45.90625 0 
L 45.90625 32.71875 
Q 45.90625 40.484375 42.875 44.328125 
Q 39.84375 48.1875 33.796875 48.1875 
Q 26.515625 48.1875 22.3125 43.546875 
Q 18.109375 38.921875 18.109375 30.90625 
L 18.109375 0 
L 9.078125 0 
L 9.078125 54.6875 
L 18.109375 54.6875 
L 18.109375 46.1875 
Q 21.34375 51.125 25.703125 53.5625 
Q 30.078125 56 35.796875 56 
Q 45.21875 56 50.046875 50.171875 
Q 54.890625 44.34375 54.890625 33.015625 
z
" id="DejaVuSans-6e"/>
      <path d="M 48.78125 52.59375 
L 48.78125 44.1875 
Q 44.96875 46.296875 41.140625 47.34375 
Q 37.3125 48.390625 33.40625 48.390625 
Q 24.65625 48.390625 19.8125 42.84375 
Q 14.984375 37.3125 14.984375 27.296875 
Q 14.984375 17.28125 19.8125 11.734375 
Q 24.65625 6.203125 33.40625 6.203125 
Q 37.3125 6.203125 41.140625 7.25 
Q 44.96875 8.296875 48.78125 10.40625 
L 48.78125 2.09375 
Q 45.015625 0.34375 40.984375 -0.53125 
Q 36.96875 -1.421875 32.421875 -1.421875 
Q 20.0625 -1.421875 12.78125 6.34375 
Q 5.515625 14.109375 5.515625 27.296875 
Q 5.515625 40.671875 12.859375 48.328125 
Q 20.21875 56 33.015625 56 
Q 37.15625 56 41.109375 55.140625 
Q 45.0625 54.296875 48.78125 52.59375 
z
" id="DejaVuSans-63"/>
      <path d="M 32.171875 -5.078125 
Q 28.375 -14.84375 24.75 -17.8125 
Q 21.140625 -20.796875 15.09375 -20.796875 
L 7.90625 -20.796875 
L 7.90625 -13.28125 
L 13.1875 -13.28125 
Q 16.890625 -13.28125 18.9375 -11.515625 
Q 21 -9.765625 23.484375 -3.21875 
L 25.09375 0.875 
L 2.984375 54.6875 
L 12.5 54.6875 
L 29.59375 11.921875 
L 46.6875 54.6875 
L 56.203125 54.6875 
z
" id="DejaVuSans-79"/>
      <path d="M 53.609375 52.59375 
L 51.8125 43.703125 
Q 48.578125 46.046875 44.9375 47.21875 
Q 41.3125 48.390625 37.40625 48.390625 
Q 33.109375 48.390625 29.21875 46.875 
Q 25.34375 45.359375 22.703125 42.578125 
Q 18.5 38.328125 16.203125 32.609375 
Q 13.921875 26.90625 13.921875 20.796875 
Q 13.921875 13.421875 17.609375 9.8125 
Q 21.296875 6.203125 28.8125 6.203125 
Q 32.515625 6.203125 36.6875 7.328125 
Q 40.875 8.453125 45.40625 10.6875 
L 43.703125 1.8125 
Q 39.796875 0.203125 35.671875 -0.609375 
Q 31.546875 -1.421875 27.203125 -1.421875 
Q 16.3125 -1.421875 10.453125 4.015625 
Q 4.59375 9.46875 4.59375 19.578125 
Q 4.59375 28.078125 7.640625 35.234375 
Q 10.6875 42.390625 16.703125 48.09375 
Q 20.796875 52 26.3125 54 
Q 31.84375 56 38.375 56 
Q 42.1875 56 45.9375 55.140625 
Q 49.703125 54.296875 53.609375 52.59375 
z
" id="DejaVuSans-Oblique-63"/>
      <path d="M 89.796875 33.015625 
L 83.40625 0 
L 74.421875 0 
L 80.71875 32.71875 
Q 81.109375 34.8125 81.296875 36.328125 
Q 81.5 37.84375 81.5 38.921875 
Q 81.5 43.3125 79.046875 45.75 
Q 76.609375 48.1875 72.21875 48.1875 
Q 65.671875 48.1875 60.546875 43.28125 
Q 55.421875 38.375 53.90625 30.515625 
L 47.90625 0 
L 38.921875 0 
L 45.3125 32.71875 
Q 45.703125 34.515625 45.890625 36.046875 
Q 46.09375 37.59375 46.09375 38.8125 
Q 46.09375 43.265625 43.65625 45.71875 
Q 41.21875 48.1875 36.921875 48.1875 
Q 30.28125 48.1875 25.140625 43.28125 
Q 20.015625 38.375 18.5 30.515625 
L 12.5 0 
L 3.515625 0 
L 14.203125 54.6875 
L 23.1875 54.6875 
L 21.484375 46.1875 
Q 25.140625 50.984375 30.046875 53.484375 
Q 34.96875 56 40.578125 56 
Q 46.53125 56 50.359375 52.875 
Q 54.203125 49.75 54.984375 44.1875 
Q 59.078125 49.953125 64.46875 52.96875 
Q 69.875 56 75.875 56 
Q 82.90625 56 86.734375 51.953125 
Q 90.578125 47.90625 90.578125 40.484375 
Q 90.578125 38.875 90.375 36.9375 
Q 90.1875 35.015625 89.796875 33.015625 
z
" id="DejaVuSans-Oblique-6d"/>
      <path d="M 10.59375 35.5 
L 73.1875 35.5 
L 73.1875 27.203125 
L 10.59375 27.203125 
z
" id="DejaVuSans-2212"/>
     </defs>
     <g transform="translate(19.856458 198.49)rotate(-90)scale(0.16 -0.16)">
      <use transform="translate(0 0.684375)" xlink:href="#DejaVuSans-46"/>
      <use transform="translate(57.519531 0.684375)" xlink:href="#DejaVuSans-72"/>
      <use transform="translate(98.632812 0.684375)" xlink:href="#DejaVuSans-65"/>
      <use transform="translate(160.15625 0.684375)" xlink:href="#DejaVuSans-71"/>
      <use transform="translate(223.632812 0.684375)" xlink:href="#DejaVuSans-75"/>
      <use transform="translate(287.011719 0.684375)" xlink:href="#DejaVuSans-65"/>
      <use transform="translate(348.535156 0.684375)" xlink:href="#DejaVuSans-6e"/>
      <use transform="translate(411.914062 0.684375)" xlink:href="#DejaVuSans-63"/>
      <use transform="translate(466.894531 0.684375)" xlink:href="#DejaVuSans-79"/>
      <use transform="translate(526.074219 0.684375)" xlink:href="#DejaVuSans-20"/>
      <use transform="translate(557.861328 0.684375)" xlink:href="#DejaVuSans-5b"/>
      <use transform="translate(596.875 0.684375)" xlink:href="#DejaVuSans-Oblique-63"/>
      <use transform="translate(651.855469 0.684375)" xlink:href="#DejaVuSans-Oblique-6d"/>
      <use transform="translate(753.917474 38.965625)scale(0.7)" xlink:href="#DejaVuSans-2212"/>
      <use transform="translate(812.569818 38.965625)scale(0.7)" xlink:href="#DejaVuSans-31"/>
      <use transform="translate(859.840326 0.684375)" xlink:href="#DejaVuSans-5d"/>
     </g>
    </g>
   </g>
   <g id="patch_43">
    <path clip-path="url(#p761b43c13e)" d="M 56.961568 247.425354 
L 56.961568 247.425354 
L 62.804641 247.425354 
L 62.804641 247.425354 
L 56.961568 247.425354 
" style="fill:#726a95;fill-opacity:0.7;"/>
   </g>
   <g id="patch_44">
    <path clip-path="url(#p761b43c13e)" d="M 66.310485 247.425354 
L 66.310485 247.425354 
L 72.153559 247.425354 
L 72.153559 247.425354 
L 66.310485 247.425354 
" style="fill:#726a95;fill-opacity:0.7;"/>
   </g>
   <g id="patch_45">
    <path clip-path="url(#p761b43c13e)" d="M 75.659403 247.160398 
L 75.659403 247.425354 
L 81.502477 247.425354 
L 81.502477 247.160398 
L 75.659403 247.160398 
" style="fill:#726a95;fill-opacity:0.7;"/>
   </g>
   <g id="patch_46">
    <path clip-path="url(#p761b43c13e)" d="M 85.008321 245.717859 
L 85.008321 247.425354 
L 90.851394 247.425354 
L 90.851394 245.717859 
L 85.008321 245.717859 
" style="fill:#726a95;fill-opacity:0.7;"/>
   </g>
   <g id="patch_47">
    <path clip-path="url(#p761b43c13e)" d="M 94.357239 245.099628 
L 94.357239 247.425354 
L 100.200312 247.425354 
L 100.200312 245.099628 
L 94.357239 245.099628 
" style="fill:#726a95;fill-opacity:0.7;"/>
   </g>
   <g id="patch_48">
    <path clip-path="url(#p761b43c13e)" d="M 103.706156 241.831835 
L 103.706156 247.425354 
L 109.54923 247.425354 
L 109.54923 241.831835 
L 103.706156 241.831835 
" style="fill:#726a95;fill-opacity:0.7;"/>
   </g>
   <g id="patch_49">
    <path clip-path="url(#p761b43c13e)" d="M 113.055074 231.70462 
L 113.055074 247.425354 
L 118.898148 247.425354 
L 118.898148 231.70462 
L 113.055074 231.70462 
" style="fill:#726a95;fill-opacity:0.7;"/>
   </g>
   <g id="patch_50">
    <path clip-path="url(#p761b43c13e)" d="M 122.403992 223.99145 
L 122.403992 247.425354 
L 128.247065 247.425354 
L 128.247065 223.99145 
L 122.403992 223.99145 
" style="fill:#726a95;fill-opacity:0.7;"/>
   </g>
   <g id="patch_51">
    <path clip-path="url(#p761b43c13e)" d="M 131.752909 208.241276 
L 131.752909 247.425354 
L 137.595983 247.425354 
L 137.595983 208.241276 
L 131.752909 208.241276 
" style="fill:#726a95;fill-opacity:0.7;"/>
   </g>
   <g id="patch_52">
    <path clip-path="url(#p761b43c13e)" d="M 141.101827 198.26126 
L 141.101827 247.425354 
L 146.944901 247.425354 
L 146.944901 198.26126 
L 141.101827 198.26126 
" style="fill:#726a95;fill-opacity:0.7;"/>
   </g>
   <g id="patch_53">
    <path clip-path="url(#p761b43c13e)" d="M 150.450745 175.887181 
L 150.450745 247.425354 
L 156.293818 247.425354 
L 156.293818 175.887181 
L 150.450745 175.887181 
" style="fill:#726a95;fill-opacity:0.7;"/>
   </g>
   <g id="patch_54">
    <path clip-path="url(#p761b43c13e)" d="M 159.799663 161.873942 
L 159.799663 247.425354 
L 165.642736 247.425354 
L 165.642736 161.873942 
L 159.799663 161.873942 
" style="fill:#726a95;fill-opacity:0.7;"/>
   </g>
   <g id="patch_55">
    <path clip-path="url(#p761b43c13e)" d="M 169.14858 153.660299 
L 169.14858 247.425354 
L 174.991654 247.425354 
L 174.991654 153.660299 
L 169.14858 153.660299 
" style="fill:#726a95;fill-opacity:0.7;"/>
   </g>
   <g id="patch_56">
    <path clip-path="url(#p761b43c13e)" d="M 178.497498 141.913908 
L 178.497498 247.425354 
L 184.340572 247.425354 
L 184.340572 141.913908 
L 178.497498 141.913908 
" style="fill:#726a95;fill-opacity:0.7;"/>
   </g>
   <g id="patch_57">
    <path clip-path="url(#p761b43c13e)" d="M 187.846416 135.054486 
L 187.846416 247.425354 
L 193.689489 247.425354 
L 193.689489 135.054486 
L 187.846416 135.054486 
" style="fill:#726a95;fill-opacity:0.7;"/>
   </g>
   <g id="patch_58">
    <path clip-path="url(#p761b43c13e)" d="M 197.195333 141.678391 
L 197.195333 247.425354 
L 203.038407 247.425354 
L 203.038407 141.678391 
L 197.195333 141.678391 
" style="fill:#726a95;fill-opacity:0.7;"/>
   </g>
   <g id="patch_59">
    <path clip-path="url(#p761b43c13e)" d="M 206.544251 161.873942 
L 206.544251 247.425354 
L 212.387325 247.425354 
L 212.387325 161.873942 
L 206.544251 161.873942 
" style="fill:#726a95;fill-opacity:0.7;"/>
   </g>
   <g id="patch_60">
    <path clip-path="url(#p761b43c13e)" d="M 215.893169 170.882452 
L 215.893169 247.425354 
L 221.736242 247.425354 
L 221.736242 170.882452 
L 215.893169 170.882452 
" style="fill:#726a95;fill-opacity:0.7;"/>
   </g>
   <g id="patch_61">
    <path clip-path="url(#p761b43c13e)" d="M 225.242087 176.299335 
L 225.242087 247.425354 
L 231.08516 247.425354 
L 231.08516 176.299335 
L 225.242087 176.299335 
" style="fill:#726a95;fill-opacity:0.7;"/>
   </g>
   <g id="patch_62">
    <path clip-path="url(#p761b43c13e)" d="M 234.591004 191.431278 
L 234.591004 247.425354 
L 240.434078 247.425354 
L 240.434078 191.431278 
L 234.591004 191.431278 
" style="fill:#726a95;fill-opacity:0.7;"/>
   </g>
   <g id="patch_63">
    <path clip-path="url(#p761b43c13e)" d="M 243.939922 201.73513 
L 243.939922 247.425354 
L 249.782996 247.425354 
L 249.782996 201.73513 
L 243.939922 201.73513 
" style="fill:#726a95;fill-opacity:0.7;"/>
   </g>
   <g id="patch_64">
    <path clip-path="url(#p761b43c13e)" d="M 253.28884 213.246005 
L 253.28884 247.425354 
L 259.131913 247.425354 
L 259.131913 213.246005 
L 253.28884 213.246005 
" style="fill:#726a95;fill-opacity:0.7;"/>
   </g>
   <g id="patch_65">
    <path clip-path="url(#p761b43c13e)" d="M 262.637758 216.572677 
L 262.637758 247.425354 
L 268.480831 247.425354 
L 268.480831 216.572677 
L 262.637758 216.572677 
" style="fill:#726a95;fill-opacity:0.7;"/>
   </g>
   <g id="patch_66">
    <path clip-path="url(#p761b43c13e)" d="M 271.986675 227.995233 
L 271.986675 247.425354 
L 277.829749 247.425354 
L 277.829749 227.995233 
L 271.986675 227.995233 
" style="fill:#726a95;fill-opacity:0.7;"/>
   </g>
   <g id="patch_67">
    <path clip-path="url(#p761b43c13e)" d="M 281.335593 232.823324 
L 281.335593 247.425354 
L 287.178667 247.425354 
L 287.178667 232.823324 
L 281.335593 232.823324 
" style="fill:#726a95;fill-opacity:0.7;"/>
   </g>
   <g id="patch_68">
    <path clip-path="url(#p761b43c13e)" d="M 290.684511 232.440609 
L 290.684511 247.425354 
L 296.527584 247.425354 
L 296.527584 232.440609 
L 290.684511 232.440609 
" style="fill:#726a95;fill-opacity:0.7;"/>
   </g>
   <g id="patch_69">
    <path clip-path="url(#p761b43c13e)" d="M 300.033428 234.766336 
L 300.033428 247.425354 
L 305.876502 247.425354 
L 305.876502 234.766336 
L 300.033428 234.766336 
" style="fill:#726a95;fill-opacity:0.7;"/>
   </g>
   <g id="patch_70">
    <path clip-path="url(#p761b43c13e)" d="M 309.382346 239.123393 
L 309.382346 247.425354 
L 315.22542 247.425354 
L 315.22542 239.123393 
L 309.382346 239.123393 
" style="fill:#726a95;fill-opacity:0.7;"/>
   </g>
   <g id="patch_71">
    <path clip-path="url(#p761b43c13e)" d="M 318.731264 242.302868 
L 318.731264 247.425354 
L 324.574337 247.425354 
L 324.574337 242.302868 
L 318.731264 242.302868 
" style="fill:#726a95;fill-opacity:0.7;"/>
   </g>
   <g id="patch_72">
    <path clip-path="url(#p761b43c13e)" d="M 328.080182 242.950539 
L 328.080182 247.425354 
L 333.923255 247.425354 
L 333.923255 242.950539 
L 328.080182 242.950539 
" style="fill:#726a95;fill-opacity:0.7;"/>
   </g>
   <g id="patch_73">
    <path clip-path="url(#p761b43c13e)" d="M 337.429099 242.067351 
L 337.429099 247.425354 
L 343.272173 247.425354 
L 343.272173 242.067351 
L 337.429099 242.067351 
" style="fill:#726a95;fill-opacity:0.7;"/>
   </g>
   <g id="patch_74">
    <path clip-path="url(#p761b43c13e)" d="M 346.778017 244.128122 
L 346.778017 247.425354 
L 352.621091 247.425354 
L 352.621091 244.128122 
L 346.778017 244.128122 
" style="fill:#726a95;fill-opacity:0.7;"/>
   </g>
   <g id="patch_75">
    <path clip-path="url(#p761b43c13e)" d="M 356.126935 245.541221 
L 356.126935 247.425354 
L 361.970008 247.425354 
L 361.970008 245.541221 
L 356.126935 245.541221 
" style="fill:#726a95;fill-opacity:0.7;"/>
   </g>
   <g id="patch_76">
    <path clip-path="url(#p761b43c13e)" d="M 365.475852 245.452903 
L 365.475852 247.425354 
L 371.318926 247.425354 
L 371.318926 245.452903 
L 365.475852 245.452903 
" style="fill:#726a95;fill-opacity:0.7;"/>
   </g>
   <g id="patch_77">
    <path clip-path="url(#p761b43c13e)" d="M 374.82477 245.570661 
L 374.82477 247.425354 
L 380.667844 247.425354 
L 380.667844 245.570661 
L 374.82477 245.570661 
" style="fill:#726a95;fill-opacity:0.7;"/>
   </g>
   <g id="patch_78">
    <path clip-path="url(#p761b43c13e)" d="M 384.173688 246.483288 
L 384.173688 247.425354 
L 390.016761 247.425354 
L 390.016761 246.483288 
L 384.173688 246.483288 
" style="fill:#726a95;fill-opacity:0.7;"/>
   </g>
   <g id="patch_79">
    <path clip-path="url(#p761b43c13e)" d="M 393.522606 246.836563 
L 393.522606 247.425354 
L 399.365679 247.425354 
L 399.365679 246.836563 
L 393.522606 246.836563 
" style="fill:#726a95;fill-opacity:0.7;"/>
   </g>
   <g id="patch_80">
    <path clip-path="url(#p761b43c13e)" d="M 402.871523 246.689365 
L 402.871523 247.425354 
L 408.714597 247.425354 
L 408.714597 246.689365 
L 402.871523 246.689365 
" style="fill:#726a95;fill-opacity:0.7;"/>
   </g>
   <g id="patch_81">
    <path clip-path="url(#p761b43c13e)" d="M 412.220441 246.954321 
L 412.220441 247.425354 
L 418.063515 247.425354 
L 418.063515 246.954321 
L 412.220441 246.954321 
" style="fill:#726a95;fill-opacity:0.7;"/>
   </g>
   <g id="patch_82">
    <path clip-path="url(#p761b43c13e)" d="M 421.569359 247.366475 
L 421.569359 247.425354 
L 427.412432 247.425354 
L 427.412432 247.366475 
L 421.569359 247.366475 
" style="fill:#726a95;fill-opacity:0.7;"/>
   </g>
   <g id="patch_83">
    <path d="M 55.208646 247.425354 
L 55.208646 5.714646 
" style="fill:none;stroke:#000000;stroke-linecap:square;stroke-linejoin:miter;"/>
   </g>
   <g id="patch_84">
    <path d="M 55.208646 247.425354 
L 429.165354 247.425354 
" style="fill:none;stroke:#000000;stroke-linecap:square;stroke-linejoin:miter;"/>
   </g>
   <g id="legend_1">
    <g id="patch_85">
     <path d="M 380.809104 35.599646 
L 423.565354 35.599646 
Q 425.165354 35.599646 425.165354 33.999646 
L 425.165354 11.314646 
Q 425.165354 9.714646 423.565354 9.714646 
L 380.809104 9.714646 
Q 379.209104 9.714646 379.209104 11.314646 
L 379.209104 33.999646 
Q 379.209104 35.599646 380.809104 35.599646 
z
" style="fill:#ffffff;stroke:#000000;stroke-linejoin:miter;"/>
    </g>
    <g id="patch_86">
     <path d="M 382.409104 18.993396 
L 398.409104 18.993396 
L 398.409104 13.393396 
L 382.409104 13.393396 
z
" style="fill:#849974;fill-opacity:0.7;"/>
    </g>
    <g id="text_12">
     <!-- lig 1 -->
     <defs>
      <path d="M 9.421875 54.6875 
L 18.40625 54.6875 
L 18.40625 0 
L 9.421875 0 
z
M 9.421875 75.984375 
L 18.40625 75.984375 
L 18.40625 64.59375 
L 9.421875 64.59375 
z
" id="DejaVuSans-69"/>
      <path d="M 45.40625 27.984375 
Q 45.40625 37.75 41.375 43.109375 
Q 37.359375 48.484375 30.078125 48.484375 
Q 22.859375 48.484375 18.828125 43.109375 
Q 14.796875 37.75 14.796875 27.984375 
Q 14.796875 18.265625 18.828125 12.890625 
Q 22.859375 7.515625 30.078125 7.515625 
Q 37.359375 7.515625 41.375 12.890625 
Q 45.40625 18.265625 45.40625 27.984375 
z
M 54.390625 6.78125 
Q 54.390625 -7.171875 48.1875 -13.984375 
Q 42 -20.796875 29.203125 -20.796875 
Q 24.46875 -20.796875 20.265625 -20.09375 
Q 16.0625 -19.390625 12.109375 -17.921875 
L 12.109375 -9.1875 
Q 16.0625 -11.328125 19.921875 -12.34375 
Q 23.78125 -13.375 27.78125 -13.375 
Q 36.625 -13.375 41.015625 -8.765625 
Q 45.40625 -4.15625 45.40625 5.171875 
L 45.40625 9.625 
Q 42.625 4.78125 38.28125 2.390625 
Q 33.9375 0 27.875 0 
Q 17.828125 0 11.671875 7.65625 
Q 5.515625 15.328125 5.515625 27.984375 
Q 5.515625 40.671875 11.671875 48.328125 
Q 17.828125 56 27.875 56 
Q 33.9375 56 38.28125 53.609375 
Q 42.625 51.21875 45.40625 46.390625 
L 45.40625 54.6875 
L 54.390625 54.6875 
z
" id="DejaVuSans-67"/>
     </defs>
     <g transform="translate(404.809104 18.993396)scale(0.08 -0.08)">
      <use xlink:href="#DejaVuSans-6c"/>
      <use x="27.783203" xlink:href="#DejaVuSans-69"/>
      <use x="55.566406" xlink:href="#DejaVuSans-67"/>
      <use x="119.042969" xlink:href="#DejaVuSans-20"/>
      <use x="150.830078" xlink:href="#DejaVuSans-31"/>
     </g>
    </g>
    <g id="patch_87">
     <path d="M 382.409104 30.735896 
L 398.409104 30.735896 
L 398.409104 25.135896 
L 382.409104 25.135896 
z
" style="fill:#726a95;fill-opacity:0.7;"/>
    </g>
    <g id="text_13">
     <!-- lig 2 -->
     <g transform="translate(404.809104 30.735896)scale(0.08 -0.08)">
      <use xlink:href="#DejaVuSans-6c"/>
      <use x="27.783203" xlink:href="#DejaVuSans-69"/>
      <use x="55.566406" xlink:href="#DejaVuSans-67"/>
      <use x="119.042969" xlink:href="#DejaVuSans-20"/>
      <use x="150.830078" xlink:href="#DejaVuSans-32"/>
     </g>
    </g>
   </g>
  </g>
 </g>
 <defs>
  <clipPath id="p761b43c13e">
   <rect height="241.710709" width="373.956709" x="55.208646" y="5.714646"/>
  </clipPath>
 </defs>
</svg>
