<?xml version="1.0" encoding="utf-8" standalone="no"?>
<!DOCTYPE svg PUBLIC "-//W3C//DTD SVG 1.1//EN"
  "http://www.w3.org/Graphics/SVG/1.1/DTD/svg11.dtd">
<!-- Created with matplotlib (http://matplotlib.org/) -->
<svg height="288pt" version="1.1" viewBox="0 0 432 288" width="432pt" xmlns="http://www.w3.org/2000/svg" xmlns:xlink="http://www.w3.org/1999/xlink">
 <defs>
  <style type="text/css">
*{stroke-linecap:butt;stroke-linejoin:round;}
  </style>
 </defs>
 <g id="figure_1">
  <g id="patch_1">
   <path d="M 0 288 
L 432 288 
L 432 0 
L 0 0 
z
" style="fill:#ffffff;"/>
  </g>
  <g id="axes_1">
   <g id="patch_2">
    <path d="M 62.138646 247.425354 
L 429.165354 247.425354 
L 429.165354 5.714646 
L 62.138646 5.714646 
z
" style="fill:#ffffff;"/>
   </g>
   <g id="patch_3">
    <path clip-path="url(#pea40415010)" d="M 63.056212 247.425354 
L 63.056212 247.425354 
L 66.72648 247.425354 
L 66.72648 247.425354 
L 63.056212 247.425354 
" style="fill:#86af49;"/>
   </g>
   <g id="patch_4">
    <path clip-path="url(#pea40415010)" d="M 72.23188 247.425354 
L 72.23188 247.425354 
L 75.902147 247.425354 
L 75.902147 247.425354 
L 72.23188 247.425354 
" style="fill:#86af49;"/>
   </g>
   <g id="patch_5">
    <path clip-path="url(#pea40415010)" d="M 81.407548 247.425354 
L 81.407548 247.425354 
L 85.077815 247.425354 
L 85.077815 247.425354 
L 81.407548 247.425354 
" style="fill:#86af49;"/>
   </g>
   <g id="patch_6">
    <path clip-path="url(#pea40415010)" d="M 90.583216 247.266609 
L 90.583216 247.425354 
L 94.253483 247.425354 
L 94.253483 247.266609 
L 90.583216 247.266609 
" style="fill:#86af49;"/>
   </g>
   <g id="patch_7">
    <path clip-path="url(#pea40415010)" d="M 99.758883 247.372439 
L 99.758883 247.425354 
L 103.42915 247.425354 
L 103.42915 247.372439 
L 99.758883 247.372439 
" style="fill:#86af49;"/>
   </g>
   <g id="patch_8">
    <path clip-path="url(#pea40415010)" d="M 108.934551 247.213694 
L 108.934551 247.425354 
L 112.604818 247.425354 
L 112.604818 247.213694 
L 108.934551 247.213694 
" style="fill:#86af49;"/>
   </g>
   <g id="patch_9">
    <path clip-path="url(#pea40415010)" d="M 118.110219 246.102478 
L 118.110219 247.425354 
L 121.780486 247.425354 
L 121.780486 246.102478 
L 118.110219 246.102478 
" style="fill:#86af49;"/>
   </g>
   <g id="patch_10">
    <path clip-path="url(#pea40415010)" d="M 127.285886 246.102478 
L 127.285886 247.425354 
L 130.956154 247.425354 
L 130.956154 246.102478 
L 127.285886 246.102478 
" style="fill:#86af49;"/>
   </g>
   <g id="patch_11">
    <path clip-path="url(#pea40415010)" d="M 136.461554 245.308752 
L 136.461554 247.425354 
L 140.131821 247.425354 
L 140.131821 245.308752 
L 136.461554 245.308752 
" style="fill:#86af49;"/>
   </g>
   <g id="patch_12">
    <path clip-path="url(#pea40415010)" d="M 145.637222 241.710528 
L 145.637222 247.425354 
L 149.307489 247.425354 
L 149.307489 241.710528 
L 145.637222 241.710528 
" style="fill:#86af49;"/>
   </g>
   <g id="patch_13">
    <path clip-path="url(#pea40415010)" d="M 154.81289 237.001087 
L 154.81289 247.425354 
L 158.483157 247.425354 
L 158.483157 237.001087 
L 154.81289 237.001087 
" style="fill:#86af49;"/>
   </g>
   <g id="patch_14">
    <path clip-path="url(#pea40415010)" d="M 163.988557 224.777708 
L 163.988557 247.425354 
L 167.658824 247.425354 
L 167.658824 224.777708 
L 163.988557 224.777708 
" style="fill:#86af49;"/>
   </g>
   <g id="patch_15">
    <path clip-path="url(#pea40415010)" d="M 173.164225 211.231452 
L 173.164225 247.425354 
L 176.834492 247.425354 
L 176.834492 211.231452 
L 173.164225 211.231452 
" style="fill:#86af49;"/>
   </g>
   <g id="patch_16">
    <path clip-path="url(#pea40415010)" d="M 182.339893 174.40257 
L 182.339893 247.425354 
L 186.01016 247.425354 
L 186.01016 174.40257 
L 182.339893 174.40257 
" style="fill:#86af49;"/>
   </g>
   <g id="patch_17">
    <path clip-path="url(#pea40415010)" d="M 191.51556 160.380078 
L 191.51556 247.425354 
L 195.185828 247.425354 
L 195.185828 160.380078 
L 191.51556 160.380078 
" style="fill:#86af49;"/>
   </g>
   <g id="patch_18">
    <path clip-path="url(#pea40415010)" d="M 200.691228 111.274902 
L 200.691228 247.425354 
L 204.361495 247.425354 
L 204.361495 111.274902 
L 200.691228 111.274902 
" style="fill:#86af49;"/>
   </g>
   <g id="patch_19">
    <path clip-path="url(#pea40415010)" d="M 209.866896 88.944746 
L 209.866896 247.425354 
L 213.537163 247.425354 
L 213.537163 88.944746 
L 209.866896 88.944746 
" style="fill:#86af49;"/>
   </g>
   <g id="patch_20">
    <path clip-path="url(#pea40415010)" d="M 219.042564 66.40293 
L 219.042564 247.425354 
L 222.712831 247.425354 
L 222.712831 66.40293 
L 219.042564 66.40293 
" style="fill:#86af49;"/>
   </g>
   <g id="patch_21">
    <path clip-path="url(#pea40415010)" d="M 228.218231 67.672891 
L 228.218231 247.425354 
L 231.888498 247.425354 
L 231.888498 67.672891 
L 228.218231 67.672891 
" style="fill:#86af49;"/>
   </g>
   <g id="patch_22">
    <path clip-path="url(#pea40415010)" d="M 237.393899 82.383278 
L 237.393899 247.425354 
L 241.064166 247.425354 
L 241.064166 82.383278 
L 237.393899 82.383278 
" style="fill:#86af49;"/>
   </g>
   <g id="patch_23">
    <path clip-path="url(#pea40415010)" d="M 246.569567 87.039803 
L 246.569567 247.425354 
L 250.239834 247.425354 
L 250.239834 87.039803 
L 246.569567 87.039803 
" style="fill:#86af49;"/>
   </g>
   <g id="patch_24">
    <path clip-path="url(#pea40415010)" d="M 255.745234 115.613937 
L 255.745234 247.425354 
L 259.415502 247.425354 
L 259.415502 115.613937 
L 255.745234 115.613937 
" style="fill:#86af49;"/>
   </g>
   <g id="patch_25">
    <path clip-path="url(#pea40415010)" d="M 264.920902 112.174458 
L 264.920902 247.425354 
L 268.591169 247.425354 
L 268.591169 112.174458 
L 264.920902 112.174458 
" style="fill:#86af49;"/>
   </g>
   <g id="patch_26">
    <path clip-path="url(#pea40415010)" d="M 274.09657 123.921601 
L 274.09657 247.425354 
L 277.766837 247.425354 
L 277.766837 123.921601 
L 274.09657 123.921601 
" style="fill:#86af49;"/>
   </g>
   <g id="patch_27">
    <path clip-path="url(#pea40415010)" d="M 283.272238 138.473243 
L 283.272238 247.425354 
L 286.942505 247.425354 
L 286.942505 138.473243 
L 283.272238 138.473243 
" style="fill:#86af49;"/>
   </g>
   <g id="patch_28">
    <path clip-path="url(#pea40415010)" d="M 292.447905 150.008726 
L 292.447905 247.425354 
L 296.118172 247.425354 
L 296.118172 150.008726 
L 292.447905 150.008726 
" style="fill:#86af49;"/>
   </g>
   <g id="patch_29">
    <path clip-path="url(#pea40415010)" d="M 301.623573 132.229266 
L 301.623573 247.425354 
L 305.29384 247.425354 
L 305.29384 132.229266 
L 301.623573 132.229266 
" style="fill:#86af49;"/>
   </g>
   <g id="patch_30">
    <path clip-path="url(#pea40415010)" d="M 310.799241 150.961198 
L 310.799241 247.425354 
L 314.469508 247.425354 
L 314.469508 150.961198 
L 310.799241 150.961198 
" style="fill:#86af49;"/>
   </g>
   <g id="patch_31">
    <path clip-path="url(#pea40415010)" d="M 319.974909 152.86614 
L 319.974909 247.425354 
L 323.645176 247.425354 
L 323.645176 152.86614 
L 319.974909 152.86614 
" style="fill:#86af49;"/>
   </g>
   <g id="patch_32">
    <path clip-path="url(#pea40415010)" d="M 329.150576 175.355041 
L 329.150576 247.425354 
L 332.820843 247.425354 
L 332.820843 175.355041 
L 329.150576 175.355041 
" style="fill:#86af49;"/>
   </g>
   <g id="patch_33">
    <path clip-path="url(#pea40415010)" d="M 338.326244 187.208015 
L 338.326244 247.425354 
L 341.996511 247.425354 
L 341.996511 187.208015 
L 338.326244 187.208015 
" style="fill:#86af49;"/>
   </g>
   <g id="patch_34">
    <path clip-path="url(#pea40415010)" d="M 347.501912 201.018846 
L 347.501912 247.425354 
L 351.172179 247.425354 
L 351.172179 201.018846 
L 347.501912 201.018846 
" style="fill:#86af49;"/>
   </g>
   <g id="patch_35">
    <path clip-path="url(#pea40415010)" d="M 356.677579 211.019792 
L 356.677579 247.425354 
L 360.347846 247.425354 
L 360.347846 211.019792 
L 356.677579 211.019792 
" style="fill:#86af49;"/>
   </g>
   <g id="patch_36">
    <path clip-path="url(#pea40415010)" d="M 365.853247 222.872766 
L 365.853247 247.425354 
L 369.523514 247.425354 
L 369.523514 222.872766 
L 365.853247 222.872766 
" style="fill:#86af49;"/>
   </g>
   <g id="patch_37">
    <path clip-path="url(#pea40415010)" d="M 375.028915 229.381318 
L 375.028915 247.425354 
L 378.699182 247.425354 
L 378.699182 229.381318 
L 375.028915 229.381318 
" style="fill:#86af49;"/>
   </g>
   <g id="patch_38">
    <path clip-path="url(#pea40415010)" d="M 384.204583 233.984929 
L 384.204583 247.425354 
L 387.87485 247.425354 
L 387.87485 233.984929 
L 384.204583 233.984929 
" style="fill:#86af49;"/>
   </g>
   <g id="patch_39">
    <path clip-path="url(#pea40415010)" d="M 393.38025 238.641454 
L 393.38025 247.425354 
L 397.050517 247.425354 
L 397.050517 238.641454 
L 393.38025 238.641454 
" style="fill:#86af49;"/>
   </g>
   <g id="patch_40">
    <path clip-path="url(#pea40415010)" d="M 402.555918 239.488095 
L 402.555918 247.425354 
L 406.226185 247.425354 
L 406.226185 239.488095 
L 402.555918 239.488095 
" style="fill:#86af49;"/>
   </g>
   <g id="patch_41">
    <path clip-path="url(#pea40415010)" d="M 411.731586 242.927574 
L 411.731586 247.425354 
L 415.401853 247.425354 
L 415.401853 242.927574 
L 411.731586 242.927574 
" style="fill:#86af49;"/>
   </g>
   <g id="patch_42">
    <path clip-path="url(#pea40415010)" d="M 420.907253 246.896204 
L 420.907253 247.425354 
L 424.57752 247.425354 
L 424.57752 246.896204 
L 420.907253 246.896204 
" style="fill:#86af49;"/>
   </g>
   <g id="matplotlib.axis_1">
    <g id="xtick_1">
     <g id="line2d_1">
      <defs>
       <path d="M 0 0 
L 0 -3.5 
" id="mef934f2713" style="stroke:#000000;stroke-width:0.8;"/>
      </defs>
      <g>
       <use style="stroke:#000000;stroke-width:0.8;" x="130.956154" xlink:href="#mef934f2713" y="247.425354"/>
      </g>
     </g>
     <g id="text_1">
      <!-- 1000 -->
      <defs>
       <path d="M 12.40625 8.296875 
L 28.515625 8.296875 
L 28.515625 63.921875 
L 10.984375 60.40625 
L 10.984375 69.390625 
L 28.421875 72.90625 
L 38.28125 72.90625 
L 38.28125 8.296875 
L 54.390625 8.296875 
L 54.390625 0 
L 12.40625 0 
z
" id="DejaVuSans-31"/>
       <path d="M 31.78125 66.40625 
Q 24.171875 66.40625 20.328125 58.90625 
Q 16.5 51.421875 16.5 36.375 
Q 16.5 21.390625 20.328125 13.890625 
Q 24.171875 6.390625 31.78125 6.390625 
Q 39.453125 6.390625 43.28125 13.890625 
Q 47.125 21.390625 47.125 36.375 
Q 47.125 51.421875 43.28125 58.90625 
Q 39.453125 66.40625 31.78125 66.40625 
z
M 31.78125 74.21875 
Q 44.046875 74.21875 50.515625 64.515625 
Q 56.984375 54.828125 56.984375 36.375 
Q 56.984375 17.96875 50.515625 8.265625 
Q 44.046875 -1.421875 31.78125 -1.421875 
Q 19.53125 -1.421875 13.0625 8.265625 
Q 6.59375 17.96875 6.59375 36.375 
Q 6.59375 54.828125 13.0625 64.515625 
Q 19.53125 74.21875 31.78125 74.21875 
z
" id="DejaVuSans-30"/>
      </defs>
      <g transform="translate(116.958654 259.283636)scale(0.11 -0.11)">
       <use xlink:href="#DejaVuSans-31"/>
       <use x="63.623047" xlink:href="#DejaVuSans-30"/>
       <use x="127.246094" xlink:href="#DejaVuSans-30"/>
       <use x="190.869141" xlink:href="#DejaVuSans-30"/>
      </g>
     </g>
    </g>
    <g id="xtick_2">
     <g id="line2d_2">
      <g>
       <use style="stroke:#000000;stroke-width:0.8;" x="188.304077" xlink:href="#mef934f2713" y="247.425354"/>
      </g>
     </g>
     <g id="text_2">
      <!-- 1250 -->
      <defs>
       <path d="M 19.1875 8.296875 
L 53.609375 8.296875 
L 53.609375 0 
L 7.328125 0 
L 7.328125 8.296875 
Q 12.9375 14.109375 22.625 23.890625 
Q 32.328125 33.6875 34.8125 36.53125 
Q 39.546875 41.84375 41.421875 45.53125 
Q 43.3125 49.21875 43.3125 52.78125 
Q 43.3125 58.59375 39.234375 62.25 
Q 35.15625 65.921875 28.609375 65.921875 
Q 23.96875 65.921875 18.8125 64.3125 
Q 13.671875 62.703125 7.8125 59.421875 
L 7.8125 69.390625 
Q 13.765625 71.78125 18.9375 73 
Q 24.125 74.21875 28.421875 74.21875 
Q 39.75 74.21875 46.484375 68.546875 
Q 53.21875 62.890625 53.21875 53.421875 
Q 53.21875 48.921875 51.53125 44.890625 
Q 49.859375 40.875 45.40625 35.40625 
Q 44.1875 33.984375 37.640625 27.21875 
Q 31.109375 20.453125 19.1875 8.296875 
z
" id="DejaVuSans-32"/>
       <path d="M 10.796875 72.90625 
L 49.515625 72.90625 
L 49.515625 64.59375 
L 19.828125 64.59375 
L 19.828125 46.734375 
Q 21.96875 47.46875 24.109375 47.828125 
Q 26.265625 48.1875 28.421875 48.1875 
Q 40.625 48.1875 47.75 41.5 
Q 54.890625 34.8125 54.890625 23.390625 
Q 54.890625 11.625 47.5625 5.09375 
Q 40.234375 -1.421875 26.90625 -1.421875 
Q 22.3125 -1.421875 17.546875 -0.640625 
Q 12.796875 0.140625 7.71875 1.703125 
L 7.71875 11.625 
Q 12.109375 9.234375 16.796875 8.0625 
Q 21.484375 6.890625 26.703125 6.890625 
Q 35.15625 6.890625 40.078125 11.328125 
Q 45.015625 15.765625 45.015625 23.390625 
Q 45.015625 31 40.078125 35.4375 
Q 35.15625 39.890625 26.703125 39.890625 
Q 22.75 39.890625 18.8125 39.015625 
Q 14.890625 38.140625 10.796875 36.28125 
z
" id="DejaVuSans-35"/>
      </defs>
      <g transform="translate(174.306577 259.283636)scale(0.11 -0.11)">
       <use xlink:href="#DejaVuSans-31"/>
       <use x="63.623047" xlink:href="#DejaVuSans-32"/>
       <use x="127.246094" xlink:href="#DejaVuSans-35"/>
       <use x="190.869141" xlink:href="#DejaVuSans-30"/>
      </g>
     </g>
    </g>
    <g id="xtick_3">
     <g id="line2d_3">
      <g>
       <use style="stroke:#000000;stroke-width:0.8;" x="245.652" xlink:href="#mef934f2713" y="247.425354"/>
      </g>
     </g>
     <g id="text_3">
      <!-- 1500 -->
      <g transform="translate(231.6545 259.283636)scale(0.11 -0.11)">
       <use xlink:href="#DejaVuSans-31"/>
       <use x="63.623047" xlink:href="#DejaVuSans-35"/>
       <use x="127.246094" xlink:href="#DejaVuSans-30"/>
       <use x="190.869141" xlink:href="#DejaVuSans-30"/>
      </g>
     </g>
    </g>
    <g id="xtick_4">
     <g id="line2d_4">
      <g>
       <use style="stroke:#000000;stroke-width:0.8;" x="302.999923" xlink:href="#mef934f2713" y="247.425354"/>
      </g>
     </g>
     <g id="text_4">
      <!-- 1750 -->
      <defs>
       <path d="M 8.203125 72.90625 
L 55.078125 72.90625 
L 55.078125 68.703125 
L 28.609375 0 
L 18.3125 0 
L 43.21875 64.59375 
L 8.203125 64.59375 
z
" id="DejaVuSans-37"/>
      </defs>
      <g transform="translate(289.002423 259.283636)scale(0.11 -0.11)">
       <use xlink:href="#DejaVuSans-31"/>
       <use x="63.623047" xlink:href="#DejaVuSans-37"/>
       <use x="127.246094" xlink:href="#DejaVuSans-35"/>
       <use x="190.869141" xlink:href="#DejaVuSans-30"/>
      </g>
     </g>
    </g>
    <g id="xtick_5">
     <g id="line2d_5">
      <g>
       <use style="stroke:#000000;stroke-width:0.8;" x="360.347846" xlink:href="#mef934f2713" y="247.425354"/>
      </g>
     </g>
     <g id="text_5">
      <!-- 2000 -->
      <g transform="translate(346.350346 259.283636)scale(0.11 -0.11)">
       <use xlink:href="#DejaVuSans-32"/>
       <use x="63.623047" xlink:href="#DejaVuSans-30"/>
       <use x="127.246094" xlink:href="#DejaVuSans-30"/>
       <use x="190.869141" xlink:href="#DejaVuSans-30"/>
      </g>
     </g>
    </g>
    <g id="text_6">
     <!-- Volume $[\AA^3]$  -->
     <defs>
      <path d="M 28.609375 0 
L 0.78125 72.90625 
L 11.078125 72.90625 
L 34.1875 11.53125 
L 57.328125 72.90625 
L 67.578125 72.90625 
L 39.796875 0 
z
" id="DejaVuSans-56"/>
      <path d="M 30.609375 48.390625 
Q 23.390625 48.390625 19.1875 42.75 
Q 14.984375 37.109375 14.984375 27.296875 
Q 14.984375 17.484375 19.15625 11.84375 
Q 23.34375 6.203125 30.609375 6.203125 
Q 37.796875 6.203125 41.984375 11.859375 
Q 46.1875 17.53125 46.1875 27.296875 
Q 46.1875 37.015625 41.984375 42.703125 
Q 37.796875 48.390625 30.609375 48.390625 
z
M 30.609375 56 
Q 42.328125 56 49.015625 48.375 
Q 55.71875 40.765625 55.71875 27.296875 
Q 55.71875 13.875 49.015625 6.21875 
Q 42.328125 -1.421875 30.609375 -1.421875 
Q 18.84375 -1.421875 12.171875 6.21875 
Q 5.515625 13.875 5.515625 27.296875 
Q 5.515625 40.765625 12.171875 48.375 
Q 18.84375 56 30.609375 56 
z
" id="DejaVuSans-6f"/>
      <path d="M 9.421875 75.984375 
L 18.40625 75.984375 
L 18.40625 0 
L 9.421875 0 
z
" id="DejaVuSans-6c"/>
      <path d="M 8.5 21.578125 
L 8.5 54.6875 
L 17.484375 54.6875 
L 17.484375 21.921875 
Q 17.484375 14.15625 20.5 10.265625 
Q 23.53125 6.390625 29.59375 6.390625 
Q 36.859375 6.390625 41.078125 11.03125 
Q 45.3125 15.671875 45.3125 23.6875 
L 45.3125 54.6875 
L 54.296875 54.6875 
L 54.296875 0 
L 45.3125 0 
L 45.3125 8.40625 
Q 42.046875 3.421875 37.71875 1 
Q 33.40625 -1.421875 27.6875 -1.421875 
Q 18.265625 -1.421875 13.375 4.4375 
Q 8.5 10.296875 8.5 21.578125 
z
M 31.109375 56 
z
" id="DejaVuSans-75"/>
      <path d="M 52 44.1875 
Q 55.375 50.25 60.0625 53.125 
Q 64.75 56 71.09375 56 
Q 79.640625 56 84.28125 50.015625 
Q 88.921875 44.046875 88.921875 33.015625 
L 88.921875 0 
L 79.890625 0 
L 79.890625 32.71875 
Q 79.890625 40.578125 77.09375 44.375 
Q 74.3125 48.1875 68.609375 48.1875 
Q 61.625 48.1875 57.5625 43.546875 
Q 53.515625 38.921875 53.515625 30.90625 
L 53.515625 0 
L 44.484375 0 
L 44.484375 32.71875 
Q 44.484375 40.625 41.703125 44.40625 
Q 38.921875 48.1875 33.109375 48.1875 
Q 26.21875 48.1875 22.15625 43.53125 
Q 18.109375 38.875 18.109375 30.90625 
L 18.109375 0 
L 9.078125 0 
L 9.078125 54.6875 
L 18.109375 54.6875 
L 18.109375 46.1875 
Q 21.1875 51.21875 25.484375 53.609375 
Q 29.78125 56 35.6875 56 
Q 41.65625 56 45.828125 52.96875 
Q 50 49.953125 52 44.1875 
z
" id="DejaVuSans-6d"/>
      <path d="M 56.203125 29.59375 
L 56.203125 25.203125 
L 14.890625 25.203125 
Q 15.484375 15.921875 20.484375 11.0625 
Q 25.484375 6.203125 34.421875 6.203125 
Q 39.59375 6.203125 44.453125 7.46875 
Q 49.3125 8.734375 54.109375 11.28125 
L 54.109375 2.78125 
Q 49.265625 0.734375 44.1875 -0.34375 
Q 39.109375 -1.421875 33.890625 -1.421875 
Q 20.796875 -1.421875 13.15625 6.1875 
Q 5.515625 13.8125 5.515625 26.8125 
Q 5.515625 40.234375 12.765625 48.109375 
Q 20.015625 56 32.328125 56 
Q 43.359375 56 49.78125 48.890625 
Q 56.203125 41.796875 56.203125 29.59375 
z
M 47.21875 32.234375 
Q 47.125 39.59375 43.09375 43.984375 
Q 39.0625 48.390625 32.421875 48.390625 
Q 24.90625 48.390625 20.390625 44.140625 
Q 15.875 39.890625 15.1875 32.171875 
z
" id="DejaVuSans-65"/>
      <path id="DejaVuSans-20"/>
      <path d="M 8.59375 75.984375 
L 29.296875 75.984375 
L 29.296875 69 
L 17.578125 69 
L 17.578125 -6.203125 
L 29.296875 -6.203125 
L 29.296875 -13.1875 
L 8.59375 -13.1875 
z
" id="DejaVuSans-5b"/>
      <path d="M 49.8125 79.390625 
Q 49.8125 82.46875 47.625 84.640625 
Q 45.453125 86.8125 42.390625 86.8125 
Q 39.265625 86.8125 37.140625 84.6875 
Q 35.015625 82.5625 35.015625 79.390625 
Q 35.015625 76.3125 37.140625 74.15625 
Q 39.265625 72.015625 42.390625 72.015625 
Q 45.453125 72.015625 47.625 74.15625 
Q 49.8125 76.3125 49.8125 79.390625 
z
M 34.421875 68.703125 
Q 31.78125 70.515625 30.390625 73.265625 
Q 29 76.03125 29 79.390625 
Q 29 84.96875 32.90625 88.890625 
Q 36.8125 92.828125 42.390625 92.828125 
Q 47.953125 92.828125 51.875 88.890625 
Q 55.8125 84.96875 55.8125 79.390625 
Q 55.8125 75.53125 54.03125 72.546875 
Q 52.25 69.578125 48.875 67.828125 
L 61.53125 0 
L 51.21875 0 
L 48.1875 18.703125 
L 15.375 18.703125 
L 5.078125 0 
L -5.328125 0 
z
M 40.375 63.1875 
L 19.921875 26.90625 
L 46.6875 26.90625 
z
" id="DejaVuSans-Oblique-c5"/>
      <path d="M 40.578125 39.3125 
Q 47.65625 37.796875 51.625 33 
Q 55.609375 28.21875 55.609375 21.1875 
Q 55.609375 10.40625 48.1875 4.484375 
Q 40.765625 -1.421875 27.09375 -1.421875 
Q 22.515625 -1.421875 17.65625 -0.515625 
Q 12.796875 0.390625 7.625 2.203125 
L 7.625 11.71875 
Q 11.71875 9.328125 16.59375 8.109375 
Q 21.484375 6.890625 26.8125 6.890625 
Q 36.078125 6.890625 40.9375 10.546875 
Q 45.796875 14.203125 45.796875 21.1875 
Q 45.796875 27.640625 41.28125 31.265625 
Q 36.765625 34.90625 28.71875 34.90625 
L 20.21875 34.90625 
L 20.21875 43.015625 
L 29.109375 43.015625 
Q 36.375 43.015625 40.234375 45.921875 
Q 44.09375 48.828125 44.09375 54.296875 
Q 44.09375 59.90625 40.109375 62.90625 
Q 36.140625 65.921875 28.71875 65.921875 
Q 24.65625 65.921875 20.015625 65.03125 
Q 15.375 64.15625 9.8125 62.3125 
L 9.8125 71.09375 
Q 15.4375 72.65625 20.34375 73.4375 
Q 25.25 74.21875 29.59375 74.21875 
Q 40.828125 74.21875 47.359375 69.109375 
Q 53.90625 64.015625 53.90625 55.328125 
Q 53.90625 49.265625 50.4375 45.09375 
Q 46.96875 40.921875 40.578125 39.3125 
z
" id="DejaVuSans-33"/>
      <path d="M 30.421875 75.984375 
L 30.421875 -13.1875 
L 9.71875 -13.1875 
L 9.71875 -6.203125 
L 21.390625 -6.203125 
L 21.390625 69 
L 9.71875 69 
L 9.71875 75.984375 
z
" id="DejaVuSans-5d"/>
     </defs>
     <g transform="translate(193.892 279.363792)scale(0.16 -0.16)">
      <use transform="translate(0 0.171875)" xlink:href="#DejaVuSans-56"/>
      <use transform="translate(68.408203 0.171875)" xlink:href="#DejaVuSans-6f"/>
      <use transform="translate(129.589844 0.171875)" xlink:href="#DejaVuSans-6c"/>
      <use transform="translate(157.373047 0.171875)" xlink:href="#DejaVuSans-75"/>
      <use transform="translate(220.751953 0.171875)" xlink:href="#DejaVuSans-6d"/>
      <use transform="translate(318.164062 0.171875)" xlink:href="#DejaVuSans-65"/>
      <use transform="translate(379.6875 0.171875)" xlink:href="#DejaVuSans-20"/>
      <use transform="translate(411.474609 0.171875)" xlink:href="#DejaVuSans-5b"/>
      <use transform="translate(450.488281 0.171875)" xlink:href="#DejaVuSans-Oblique-c5"/>
      <use transform="translate(528.702318 38.453125)scale(0.7)" xlink:href="#DejaVuSans-33"/>
      <use transform="translate(575.972826 0.171875)" xlink:href="#DejaVuSans-5d"/>
      <use transform="translate(614.986497 0.171875)" xlink:href="#DejaVuSans-20"/>
     </g>
    </g>
   </g>
   <g id="matplotlib.axis_2">
    <g id="ytick_1">
     <g id="line2d_6">
      <defs>
       <path d="M 0 0 
L 3.5 0 
" id="m0b3d3f8bc6" style="stroke:#000000;stroke-width:0.8;"/>
      </defs>
      <g>
       <use style="stroke:#000000;stroke-width:0.8;" x="62.138646" xlink:href="#m0b3d3f8bc6" y="186.997677"/>
      </g>
     </g>
     <g id="text_7">
      <!-- 0.025 -->
      <defs>
       <path d="M 10.6875 12.40625 
L 21 12.40625 
L 21 0 
L 10.6875 0 
z
" id="DejaVuSans-2e"/>
      </defs>
      <g transform="translate(27.147708 191.176818)scale(0.11 -0.11)">
       <use xlink:href="#DejaVuSans-30"/>
       <use x="63.623047" xlink:href="#DejaVuSans-2e"/>
       <use x="95.410156" xlink:href="#DejaVuSans-30"/>
       <use x="159.033203" xlink:href="#DejaVuSans-32"/>
       <use x="222.65625" xlink:href="#DejaVuSans-35"/>
      </g>
     </g>
    </g>
    <g id="ytick_2">
     <g id="line2d_7">
      <g>
       <use style="stroke:#000000;stroke-width:0.8;" x="62.138646" xlink:href="#m0b3d3f8bc6" y="126.57"/>
      </g>
     </g>
     <g id="text_8">
      <!-- 0.050 -->
      <g transform="translate(27.147708 130.749141)scale(0.11 -0.11)">
       <use xlink:href="#DejaVuSans-30"/>
       <use x="63.623047" xlink:href="#DejaVuSans-2e"/>
       <use x="95.410156" xlink:href="#DejaVuSans-30"/>
       <use x="159.033203" xlink:href="#DejaVuSans-35"/>
       <use x="222.65625" xlink:href="#DejaVuSans-30"/>
      </g>
     </g>
    </g>
    <g id="ytick_3">
     <g id="line2d_8">
      <g>
       <use style="stroke:#000000;stroke-width:0.8;" x="62.138646" xlink:href="#m0b3d3f8bc6" y="66.142323"/>
      </g>
     </g>
     <g id="text_9">
      <!-- 0.075 -->
      <g transform="translate(27.147708 70.321463)scale(0.11 -0.11)">
       <use xlink:href="#DejaVuSans-30"/>
       <use x="63.623047" xlink:href="#DejaVuSans-2e"/>
       <use x="95.410156" xlink:href="#DejaVuSans-30"/>
       <use x="159.033203" xlink:href="#DejaVuSans-37"/>
       <use x="222.65625" xlink:href="#DejaVuSans-35"/>
      </g>
     </g>
    </g>
    <g id="ytick_4">
     <g id="line2d_9">
      <g>
       <use style="stroke:#000000;stroke-width:0.8;" x="62.138646" xlink:href="#m0b3d3f8bc6" y="5.714646"/>
      </g>
     </g>
     <g id="text_10">
      <!-- 0.100 -->
      <g transform="translate(27.147708 9.893786)scale(0.11 -0.11)">
       <use xlink:href="#DejaVuSans-30"/>
       <use x="63.623047" xlink:href="#DejaVuSans-2e"/>
       <use x="95.410156" xlink:href="#DejaVuSans-31"/>
       <use x="159.033203" xlink:href="#DejaVuSans-30"/>
       <use x="222.65625" xlink:href="#DejaVuSans-30"/>
      </g>
     </g>
    </g>
    <g id="text_11">
     <!-- Frequency $[cm^{-1}]$ -->
     <defs>
      <path d="M 9.8125 72.90625 
L 51.703125 72.90625 
L 51.703125 64.59375 
L 19.671875 64.59375 
L 19.671875 43.109375 
L 48.578125 43.109375 
L 48.578125 34.8125 
L 19.671875 34.8125 
L 19.671875 0 
L 9.8125 0 
z
" id="DejaVuSans-46"/>
      <path d="M 41.109375 46.296875 
Q 39.59375 47.171875 37.8125 47.578125 
Q 36.03125 48 33.890625 48 
Q 26.265625 48 22.1875 43.046875 
Q 18.109375 38.09375 18.109375 28.8125 
L 18.109375 0 
L 9.078125 0 
L 9.078125 54.6875 
L 18.109375 54.6875 
L 18.109375 46.1875 
Q 20.953125 51.171875 25.484375 53.578125 
Q 30.03125 56 36.53125 56 
Q 37.453125 56 38.578125 55.875 
Q 39.703125 55.765625 41.0625 55.515625 
z
" id="DejaVuSans-72"/>
      <path d="M 14.796875 27.296875 
Q 14.796875 17.390625 18.875 11.75 
Q 22.953125 6.109375 30.078125 6.109375 
Q 37.203125 6.109375 41.296875 11.75 
Q 45.40625 17.390625 45.40625 27.296875 
Q 45.40625 37.203125 41.296875 42.84375 
Q 37.203125 48.484375 30.078125 48.484375 
Q 22.953125 48.484375 18.875 42.84375 
Q 14.796875 37.203125 14.796875 27.296875 
z
M 45.40625 8.203125 
Q 42.578125 3.328125 38.25 0.953125 
Q 33.9375 -1.421875 27.875 -1.421875 
Q 17.96875 -1.421875 11.734375 6.484375 
Q 5.515625 14.40625 5.515625 27.296875 
Q 5.515625 40.1875 11.734375 48.09375 
Q 17.96875 56 27.875 56 
Q 33.9375 56 38.25 53.625 
Q 42.578125 51.265625 45.40625 46.390625 
L 45.40625 54.6875 
L 54.390625 54.6875 
L 54.390625 -20.796875 
L 45.40625 -20.796875 
z
" id="DejaVuSans-71"/>
      <path d="M 54.890625 33.015625 
L 54.890625 0 
L 45.90625 0 
L 45.90625 32.71875 
Q 45.90625 40.484375 42.875 44.328125 
Q 39.84375 48.1875 33.796875 48.1875 
Q 26.515625 48.1875 22.3125 43.546875 
Q 18.109375 38.921875 18.109375 30.90625 
L 18.109375 0 
L 9.078125 0 
L 9.078125 54.6875 
L 18.109375 54.6875 
L 18.109375 46.1875 
Q 21.34375 51.125 25.703125 53.5625 
Q 30.078125 56 35.796875 56 
Q 45.21875 56 50.046875 50.171875 
Q 54.890625 44.34375 54.890625 33.015625 
z
" id="DejaVuSans-6e"/>
      <path d="M 48.78125 52.59375 
L 48.78125 44.1875 
Q 44.96875 46.296875 41.140625 47.34375 
Q 37.3125 48.390625 33.40625 48.390625 
Q 24.65625 48.390625 19.8125 42.84375 
Q 14.984375 37.3125 14.984375 27.296875 
Q 14.984375 17.28125 19.8125 11.734375 
Q 24.65625 6.203125 33.40625 6.203125 
Q 37.3125 6.203125 41.140625 7.25 
Q 44.96875 8.296875 48.78125 10.40625 
L 48.78125 2.09375 
Q 45.015625 0.34375 40.984375 -0.53125 
Q 36.96875 -1.421875 32.421875 -1.421875 
Q 20.0625 -1.421875 12.78125 6.34375 
Q 5.515625 14.109375 5.515625 27.296875 
Q 5.515625 40.671875 12.859375 48.328125 
Q 20.21875 56 33.015625 56 
Q 37.15625 56 41.109375 55.140625 
Q 45.0625 54.296875 48.78125 52.59375 
z
" id="DejaVuSans-63"/>
      <path d="M 32.171875 -5.078125 
Q 28.375 -14.84375 24.75 -17.8125 
Q 21.140625 -20.796875 15.09375 -20.796875 
L 7.90625 -20.796875 
L 7.90625 -13.28125 
L 13.1875 -13.28125 
Q 16.890625 -13.28125 18.9375 -11.515625 
Q 21 -9.765625 23.484375 -3.21875 
L 25.09375 0.875 
L 2.984375 54.6875 
L 12.5 54.6875 
L 29.59375 11.921875 
L 46.6875 54.6875 
L 56.203125 54.6875 
z
" id="DejaVuSans-79"/>
      <path d="M 53.609375 52.59375 
L 51.8125 43.703125 
Q 48.578125 46.046875 44.9375 47.21875 
Q 41.3125 48.390625 37.40625 48.390625 
Q 33.109375 48.390625 29.21875 46.875 
Q 25.34375 45.359375 22.703125 42.578125 
Q 18.5 38.328125 16.203125 32.609375 
Q 13.921875 26.90625 13.921875 20.796875 
Q 13.921875 13.421875 17.609375 9.8125 
Q 21.296875 6.203125 28.8125 6.203125 
Q 32.515625 6.203125 36.6875 7.328125 
Q 40.875 8.453125 45.40625 10.6875 
L 43.703125 1.8125 
Q 39.796875 0.203125 35.671875 -0.609375 
Q 31.546875 -1.421875 27.203125 -1.421875 
Q 16.3125 -1.421875 10.453125 4.015625 
Q 4.59375 9.46875 4.59375 19.578125 
Q 4.59375 28.078125 7.640625 35.234375 
Q 10.6875 42.390625 16.703125 48.09375 
Q 20.796875 52 26.3125 54 
Q 31.84375 56 38.375 56 
Q 42.1875 56 45.9375 55.140625 
Q 49.703125 54.296875 53.609375 52.59375 
z
" id="DejaVuSans-Oblique-63"/>
      <path d="M 89.796875 33.015625 
L 83.40625 0 
L 74.421875 0 
L 80.71875 32.71875 
Q 81.109375 34.8125 81.296875 36.328125 
Q 81.5 37.84375 81.5 38.921875 
Q 81.5 43.3125 79.046875 45.75 
Q 76.609375 48.1875 72.21875 48.1875 
Q 65.671875 48.1875 60.546875 43.28125 
Q 55.421875 38.375 53.90625 30.515625 
L 47.90625 0 
L 38.921875 0 
L 45.3125 32.71875 
Q 45.703125 34.515625 45.890625 36.046875 
Q 46.09375 37.59375 46.09375 38.8125 
Q 46.09375 43.265625 43.65625 45.71875 
Q 41.21875 48.1875 36.921875 48.1875 
Q 30.28125 48.1875 25.140625 43.28125 
Q 20.015625 38.375 18.5 30.515625 
L 12.5 0 
L 3.515625 0 
L 14.203125 54.6875 
L 23.1875 54.6875 
L 21.484375 46.1875 
Q 25.140625 50.984375 30.046875 53.484375 
Q 34.96875 56 40.578125 56 
Q 46.53125 56 50.359375 52.875 
Q 54.203125 49.75 54.984375 44.1875 
Q 59.078125 49.953125 64.46875 52.96875 
Q 69.875 56 75.875 56 
Q 82.90625 56 86.734375 51.953125 
Q 90.578125 47.90625 90.578125 40.484375 
Q 90.578125 38.875 90.375 36.9375 
Q 90.1875 35.015625 89.796875 33.015625 
z
" id="DejaVuSans-Oblique-6d"/>
      <path d="M 10.59375 35.5 
L 73.1875 35.5 
L 73.1875 27.203125 
L 10.59375 27.203125 
z
" id="DejaVuSans-2212"/>
     </defs>
     <g transform="translate(19.787708 198.49)rotate(-90)scale(0.16 -0.16)">
      <use transform="translate(0 0.684375)" xlink:href="#DejaVuSans-46"/>
      <use transform="translate(57.519531 0.684375)" xlink:href="#DejaVuSans-72"/>
      <use transform="translate(98.632812 0.684375)" xlink:href="#DejaVuSans-65"/>
      <use transform="translate(160.15625 0.684375)" xlink:href="#DejaVuSans-71"/>
      <use transform="translate(223.632812 0.684375)" xlink:href="#DejaVuSans-75"/>
      <use transform="translate(287.011719 0.684375)" xlink:href="#DejaVuSans-65"/>
      <use transform="translate(348.535156 0.684375)" xlink:href="#DejaVuSans-6e"/>
      <use transform="translate(411.914062 0.684375)" xlink:href="#DejaVuSans-63"/>
      <use transform="translate(466.894531 0.684375)" xlink:href="#DejaVuSans-79"/>
      <use transform="translate(526.074219 0.684375)" xlink:href="#DejaVuSans-20"/>
      <use transform="translate(557.861328 0.684375)" xlink:href="#DejaVuSans-5b"/>
      <use transform="translate(596.875 0.684375)" xlink:href="#DejaVuSans-Oblique-63"/>
      <use transform="translate(651.855469 0.684375)" xlink:href="#DejaVuSans-Oblique-6d"/>
      <use transform="translate(753.917474 38.965625)scale(0.7)" xlink:href="#DejaVuSans-2212"/>
      <use transform="translate(812.569818 38.965625)scale(0.7)" xlink:href="#DejaVuSans-31"/>
      <use transform="translate(859.840326 0.684375)" xlink:href="#DejaVuSans-5d"/>
     </g>
    </g>
   </g>
   <g id="patch_43">
    <path clip-path="url(#pea40415010)" d="M 66.72648 247.425354 
L 66.72648 247.425354 
L 70.396747 247.425354 
L 70.396747 247.425354 
L 66.72648 247.425354 
" style="fill:#c1946a;"/>
   </g>
   <g id="patch_44">
    <path clip-path="url(#pea40415010)" d="M 75.902147 247.425354 
L 75.902147 247.425354 
L 79.572414 247.425354 
L 79.572414 247.425354 
L 75.902147 247.425354 
" style="fill:#c1946a;"/>
   </g>
   <g id="patch_45">
    <path clip-path="url(#pea40415010)" d="M 85.077815 246.895442 
L 85.077815 247.425354 
L 88.748082 247.425354 
L 88.748082 246.895442 
L 85.077815 246.895442 
" style="fill:#c1946a;"/>
   </g>
   <g id="patch_46">
    <path clip-path="url(#pea40415010)" d="M 94.253483 244.010363 
L 94.253483 247.425354 
L 97.92375 247.425354 
L 97.92375 244.010363 
L 94.253483 244.010363 
" style="fill:#c1946a;"/>
   </g>
   <g id="patch_47">
    <path clip-path="url(#pea40415010)" d="M 103.42915 242.773901 
L 103.42915 247.425354 
L 107.099417 247.425354 
L 107.099417 242.773901 
L 103.42915 242.773901 
" style="fill:#c1946a;"/>
   </g>
   <g id="patch_48">
    <path clip-path="url(#pea40415010)" d="M 112.604818 236.238315 
L 112.604818 247.425354 
L 116.275085 247.425354 
L 116.275085 236.238315 
L 112.604818 236.238315 
" style="fill:#c1946a;"/>
   </g>
   <g id="patch_49">
    <path clip-path="url(#pea40415010)" d="M 121.780486 215.983885 
L 121.780486 247.425354 
L 125.450753 247.425354 
L 125.450753 215.983885 
L 121.780486 215.983885 
" style="fill:#c1946a;"/>
   </g>
   <g id="patch_50">
    <path clip-path="url(#pea40415010)" d="M 130.956154 200.557547 
L 130.956154 247.425354 
L 134.626421 247.425354 
L 134.626421 200.557547 
L 130.956154 200.557547 
" style="fill:#c1946a;"/>
   </g>
   <g id="patch_51">
    <path clip-path="url(#pea40415010)" d="M 140.131821 169.057199 
L 140.131821 247.425354 
L 143.802088 247.425354 
L 143.802088 169.057199 
L 140.131821 169.057199 
" style="fill:#c1946a;"/>
   </g>
   <g id="patch_52">
    <path clip-path="url(#pea40415010)" d="M 149.307489 149.097165 
L 149.307489 247.425354 
L 152.977756 247.425354 
L 152.977756 149.097165 
L 149.307489 149.097165 
" style="fill:#c1946a;"/>
   </g>
   <g id="patch_53">
    <path clip-path="url(#pea40415010)" d="M 158.483157 104.349007 
L 158.483157 247.425354 
L 162.153424 247.425354 
L 162.153424 104.349007 
L 158.483157 104.349007 
" style="fill:#c1946a;"/>
   </g>
   <g id="patch_54">
    <path clip-path="url(#pea40415010)" d="M 167.658824 76.322529 
L 167.658824 247.425354 
L 171.329091 247.425354 
L 171.329091 76.322529 
L 167.658824 76.322529 
" style="fill:#c1946a;"/>
   </g>
   <g id="patch_55">
    <path clip-path="url(#pea40415010)" d="M 176.834492 59.895244 
L 176.834492 247.425354 
L 180.504759 247.425354 
L 180.504759 59.895244 
L 176.834492 59.895244 
" style="fill:#c1946a;"/>
   </g>
   <g id="patch_56">
    <path clip-path="url(#pea40415010)" d="M 186.01016 36.402461 
L 186.01016 247.425354 
L 189.680427 247.425354 
L 189.680427 36.402461 
L 186.01016 36.402461 
" style="fill:#c1946a;"/>
   </g>
   <g id="patch_57">
    <path clip-path="url(#pea40415010)" d="M 195.185828 22.683618 
L 195.185828 247.425354 
L 198.856095 247.425354 
L 198.856095 22.683618 
L 195.185828 22.683618 
" style="fill:#c1946a;"/>
   </g>
   <g id="patch_58">
    <path clip-path="url(#pea40415010)" d="M 204.361495 35.931428 
L 204.361495 247.425354 
L 208.031762 247.425354 
L 208.031762 35.931428 
L 204.361495 35.931428 
" style="fill:#c1946a;"/>
   </g>
   <g id="patch_59">
    <path clip-path="url(#pea40415010)" d="M 213.537163 76.322529 
L 213.537163 247.425354 
L 217.20743 247.425354 
L 217.20743 76.322529 
L 213.537163 76.322529 
" style="fill:#c1946a;"/>
   </g>
   <g id="patch_60">
    <path clip-path="url(#pea40415010)" d="M 222.712831 94.33955 
L 222.712831 247.425354 
L 226.383098 247.425354 
L 226.383098 94.33955 
L 222.712831 94.33955 
" style="fill:#c1946a;"/>
   </g>
   <g id="patch_61">
    <path clip-path="url(#pea40415010)" d="M 231.888498 105.173315 
L 231.888498 247.425354 
L 235.558766 247.425354 
L 235.558766 105.173315 
L 231.888498 105.173315 
" style="fill:#c1946a;"/>
   </g>
   <g id="patch_62">
    <path clip-path="url(#pea40415010)" d="M 241.064166 135.437201 
L 241.064166 247.425354 
L 244.734433 247.425354 
L 244.734433 135.437201 
L 241.064166 135.437201 
" style="fill:#c1946a;"/>
   </g>
   <g id="patch_63">
    <path clip-path="url(#pea40415010)" d="M 250.239834 156.044905 
L 250.239834 247.425354 
L 253.910101 247.425354 
L 253.910101 156.044905 
L 250.239834 156.044905 
" style="fill:#c1946a;"/>
   </g>
   <g id="patch_64">
    <path clip-path="url(#pea40415010)" d="M 259.415502 179.066655 
L 259.415502 247.425354 
L 263.085769 247.425354 
L 263.085769 179.066655 
L 259.415502 179.066655 
" style="fill:#c1946a;"/>
   </g>
   <g id="patch_65">
    <path clip-path="url(#pea40415010)" d="M 268.591169 185.719999 
L 268.591169 247.425354 
L 272.261436 247.425354 
L 272.261436 185.719999 
L 268.591169 185.719999 
" style="fill:#c1946a;"/>
   </g>
   <g id="patch_66">
    <path clip-path="url(#pea40415010)" d="M 277.766837 208.565112 
L 277.766837 247.425354 
L 281.437104 247.425354 
L 281.437104 208.565112 
L 277.766837 208.565112 
" style="fill:#c1946a;"/>
   </g>
   <g id="patch_67">
    <path clip-path="url(#pea40415010)" d="M 286.942505 218.221293 
L 286.942505 247.425354 
L 290.612772 247.425354 
L 290.612772 218.221293 
L 286.942505 218.221293 
" style="fill:#c1946a;"/>
   </g>
   <g id="patch_68">
    <path clip-path="url(#pea40415010)" d="M 296.118172 217.455864 
L 296.118172 247.425354 
L 299.78844 247.425354 
L 299.78844 217.455864 
L 296.118172 217.455864 
" style="fill:#c1946a;"/>
   </g>
   <g id="patch_69">
    <path clip-path="url(#pea40415010)" d="M 305.29384 222.107318 
L 305.29384 247.425354 
L 308.964107 247.425354 
L 308.964107 222.107318 
L 305.29384 222.107318 
" style="fill:#c1946a;"/>
   </g>
   <g id="patch_70">
    <path clip-path="url(#pea40415010)" d="M 314.469508 230.821433 
L 314.469508 247.425354 
L 318.139775 247.425354 
L 318.139775 230.821433 
L 314.469508 230.821433 
" style="fill:#c1946a;"/>
   </g>
   <g id="patch_71">
    <path clip-path="url(#pea40415010)" d="M 323.645176 237.180381 
L 323.645176 247.425354 
L 327.315443 247.425354 
L 327.315443 237.180381 
L 323.645176 237.180381 
" style="fill:#c1946a;"/>
   </g>
   <g id="patch_72">
    <path clip-path="url(#pea40415010)" d="M 332.820843 238.475723 
L 332.820843 247.425354 
L 336.49111 247.425354 
L 336.49111 238.475723 
L 332.820843 238.475723 
" style="fill:#c1946a;"/>
   </g>
   <g id="patch_73">
    <path clip-path="url(#pea40415010)" d="M 341.996511 236.709348 
L 341.996511 247.425354 
L 345.666778 247.425354 
L 345.666778 236.709348 
L 341.996511 236.709348 
" style="fill:#c1946a;"/>
   </g>
   <g id="patch_74">
    <path clip-path="url(#pea40415010)" d="M 351.172179 240.830889 
L 351.172179 247.425354 
L 354.842446 247.425354 
L 354.842446 240.830889 
L 351.172179 240.830889 
" style="fill:#c1946a;"/>
   </g>
   <g id="patch_75">
    <path clip-path="url(#pea40415010)" d="M 360.347846 243.657088 
L 360.347846 247.425354 
L 364.018114 247.425354 
L 364.018114 243.657088 
L 360.347846 243.657088 
" style="fill:#c1946a;"/>
   </g>
   <g id="patch_76">
    <path clip-path="url(#pea40415010)" d="M 369.523514 243.480451 
L 369.523514 247.425354 
L 373.193781 247.425354 
L 373.193781 243.480451 
L 369.523514 243.480451 
" style="fill:#c1946a;"/>
   </g>
   <g id="patch_77">
    <path clip-path="url(#pea40415010)" d="M 378.699182 243.715968 
L 378.699182 247.425354 
L 382.369449 247.425354 
L 382.369449 243.715968 
L 378.699182 243.715968 
" style="fill:#c1946a;"/>
   </g>
   <g id="patch_78">
    <path clip-path="url(#pea40415010)" d="M 387.87485 245.541221 
L 387.87485 247.425354 
L 391.545117 247.425354 
L 391.545117 245.541221 
L 387.87485 245.541221 
" style="fill:#c1946a;"/>
   </g>
   <g id="patch_79">
    <path clip-path="url(#pea40415010)" d="M 397.050517 246.247771 
L 397.050517 247.425354 
L 400.720784 247.425354 
L 400.720784 246.247771 
L 397.050517 246.247771 
" style="fill:#c1946a;"/>
   </g>
   <g id="patch_80">
    <path clip-path="url(#pea40415010)" d="M 406.226185 245.953375 
L 406.226185 247.425354 
L 409.896452 247.425354 
L 409.896452 245.953375 
L 406.226185 245.953375 
" style="fill:#c1946a;"/>
   </g>
   <g id="patch_81">
    <path clip-path="url(#pea40415010)" d="M 415.401853 246.483288 
L 415.401853 247.425354 
L 419.07212 247.425354 
L 419.07212 246.483288 
L 415.401853 246.483288 
" style="fill:#c1946a;"/>
   </g>
   <g id="patch_82">
    <path clip-path="url(#pea40415010)" d="M 424.57752 247.307596 
L 424.57752 247.425354 
L 428.247788 247.425354 
L 428.247788 247.307596 
L 424.57752 247.307596 
" style="fill:#c1946a;"/>
   </g>
   <g id="patch_83">
    <path d="M 62.138646 247.425354 
L 62.138646 5.714646 
" style="fill:none;stroke:#000000;stroke-linecap:square;stroke-linejoin:miter;"/>
   </g>
   <g id="patch_84">
    <path d="M 62.138646 247.425354 
L 429.165354 247.425354 
" style="fill:none;stroke:#000000;stroke-linecap:square;stroke-linejoin:miter;"/>
   </g>
   <g id="legend_1">
    <g id="patch_85">
     <path d="M 380.809104 35.599646 
L 423.565354 35.599646 
Q 425.165354 35.599646 425.165354 33.999646 
L 425.165354 11.314646 
Q 425.165354 9.714646 423.565354 9.714646 
L 380.809104 9.714646 
Q 379.209104 9.714646 379.209104 11.314646 
L 379.209104 33.999646 
Q 379.209104 35.599646 380.809104 35.599646 
z
" style="fill:#ffffff;stroke:#000000;stroke-linejoin:miter;"/>
    </g>
    <g id="patch_86">
     <path d="M 382.409104 18.993396 
L 398.409104 18.993396 
L 398.409104 13.393396 
L 382.409104 13.393396 
z
" style="fill:#86af49;"/>
    </g>
    <g id="text_12">
     <!-- lig 1 -->
     <defs>
      <path d="M 9.421875 54.6875 
L 18.40625 54.6875 
L 18.40625 0 
L 9.421875 0 
z
M 9.421875 75.984375 
L 18.40625 75.984375 
L 18.40625 64.59375 
L 9.421875 64.59375 
z
" id="DejaVuSans-69"/>
      <path d="M 45.40625 27.984375 
Q 45.40625 37.75 41.375 43.109375 
Q 37.359375 48.484375 30.078125 48.484375 
Q 22.859375 48.484375 18.828125 43.109375 
Q 14.796875 37.75 14.796875 27.984375 
Q 14.796875 18.265625 18.828125 12.890625 
Q 22.859375 7.515625 30.078125 7.515625 
Q 37.359375 7.515625 41.375 12.890625 
Q 45.40625 18.265625 45.40625 27.984375 
z
M 54.390625 6.78125 
Q 54.390625 -7.171875 48.1875 -13.984375 
Q 42 -20.796875 29.203125 -20.796875 
Q 24.46875 -20.796875 20.265625 -20.09375 
Q 16.0625 -19.390625 12.109375 -17.921875 
L 12.109375 -9.1875 
Q 16.0625 -11.328125 19.921875 -12.34375 
Q 23.78125 -13.375 27.78125 -13.375 
Q 36.625 -13.375 41.015625 -8.765625 
Q 45.40625 -4.15625 45.40625 5.171875 
L 45.40625 9.625 
Q 42.625 4.78125 38.28125 2.390625 
Q 33.9375 0 27.875 0 
Q 17.828125 0 11.671875 7.65625 
Q 5.515625 15.328125 5.515625 27.984375 
Q 5.515625 40.671875 11.671875 48.328125 
Q 17.828125 56 27.875 56 
Q 33.9375 56 38.28125 53.609375 
Q 42.625 51.21875 45.40625 46.390625 
L 45.40625 54.6875 
L 54.390625 54.6875 
z
" id="DejaVuSans-67"/>
     </defs>
     <g transform="translate(404.809104 18.993396)scale(0.08 -0.08)">
      <use xlink:href="#DejaVuSans-6c"/>
      <use x="27.783203" xlink:href="#DejaVuSans-69"/>
      <use x="55.566406" xlink:href="#DejaVuSans-67"/>
      <use x="119.042969" xlink:href="#DejaVuSans-20"/>
      <use x="150.830078" xlink:href="#DejaVuSans-31"/>
     </g>
    </g>
    <g id="patch_87">
     <path d="M 382.409104 30.735896 
L 398.409104 30.735896 
L 398.409104 25.135896 
L 382.409104 25.135896 
z
" style="fill:#c1946a;"/>
    </g>
    <g id="text_13">
     <!-- lig 2 -->
     <g transform="translate(404.809104 30.735896)scale(0.08 -0.08)">
      <use xlink:href="#DejaVuSans-6c"/>
      <use x="27.783203" xlink:href="#DejaVuSans-69"/>
      <use x="55.566406" xlink:href="#DejaVuSans-67"/>
      <use x="119.042969" xlink:href="#DejaVuSans-20"/>
      <use x="150.830078" xlink:href="#DejaVuSans-32"/>
     </g>
    </g>
   </g>
  </g>
 </g>
 <defs>
  <clipPath id="pea40415010">
   <rect height="241.710709" width="367.026709" x="62.138646" y="5.714646"/>
  </clipPath>
 </defs>
</svg>
