<?xml version="1.0" encoding="utf-8" standalone="no"?>
<!DOCTYPE svg PUBLIC "-//W3C//DTD SVG 1.1//EN"
  "http://www.w3.org/Graphics/SVG/1.1/DTD/svg11.dtd">
<!-- Created with matplotlib (http://matplotlib.org/) -->
<svg height="288pt" version="1.1" viewBox="0 0 432 288" width="432pt" xmlns="http://www.w3.org/2000/svg" xmlns:xlink="http://www.w3.org/1999/xlink">
 <defs>
  <style type="text/css">
*{stroke-linecap:butt;stroke-linejoin:round;}
  </style>
 </defs>
 <g id="figure_1">
  <g id="patch_1">
   <path d="M 0 288 
L 432 288 
L 432 0 
L 0 0 
z
" style="fill:#ffffff;"/>
  </g>
  <g id="axes_1">
   <g id="patch_2">
    <path d="M 56.954646 247.425354 
L 429.165354 247.425354 
L 429.165354 5.714646 
L 56.954646 5.714646 
z
" style="fill:#ffffff;"/>
   </g>
   <g id="patch_3">
    <path clip-path="url(#pda141ee5a5)" d="M 57.885172 243.00789 
L 57.885172 247.425354 
L 61.60728 247.425354 
L 61.60728 243.00789 
L 57.885172 243.00789 
" style="fill:#0000ff;"/>
   </g>
   <g id="patch_4">
    <path clip-path="url(#pda141ee5a5)" d="M 67.19044 240.529801 
L 67.19044 247.425354 
L 70.912547 247.425354 
L 70.912547 240.529801 
L 67.19044 240.529801 
" style="fill:#0000ff;"/>
   </g>
   <g id="patch_5">
    <path clip-path="url(#pda141ee5a5)" d="M 76.495708 233.634247 
L 76.495708 247.425354 
L 80.217815 247.425354 
L 80.217815 233.634247 
L 76.495708 233.634247 
" style="fill:#0000ff;"/>
   </g>
   <g id="patch_6">
    <path clip-path="url(#pda141ee5a5)" d="M 85.800976 225.338034 
L 85.800976 247.425354 
L 89.523083 247.425354 
L 89.523083 225.338034 
L 85.800976 225.338034 
" style="fill:#0000ff;"/>
   </g>
   <g id="patch_7">
    <path clip-path="url(#pda141ee5a5)" d="M 95.106243 208.961093 
L 95.106243 247.425354 
L 98.82835 247.425354 
L 98.82835 208.961093 
L 95.106243 208.961093 
" style="fill:#0000ff;"/>
   </g>
   <g id="patch_8">
    <path clip-path="url(#pda141ee5a5)" d="M 104.411511 194.092556 
L 104.411511 247.425354 
L 108.133618 247.425354 
L 108.133618 194.092556 
L 104.411511 194.092556 
" style="fill:#0000ff;"/>
   </g>
   <g id="patch_9">
    <path clip-path="url(#pda141ee5a5)" d="M 113.716779 180.947906 
L 113.716779 247.425354 
L 117.438886 247.425354 
L 117.438886 180.947906 
L 113.716779 180.947906 
" style="fill:#0000ff;"/>
   </g>
   <g id="patch_10">
    <path clip-path="url(#pda141ee5a5)" d="M 123.022046 162.200619 
L 123.022046 247.425354 
L 126.744154 247.425354 
L 126.744154 162.200619 
L 123.022046 162.200619 
" style="fill:#0000ff;"/>
   </g>
   <g id="patch_11">
    <path clip-path="url(#pda141ee5a5)" d="M 132.327314 143.453332 
L 132.327314 247.425354 
L 136.049421 247.425354 
L 136.049421 143.453332 
L 132.327314 143.453332 
" style="fill:#0000ff;"/>
   </g>
   <g id="patch_12">
    <path clip-path="url(#pda141ee5a5)" d="M 141.632582 126.968649 
L 141.632582 247.425354 
L 145.354689 247.425354 
L 145.354689 126.968649 
L 141.632582 126.968649 
" style="fill:#0000ff;"/>
   </g>
   <g id="patch_13">
    <path clip-path="url(#pda141ee5a5)" d="M 150.93785 106.605217 
L 150.93785 247.425354 
L 154.659957 247.425354 
L 154.659957 106.605217 
L 150.93785 106.605217 
" style="fill:#0000ff;"/>
   </g>
   <g id="patch_14">
    <path clip-path="url(#pda141ee5a5)" d="M 160.243117 83.763695 
L 160.243117 247.425354 
L 163.965224 247.425354 
L 163.965224 83.763695 
L 160.243117 83.763695 
" style="fill:#0000ff;"/>
   </g>
   <g id="patch_15">
    <path clip-path="url(#pda141ee5a5)" d="M 169.548385 74.066823 
L 169.548385 247.425354 
L 173.270492 247.425354 
L 173.270492 74.066823 
L 169.548385 74.066823 
" style="fill:#0000ff;"/>
   </g>
   <g id="patch_16">
    <path clip-path="url(#pda141ee5a5)" d="M 178.853653 55.10405 
L 178.853653 247.425354 
L 182.57576 247.425354 
L 182.57576 55.10405 
L 178.853653 55.10405 
" style="fill:#0000ff;"/>
   </g>
   <g id="patch_17">
    <path clip-path="url(#pda141ee5a5)" d="M 188.15892 36.24902 
L 188.15892 247.425354 
L 191.881028 247.425354 
L 191.881028 36.24902 
L 188.15892 36.24902 
" style="fill:#0000ff;"/>
   </g>
   <g id="patch_18">
    <path clip-path="url(#pda141ee5a5)" d="M 197.464188 42.605858 
L 197.464188 247.425354 
L 201.186295 247.425354 
L 201.186295 42.605858 
L 197.464188 42.605858 
" style="fill:#0000ff;"/>
   </g>
   <g id="patch_19">
    <path clip-path="url(#pda141ee5a5)" d="M 206.769456 43.36006 
L 206.769456 247.425354 
L 210.491563 247.425354 
L 210.491563 43.36006 
L 206.769456 43.36006 
" style="fill:#0000ff;"/>
   </g>
   <g id="patch_20">
    <path clip-path="url(#pda141ee5a5)" d="M 216.074724 54.349848 
L 216.074724 247.425354 
L 219.796831 247.425354 
L 219.796831 54.349848 
L 216.074724 54.349848 
" style="fill:#0000ff;"/>
   </g>
   <g id="patch_21">
    <path clip-path="url(#pda141ee5a5)" d="M 225.379991 66.417068 
L 225.379991 247.425354 
L 229.102098 247.425354 
L 229.102098 66.417068 
L 225.379991 66.417068 
" style="fill:#0000ff;"/>
   </g>
   <g id="patch_22">
    <path clip-path="url(#pda141ee5a5)" d="M 234.685259 69.433872 
L 234.685259 247.425354 
L 238.407366 247.425354 
L 238.407366 69.433872 
L 234.685259 69.433872 
" style="fill:#0000ff;"/>
   </g>
   <g id="patch_23">
    <path clip-path="url(#pda141ee5a5)" d="M 243.990527 94.107026 
L 243.990527 247.425354 
L 247.712634 247.425354 
L 247.712634 94.107026 
L 243.990527 94.107026 
" style="fill:#0000ff;"/>
   </g>
   <g id="patch_24">
    <path clip-path="url(#pda141ee5a5)" d="M 253.295794 117.37952 
L 253.295794 247.425354 
L 257.017902 247.425354 
L 257.017902 117.37952 
L 253.295794 117.37952 
" style="fill:#0000ff;"/>
   </g>
   <g id="patch_25">
    <path clip-path="url(#pda141ee5a5)" d="M 262.601062 134.618404 
L 262.601062 247.425354 
L 266.323169 247.425354 
L 266.323169 134.618404 
L 262.601062 134.618404 
" style="fill:#0000ff;"/>
   </g>
   <g id="patch_26">
    <path clip-path="url(#pda141ee5a5)" d="M 271.90633 154.76635 
L 271.90633 247.425354 
L 275.628437 247.425354 
L 275.628437 154.76635 
L 271.90633 154.76635 
" style="fill:#0000ff;"/>
   </g>
   <g id="patch_27">
    <path clip-path="url(#pda141ee5a5)" d="M 281.211598 168.449715 
L 281.211598 247.425354 
L 284.933705 247.425354 
L 284.933705 168.449715 
L 281.211598 168.449715 
" style="fill:#0000ff;"/>
   </g>
   <g id="patch_28">
    <path clip-path="url(#pda141ee5a5)" d="M 290.516865 182.348566 
L 290.516865 247.425354 
L 294.238972 247.425354 
L 294.238972 182.348566 
L 290.516865 182.348566 
" style="fill:#0000ff;"/>
   </g>
   <g id="patch_29">
    <path clip-path="url(#pda141ee5a5)" d="M 299.822133 191.829952 
L 299.822133 247.425354 
L 303.54424 247.425354 
L 303.54424 191.829952 
L 299.822133 191.829952 
" style="fill:#0000ff;"/>
   </g>
   <g id="patch_30">
    <path clip-path="url(#pda141ee5a5)" d="M 309.127401 200.772623 
L 309.127401 247.425354 
L 312.849508 247.425354 
L 312.849508 200.772623 
L 309.127401 200.772623 
" style="fill:#0000ff;"/>
   </g>
   <g id="patch_31">
    <path clip-path="url(#pda141ee5a5)" d="M 318.432669 214.994703 
L 318.432669 247.425354 
L 322.154776 247.425354 
L 322.154776 214.994703 
L 318.432669 214.994703 
" style="fill:#0000ff;"/>
   </g>
   <g id="patch_32">
    <path clip-path="url(#pda141ee5a5)" d="M 327.737936 218.011508 
L 327.737936 247.425354 
L 331.460043 247.425354 
L 331.460043 218.011508 
L 327.737936 218.011508 
" style="fill:#0000ff;"/>
   </g>
   <g id="patch_33">
    <path clip-path="url(#pda141ee5a5)" d="M 337.043204 225.338034 
L 337.043204 247.425354 
L 340.765311 247.425354 
L 340.765311 225.338034 
L 337.043204 225.338034 
" style="fill:#0000ff;"/>
   </g>
   <g id="patch_34">
    <path clip-path="url(#pda141ee5a5)" d="M 346.348472 233.526504 
L 346.348472 247.425354 
L 350.070579 247.425354 
L 350.070579 233.526504 
L 346.348472 233.526504 
" style="fill:#0000ff;"/>
   </g>
   <g id="patch_35">
    <path clip-path="url(#pda141ee5a5)" d="M 355.653739 236.327822 
L 355.653739 247.425354 
L 359.375846 247.425354 
L 359.375846 236.327822 
L 355.653739 236.327822 
" style="fill:#0000ff;"/>
   </g>
   <g id="patch_36">
    <path clip-path="url(#pda141ee5a5)" d="M 364.959007 239.344627 
L 364.959007 247.425354 
L 368.681114 247.425354 
L 368.681114 239.344627 
L 364.959007 239.344627 
" style="fill:#0000ff;"/>
   </g>
   <g id="patch_37">
    <path clip-path="url(#pda141ee5a5)" d="M 374.264275 241.284002 
L 374.264275 247.425354 
L 377.986382 247.425354 
L 377.986382 241.284002 
L 374.264275 241.284002 
" style="fill:#0000ff;"/>
   </g>
   <g id="patch_38">
    <path clip-path="url(#pda141ee5a5)" d="M 383.569543 243.546605 
L 383.569543 247.425354 
L 387.29165 247.425354 
L 387.29165 243.546605 
L 383.569543 243.546605 
" style="fill:#0000ff;"/>
   </g>
   <g id="patch_39">
    <path clip-path="url(#pda141ee5a5)" d="M 392.87481 244.193063 
L 392.87481 247.425354 
L 396.596917 247.425354 
L 396.596917 244.193063 
L 392.87481 244.193063 
" style="fill:#0000ff;"/>
   </g>
   <g id="matplotlib.axis_1">
    <g id="xtick_1">
     <g id="line2d_1">
      <defs>
       <path d="M 0 0 
L 0 -3.5 
" id="md4a561b2ef" style="stroke:#000000;stroke-width:0.8;"/>
      </defs>
      <g>
       <use style="stroke:#000000;stroke-width:0.8;" x="126.744154" xlink:href="#md4a561b2ef" y="247.425354"/>
      </g>
     </g>
     <g id="text_1">
      <!-- 1000 -->
      <defs>
       <path d="M 12.40625 8.296875 
L 28.515625 8.296875 
L 28.515625 63.921875 
L 10.984375 60.40625 
L 10.984375 69.390625 
L 28.421875 72.90625 
L 38.28125 72.90625 
L 38.28125 8.296875 
L 54.390625 8.296875 
L 54.390625 0 
L 12.40625 0 
z
" id="DejaVuSans-31"/>
       <path d="M 31.78125 66.40625 
Q 24.171875 66.40625 20.328125 58.90625 
Q 16.5 51.421875 16.5 36.375 
Q 16.5 21.390625 20.328125 13.890625 
Q 24.171875 6.390625 31.78125 6.390625 
Q 39.453125 6.390625 43.28125 13.890625 
Q 47.125 21.390625 47.125 36.375 
Q 47.125 51.421875 43.28125 58.90625 
Q 39.453125 66.40625 31.78125 66.40625 
z
M 31.78125 74.21875 
Q 44.046875 74.21875 50.515625 64.515625 
Q 56.984375 54.828125 56.984375 36.375 
Q 56.984375 17.96875 50.515625 8.265625 
Q 44.046875 -1.421875 31.78125 -1.421875 
Q 19.53125 -1.421875 13.0625 8.265625 
Q 6.59375 17.96875 6.59375 36.375 
Q 6.59375 54.828125 13.0625 64.515625 
Q 19.53125 74.21875 31.78125 74.21875 
z
" id="DejaVuSans-30"/>
      </defs>
      <g transform="translate(112.746654 259.283636)scale(0.11 -0.11)">
       <use xlink:href="#DejaVuSans-31"/>
       <use x="63.623047" xlink:href="#DejaVuSans-30"/>
       <use x="127.246094" xlink:href="#DejaVuSans-30"/>
       <use x="190.869141" xlink:href="#DejaVuSans-30"/>
      </g>
     </g>
    </g>
    <g id="xtick_2">
     <g id="line2d_2">
      <g>
       <use style="stroke:#000000;stroke-width:0.8;" x="184.902077" xlink:href="#md4a561b2ef" y="247.425354"/>
      </g>
     </g>
     <g id="text_2">
      <!-- 1250 -->
      <defs>
       <path d="M 19.1875 8.296875 
L 53.609375 8.296875 
L 53.609375 0 
L 7.328125 0 
L 7.328125 8.296875 
Q 12.9375 14.109375 22.625 23.890625 
Q 32.328125 33.6875 34.8125 36.53125 
Q 39.546875 41.84375 41.421875 45.53125 
Q 43.3125 49.21875 43.3125 52.78125 
Q 43.3125 58.59375 39.234375 62.25 
Q 35.15625 65.921875 28.609375 65.921875 
Q 23.96875 65.921875 18.8125 64.3125 
Q 13.671875 62.703125 7.8125 59.421875 
L 7.8125 69.390625 
Q 13.765625 71.78125 18.9375 73 
Q 24.125 74.21875 28.421875 74.21875 
Q 39.75 74.21875 46.484375 68.546875 
Q 53.21875 62.890625 53.21875 53.421875 
Q 53.21875 48.921875 51.53125 44.890625 
Q 49.859375 40.875 45.40625 35.40625 
Q 44.1875 33.984375 37.640625 27.21875 
Q 31.109375 20.453125 19.1875 8.296875 
z
" id="DejaVuSans-32"/>
       <path d="M 10.796875 72.90625 
L 49.515625 72.90625 
L 49.515625 64.59375 
L 19.828125 64.59375 
L 19.828125 46.734375 
Q 21.96875 47.46875 24.109375 47.828125 
Q 26.265625 48.1875 28.421875 48.1875 
Q 40.625 48.1875 47.75 41.5 
Q 54.890625 34.8125 54.890625 23.390625 
Q 54.890625 11.625 47.5625 5.09375 
Q 40.234375 -1.421875 26.90625 -1.421875 
Q 22.3125 -1.421875 17.546875 -0.640625 
Q 12.796875 0.140625 7.71875 1.703125 
L 7.71875 11.625 
Q 12.109375 9.234375 16.796875 8.0625 
Q 21.484375 6.890625 26.703125 6.890625 
Q 35.15625 6.890625 40.078125 11.328125 
Q 45.015625 15.765625 45.015625 23.390625 
Q 45.015625 31 40.078125 35.4375 
Q 35.15625 39.890625 26.703125 39.890625 
Q 22.75 39.890625 18.8125 39.015625 
Q 14.890625 38.140625 10.796875 36.28125 
z
" id="DejaVuSans-35"/>
      </defs>
      <g transform="translate(170.904577 259.283636)scale(0.11 -0.11)">
       <use xlink:href="#DejaVuSans-31"/>
       <use x="63.623047" xlink:href="#DejaVuSans-32"/>
       <use x="127.246094" xlink:href="#DejaVuSans-35"/>
       <use x="190.869141" xlink:href="#DejaVuSans-30"/>
      </g>
     </g>
    </g>
    <g id="xtick_3">
     <g id="line2d_3">
      <g>
       <use style="stroke:#000000;stroke-width:0.8;" x="243.06" xlink:href="#md4a561b2ef" y="247.425354"/>
      </g>
     </g>
     <g id="text_3">
      <!-- 1500 -->
      <g transform="translate(229.0625 259.283636)scale(0.11 -0.11)">
       <use xlink:href="#DejaVuSans-31"/>
       <use x="63.623047" xlink:href="#DejaVuSans-35"/>
       <use x="127.246094" xlink:href="#DejaVuSans-30"/>
       <use x="190.869141" xlink:href="#DejaVuSans-30"/>
      </g>
     </g>
    </g>
    <g id="xtick_4">
     <g id="line2d_4">
      <g>
       <use style="stroke:#000000;stroke-width:0.8;" x="301.217923" xlink:href="#md4a561b2ef" y="247.425354"/>
      </g>
     </g>
     <g id="text_4">
      <!-- 1750 -->
      <defs>
       <path d="M 8.203125 72.90625 
L 55.078125 72.90625 
L 55.078125 68.703125 
L 28.609375 0 
L 18.3125 0 
L 43.21875 64.59375 
L 8.203125 64.59375 
z
" id="DejaVuSans-37"/>
      </defs>
      <g transform="translate(287.220423 259.283636)scale(0.11 -0.11)">
       <use xlink:href="#DejaVuSans-31"/>
       <use x="63.623047" xlink:href="#DejaVuSans-37"/>
       <use x="127.246094" xlink:href="#DejaVuSans-35"/>
       <use x="190.869141" xlink:href="#DejaVuSans-30"/>
      </g>
     </g>
    </g>
    <g id="xtick_5">
     <g id="line2d_5">
      <g>
       <use style="stroke:#000000;stroke-width:0.8;" x="359.375846" xlink:href="#md4a561b2ef" y="247.425354"/>
      </g>
     </g>
     <g id="text_5">
      <!-- 2000 -->
      <g transform="translate(345.378346 259.283636)scale(0.11 -0.11)">
       <use xlink:href="#DejaVuSans-32"/>
       <use x="63.623047" xlink:href="#DejaVuSans-30"/>
       <use x="127.246094" xlink:href="#DejaVuSans-30"/>
       <use x="190.869141" xlink:href="#DejaVuSans-30"/>
      </g>
     </g>
    </g>
    <g id="text_6">
     <!-- Volume $[\AA^3]$  -->
     <defs>
      <path d="M 28.609375 0 
L 0.78125 72.90625 
L 11.078125 72.90625 
L 34.1875 11.53125 
L 57.328125 72.90625 
L 67.578125 72.90625 
L 39.796875 0 
z
" id="DejaVuSans-56"/>
      <path d="M 30.609375 48.390625 
Q 23.390625 48.390625 19.1875 42.75 
Q 14.984375 37.109375 14.984375 27.296875 
Q 14.984375 17.484375 19.15625 11.84375 
Q 23.34375 6.203125 30.609375 6.203125 
Q 37.796875 6.203125 41.984375 11.859375 
Q 46.1875 17.53125 46.1875 27.296875 
Q 46.1875 37.015625 41.984375 42.703125 
Q 37.796875 48.390625 30.609375 48.390625 
z
M 30.609375 56 
Q 42.328125 56 49.015625 48.375 
Q 55.71875 40.765625 55.71875 27.296875 
Q 55.71875 13.875 49.015625 6.21875 
Q 42.328125 -1.421875 30.609375 -1.421875 
Q 18.84375 -1.421875 12.171875 6.21875 
Q 5.515625 13.875 5.515625 27.296875 
Q 5.515625 40.765625 12.171875 48.375 
Q 18.84375 56 30.609375 56 
z
" id="DejaVuSans-6f"/>
      <path d="M 9.421875 75.984375 
L 18.40625 75.984375 
L 18.40625 0 
L 9.421875 0 
z
" id="DejaVuSans-6c"/>
      <path d="M 8.5 21.578125 
L 8.5 54.6875 
L 17.484375 54.6875 
L 17.484375 21.921875 
Q 17.484375 14.15625 20.5 10.265625 
Q 23.53125 6.390625 29.59375 6.390625 
Q 36.859375 6.390625 41.078125 11.03125 
Q 45.3125 15.671875 45.3125 23.6875 
L 45.3125 54.6875 
L 54.296875 54.6875 
L 54.296875 0 
L 45.3125 0 
L 45.3125 8.40625 
Q 42.046875 3.421875 37.71875 1 
Q 33.40625 -1.421875 27.6875 -1.421875 
Q 18.265625 -1.421875 13.375 4.4375 
Q 8.5 10.296875 8.5 21.578125 
z
M 31.109375 56 
z
" id="DejaVuSans-75"/>
      <path d="M 52 44.1875 
Q 55.375 50.25 60.0625 53.125 
Q 64.75 56 71.09375 56 
Q 79.640625 56 84.28125 50.015625 
Q 88.921875 44.046875 88.921875 33.015625 
L 88.921875 0 
L 79.890625 0 
L 79.890625 32.71875 
Q 79.890625 40.578125 77.09375 44.375 
Q 74.3125 48.1875 68.609375 48.1875 
Q 61.625 48.1875 57.5625 43.546875 
Q 53.515625 38.921875 53.515625 30.90625 
L 53.515625 0 
L 44.484375 0 
L 44.484375 32.71875 
Q 44.484375 40.625 41.703125 44.40625 
Q 38.921875 48.1875 33.109375 48.1875 
Q 26.21875 48.1875 22.15625 43.53125 
Q 18.109375 38.875 18.109375 30.90625 
L 18.109375 0 
L 9.078125 0 
L 9.078125 54.6875 
L 18.109375 54.6875 
L 18.109375 46.1875 
Q 21.1875 51.21875 25.484375 53.609375 
Q 29.78125 56 35.6875 56 
Q 41.65625 56 45.828125 52.96875 
Q 50 49.953125 52 44.1875 
z
" id="DejaVuSans-6d"/>
      <path d="M 56.203125 29.59375 
L 56.203125 25.203125 
L 14.890625 25.203125 
Q 15.484375 15.921875 20.484375 11.0625 
Q 25.484375 6.203125 34.421875 6.203125 
Q 39.59375 6.203125 44.453125 7.46875 
Q 49.3125 8.734375 54.109375 11.28125 
L 54.109375 2.78125 
Q 49.265625 0.734375 44.1875 -0.34375 
Q 39.109375 -1.421875 33.890625 -1.421875 
Q 20.796875 -1.421875 13.15625 6.1875 
Q 5.515625 13.8125 5.515625 26.8125 
Q 5.515625 40.234375 12.765625 48.109375 
Q 20.015625 56 32.328125 56 
Q 43.359375 56 49.78125 48.890625 
Q 56.203125 41.796875 56.203125 29.59375 
z
M 47.21875 32.234375 
Q 47.125 39.59375 43.09375 43.984375 
Q 39.0625 48.390625 32.421875 48.390625 
Q 24.90625 48.390625 20.390625 44.140625 
Q 15.875 39.890625 15.1875 32.171875 
z
" id="DejaVuSans-65"/>
      <path id="DejaVuSans-20"/>
      <path d="M 8.59375 75.984375 
L 29.296875 75.984375 
L 29.296875 69 
L 17.578125 69 
L 17.578125 -6.203125 
L 29.296875 -6.203125 
L 29.296875 -13.1875 
L 8.59375 -13.1875 
z
" id="DejaVuSans-5b"/>
      <path d="M 49.8125 79.390625 
Q 49.8125 82.46875 47.625 84.640625 
Q 45.453125 86.8125 42.390625 86.8125 
Q 39.265625 86.8125 37.140625 84.6875 
Q 35.015625 82.5625 35.015625 79.390625 
Q 35.015625 76.3125 37.140625 74.15625 
Q 39.265625 72.015625 42.390625 72.015625 
Q 45.453125 72.015625 47.625 74.15625 
Q 49.8125 76.3125 49.8125 79.390625 
z
M 34.421875 68.703125 
Q 31.78125 70.515625 30.390625 73.265625 
Q 29 76.03125 29 79.390625 
Q 29 84.96875 32.90625 88.890625 
Q 36.8125 92.828125 42.390625 92.828125 
Q 47.953125 92.828125 51.875 88.890625 
Q 55.8125 84.96875 55.8125 79.390625 
Q 55.8125 75.53125 54.03125 72.546875 
Q 52.25 69.578125 48.875 67.828125 
L 61.53125 0 
L 51.21875 0 
L 48.1875 18.703125 
L 15.375 18.703125 
L 5.078125 0 
L -5.328125 0 
z
M 40.375 63.1875 
L 19.921875 26.90625 
L 46.6875 26.90625 
z
" id="DejaVuSans-Oblique-c5"/>
      <path d="M 40.578125 39.3125 
Q 47.65625 37.796875 51.625 33 
Q 55.609375 28.21875 55.609375 21.1875 
Q 55.609375 10.40625 48.1875 4.484375 
Q 40.765625 -1.421875 27.09375 -1.421875 
Q 22.515625 -1.421875 17.65625 -0.515625 
Q 12.796875 0.390625 7.625 2.203125 
L 7.625 11.71875 
Q 11.71875 9.328125 16.59375 8.109375 
Q 21.484375 6.890625 26.8125 6.890625 
Q 36.078125 6.890625 40.9375 10.546875 
Q 45.796875 14.203125 45.796875 21.1875 
Q 45.796875 27.640625 41.28125 31.265625 
Q 36.765625 34.90625 28.71875 34.90625 
L 20.21875 34.90625 
L 20.21875 43.015625 
L 29.109375 43.015625 
Q 36.375 43.015625 40.234375 45.921875 
Q 44.09375 48.828125 44.09375 54.296875 
Q 44.09375 59.90625 40.109375 62.90625 
Q 36.140625 65.921875 28.71875 65.921875 
Q 24.65625 65.921875 20.015625 65.03125 
Q 15.375 64.15625 9.8125 62.3125 
L 9.8125 71.09375 
Q 15.4375 72.65625 20.34375 73.4375 
Q 25.25 74.21875 29.59375 74.21875 
Q 40.828125 74.21875 47.359375 69.109375 
Q 53.90625 64.015625 53.90625 55.328125 
Q 53.90625 49.265625 50.4375 45.09375 
Q 46.96875 40.921875 40.578125 39.3125 
z
" id="DejaVuSans-33"/>
      <path d="M 30.421875 75.984375 
L 30.421875 -13.1875 
L 9.71875 -13.1875 
L 9.71875 -6.203125 
L 21.390625 -6.203125 
L 21.390625 69 
L 9.71875 69 
L 9.71875 75.984375 
z
" id="DejaVuSans-5d"/>
     </defs>
     <g transform="translate(191.3 279.363792)scale(0.16 -0.16)">
      <use transform="translate(0 0.171875)" xlink:href="#DejaVuSans-56"/>
      <use transform="translate(68.408203 0.171875)" xlink:href="#DejaVuSans-6f"/>
      <use transform="translate(129.589844 0.171875)" xlink:href="#DejaVuSans-6c"/>
      <use transform="translate(157.373047 0.171875)" xlink:href="#DejaVuSans-75"/>
      <use transform="translate(220.751953 0.171875)" xlink:href="#DejaVuSans-6d"/>
      <use transform="translate(318.164062 0.171875)" xlink:href="#DejaVuSans-65"/>
      <use transform="translate(379.6875 0.171875)" xlink:href="#DejaVuSans-20"/>
      <use transform="translate(411.474609 0.171875)" xlink:href="#DejaVuSans-5b"/>
      <use transform="translate(450.488281 0.171875)" xlink:href="#DejaVuSans-Oblique-c5"/>
      <use transform="translate(528.702318 38.453125)scale(0.7)" xlink:href="#DejaVuSans-33"/>
      <use transform="translate(575.972826 0.171875)" xlink:href="#DejaVuSans-5d"/>
      <use transform="translate(614.986497 0.171875)" xlink:href="#DejaVuSans-20"/>
     </g>
    </g>
   </g>
   <g id="matplotlib.axis_2">
    <g id="ytick_1">
     <g id="line2d_6">
      <defs>
       <path d="M 0 0 
L 3.5 0 
" id="ma0e73328d7" style="stroke:#000000;stroke-width:0.8;"/>
      </defs>
      <g>
       <use style="stroke:#000000;stroke-width:0.8;" x="56.954646" xlink:href="#ma0e73328d7" y="166.855118"/>
      </g>
     </g>
     <g id="text_7">
      <!-- 0.025 -->
      <defs>
       <path d="M 10.6875 12.40625 
L 21 12.40625 
L 21 0 
L 10.6875 0 
z
" id="DejaVuSans-2e"/>
      </defs>
      <g transform="translate(21.963708 171.034259)scale(0.11 -0.11)">
       <use xlink:href="#DejaVuSans-30"/>
       <use x="63.623047" xlink:href="#DejaVuSans-2e"/>
       <use x="95.410156" xlink:href="#DejaVuSans-30"/>
       <use x="159.033203" xlink:href="#DejaVuSans-32"/>
       <use x="222.65625" xlink:href="#DejaVuSans-35"/>
      </g>
     </g>
    </g>
    <g id="ytick_2">
     <g id="line2d_7">
      <g>
       <use style="stroke:#000000;stroke-width:0.8;" x="56.954646" xlink:href="#ma0e73328d7" y="86.284882"/>
      </g>
     </g>
     <g id="text_8">
      <!-- 0.050 -->
      <g transform="translate(21.963708 90.464023)scale(0.11 -0.11)">
       <use xlink:href="#DejaVuSans-30"/>
       <use x="63.623047" xlink:href="#DejaVuSans-2e"/>
       <use x="95.410156" xlink:href="#DejaVuSans-30"/>
       <use x="159.033203" xlink:href="#DejaVuSans-35"/>
       <use x="222.65625" xlink:href="#DejaVuSans-30"/>
      </g>
     </g>
    </g>
    <g id="ytick_3">
     <g id="line2d_8">
      <g>
       <use style="stroke:#000000;stroke-width:0.8;" x="56.954646" xlink:href="#ma0e73328d7" y="5.714646"/>
      </g>
     </g>
     <g id="text_9">
      <!-- 0.075 -->
      <g transform="translate(21.963708 9.893786)scale(0.11 -0.11)">
       <use xlink:href="#DejaVuSans-30"/>
       <use x="63.623047" xlink:href="#DejaVuSans-2e"/>
       <use x="95.410156" xlink:href="#DejaVuSans-30"/>
       <use x="159.033203" xlink:href="#DejaVuSans-37"/>
       <use x="222.65625" xlink:href="#DejaVuSans-35"/>
      </g>
     </g>
    </g>
    <g id="text_10">
     <!-- Density -->
     <defs>
      <path d="M 19.671875 64.796875 
L 19.671875 8.109375 
L 31.59375 8.109375 
Q 46.6875 8.109375 53.6875 14.9375 
Q 60.6875 21.78125 60.6875 36.53125 
Q 60.6875 51.171875 53.6875 57.984375 
Q 46.6875 64.796875 31.59375 64.796875 
z
M 9.8125 72.90625 
L 30.078125 72.90625 
Q 51.265625 72.90625 61.171875 64.09375 
Q 71.09375 55.28125 71.09375 36.53125 
Q 71.09375 17.671875 61.125 8.828125 
Q 51.171875 0 30.078125 0 
L 9.8125 0 
z
" id="DejaVuSans-44"/>
      <path d="M 54.890625 33.015625 
L 54.890625 0 
L 45.90625 0 
L 45.90625 32.71875 
Q 45.90625 40.484375 42.875 44.328125 
Q 39.84375 48.1875 33.796875 48.1875 
Q 26.515625 48.1875 22.3125 43.546875 
Q 18.109375 38.921875 18.109375 30.90625 
L 18.109375 0 
L 9.078125 0 
L 9.078125 54.6875 
L 18.109375 54.6875 
L 18.109375 46.1875 
Q 21.34375 51.125 25.703125 53.5625 
Q 30.078125 56 35.796875 56 
Q 45.21875 56 50.046875 50.171875 
Q 54.890625 44.34375 54.890625 33.015625 
z
" id="DejaVuSans-6e"/>
      <path d="M 44.28125 53.078125 
L 44.28125 44.578125 
Q 40.484375 46.53125 36.375 47.5 
Q 32.28125 48.484375 27.875 48.484375 
Q 21.1875 48.484375 17.84375 46.4375 
Q 14.5 44.390625 14.5 40.28125 
Q 14.5 37.15625 16.890625 35.375 
Q 19.28125 33.59375 26.515625 31.984375 
L 29.59375 31.296875 
Q 39.15625 29.25 43.1875 25.515625 
Q 47.21875 21.78125 47.21875 15.09375 
Q 47.21875 7.46875 41.1875 3.015625 
Q 35.15625 -1.421875 24.609375 -1.421875 
Q 20.21875 -1.421875 15.453125 -0.5625 
Q 10.6875 0.296875 5.421875 2 
L 5.421875 11.28125 
Q 10.40625 8.6875 15.234375 7.390625 
Q 20.0625 6.109375 24.8125 6.109375 
Q 31.15625 6.109375 34.5625 8.28125 
Q 37.984375 10.453125 37.984375 14.40625 
Q 37.984375 18.0625 35.515625 20.015625 
Q 33.0625 21.96875 24.703125 23.78125 
L 21.578125 24.515625 
Q 13.234375 26.265625 9.515625 29.90625 
Q 5.8125 33.546875 5.8125 39.890625 
Q 5.8125 47.609375 11.28125 51.796875 
Q 16.75 56 26.8125 56 
Q 31.78125 56 36.171875 55.265625 
Q 40.578125 54.546875 44.28125 53.078125 
z
" id="DejaVuSans-73"/>
      <path d="M 9.421875 54.6875 
L 18.40625 54.6875 
L 18.40625 0 
L 9.421875 0 
z
M 9.421875 75.984375 
L 18.40625 75.984375 
L 18.40625 64.59375 
L 9.421875 64.59375 
z
" id="DejaVuSans-69"/>
      <path d="M 18.3125 70.21875 
L 18.3125 54.6875 
L 36.8125 54.6875 
L 36.8125 47.703125 
L 18.3125 47.703125 
L 18.3125 18.015625 
Q 18.3125 11.328125 20.140625 9.421875 
Q 21.96875 7.515625 27.59375 7.515625 
L 36.8125 7.515625 
L 36.8125 0 
L 27.59375 0 
Q 17.1875 0 13.234375 3.875 
Q 9.28125 7.765625 9.28125 18.015625 
L 9.28125 47.703125 
L 2.6875 47.703125 
L 2.6875 54.6875 
L 9.28125 54.6875 
L 9.28125 70.21875 
z
" id="DejaVuSans-74"/>
      <path d="M 32.171875 -5.078125 
Q 28.375 -14.84375 24.75 -17.8125 
Q 21.140625 -20.796875 15.09375 -20.796875 
L 7.90625 -20.796875 
L 7.90625 -13.28125 
L 13.1875 -13.28125 
Q 16.890625 -13.28125 18.9375 -11.515625 
Q 21 -9.765625 23.484375 -3.21875 
L 25.09375 0.875 
L 2.984375 54.6875 
L 12.5 54.6875 
L 29.59375 11.921875 
L 46.6875 54.6875 
L 56.203125 54.6875 
z
" id="DejaVuSans-79"/>
     </defs>
     <g transform="translate(14.636208 156.98375)rotate(-90)scale(0.16 -0.16)">
      <use xlink:href="#DejaVuSans-44"/>
      <use x="77.001953" xlink:href="#DejaVuSans-65"/>
      <use x="138.525391" xlink:href="#DejaVuSans-6e"/>
      <use x="201.904297" xlink:href="#DejaVuSans-73"/>
      <use x="254.003906" xlink:href="#DejaVuSans-69"/>
      <use x="281.787109" xlink:href="#DejaVuSans-74"/>
      <use x="320.996094" xlink:href="#DejaVuSans-79"/>
     </g>
    </g>
   </g>
   <g id="patch_40">
    <path clip-path="url(#pda141ee5a5)" d="M 61.60728 247.425354 
L 61.60728 247.425354 
L 65.329387 247.425354 
L 65.329387 247.425354 
L 61.60728 247.425354 
" style="fill:#ff0000;"/>
   </g>
   <g id="patch_41">
    <path clip-path="url(#pda141ee5a5)" d="M 70.912547 247.209731 
L 70.912547 247.425354 
L 74.634654 247.425354 
L 74.634654 247.209731 
L 70.912547 247.209731 
" style="fill:#ff0000;"/>
   </g>
   <g id="patch_42">
    <path clip-path="url(#pda141ee5a5)" d="M 80.217815 245.808182 
L 80.217815 247.425354 
L 83.939922 247.425354 
L 83.939922 245.808182 
L 80.217815 245.808182 
" style="fill:#ff0000;"/>
   </g>
   <g id="patch_43">
    <path clip-path="url(#pda141ee5a5)" d="M 89.523083 242.573836 
L 89.523083 247.425354 
L 93.24519 247.425354 
L 93.24519 242.573836 
L 89.523083 242.573836 
" style="fill:#ff0000;"/>
   </g>
   <g id="patch_44">
    <path clip-path="url(#pda141ee5a5)" d="M 98.82835 235.566088 
L 98.82835 247.425354 
L 102.550457 247.425354 
L 102.550457 235.566088 
L 98.82835 235.566088 
" style="fill:#ff0000;"/>
   </g>
   <g id="patch_45">
    <path clip-path="url(#pda141ee5a5)" d="M 108.133618 224.353691 
L 108.133618 247.425354 
L 111.855725 247.425354 
L 111.855725 224.353691 
L 108.133618 224.353691 
" style="fill:#ff0000;"/>
   </g>
   <g id="patch_46">
    <path clip-path="url(#pda141ee5a5)" d="M 117.438886 198.478929 
L 117.438886 247.425354 
L 121.160993 247.425354 
L 121.160993 198.478929 
L 117.438886 198.478929 
" style="fill:#ff0000;"/>
   </g>
   <g id="patch_47">
    <path clip-path="url(#pda141ee5a5)" d="M 126.744154 172.604167 
L 126.744154 247.425354 
L 130.466261 247.425354 
L 130.466261 172.604167 
L 126.744154 172.604167 
" style="fill:#ff0000;"/>
   </g>
   <g id="patch_48">
    <path clip-path="url(#pda141ee5a5)" d="M 136.049421 144.788797 
L 136.049421 247.425354 
L 139.771528 247.425354 
L 139.771528 144.788797 
L 136.049421 144.788797 
" style="fill:#ff0000;"/>
   </g>
   <g id="patch_49">
    <path clip-path="url(#pda141ee5a5)" d="M 145.354689 119.129658 
L 145.354689 247.425354 
L 149.076796 247.425354 
L 149.076796 119.129658 
L 145.354689 119.129658 
" style="fill:#ff0000;"/>
   </g>
   <g id="patch_50">
    <path clip-path="url(#pda141ee5a5)" d="M 154.659957 85.276844 
L 154.659957 247.425354 
L 158.382064 247.425354 
L 158.382064 85.276844 
L 154.659957 85.276844 
" style="fill:#ff0000;"/>
   </g>
   <g id="patch_51">
    <path clip-path="url(#pda141ee5a5)" d="M 163.965224 77.298793 
L 163.965224 247.425354 
L 167.687331 247.425354 
L 167.687331 77.298793 
L 163.965224 77.298793 
" style="fill:#ff0000;"/>
   </g>
   <g id="patch_52">
    <path clip-path="url(#pda141ee5a5)" d="M 173.270492 58.53959 
L 173.270492 247.425354 
L 176.992599 247.425354 
L 176.992599 58.53959 
L 173.270492 58.53959 
" style="fill:#ff0000;"/>
   </g>
   <g id="patch_53">
    <path clip-path="url(#pda141ee5a5)" d="M 182.57576 53.364638 
L 182.57576 247.425354 
L 186.297867 247.425354 
L 186.297867 53.364638 
L 182.57576 53.364638 
" style="fill:#ff0000;"/>
   </g>
   <g id="patch_54">
    <path clip-path="url(#pda141ee5a5)" d="M 191.881028 47.11157 
L 191.881028 247.425354 
L 195.603135 247.425354 
L 195.603135 47.11157 
L 191.881028 47.11157 
" style="fill:#ff0000;"/>
   </g>
   <g id="patch_55">
    <path clip-path="url(#pda141ee5a5)" d="M 201.186295 47.974062 
L 201.186295 247.425354 
L 204.908402 247.425354 
L 204.908402 47.974062 
L 201.186295 47.974062 
" style="fill:#ff0000;"/>
   </g>
   <g id="patch_56">
    <path clip-path="url(#pda141ee5a5)" d="M 210.491563 62.636427 
L 210.491563 247.425354 
L 214.21367 247.425354 
L 214.21367 62.636427 
L 210.491563 62.636427 
" style="fill:#ff0000;"/>
   </g>
   <g id="patch_57">
    <path clip-path="url(#pda141ee5a5)" d="M 219.796831 65.008281 
L 219.796831 247.425354 
L 223.518938 247.425354 
L 223.518938 65.008281 
L 219.796831 65.008281 
" style="fill:#ff0000;"/>
   </g>
   <g id="patch_58">
    <path clip-path="url(#pda141ee5a5)" d="M 229.102098 72.016029 
L 229.102098 247.425354 
L 232.824206 247.425354 
L 232.824206 72.016029 
L 229.102098 72.016029 
" style="fill:#ff0000;"/>
   </g>
   <g id="patch_59">
    <path clip-path="url(#pda141ee5a5)" d="M 238.407366 88.619001 
L 238.407366 247.425354 
L 242.129473 247.425354 
L 242.129473 88.619001 
L 238.407366 88.619001 
" style="fill:#ff0000;"/>
   </g>
   <g id="patch_60">
    <path clip-path="url(#pda141ee5a5)" d="M 247.712634 104.467293 
L 247.712634 247.425354 
L 251.434741 247.425354 
L 251.434741 104.467293 
L 247.712634 104.467293 
" style="fill:#ff0000;"/>
   </g>
   <g id="patch_61">
    <path clip-path="url(#pda141ee5a5)" d="M 257.017902 132.713908 
L 257.017902 247.425354 
L 260.740009 247.425354 
L 260.740009 132.713908 
L 257.017902 132.713908 
" style="fill:#ff0000;"/>
   </g>
   <g id="patch_62">
    <path clip-path="url(#pda141ee5a5)" d="M 266.323169 137.888861 
L 266.323169 247.425354 
L 270.045276 247.425354 
L 270.045276 137.888861 
L 266.323169 137.888861 
" style="fill:#ff0000;"/>
   </g>
   <g id="patch_63">
    <path clip-path="url(#pda141ee5a5)" d="M 275.628437 152.551226 
L 275.628437 247.425354 
L 279.350544 247.425354 
L 279.350544 152.551226 
L 275.628437 152.551226 
" style="fill:#ff0000;"/>
   </g>
   <g id="patch_64">
    <path clip-path="url(#pda141ee5a5)" d="M 284.933705 163.979246 
L 284.933705 247.425354 
L 288.655812 247.425354 
L 288.655812 163.979246 
L 284.933705 163.979246 
" style="fill:#ff0000;"/>
   </g>
   <g id="patch_65">
    <path clip-path="url(#pda141ee5a5)" d="M 294.238972 169.046387 
L 294.238972 247.425354 
L 297.96108 247.425354 
L 297.96108 169.046387 
L 294.238972 169.046387 
" style="fill:#ff0000;"/>
   </g>
   <g id="patch_66">
    <path clip-path="url(#pda141ee5a5)" d="M 303.54424 167.321403 
L 303.54424 247.425354 
L 307.266347 247.425354 
L 307.266347 167.321403 
L 303.54424 167.321403 
" style="fill:#ff0000;"/>
   </g>
   <g id="patch_67">
    <path clip-path="url(#pda141ee5a5)" d="M 312.849508 184.463433 
L 312.849508 247.425354 
L 316.571615 247.425354 
L 316.571615 184.463433 
L 312.849508 184.463433 
" style="fill:#ff0000;"/>
   </g>
   <g id="patch_68">
    <path clip-path="url(#pda141ee5a5)" d="M 322.154776 191.255558 
L 322.154776 247.425354 
L 325.876883 247.425354 
L 325.876883 191.255558 
L 322.154776 191.255558 
" style="fill:#ff0000;"/>
   </g>
   <g id="patch_69">
    <path clip-path="url(#pda141ee5a5)" d="M 331.460043 199.772667 
L 331.460043 247.425354 
L 335.18215 247.425354 
L 335.18215 199.772667 
L 331.460043 199.772667 
" style="fill:#ff0000;"/>
   </g>
   <g id="patch_70">
    <path clip-path="url(#pda141ee5a5)" d="M 340.765311 210.553818 
L 340.765311 247.425354 
L 344.487418 247.425354 
L 344.487418 210.553818 
L 340.765311 210.553818 
" style="fill:#ff0000;"/>
   </g>
   <g id="patch_71">
    <path clip-path="url(#pda141ee5a5)" d="M 350.070579 217.022509 
L 350.070579 247.425354 
L 353.792686 247.425354 
L 353.792686 217.022509 
L 350.070579 217.022509 
" style="fill:#ff0000;"/>
   </g>
   <g id="patch_72">
    <path clip-path="url(#pda141ee5a5)" d="M 359.375846 222.736519 
L 359.375846 247.425354 
L 363.097954 247.425354 
L 363.097954 222.736519 
L 359.375846 222.736519 
" style="fill:#ff0000;"/>
   </g>
   <g id="patch_73">
    <path clip-path="url(#pda141ee5a5)" d="M 368.681114 230.175513 
L 368.681114 247.425354 
L 372.403221 247.425354 
L 372.403221 230.175513 
L 368.681114 230.175513 
" style="fill:#ff0000;"/>
   </g>
   <g id="patch_74">
    <path clip-path="url(#pda141ee5a5)" d="M 377.986382 234.703596 
L 377.986382 247.425354 
L 381.708489 247.425354 
L 381.708489 234.703596 
L 377.986382 234.703596 
" style="fill:#ff0000;"/>
   </g>
   <g id="patch_75">
    <path clip-path="url(#pda141ee5a5)" d="M 387.29165 236.752015 
L 387.29165 247.425354 
L 391.013757 247.425354 
L 391.013757 236.752015 
L 387.29165 236.752015 
" style="fill:#ff0000;"/>
   </g>
   <g id="patch_76">
    <path clip-path="url(#pda141ee5a5)" d="M 396.596917 240.741041 
L 396.596917 247.425354 
L 400.319024 247.425354 
L 400.319024 240.741041 
L 396.596917 240.741041 
" style="fill:#ff0000;"/>
   </g>
   <g id="patch_77">
    <path d="M 56.954646 247.425354 
L 56.954646 5.714646 
" style="fill:none;stroke:#000000;stroke-linecap:square;stroke-linejoin:miter;"/>
   </g>
   <g id="patch_78">
    <path d="M 56.954646 247.425354 
L 429.165354 247.425354 
" style="fill:none;stroke:#000000;stroke-linecap:square;stroke-linejoin:miter;"/>
   </g>
   <g id="legend_1">
    <g id="patch_79">
     <path d="M 376.994104 35.599646 
L 423.565354 35.599646 
Q 425.165354 35.599646 425.165354 33.999646 
L 425.165354 11.314646 
Q 425.165354 9.714646 423.565354 9.714646 
L 376.994104 9.714646 
Q 375.394104 9.714646 375.394104 11.314646 
L 375.394104 33.999646 
Q 375.394104 35.599646 376.994104 35.599646 
z
" style="fill:#ffffff;stroke:#000000;stroke-linejoin:miter;"/>
    </g>
    <g id="patch_80">
     <path d="M 378.594104 18.993396 
L 394.594104 18.993396 
L 394.594104 13.393396 
L 378.594104 13.393396 
z
" style="fill:#0000ff;"/>
    </g>
    <g id="text_11">
     <!-- 4UET -->
     <defs>
      <path d="M 37.796875 64.3125 
L 12.890625 25.390625 
L 37.796875 25.390625 
z
M 35.203125 72.90625 
L 47.609375 72.90625 
L 47.609375 25.390625 
L 58.015625 25.390625 
L 58.015625 17.1875 
L 47.609375 17.1875 
L 47.609375 0 
L 37.796875 0 
L 37.796875 17.1875 
L 4.890625 17.1875 
L 4.890625 26.703125 
z
" id="DejaVuSans-34"/>
      <path d="M 8.6875 72.90625 
L 18.609375 72.90625 
L 18.609375 28.609375 
Q 18.609375 16.890625 22.84375 11.734375 
Q 27.09375 6.59375 36.625 6.59375 
Q 46.09375 6.59375 50.34375 11.734375 
Q 54.59375 16.890625 54.59375 28.609375 
L 54.59375 72.90625 
L 64.5 72.90625 
L 64.5 27.390625 
Q 64.5 13.140625 57.4375 5.859375 
Q 50.390625 -1.421875 36.625 -1.421875 
Q 22.796875 -1.421875 15.734375 5.859375 
Q 8.6875 13.140625 8.6875 27.390625 
z
" id="DejaVuSans-55"/>
      <path d="M 9.8125 72.90625 
L 55.90625 72.90625 
L 55.90625 64.59375 
L 19.671875 64.59375 
L 19.671875 43.015625 
L 54.390625 43.015625 
L 54.390625 34.71875 
L 19.671875 34.71875 
L 19.671875 8.296875 
L 56.78125 8.296875 
L 56.78125 0 
L 9.8125 0 
z
" id="DejaVuSans-45"/>
      <path d="M -0.296875 72.90625 
L 61.375 72.90625 
L 61.375 64.59375 
L 35.5 64.59375 
L 35.5 0 
L 25.59375 0 
L 25.59375 64.59375 
L -0.296875 64.59375 
z
" id="DejaVuSans-54"/>
     </defs>
     <g transform="translate(400.994104 18.993396)scale(0.08 -0.08)">
      <use xlink:href="#DejaVuSans-34"/>
      <use x="63.623047" xlink:href="#DejaVuSans-55"/>
      <use x="136.816406" xlink:href="#DejaVuSans-45"/>
      <use x="200" xlink:href="#DejaVuSans-54"/>
     </g>
    </g>
    <g id="patch_81">
     <path d="M 378.594104 30.735896 
L 394.594104 30.735896 
L 394.594104 25.135896 
L 378.594104 25.135896 
z
" style="fill:#ff0000;"/>
    </g>
    <g id="text_12">
     <!-- 4XCP -->
     <defs>
      <path d="M 6.296875 72.90625 
L 16.890625 72.90625 
L 35.015625 45.796875 
L 53.21875 72.90625 
L 63.8125 72.90625 
L 40.375 37.890625 
L 65.375 0 
L 54.78125 0 
L 34.28125 31 
L 13.625 0 
L 2.984375 0 
L 29 38.921875 
z
" id="DejaVuSans-58"/>
      <path d="M 64.40625 67.28125 
L 64.40625 56.890625 
Q 59.421875 61.53125 53.78125 63.8125 
Q 48.140625 66.109375 41.796875 66.109375 
Q 29.296875 66.109375 22.65625 58.46875 
Q 16.015625 50.828125 16.015625 36.375 
Q 16.015625 21.96875 22.65625 14.328125 
Q 29.296875 6.6875 41.796875 6.6875 
Q 48.140625 6.6875 53.78125 8.984375 
Q 59.421875 11.28125 64.40625 15.921875 
L 64.40625 5.609375 
Q 59.234375 2.09375 53.4375 0.328125 
Q 47.65625 -1.421875 41.21875 -1.421875 
Q 24.65625 -1.421875 15.125 8.703125 
Q 5.609375 18.84375 5.609375 36.375 
Q 5.609375 53.953125 15.125 64.078125 
Q 24.65625 74.21875 41.21875 74.21875 
Q 47.75 74.21875 53.53125 72.484375 
Q 59.328125 70.75 64.40625 67.28125 
z
" id="DejaVuSans-43"/>
      <path d="M 19.671875 64.796875 
L 19.671875 37.40625 
L 32.078125 37.40625 
Q 38.96875 37.40625 42.71875 40.96875 
Q 46.484375 44.53125 46.484375 51.125 
Q 46.484375 57.671875 42.71875 61.234375 
Q 38.96875 64.796875 32.078125 64.796875 
z
M 9.8125 72.90625 
L 32.078125 72.90625 
Q 44.34375 72.90625 50.609375 67.359375 
Q 56.890625 61.8125 56.890625 51.125 
Q 56.890625 40.328125 50.609375 34.8125 
Q 44.34375 29.296875 32.078125 29.296875 
L 19.671875 29.296875 
L 19.671875 0 
L 9.8125 0 
z
" id="DejaVuSans-50"/>
     </defs>
     <g transform="translate(400.994104 30.735896)scale(0.08 -0.08)">
      <use xlink:href="#DejaVuSans-34"/>
      <use x="63.623047" xlink:href="#DejaVuSans-58"/>
      <use x="132.019531" xlink:href="#DejaVuSans-43"/>
      <use x="201.84375" xlink:href="#DejaVuSans-50"/>
     </g>
    </g>
   </g>
  </g>
 </g>
 <defs>
  <clipPath id="pda141ee5a5">
   <rect height="241.710709" width="372.210709" x="56.954646" y="5.714646"/>
  </clipPath>
 </defs>
</svg>
